<?xml version="1.0" encoding="UTF-8" standalone="no"?>
<svg
   xmlns:dc="http://purl.org/dc/elements/1.1/"
   xmlns:cc="http://creativecommons.org/ns#"
   xmlns:rdf="http://www.w3.org/1999/02/22-rdf-syntax-ns#"
   xmlns:svg="http://www.w3.org/2000/svg"
   xmlns="http://www.w3.org/2000/svg"
   id="svg5595"
   xml:space="preserve"
   enable-background="new 0 0 1280 800"
   viewBox="0 0 1280 634.32849"
   y="0px"
   x="0px"
   version="1.1"><metadata
     id="metadata6189"><rdf:RDF><cc:Work
         rdf:about=""><dc:format>image/svg+xml</dc:format><dc:type
           rdf:resource="http://purl.org/dc/dcmitype/StillImage" /><dc:title></dc:title></cc:Work></rdf:RDF></metadata><defs
     id="defs6187" /><g
     transform="translate(4.0531158e-7,-165.67155)"
     id="Layer_1"><g
       id="g5598"><rect
         style="fill:#ffffff"
         id="rect5600"
         height="416.20001"
         width="1278.2"
         y="383.79999"
         x="2" /></g><g
       id="g5602"><rect
         style="fill:#091f2f"
         y="0"
         id="rect5604"
         height="729"
         width="1278.2"
         x="2" /></g><g
       id="g5606"><rect
         style="fill:#091f2f"
         y="0"
         id="rect5608"
         height="730.70001"
         width="1278"
         x="2" /></g><g
       id="g5610"><g
         id="g5612"><rect
           style="fill:#ffffff"
           id="rect5614"
           height="133.8"
           width="282"
           y="594.40002"
           x="412.89999" /></g><g
         id="g5616"><path
           style="fill:#091f2f"
           id="path5618"
           d="m 696.4,729.7 -285,0 0,-136.8 285,0 0,136.8 z m -282,-3 279,0 0,-130.8 -279,0 0,130.8 z" /></g></g><g
       id="g5620"><g
         id="g5622"><polygon
           style="fill:#ffffff"
           id="polygon5624"
           points="413.1,594 550.2,497.4 695,594 " /></g><g
         id="g5626"><path
           style="fill:#091f2f"
           id="path5628"
           d="m 699.9,596 -291.5,0 141.8,-99.9 0.9,0.6 148.8,99.3 z M 417.8,593 690,593 550.2,499.7 417.8,593 Z" /></g></g><g
       id="g5630"><g
         id="g5632"><rect
           style="fill:#ffffff"
           id="rect5634"
           height="140.3"
           width="208.39999"
           y="587.90002"
           x="141.10001" /></g><g
         id="g5636"><path
           style="fill:#091f2f"
           id="path5638"
           d="m 351,729.7 -211.4,0 0,-143.3 211.4,0 0,143.3 z m -208.4,-3 205.4,0 0,-137.3 -205.4,0 0,137.3 z" /></g></g><g
       id="g5640"><g
         id="g5642"><rect
           style="fill:#ffffff"
           id="rect5644"
           height="55.299999"
           width="62.299999"
           y="394"
           x="522.09998" /></g><g
         id="g5646"><path
           style="fill:#091f2f"
           id="path5648"
           d="m 586,450.7 -65.3,0 0,-58.3 65.3,0 0,58.3 z m -62.4,-3 59.4,0 0,-52.3 -59.3,0 0,52.3 z" /></g></g><g
       id="g5650"><g
         id="g5652"><rect
           style="fill:#ffffff"
           id="rect5654"
           height="55.299999"
           width="71.5"
           y="449"
           x="517.29999" /></g><g
         id="g5656"><path
           style="fill:#091f2f"
           id="path5658"
           d="m 590.3,505.8 -74.5,0 0,-58.3 74.5,0 0,58.3 z m -71.5,-3 68.5,0 0,-52.3 -68.5,0 0,52.3 z" /></g></g><g
       id="g5660"><g
         id="g5662"><rect
           style="fill:#ffffff"
           id="rect5664"
           height="81.300003"
           width="116.9"
           y="481.70001"
           x="494.20001" /></g><g
         id="g5666"><path
           style="fill:#091f2f"
           id="path5668"
           d="m 612.6,564.5 -119.9,0 0,-84.3 119.9,0 0,84.3 z m -116.9,-3 113.9,0 0,-78.3 -113.9,0 0,78.3 z" /></g></g><g
       id="g5670"><g
         id="g5672"><rect
           style="fill:#ffffff"
           id="rect5674"
           height="81.300003"
           width="116.9"
           y="563"
           x="494.20001" /></g><g
         id="g5676"><path
           style="fill:#091f2f"
           id="path5678"
           d="m 612.6,645.8 -119.9,0 0,-84.3 119.9,0 0,84.3 z m -116.9,-3 113.9,0 0,-78.3 -113.9,0 0,78.3 z" /></g></g><g
       id="g5680"><g
         id="g5682"><rect
           style="fill:#ffffff"
           id="rect5684"
           height="83.900002"
           width="116.9"
           y="644.29999"
           x="494.20001" /></g><g
         id="g5686"><path
           style="fill:#091f2f"
           id="path5688"
           d="m 612.6,729.7 -119.9,0 0,-86.9 119.9,0 0,86.9 z m -116.9,-3 113.9,0 0,-80.9 -113.9,0 0,80.9 z" /></g></g><g
       id="g5690"><g
         id="g5692"><polygon
           style="fill:#ffffff"
           id="polygon5694"
           points="145,552.3 345.8,552.3 366.2,594 124.6,594 " /></g><g
         id="g5696"><path
           style="fill:#091f2f"
           id="path5698"
           d="m 368.6,595.5 -246.4,0 21.8,-44.8 202.7,0 21.9,44.8 z m -241.6,-3 236.8,0 -18.9,-38.8 -199,0 -18.9,38.8 z" /></g></g><g
       id="g5700"><g
         id="g5702"><polygon
           style="fill:#ffffff"
           id="polygon5704"
           points="503.9,432.5 503.9,429.5 512.8,481.9 494.9,481.9 " /></g><g
         id="g5706"><path
           style="fill:#091f2f"
           id="path5708"
           d="m 514.6,483.4 -21.5,0 9.3,-51 0,-2.9 3,-0.3 9.2,54.2 z m -17.9,-3 14.3,0 -7,-40.6 -7.3,40.6 z" /></g></g><g
       id="g5710"><g
         id="g5712"><polygon
           style="fill:#ffffff"
           id="polygon5714"
           points="602.1,432.5 602.1,429.5 611.1,481.9 593.2,481.9 " /></g><g
         id="g5716"><path
           style="fill:#091f2f"
           id="path5718"
           d="m 612.9,483.4 -21.5,0 9.3,-51 0,-2.9 3,-0.3 9.2,54.2 z m -17.9,-3 14.3,0 -7,-40.6 -7.3,40.6 z" /></g></g><g
       id="g5720"><g
         id="g5722"><polygon
           style="fill:#ffffff"
           id="polygon5724"
           points="526.6,372.2 526.6,369.2 530.9,393.7 522.4,393.7 " /></g><g
         id="g5726"><path
           style="fill:#091f2f"
           id="path5728"
           d="m 532.6,395.2 -12,0 4.5,-23.2 0,-2.9 3,-0.3 4.5,26.4 z m -8.3,-3 4.8,0 -2.2,-13.1 -2.6,13.1 z" /></g></g><g
       id="g5730"><g
         id="g5732"><polygon
           style="fill:#ffffff"
           id="polygon5734"
           points="579.9,372.2 579.9,369.2 584.1,393.7 575.7,393.7 " /></g><g
         id="g5736"><path
           style="fill:#091f2f"
           id="path5738"
           d="m 585.9,395.2 -12,0 4.5,-23.2 0,-2.9 3,-0.3 4.5,26.4 z m -8.4,-3 4.8,0 -2.2,-13.1 -2.6,13.1 z" /></g></g><g
       id="g5740"><g
         id="g5742"><polygon
           style="fill:#ffffff"
           id="polygon5744"
           points="553.1,239 553.1,239 570.7,338.9 535.4,338.9 " /></g><g
         id="g5746"><path
           style="fill:#091f2f"
           id="path5748"
           d="m 572.5,340.4 -38.8,0 19.4,-110 19.4,110 z m -35.3,-3 31.7,0 -15.8,-89.8 -15.9,89.8 z" /></g></g><g
       id="g5750"><g
         id="g5752"><rect
           style="fill:#ffffff"
           id="rect5754"
           height="26.5"
           width="18.299999"
           y="536"
           x="302.70001" /></g><g
         id="g5756"><path
           style="fill:#091f2f"
           id="path5758"
           d="m 322.5,563.9 -21.3,0 0,-29.5 21.3,0 0,29.5 z m -18.3,-3 15.3,0 0,-23.5 -15.3,0 0,23.5 z" /></g></g><g
       id="g5760"><g
         id="g5762"><rect
           style="fill:#ffffff"
           id="rect5764"
           height="55"
           width="39"
           y="673.20001"
           x="163.5" /></g><g
         id="g5766"><path
           style="fill:#091f2f"
           id="path5768"
           d="m 204,729.7 -42,0 0,-58 42,0 0,58 z m -39,-3 36,0 0,-52 -36,0 0,52 z" /></g></g><g
       id="g5770"><g
         id="g5772"><rect
           style="fill:#ffffff"
           id="rect5774"
           height="37.200001"
           width="39"
           y="613.79999"
           x="164.3" /></g><g
         id="g5776"><path
           style="fill:#091f2f"
           id="path5778"
           d="m 204.8,652.5 -42,0 0,-40.2 42,0 0,40.2 z m -39,-3 36,0 0,-34.2 -36,0 0,34.2 z" /></g></g><g
       id="g5780"><g
         id="g5782"><rect
           style="fill:#ffffff"
           id="rect5784"
           height="13.4"
           width="14"
           y="625.70001"
           x="176.8" /></g><g
         id="g5786"><path
           style="fill:#091f2f"
           id="path5788"
           d="m 192.3,640.6 -17,0 0,-16.4 17,0 0,16.4 z m -14,-3 11,0 0,-10.4 -11,0 0,10.4 z" /></g></g><g
       id="g5790"><g
         id="g5792"><rect
           style="fill:#ffffff"
           id="rect5794"
           height="37.200001"
           width="39"
           y="613.79999"
           x="226.3" /></g><g
         id="g5796"><path
           style="fill:#091f2f"
           id="path5798"
           d="m 266.8,652.5 -42,0 0,-40.2 42,0 0,40.2 z m -39,-3 36,0 0,-34.2 -36,0 0,34.2 z" /></g></g><g
       id="g5800"><g
         id="g5802"><rect
           style="fill:#ffffff"
           id="rect5804"
           height="13.4"
           width="14"
           y="625.70001"
           x="238.8" /></g><g
         id="g5806"><path
           style="fill:#091f2f"
           id="path5808"
           d="m 254.3,640.6 -17,0 0,-16.4 17,0 0,16.4 z m -14,-3 11,0 0,-10.4 -11,0 0,10.4 z" /></g></g><g
       id="g5810"><g
         id="g5812"><rect
           style="fill:#ffffff"
           id="rect5814"
           height="37.200001"
           width="39"
           y="613.79999"
           x="287.39999" /></g><g
         id="g5816"><path
           style="fill:#091f2f"
           id="path5818"
           d="m 327.9,652.5 -42,0 0,-40.2 42,0 0,40.2 z m -39,-3 36,0 0,-34.2 -36,0 0,34.2 z" /></g></g><g
       id="g5820"><g
         id="g5822"><rect
           style="fill:#ffffff"
           id="rect5824"
           height="13.4"
           width="14"
           y="625.70001"
           x="299.89999" /></g><g
         id="g5826"><path
           style="fill:#091f2f"
           id="path5828"
           d="m 315.4,640.6 -17,0 0,-16.4 17,0 0,16.4 z m -14,-3 11,0 0,-10.4 -11,0 0,10.4 z" /></g></g><g
       id="g5830"><g
         id="g5832"><rect
           style="fill:#ffffff"
           id="rect5834"
           height="37.200001"
           width="39"
           y="673.5"
           x="226.3" /></g><g
         id="g5836"><path
           style="fill:#091f2f"
           id="path5838"
           d="m 266.8,712.2 -42,0 0,-40.2 42,0 0,40.2 z m -39,-3 36,0 0,-34.2 -36,0 0,34.2 z" /></g></g><g
       id="g5840"><g
         id="g5842"><rect
           style="fill:#ffffff"
           id="rect5844"
           height="13.4"
           width="14"
           y="685.40002"
           x="238.8" /></g><g
         id="g5846"><path
           style="fill:#091f2f"
           id="path5848"
           d="m 254.3,700.2 -17,0 0,-16.4 17,0 0,16.4 z m -14,-3 11,0 0,-10.4 -11,0 0,10.4 z" /></g></g><g
       id="g5850"><g
         id="g5852"><rect
           style="fill:#ffffff"
           id="rect5854"
           height="37.200001"
           width="39"
           y="673.5"
           x="287.39999" /></g><g
         id="g5856"><path
           style="fill:#091f2f"
           id="path5858"
           d="m 327.9,712.2 -42,0 0,-40.2 42,0 0,40.2 z m -39,-3 36,0 0,-34.2 -36,0 0,34.2 z" /></g></g><g
       id="g5860"><g
         id="g5862"><rect
           style="fill:#ffffff"
           id="rect5864"
           height="13.4"
           width="14"
           y="685.40002"
           x="299.89999" /></g><g
         id="g5866"><path
           style="fill:#091f2f"
           id="path5868"
           d="m 315.4,700.2 -17,0 0,-16.4 17,0 0,16.4 z m -14,-3 11,0 0,-10.4 -11,0 0,10.4 z" /></g></g><g
       id="g5870"><g
         id="g5872"><rect
           style="fill:#ffffff"
           id="rect5874"
           height="140.3"
           width="84.199997"
           y="587.90002"
           x="-3.5" /></g><g
         id="g5876"><path
           style="fill:#091f2f"
           id="path5878"
           d="m 82.2,729.7 -87.2,0 0,-143.3 87.2,0 0,143.3 z m -84.2,-3 81.2,0 0,-137.3 -81.2,0 0,137.3 z" /></g></g><g
       id="g5880"><g
         id="g5882"><polygon
           style="fill:#ffffff"
           id="polygon5884"
           points="77,552.3 -5.8,552.3 -5.8,594 97.4,594 " /></g><g
         id="g5886"><path
           style="fill:#091f2f"
           id="path5888"
           d="m 99.8,595.5 -107.1,0 0,-44.8 85.2,0 21.9,44.8 z m -104.1,-3 99.3,0 -19,-38.7 -80.3,0 0,38.7 z" /></g></g><g
       id="g5890"><g
         id="g5892"><rect
           style="fill:#ffffff"
           id="rect5894"
           height="26.5"
           width="18.299999"
           y="536"
           x="33.799999" /></g><g
         id="g5896"><path
           style="fill:#091f2f"
           id="path5898"
           d="m 53.7,563.9 -21.4,0 0,-29.5 21.3,0 0,29.5 z m -18.4,-3 15.3,0 0,-23.5 -15.3,0 0,23.5 z" /></g></g><g
       id="g5900"><g
         id="g5902"><rect
           style="fill:#ffffff"
           id="rect5904"
           height="37.200001"
           width="39"
           y="613.79999"
           x="18.5" /></g><g
         id="g5906"><path
           style="fill:#091f2f"
           id="path5908"
           d="m 59.1,652.5 -42.1,0 0,-40.2 42,0 0,40.2 z m -39.1,-3 36,0 0,-34.2 -36,0 0,34.2 z" /></g></g><g
       id="g5910"><g
         id="g5912"><rect
           style="fill:#ffffff"
           id="rect5914"
           height="13.4"
           width="14"
           y="625.70001"
           x="31" /></g><g
         id="g5916"><path
           style="fill:#091f2f"
           id="path5918"
           d="m 46.6,640.6 -17,0 0,-16.4 17,0 0,16.4 z m -14.1,-3 11,0 0,-10.4 -11,0 0,10.4 z" /></g></g><g
       id="g5920"><g
         id="g5922"><rect
           style="fill:#ffffff"
           id="rect5924"
           height="37.200001"
           width="39"
           y="673.5"
           x="18.5" /></g><g
         id="g5926"><path
           style="fill:#091f2f"
           id="path5928"
           d="m 59.1,712.2 -42.1,0 0,-40.2 42,0 0,40.2 z m -39.1,-3 36,0 0,-34.2 -36,0 0,34.2 z" /></g></g><g
       id="g5930"><g
         id="g5932"><rect
           style="fill:#ffffff"
           id="rect5934"
           height="13.4"
           width="14"
           y="685.40002"
           x="31" /></g><g
         id="g5936"><path
           style="fill:#091f2f"
           id="path5938"
           d="m 46.6,700.2 -17,0 0,-16.4 17,0 0,16.4 z m -14.1,-3 11,0 0,-10.4 -11,0 0,10.4 z" /></g></g><g
       id="g5940"><g
         id="g5942"><path
           style="fill:#ffffff"
           id="path5944"
           d="m 572.7,442.1 -14.3,0 0,-32.1 c 0,0 0.4,-6.5 7.2,-6.5 6.8,0 7.2,6.5 7.2,6.5 l 0,32.1 z" /><path
           style="fill:#091f2f"
           id="path5946"
           d="m 574.2,443.6 -17.3,0 0,-33.6 c 0.2,-2.8 2.2,-8 8.7,-8 6.5,0 8.5,5.2 8.7,7.9 l -0.1,33.7 z m -14.3,-3 11.3,0 0,-30.5 c -0.1,-0.7 -0.7,-5.1 -5.7,-5.1 -5.3,0 -5.7,4.9 -5.7,5.1 l 0.1,30.5 z" /></g><g
         id="g5948"><path
           style="fill:#ffffff"
           id="path5950"
           d="m 548.5,442.1 -14.3,0 0,-32.1 c 0,0 0.4,-6.5 7.2,-6.5 6.8,0 7.2,6.5 7.2,6.5 l 0,32.1 z" /><path
           style="fill:#091f2f"
           id="path5952"
           d="m 550,443.6 -17.3,0 0,-33.6 c 0.2,-2.8 2.2,-8 8.7,-8 6.5,0 8.5,5.2 8.7,7.9 l -0.1,33.7 z m -14.4,-3 11.4,0 0,-30.5 c -0.1,-0.7 -0.7,-5.1 -5.7,-5.1 -5.3,0 -5.7,4.9 -5.7,5.1 l 0,30.5 z" /></g></g><g
       id="g5954"><g
         id="g5956"><rect
           style="fill:#ffffff"
           id="rect5958"
           height="55.299999"
           width="38.5"
           y="338.60001"
           x="534.09998" /></g><g
         id="g5960"><path
           style="fill:#091f2f"
           id="path5962"
           d="m 574.2,395.4 -41.5,0 0,-58.3 41.5,0 0,58.3 z m -38.6,-3 35.5,0 0,-52.3 -35.5,0 0,52.3 z" /></g></g><g
       id="g5964"><g
         id="g5966"><path
           style="fill:#ffffff"
           id="path5968"
           d="m 560.2,386.8 -14.3,0 0,-32.1 c 0,0 0.4,-6.5 7.2,-6.5 6.8,0 7.2,6.5 7.2,6.5 l 0,32.1 z" /><path
           style="fill:#091f2f"
           id="path5970"
           d="m 561.7,388.3 -17.3,0 0,-33.6 c 0.2,-2.8 2.2,-8 8.7,-8 6.5,0 8.5,5.2 8.7,7.9 l -0.1,33.7 z m -14.3,-3 11.3,0 0,-30.5 c -0.1,-0.7 -0.7,-5.1 -5.7,-5.1 -5.3,0 -5.7,4.9 -5.7,5.1 l 0.1,30.5 z" /></g></g><g
       id="g5972"><g
         id="g5974"><path
           style="fill:#ffffff"
           id="path5976"
           d="m 566.2,544.5 -30,0 0,-34.2 c 0,0 0.9,-9.6 15,-9.6 14.1,0 15,9.6 15,9.6 l 0,34.2 z" /><path
           style="fill:#091f2f"
           id="path5978"
           d="m 567.7,546 -33,0 0,-35.8 c 0,-0.1 1.2,-10.9 16.5,-10.9 7.9,0 11.9,2.9 14,5.3 2.3,2.7 2.5,5.5 2.6,5.6 l 0,0.1 0,35.7 z m -30,-3 27,0 0,-32.6 c -0.1,-0.8 -1.4,-8.2 -13.5,-8.2 -12.1,0 -13.4,7.5 -13.5,8.2 l 0,32.6 z" /></g></g><g
       id="g5980"><g
         id="g5982"><path
           style="fill:#ffffff"
           id="path5984"
           d="m 566.2,625.5 -30,0 0,-34.2 c 0,0 0.9,-9.6 15,-9.6 14.1,0 15,9.6 15,9.6 l 0,34.2 z" /><path
           style="fill:#091f2f"
           id="path5986"
           d="m 567.7,627 -33,0 0,-35.8 c 0,-0.1 1.2,-10.9 16.5,-10.9 7.9,0 11.9,2.9 14,5.3 2.3,2.7 2.5,5.5 2.6,5.6 l 0,0.1 0,35.7 z m -30,-3 27,0 0,-32.6 c -0.1,-0.8 -1.4,-8.2 -13.5,-8.2 -12.1,0 -13.4,7.3 -13.5,8.2 l 0,32.6 z" /></g></g><g
       id="g5988"><g
         id="g5990"><path
           style="fill:#ffffff"
           id="path5992"
           d="m 662.1,652.1 -22.5,0 0,-25.6 c 0,0 0.7,-7.2 11.3,-7.2 10.6,0 11.3,7.2 11.3,7.2 l 0,25.6 z" /><path
           style="fill:#091f2f"
           id="path5994"
           d="m 663.6,653.6 -25.5,0 0,-27.3 c 0,-0.1 0.9,-8.5 12.8,-8.5 6.1,0 9.2,2.2 10.8,4.1 1.7,2.1 2,4.2 2,4.4 l 0,0.1 0,27.2 z m -22.5,-3 19.5,0 0,-24 c -0.1,-0.6 -1.1,-5.8 -9.8,-5.8 -8.6,0 -9.7,5.1 -9.8,5.8 l 0,24 z" /></g></g><g
       id="g5996"><g
         id="g5998"><path
           style="fill:#ffffff"
           id="path6000"
           d="m 662.1,702.8 -22.5,0 0,-25.6 c 0,0 0.7,-7.2 11.3,-7.2 10.6,0 11.3,7.2 11.3,7.2 l 0,25.6 z" /><path
           style="fill:#091f2f"
           id="path6002"
           d="m 663.6,704.3 -25.5,0 0,-27.3 c 0,-0.1 0.9,-8.5 12.8,-8.5 6.1,0 9.2,2.2 10.8,4.1 1.7,2.1 2,4.2 2,4.4 l 0,0.1 0,27.2 z m -22.5,-3 19.5,0 0,-24 c -0.1,-0.6 -1.1,-5.8 -9.8,-5.8 -8.7,0 -9.7,5.2 -9.8,5.8 l 0,24 z" /></g></g><g
       id="g6004"><g
         id="g6006"><path
           style="fill:#ffffff"
           id="path6008"
           d="m 463.1,652.1 -22.5,0 0,-25.6 c 0,0 0.7,-7.2 11.3,-7.2 10.6,0 11.3,7.2 11.3,7.2 l 0,25.6 z" /><path
           style="fill:#091f2f"
           id="path6010"
           d="m 464.6,653.6 -25.5,0 0,-27.3 c 0,-0.1 0.9,-8.5 12.8,-8.5 6.1,0 9.2,2.2 10.8,4.1 1.7,2.1 2,4.2 2,4.4 l 0,0.1 0,27.2 z m -22.5,-3 19.5,0 0,-24 c -0.1,-0.6 -1.1,-5.8 -9.8,-5.8 -8.7,0 -9.7,5.2 -9.8,5.8 l 0,24 z" /></g></g><g
       id="g6012"><g
         id="g6014"><path
           style="fill:#ffffff"
           id="path6016"
           d="m 463.1,702.8 -22.5,0 0,-25.6 c 0,0 0.7,-7.2 11.3,-7.2 10.6,0 11.3,7.2 11.3,7.2 l 0,25.6 z" /><path
           style="fill:#091f2f"
           id="path6018"
           d="m 464.6,704.3 -25.5,0 0,-27.3 c 0,-0.1 0.9,-8.5 12.8,-8.5 6.1,0 9.2,2.2 10.8,4.1 1.7,2.1 2,4.2 2,4.4 l 0,0.1 0,27.2 z m -22.5,-3 19.5,0 0,-24 c -0.1,-0.6 -1.1,-5.8 -9.8,-5.8 -8.6,0 -9.7,5.1 -9.8,5.8 l 0,24 z" /></g></g><g
       id="g6020"><g
         id="g6022"><path
           style="fill:#ffffff"
           id="path6024"
           d="m 566.2,728.2 -30,0 0,-35.8 c 0,0 0.9,-9.6 15,-9.6 14.1,0 15,9.6 15,9.6 l 0,35.8 z" /><path
           style="fill:#091f2f"
           id="path6026"
           d="m 567.7,729.7 -33,0 0,-37.4 c 0,-0.1 1.2,-10.9 16.5,-10.9 7.9,0 11.9,2.9 14,5.3 2.3,2.7 2.5,5.5 2.6,5.6 l 0,0.1 0,37.3 z m -30,-3 27,0 0,-34.2 c -0.1,-0.8 -1.4,-8.2 -13.5,-8.2 -12.1,0 -13.4,7.4 -13.5,8.2 l 0,34.2 z" /></g></g><g
       id="g6028"><g
         id="g6030"><path
           style="fill:#ffffff"
           id="path6032"
           d="m 1140.5,166.4 c -4.6,0 -9,0.9 -13,2.5 12.7,5.2 21.6,17.6 21.6,32.1 0,14.5 -8.9,26.9 -21.6,32.1 4,1.6 8.4,2.5 13,2.5 19.1,0 34.7,-15.5 34.7,-34.7 0,-19 -15.5,-34.5 -34.7,-34.5 z" /><path
           style="fill:#091f2f"
           id="path6034"
           d="m 1140.5,237.2 c -4.7,0 -9.3,-0.9 -13.6,-2.7 l -3.4,-1.4 3.4,-1.4 c 12.6,-5.1 20.7,-17.2 20.7,-30.7 0,-13.5 -8.1,-25.6 -20.7,-30.7 l -3.4,-1.4 3.4,-1.4 c 4.3,-1.8 8.9,-2.7 13.6,-2.7 19.9,0 36.2,16.2 36.2,36.2 0,20 -16.2,36.2 -36.2,36.2 z m -9,-4.2 c 2.9,0.8 6,1.3 9.1,1.3 18.3,0 33.2,-14.9 33.2,-33.2 0,-18.3 -14.9,-33.2 -33.2,-33.2 -3.1,0 -6.1,0.4 -9.1,1.3 11.7,6.2 19.1,18.4 19.1,31.9 0,13.5 -7.4,25.6 -19.1,31.9 z" /></g></g><g
       id="g6036"><g
         id="g6038"><path
           style="fill:#ffffff"
           id="path6040"
           d="m 1188.5,490.3 c -0.2,-0.6 -0.4,-1.3 -0.7,-1.9 -4.9,-11.5 -17.8,-16.6 -29,-11.4 -11.2,5.2 -16.2,18.7 -11.4,30.2 0.3,0.6 0.6,1.2 0.9,1.8 l 40.2,-18.7 z" /></g><g
         id="g6042"><path
           style="fill:#091f2f"
           id="path6044"
           d="m 1147.7,511 -0.7,-1.3 c -0.4,-0.7 -0.7,-1.3 -0.9,-1.9 -5.2,-12.2 0.3,-26.6 12.1,-32.1 3.1,-1.4 6.4,-2.2 9.7,-2.2 9.2,0 17.6,5.6 21.3,14.3 0.3,0.6 0.5,1.3 0.7,2 l 0.4,1.3 -42.6,19.9 z m 20.2,-34.5 c -2.9,0 -5.8,0.6 -8.5,1.9 -10.4,4.9 -15.2,17.5 -10.6,28.2 0.1,0.1 0.1,0.3 0.2,0.4 l 37.6,-17.5 c -0.1,-0.2 -0.1,-0.3 -0.2,-0.5 -3.2,-7.6 -10.5,-12.5 -18.5,-12.5 z" /></g></g><g
       id="g6046"><g
         id="g6048"><g
           id="g6050"><path
             style="fill:#ffffff"
             id="path6052"
             d="m 1167,485 c 0.5,1 0.7,2.2 0.5,3.4 -0.5,2.9 -3.2,4.9 -6,4.3 -1.8,-0.3 -3.1,-1.5 -3.8,-3.1 -11.6,7.1 -14,18.5 -19.9,25.4 l 63,-29.6 c -9.5,-1.8 -20.1,-5.8 -33.8,-0.4 z" /></g><g
           id="g6054"><path
             style="fill:#091f2f"
             id="path6056"
             d="m 1132.1,519.4 4.5,-5.3 c 1.9,-2.2 3.4,-5 5.1,-8 3.4,-6 7.2,-12.9 15.1,-17.7 l 1.5,-0.9 0.7,1.6 c 0.5,1.2 1.5,2 2.7,2.2 2,0.4 3.9,-1.1 4.3,-3.1 0.2,-0.9 0,-1.7 -0.3,-2.5 l -0.7,-1.5 1.5,-0.6 c 4.9,-1.9 9.7,-2.8 14.8,-2.8 5.7,0 10.9,1.2 15.5,2.3 1.5,0.3 2.9,0.7 4.3,1 l 4.5,0.9 -73.5,34.4 z m 25,-27.6 c -6.5,4.4 -9.8,10.4 -12.8,15.8 -0.7,1.3 -1.4,2.5 -2.1,3.8 l 54,-25.3 c 0,0 -0.1,0 -0.1,0 -4.7,-1.1 -9.5,-2.2 -14.8,-2.2 -4.2,0 -8.3,0.7 -12.3,2.1 0.2,0.9 0.2,1.9 0.1,2.8 -0.6,3.3 -3.4,5.6 -6.6,5.6 -0.4,0 -0.8,0 -1.2,-0.1 -1.8,-0.3 -3.2,-1.2 -4.2,-2.5 z" /></g></g></g><g
       id="g6058"><path
         style="fill:#ffffff"
         id="path6060"
         d="m 1278,504 -3,0 0,-3 3,0 0,3 z m -8,0 -3,0 0,-3 3,0 0,3 z m -8,0 -3,0 0,-3 3,0 0,3 z m -8,0 -3,0 0,-3 3,0 0,3 z m -8,0 -3,0 0,-3 3,0 0,3 z m -8,0 -3,0 0,-3 3,0 0,3 z m -8,0 -3,0 0,-3 3,0 0,3 z m -8,0 -3,0 0,-3 3,0 0,3 z m -8,0 -3,0 0,-3 3,0 0,3 z m -8,0 -3,0 0,-3 3,0 0,3 z" /></g><g
       id="g6062"><path
         style="fill:#ffffff"
         id="path6064"
         d="m 1277,490 -3,0 0,-3 3,0 0,3 z m -8,0 -3,0 0,-3 3,0 0,3 z m -8,0 -3,0 0,-3 3,0 0,3 z m -8,0 -3,0 0,-3 3,0 0,3 z m -8,0 -3,0 0,-3 3,0 0,3 z" /></g><g
       id="g6066"><path
         style="fill:#ffffff"
         id="path6068"
         d="m 1276,477 -3,0 0,-3 3,0 0,3 z m -8,0 -3,0 0,-3 3,0 0,3 z m -8,0 -3,0 0,-3 3,0 0,3 z m -8,0 -3,0 0,-3 3,0 0,3 z m -8,0 -3,0 0,-3 3,0 0,3 z m -8,0 -3,0 0,-3 3,0 0,3 z m -8,0 -3,0 0,-3 3,0 0,3 z m -8,0 -3,0 0,-3 3,0 0,3 z" /></g><g
       id="g6070"><path
         style="fill:#091f2f"
         id="path6072"
         d="m 1135,777 -3,0 0,-3 3,0 0,3 z m -8,0 -3,0 0,-3 3,0 0,3 z m -8,0 -3,0 0,-3 3,0 0,3 z m -8,0 -3,0 0,-3 3,0 0,3 z m -8,0 -3,0 0,-3 3,0 0,3 z m -8,0 -3,0 0,-3 3,0 0,3 z m -8,0 -3,0 0,-3 3,0 0,3 z m -8,0 -3,0 0,-3 3,0 0,3 z m -8,0 -3,0 0,-3 3,0 0,3 z m -8,0 -3,0 0,-3 3,0 0,3 z m -8,0 -3,0 0,-3 3,0 0,3 z m -8,0 -3,0 0,-3 3,0 0,3 z m -8,0 -3,0 0,-3 3,0 0,3 z" /></g><g
       id="g6074"><path
         style="fill:#091f2f"
         id="path6076"
         d="m 1119,763 -3,0 0,-3 3,0 0,3 z m -8,0 -3,0 0,-3 3,0 0,3 z m -8,0 -3,0 0,-3 3,0 0,3 z m -8,0 -3,0 0,-3 3,0 0,3 z m -8,0 -3,0 0,-3 3,0 0,3 z m -8,0 -3,0 0,-3 3,0 0,3 z m -8,0 -3,0 0,-3 3,0 0,3 z m -8,0 -3,0 0,-3 3,0 0,3 z m -8,0 -3,0 0,-3 3,0 0,3 z m -8,0 -3,0 0,-3 3,0 0,3 z m -8,0 -3,0 0,-3 3,0 0,3 z m -8,0 -3,0 0,-3 3,0 0,3 z m -8,0 -3,0 0,-3 3,0 0,3 z" /></g><g
       id="g6078"><path
         style="fill:#091f2f"
         id="path6080"
         d="m 1130,750 -3,0 0,-3 3,0 0,3 z m -8,0 -3,0 0,-3 3,0 0,3 z m -8,0 -3,0 0,-3 3,0 0,3 z m -8,0 -3,0 0,-3 3,0 0,3 z m -8,0 -3,0 0,-3 3,0 0,3 z m -8,0 -3,0 0,-3 3,0 0,3 z m -8,0 -3,0 0,-3 3,0 0,3 z m -8,0 -3,0 0,-3 3,0 0,3 z m -8,0 -3,0 0,-3 3,0 0,3 z m -8,0 -3,0 0,-3 3,0 0,3 z m -8,0 -3,0 0,-3 3,0 0,3 z m -8,0 -3,0 0,-3 3,0 0,3 z m -8,0 -3,0 0,-3 3,0 0,3 z" /></g></g><g
     transform="translate(4.0531158e-7,-165.67155)"
     id="Layer_2"><g
       id="g6083"><path
         style="fill:#ffffff"
         id="path6085"
         d="m 1075.9,621.6 -2.1,-2.1 c 8.2,-8.1 27,-14.6 47.8,-16.6 18.8,-1.8 48.1,-1.1 81.5,12.9 l -1.2,2.8 c -57.4,-24.1 -111.8,-11.1 -126,3 z" /></g><g
       id="g6087"><path
         style="fill:#ffffff"
         id="path6089"
         d="m 1098.9,624.6 -2.1,-2.1 c 8.2,-8.1 27,-14.6 47.8,-16.6 18.8,-1.8 48.1,-1.1 81.5,12.9 l -1.2,2.8 c -57.4,-24.1 -111.8,-11.1 -126,3 z" /></g><g
       id="g6091"><path
         style="fill:#ffffff"
         id="path6093"
         d="m 1051.2,624.8 -2.4,-1.8 c 6.7,-9 24,-17.2 45.2,-21.6 18.2,-3.7 47.3,-6.3 82.7,2.5 l -0.7,2.9 c -62.4,-15.6 -113.6,3.2 -124.8,18 z" /></g><g
       id="g6095"><g
         id="g6097"><polyline
           style="fill:#ffffff"
           id="polyline6099"
           points="1200.4,678.6 1218.4,721.6 1184.9,752.5 1163.2,749.7 1171.5,730 1181.9,737.4 1196.8,718.2      1178.5,694.9    " /></g><g
         id="g6101"><polygon
           style="fill:#091f2f"
           id="polygon6103"
           points="1170.8,727.7 1181.6,735.4 1194.9,718.2 1177.3,695.8 1179.7,694 1198.8,718.2 1182.3,739.5 1172.1,732.3 1165.3,748.5 1184.4,751 1216.6,721.2 1199,679.2 1201.8,678 1220.2,722 1185.4,754.1 1161,751 " /></g></g><g
       id="g6105"><g
         id="g6107"><path
           style="fill:#ffffff"
           id="path6109"
           d="m 1191.5,688.1 c 4.9,-2 10.2,-3.4 15.6,-4.2 17.6,-2.5 46.9,5 63.5,15.7 l 37.2,-21 -1.5,-19.4 -103.8,-10.5 -8.6,22.8 -2.4,16.6 z" /></g><g
         id="g6111"><path
           style="fill:#091f2f"
           id="path6113"
           d="m 1270.6,701.3 -0.8,-0.5 c -14.1,-9.1 -37.9,-15.9 -55.3,-15.9 -2.6,0 -5,0.2 -7.2,0.5 -5.3,0.7 -10.4,2.1 -15.2,4.1 l -2.4,1 2.9,-19.5 9,-23.9 106.2,10.7 1.7,21.6 -38.9,21.9 z m -56.1,-19.4 c 17.6,0 41.6,6.8 56.2,15.9 l 35.6,-20.1 -1.3,-17.2 -101.4,-10.3 -8.1,21.6 -2,13.9 c 4.3,-1.6 8.9,-2.7 13.5,-3.3 2.2,-0.3 4.7,-0.5 7.5,-0.5 z" /></g></g><g
       id="g6115"><g
         id="g6117"><path
           style="fill:#ffffff"
           id="path6119"
           d="m 1208.9,679.7 c -8.5,6.1 -19.3,9.2 -30.6,7.7 -23.7,-3 -40.5,-24.6 -37.5,-48.3 3,-23.7 24.6,-40.5 48.3,-37.5 7.1,0.9 22.9,8.6 22.9,8.6 17.8,8.6 42.3,12.3 59.5,7.7 0,0 10.4,-3.3 24.8,-7.9 l 35.4,18.6 -18,34.1" /></g><g
         id="g6121"><path
           style="fill:#091f2f"
           id="path6123"
           d="m 1183.8,689.3 c -1.9,0 -3.8,-0.1 -5.7,-0.4 -24.5,-3.1 -41.9,-25.5 -38.8,-50 3.1,-24.5 25.5,-41.9 50,-38.8 7.3,0.9 22.7,8.4 23.4,8.7 18.3,8.8 42.3,12 58.5,7.6 0.3,-0.1 14.2,-4.6 24.7,-7.9 l 0.6,-0.2 37.2,19.6 -18.7,35.5 -2.7,-1.4 17.3,-32.8 -33.5,-17.6 c -24.1,7.7 -24.2,7.8 -24.2,7.8 -16.8,4.5 -41.7,1.3 -60.5,-7.8 -0.2,-0.1 -15.7,-7.6 -22.5,-8.4 -22.8,-2.9 -43.7,13.3 -46.6,36.2 -2.9,22.8 13.3,43.7 36.2,46.6 10.5,1.3 21,-1.3 29.5,-7.5 l 1.7,2.4 c -7.5,5.5 -16.6,8.4 -25.9,8.4 z" /></g></g><g
       id="g6125"><g
         id="g6127"><path
           style="fill:#ffffff"
           id="path6129"
           d="m 1154.5,637.8 -0.4,16.5 -25.1,35.5 24.2,62 -16.2,5 15.3,19.8 14.8,-18.9 -9.7,-54.3 10.4,-8.9 c 0,0 26.3,5.2 41.3,-14.6" /></g><g
         id="g6131"><path
           style="fill:#091f2f"
           id="path6133"
           d="m 1152.3,779.1 -17.9,-23.1 16.7,-5.1 -23.9,-61.3 25.3,-35.8 0.4,-16.1 3,0.1 -0.4,17 -24.9,35.3 24.5,62.8 -15.7,4.8 12.8,16.6 13.2,-16.8 -9.7,-54.5 11.6,-10 0.7,0.1 c 0.3,0.1 25.5,4.8 39.8,-14 l 2.4,1.8 c -14,18.5 -37.6,15.9 -42,15.3 l -9.2,7.9 9.7,54.1 -16.4,20.9 z" /></g></g><g
       id="g6135"><g
         id="g6137"><path
           style="fill:#ffffff"
           id="path6139"
           d="m 1338.6,643.6 c 5.7,7.4 9.1,16.6 9.1,26.7 0,24.1 -19.6,43.7 -43.7,43.7 -19.3,0 -35.6,-12.5 -41.4,-29.8" /></g><g
         id="g6141"><path
           style="fill:#091f2f"
           id="path6143"
           d="m 1304,715.5 c -19.4,0 -36.7,-12.4 -42.8,-30.8 l 2.8,-1 c 5.8,17.2 21.8,28.8 40,28.8 23.3,0 42.2,-18.9 42.2,-42.2 0,-9.4 -3,-18.3 -8.8,-25.7 l 2.4,-1.8 c 6.1,8 9.4,17.5 9.4,27.6 0,24.8 -20.3,45.1 -45.2,45.1 z" /></g></g><g
       id="g6145"><g
         id="g6147"><path
           style="fill:#ffffff"
           id="path6149"
           d="m 1287.7,637.8 c 0,0 -89.3,4.5 -98.7,-2.7 -9.3,-7.2 5.5,-31.1 5.5,-31.1 l 98.9,7" /></g><g
         id="g6151"><path
           style="fill:#091f2f"
           id="path6153"
           d="m 1234.3,640.7 c -21.3,0 -41.8,-1 -46.2,-4.4 -10.3,-8 4.5,-32.1 5.1,-33.1 l 0.5,-0.8 99.8,7.1 -0.2,3 -98,-6.9 c -4.1,6.9 -11.9,23.3 -5.4,28.4 6.5,5 62,4.2 97.7,2.4 l 0.2,3 c -4.9,0.1 -29.7,1.3 -53.5,1.3 z" /></g></g><g
       id="g6155"><g
         id="g6157"><path
           style="fill:#ffffff"
           id="path6159"
           d="m 1300,517.8 -78.5,55.6 c 0,0 -21.6,12.9 -10.1,29.4 8.1,11.7 23.5,26.9 23.5,26.9 l -27.5,18.7 10.9,19.1 46.1,-26.6 c 0,0 7.3,-7.9 1.7,-19.4 -7.3,-9.8 -14.3,-22.5 -14.3,-22.5 l 63.7,-13.7 16.3,-47.1 -31.8,-20.4 z" /></g><g
         id="g6161"><path
           style="fill:#091f2f"
           id="path6163"
           d="m 1217.7,669.6 -12.3,-21.6 27.1,-18.5 c -3.9,-3.9 -15.6,-16 -22.4,-25.9 -3.2,-4.6 -4.3,-9.4 -3.2,-14.2 2.2,-10 12.8,-16.7 13.8,-17.3 l 79.2,-56.1 33.6,21.5 -17,49.1 -62.5,13.5 c 2.2,3.8 7.6,13.1 13.2,20.6 l 0.1,0.2 c 6.1,12.2 -1.6,20.7 -1.9,21.1 l -0.2,0.2 -0.2,0.1 -47.3,27.3 z m -8.4,-20.7 9.5,16.6 44.6,-25.7 c 0.9,-1.1 6,-7.9 1.3,-17.4 -7.3,-9.8 -14.3,-22.5 -14.3,-22.6 l -1,-1.8 64.8,-14 15.7,-45.2 -29.9,-19.1 -77.7,55.1 c -0.1,0.1 -10.5,6.4 -12.4,15.4 -0.9,4 0.1,8 2.7,11.9 7.9,11.5 23.1,26.6 23.3,26.7 l 1.3,1.3 -27.9,18.8 z" /></g></g><g
       id="g6165"><g
         id="g6167"><line
           style="fill:#ffffff"
           id="line6169"
           y2="599"
           x2="1251.7"
           y1="573.40002"
           x1="1221.5" /></g><g
         id="g6171"><rect
           style="fill:#091f2f"
           id="rect6173"
           height="3"
           width="39.599998"
           transform="matrix(0.7629,0.6465,-0.6465,0.7629,672.1875,-660.4901)"
           y="584.70001"
           x="1216.8" /></g></g><g
       id="g6175"><g
         id="g6177"><polygon
           style="fill:#ffffff"
           id="polygon6179"
           points="1200.3,668.6 1202.5,682 1219.2,688.9 1220.7,682.5 1215.1,676.6 1218.3,667.6 1207.3,648.6 1195.1,656.8 " /></g><g
         id="g6181"><path
           style="fill:#091f2f"
           id="path6183"
           d="m 1220.2,690.9 -19,-7.8 -2.3,-14 -5.7,-12.8 14.6,-9.7 12.1,20.9 -3.1,8.8 5.6,5.9 -2.2,8.7 z m -16.3,-9.9 14.3,5.9 0.9,-3.9 -5.7,-6 3.3,-9.2 -9.8,-17 -9.8,6.6 4.8,11.1 2,12.5 z" /></g></g></g></svg>