<?xml version="1.0" encoding="UTF-8" standalone="no"?>
<svg width="2776px" height="1726px" viewBox="0 0 2776 1726" version="1.1" xmlns="http://www.w3.org/2000/svg" xmlns:xlink="http://www.w3.org/1999/xlink">
    <!-- Generator: Sketch 39.1 (31720) - http://www.bohemiancoding.com/sketch -->
    <title>Slice</title>
    <desc>Created with Sketch.</desc>
    <defs></defs>
    <g id="Page-1" stroke="none" stroke-width="1" fill="none" fill-rule="evenodd">
        <rect id="Rectangle-path" fill="#FFFFFF" x="-2.7128388" y="834.28525" width="2778.61946" height="904.71475"></rect>
        <rect id="Rectangle-path" fill="#091F2F" x="-2.7128388" y="0" width="2778.61946" height="1584.66375"></rect>
        <rect id="Rectangle-path" fill="#091F2F" x="-2.7128388" y="0" width="2778.18469" height="1588.35913"></rect>
        <rect id="Rectangle-path" fill="#FFFFFF" x="890.523537" y="1292.077" width="613.026668" height="290.84775"></rect>
        <path d="M1506.81099,1586.18538 L887.262757,1586.18538 L887.262757,1288.81637 L1506.81099,1288.81637 L1506.81099,1586.18538 L1506.81099,1586.18538 Z M893.784317,1579.66413 L1500.28943,1579.66413 L1500.28943,1295.33762 L893.784317,1295.33762 L893.784317,1579.66413 L893.784317,1579.66413 Z" id="Shape" fill="#091F2F"></path>
        <polygon id="Shape" fill="#FFFFFF" points="890.958308 1291.2075 1188.99361 1081.22325 1503.76759 1291.2075"></polygon>
        <path d="M1514.41947,1295.555 L880.741197,1295.555 L1188.99361,1078.39737 L1190.95008,1079.70162 L1514.41947,1295.555 L1514.41947,1295.555 Z M901.175419,1289.03375 L1492.89832,1289.03375 L1188.99361,1086.22287 L901.175419,1289.03375 L901.175419,1289.03375 Z" id="Shape" fill="#091F2F"></path>
        <rect id="Rectangle-path" fill="#FFFFFF" x="299.670174" y="1277.94762" width="453.031056" height="304.977125"></rect>
        <path d="M755.96201,1586.18538 L296.409394,1586.18538 L296.409394,1274.687 L755.96201,1274.687 L755.96201,1586.18538 L755.96201,1586.18538 Z M302.930954,1579.66412 L749.440449,1579.66412 L749.440449,1281.20825 L302.930954,1281.20825 L302.930954,1579.66412 L302.930954,1579.66412 Z" id="Shape" fill="#091F2F"></path>
        <rect id="Rectangle-path" fill="#FFFFFF" x="1127.90833" y="856.4575" width="135.431069" height="120.208375"></rect>
        <path d="M1266.81757,979.709125 L1124.86494,979.709125 L1124.86494,852.9795 L1266.81757,852.9795 L1266.81757,979.709125 L1266.81757,979.709125 Z M1131.16911,973.187875 L1260.29601,973.187875 L1260.29601,859.50075 L1131.3865,859.50075 L1131.3865,973.187875 L1131.16911,973.187875 Z" id="Shape" fill="#091F2F"></path>
        <rect id="Rectangle-path" fill="#FFFFFF" x="1117.47384" y="976.01375" width="155.430521" height="120.208375"></rect>
        <path d="M1276.16514,1099.48275 L1114.21306,1099.48275 L1114.21306,972.753125 L1276.16514,972.753125 L1276.16514,1099.48275 L1276.16514,1099.48275 Z M1120.73462,1092.9615 L1269.64358,1092.9615 L1269.64358,979.274375 L1120.73462,979.274375 L1120.73462,1092.9615 L1120.73462,1092.9615 Z" id="Shape" fill="#091F2F"></path>
        <rect id="Rectangle-path" fill="#FFFFFF" x="1067.25782" y="1047.09537" width="254.123466" height="176.725875"></rect>
        <path d="M1324.64207,1227.08187 L1063.99704,1227.08187 L1063.99704,1043.83475 L1324.64207,1043.83475 L1324.64207,1227.08187 L1324.64207,1227.08187 Z M1070.5186,1220.56062 L1318.12051,1220.56062 L1318.12051,1050.356 L1070.5186,1050.356 L1070.5186,1220.56062 L1070.5186,1220.56062 Z" id="Shape" fill="#091F2F"></path>
        <rect id="Rectangle-path" fill="#FFFFFF" x="1067.25782" y="1223.82125" width="254.123466" height="176.725875"></rect>
        <path d="M1324.64207,1403.80775 L1063.99704,1403.80775 L1063.99704,1220.56062 L1324.64207,1220.56062 L1324.64207,1403.80775 L1324.64207,1403.80775 Z M1070.5186,1397.2865 L1318.12051,1397.2865 L1318.12051,1227.08187 L1070.5186,1227.08187 L1070.5186,1397.2865 L1070.5186,1397.2865 Z" id="Shape" fill="#091F2F"></path>
        <rect id="Rectangle-path" fill="#FFFFFF" x="1067.25782" y="1400.54712" width="254.123466" height="182.377625"></rect>
        <path d="M1324.64207,1586.18537 L1063.99704,1586.18537 L1063.99704,1397.2865 L1324.64207,1397.2865 L1324.64207,1586.18537 L1324.64207,1586.18537 Z M1070.5186,1579.66412 L1318.12051,1579.66412 L1318.12051,1403.80775 L1070.5186,1403.80775 L1070.5186,1579.66412 L1070.5186,1579.66412 Z" id="Shape" fill="#091F2F"></path>
        <polygon id="Shape" fill="#FFFFFF" points="789.004582 1291.2075 263.801592 1291.2075 308.148202 1200.56212 744.657972 1200.56212"></polygon>
        <path d="M794.22183,1294.46812 L258.584344,1294.46812 L305.974349,1197.08413 L746.61444,1197.08413 L794.22183,1294.46812 L794.22183,1294.46812 Z M269.01884,1287.94687 L783.787334,1287.94687 L742.701504,1203.60538 L310.10467,1203.60538 L269.01884,1287.94687 L269.01884,1287.94687 Z" id="Shape" fill="#091F2F"></path>
        <polygon id="Shape" fill="#FFFFFF" points="1107.6915 1047.53013 1068.77952 1047.53013 1088.3442 940.146875 1088.3442 933.625625"></polygon>
        <path d="M1111.60443,1050.79075 L1064.86658,1050.79075 L1085.08342,939.9295 L1085.08342,933.625625 L1091.60498,932.9735 L1111.60443,1050.79075 L1111.60443,1050.79075 Z M1072.69245,1044.2695 L1103.77856,1044.2695 L1088.56158,956.01525 L1072.69245,1044.2695 L1072.69245,1044.2695 Z" id="Shape" fill="#091F2F"></path>
        <polygon id="Shape" fill="#FFFFFF" points="1321.38129 1047.53013 1282.46931 1047.53013 1301.81661 940.146875 1301.81661 933.625625"></polygon>
        <path d="M1325.29422,1050.79075 L1278.55638,1050.79075 L1298.77321,939.9295 L1298.77321,933.625625 L1305.29477,932.9735 L1325.29422,1050.79075 L1325.29422,1050.79075 Z M1286.38225,1044.2695 L1317.46835,1044.2695 L1302.25138,956.01525 L1286.38225,1044.2695 L1286.38225,1044.2695 Z" id="Shape" fill="#091F2F"></path>
        <polygon id="Shape" fill="#FFFFFF" points="1147.03824 855.805375 1128.56049 855.805375 1137.69067 809.06975 1137.69067 802.5485"></polygon>
        <path d="M1150.73379,859.066 L1124.64755,859.066 L1134.42989,808.635 L1134.42989,802.331125 L1140.95145,801.679 L1150.73379,859.066 L1150.73379,859.066 Z M1132.69081,852.54475 L1143.12531,852.54475 L1138.34283,824.068625 L1132.69081,852.54475 L1132.69081,852.54475 Z" id="Shape" fill="#091F2F"></path>
        <polygon id="Shape" fill="#FFFFFF" points="1262.68724 855.805375 1244.42688 855.805375 1253.55706 809.06975 1253.55706 802.5485"></polygon>
        <path d="M1266.60018,859.066 L1240.51394,859.066 L1250.29628,808.635 L1250.29628,802.331125 L1256.81784,801.679 L1266.60018,859.066 L1266.60018,859.066 Z M1248.33981,852.54475 L1258.77431,852.54475 L1253.99183,824.068625 L1248.33981,852.54475 L1248.33981,852.54475 Z" id="Shape" fill="#091F2F"></path>
        <polygon id="Shape" fill="#FFFFFF" points="1233.55761 736.683875 1156.82058 736.683875 1195.29779 519.52625 1195.29779 519.52625"></polygon>
        <path d="M1237.47055,739.9445 L1153.12503,739.9445 L1195.29779,500.832 L1237.47055,739.9445 L1237.47055,739.9445 Z M1160.73352,733.42325 L1229.64467,733.42325 L1195.29779,538.2205 L1160.73352,733.42325 L1160.73352,733.42325 Z" id="Shape" fill="#091F2F"></path>
        <rect id="Rectangle-path" fill="#FFFFFF" x="650.964889" y="1165.13" width="39.7815178" height="57.604375"></rect>
        <path d="M694.007187,1225.77762 L647.704109,1225.77762 L647.704109,1161.652 L694.007187,1161.652 L694.007187,1225.77762 L694.007187,1225.77762 Z M654.225669,1219.25637 L687.485626,1219.25637 L687.485626,1168.17325 L654.225669,1168.17325 L654.225669,1219.25637 L654.225669,1219.25637 Z" id="Shape" fill="#091F2F"></path>
        <rect id="Rectangle-path" fill="#FFFFFF" x="348.364491" y="1463.3685" width="84.7802839" height="119.55625"></rect>
        <path d="M436.405555,1586.18538 L345.103711,1586.18538 L345.103711,1460.10788 L436.405555,1460.10788 L436.405555,1586.18538 L436.405555,1586.18538 Z M351.625271,1579.66413 L429.883995,1579.66413 L429.883995,1466.62913 L351.625271,1466.62913 L351.625271,1579.66413 L351.625271,1579.66413 Z" id="Shape" fill="#091F2F"></path>
        <rect id="Rectangle-path" fill="#FFFFFF" x="350.103573" y="1334.24775" width="84.7802839" height="80.8635"></rect>
        <path d="M438.144638,1418.37187 L346.842793,1418.37187 L346.842793,1330.98712 L438.144638,1330.98712 L438.144638,1418.37187 L438.144638,1418.37187 Z M353.364354,1411.85062 L431.623077,1411.85062 L431.623077,1337.50837 L353.364354,1337.50837 L353.364354,1411.85062 L353.364354,1411.85062 Z" id="Shape" fill="#091F2F"></path>
        <rect id="Rectangle-path" fill="#FFFFFF" x="377.276741" y="1360.11537" width="30.4339481" height="29.12825"></rect>
        <path d="M410.97147,1392.50425 L374.015961,1392.50425 L374.015961,1356.85475 L410.97147,1356.85475 L410.97147,1392.50425 L410.97147,1392.50425 Z M380.537522,1385.983 L404.449909,1385.983 L404.449909,1363.376 L380.537522,1363.376 L380.537522,1385.983 L380.537522,1385.983 Z" id="Shape" fill="#091F2F"></path>
        <rect id="Rectangle-path" fill="#FFFFFF" x="484.882486" y="1334.24775" width="84.7802839" height="80.8635"></rect>
        <path d="M572.92355,1418.37187 L481.621706,1418.37187 L481.621706,1330.98712 L572.92355,1330.98712 L572.92355,1418.37187 L572.92355,1418.37187 Z M488.143267,1411.85062 L566.40199,1411.85062 L566.40199,1337.50837 L488.143267,1337.50837 L488.143267,1411.85062 L488.143267,1411.85062 Z" id="Shape" fill="#091F2F"></path>
        <rect id="Rectangle-path" fill="#FFFFFF" x="512.055654" y="1360.11537" width="30.4339481" height="29.12825"></rect>
        <path d="M545.750383,1392.50425 L508.794874,1392.50425 L508.794874,1356.85475 L545.750383,1356.85475 L545.750383,1392.50425 L545.750383,1392.50425 Z M515.316434,1385.983 L539.228822,1385.983 L539.228822,1363.376 L515.316434,1363.376 L515.316434,1385.983 L515.316434,1385.983 Z" id="Shape" fill="#091F2F"></path>
        <rect id="Rectangle-path" fill="#FFFFFF" x="617.704931" y="1334.24775" width="84.7802839" height="80.8635"></rect>
        <path d="M705.745995,1418.37187 L614.444151,1418.37187 L614.444151,1330.98712 L705.745995,1330.98712 L705.745995,1418.37187 L705.745995,1418.37187 Z M620.965711,1411.85062 L699.224435,1411.85062 L699.224435,1337.50837 L620.965711,1337.50837 L620.965711,1411.85062 L620.965711,1411.85062 Z" id="Shape" fill="#091F2F"></path>
        <rect id="Rectangle-path" fill="#FFFFFF" x="644.878099" y="1360.11537" width="30.4339481" height="29.12825"></rect>
        <path d="M678.572827,1392.50425 L641.617319,1392.50425 L641.617319,1356.85475 L678.572827,1356.85475 L678.572827,1392.50425 L678.572827,1392.50425 Z M648.138879,1385.983 L672.051267,1385.983 L672.051267,1363.376 L648.138879,1363.376 L648.138879,1385.983 L648.138879,1385.983 Z" id="Shape" fill="#091F2F"></path>
        <rect id="Rectangle-path" fill="#FFFFFF" x="484.882486" y="1464.02062" width="84.7802839" height="80.8635"></rect>
        <path d="M572.92355,1548.14475 L481.621706,1548.14475 L481.621706,1460.76 L572.92355,1460.76 L572.92355,1548.14475 L572.92355,1548.14475 Z M488.143267,1541.6235 L566.40199,1541.6235 L566.40199,1467.28125 L488.143267,1467.28125 L488.143267,1541.6235 L488.143267,1541.6235 Z" id="Shape" fill="#091F2F"></path>
        <rect id="Rectangle-path" fill="#FFFFFF" x="512.055654" y="1489.88825" width="30.4339481" height="29.12825"></rect>
        <path d="M545.750383,1522.05975 L508.794874,1522.05975 L508.794874,1486.41025 L545.750383,1486.41025 L545.750383,1522.05975 L545.750383,1522.05975 Z M515.316434,1515.5385 L539.228822,1515.5385 L539.228822,1492.9315 L515.316434,1492.9315 L515.316434,1515.5385 L515.316434,1515.5385 Z" id="Shape" fill="#091F2F"></path>
        <rect id="Rectangle-path" fill="#FFFFFF" x="617.704931" y="1464.02062" width="84.7802839" height="80.8635"></rect>
        <path d="M705.745995,1548.14475 L614.444151,1548.14475 L614.444151,1460.76 L705.745995,1460.76 L705.745995,1548.14475 L705.745995,1548.14475 Z M620.965711,1541.6235 L699.224435,1541.6235 L699.224435,1467.28125 L620.965711,1467.28125 L620.965711,1541.6235 L620.965711,1541.6235 Z" id="Shape" fill="#091F2F"></path>
        <rect id="Rectangle-path" fill="#FFFFFF" x="644.878099" y="1489.88825" width="30.4339481" height="29.12825"></rect>
        <path d="M678.572827,1522.05975 L641.617319,1522.05975 L641.617319,1486.41025 L678.572827,1486.41025 L678.572827,1522.05975 L678.572827,1522.05975 Z M648.138879,1515.5385 L672.051267,1515.5385 L672.051267,1492.9315 L648.138879,1492.9315 L648.138879,1515.5385 L648.138879,1515.5385 Z" id="Shape" fill="#091F2F"></path>
        <rect id="Rectangle-path" fill="#FFFFFF" x="-14.6690327" y="1277.94762" width="183.038459" height="304.977125"></rect>
        <path d="M171.630207,1586.18538 L-17.9298128,1586.18538 L-17.9298128,1274.687 L171.630207,1274.687 L171.630207,1586.18538 L171.630207,1586.18538 Z M-11.4082525,1579.66412 L165.108646,1579.66412 L165.108646,1281.20825 L-11.4082525,1281.20825 L-11.4082525,1579.66412 L-11.4082525,1579.66412 Z" id="Shape" fill="#091F2F"></path>
        <polygon id="Shape" fill="#FFFFFF" points="-19.6688956 1291.2075 204.672779 1291.2075 160.326169 1200.56212 -19.6688956 1200.56212"></polygon>
        <path d="M209.890027,1294.46812 L-22.9296757,1294.46812 L-22.9296757,1197.08413 L162.282637,1197.08413 L209.890027,1294.46812 L209.890027,1294.46812 Z M-16.4081154,1287.94687 L199.455531,1287.94687 L158.152315,1203.82275 L-16.4081154,1203.82275 L-16.4081154,1287.94687 L-16.4081154,1287.94687 Z" id="Shape" fill="#091F2F"></path>
        <rect id="Rectangle-path" fill="#FFFFFF" x="66.4157004" y="1165.13" width="39.7815178" height="57.604375"></rect>
        <path d="M109.675384,1225.77762 L63.1549202,1225.77762 L63.1549202,1161.652 L109.457998,1161.652 L109.457998,1225.77762 L109.675384,1225.77762 Z M69.6764805,1219.25637 L102.936438,1219.25637 L102.936438,1168.17325 L69.6764805,1168.17325 L69.6764805,1219.25637 L69.6764805,1219.25637 Z" id="Shape" fill="#091F2F"></path>
        <rect id="Rectangle-path" fill="#FFFFFF" x="33.1557429" y="1334.24775" width="84.7802839" height="80.8635"></rect>
        <path d="M121.414192,1418.37187 L29.8949627,1418.37187 L29.8949627,1330.98712 L121.196807,1330.98712 L121.196807,1418.37187 L121.414192,1418.37187 Z M36.416523,1411.85062 L114.675247,1411.85062 L114.675247,1337.50837 L36.416523,1337.50837 L36.416523,1411.85062 L36.416523,1411.85062 Z" id="Shape" fill="#091F2F"></path>
        <rect id="Rectangle-path" fill="#FFFFFF" x="60.3289108" y="1360.11537" width="30.4339481" height="29.12825"></rect>
        <path d="M94.2410243,1392.50425 L57.285516,1392.50425 L57.285516,1356.85475 L94.2410243,1356.85475 L94.2410243,1392.50425 L94.2410243,1392.50425 Z M63.5896909,1385.983 L87.5020787,1385.983 L87.5020787,1363.376 L63.5896909,1363.376 L63.5896909,1385.983 L63.5896909,1385.983 Z" id="Shape" fill="#091F2F"></path>
        <rect id="Rectangle-path" fill="#FFFFFF" x="33.1557429" y="1464.02062" width="84.7802839" height="80.8635"></rect>
        <path d="M121.414192,1548.14475 L29.8949627,1548.14475 L29.8949627,1460.76 L121.196807,1460.76 L121.196807,1548.14475 L121.414192,1548.14475 Z M36.416523,1541.6235 L114.675247,1541.6235 L114.675247,1467.28125 L36.416523,1467.28125 L36.416523,1541.6235 L36.416523,1541.6235 Z" id="Shape" fill="#091F2F"></path>
        <rect id="Rectangle-path" fill="#FFFFFF" x="60.3289108" y="1489.88825" width="30.4339481" height="29.12825"></rect>
        <path d="M94.2410243,1522.05975 L57.285516,1522.05975 L57.285516,1486.41025 L94.2410243,1486.41025 L94.2410243,1522.05975 L94.2410243,1522.05975 Z M63.5896909,1515.5385 L87.5020787,1515.5385 L87.5020787,1492.9315 L63.5896909,1492.9315 L63.5896909,1515.5385 L63.5896909,1515.5385 Z" id="Shape" fill="#091F2F"></path>
        <g id="Group" transform="translate(1203.053337, 873.847500)">
            <path d="M34.8519792,87.167375 L3.7658751,87.167375 L3.7658751,17.39 C3.7658751,17.39 4.63541648,3.260625 19.4176198,3.260625 C34.1998232,3.260625 35.0693645,17.39 35.0693645,17.39 L35.0693645,87.167375 L34.8519792,87.167375 Z" id="Shape" fill="#FFFFFF"></path>
            <path d="M38.1127594,90.428 L0.505094952,90.428 L0.505094952,17.39 C0.939865639,11.3035 5.28757251,0 19.4176198,0 C33.5476671,0 37.895374,11.3035 38.3301447,17.172625 L38.1127594,90.428 L38.1127594,90.428 Z M7.02665525,83.90675 L31.5911991,83.90675 L31.5911991,17.607375 C31.3738137,16.08575 30.0695017,6.52125 19.2002345,6.52125 C7.67881128,6.52125 6.80926991,17.172625 6.80926991,17.607375 L7.02665525,83.90675 L7.02665525,83.90675 Z" id="Shape" fill="#091F2F"></path>
        </g>
        <g id="Group" transform="translate(1150.880854, 873.847500)">
            <path d="M34.4172085,87.167375 L3.33110442,87.167375 L3.33110442,17.39 C3.33110442,17.39 4.20064579,3.260625 18.9828491,3.260625 C33.7650525,3.260625 34.6345939,17.39 34.6345939,17.39 L34.6345939,87.167375 L34.4172085,87.167375 Z" id="Shape" fill="#FFFFFF"></path>
            <path d="M37.6779887,90.428 L0.0703242655,90.428 L0.0703242655,17.39 C0.505094952,11.3035 4.85280182,0 18.9828491,0 C33.1128965,0 37.4606033,11.3035 37.895374,17.172625 L37.6779887,90.428 L37.6779887,90.428 Z M6.37449922,83.90675 L31.1564284,83.90675 L31.1564284,17.607375 C30.939043,16.08575 29.634731,6.52125 18.7654638,6.52125 C7.2440406,6.52125 6.37449922,17.172625 6.37449922,17.607375 L6.37449922,83.90675 L6.37449922,83.90675 Z" id="Shape" fill="#091F2F"></path>
        </g>
        <rect id="Rectangle-path" fill="#FFFFFF" x="1153.99457" y="736.03175" width="83.6933572" height="120.208375"></rect>
        <path d="M1241.1661,859.50075 L1150.95118,859.50075 L1150.95118,732.771125 L1241.1661,732.771125 L1241.1661,859.50075 L1241.1661,859.50075 Z M1157.25535,852.9795 L1234.42715,852.9795 L1234.42715,739.292375 L1157.25535,739.292375 L1157.25535,852.9795 L1157.25535,852.9795 Z" id="Shape" fill="#091F2F"></path>
        <path d="M1210.73215,840.8065 L1179.64604,840.8065 L1179.64604,771.029125 C1179.64604,771.029125 1180.51559,756.89975 1195.29779,756.89975 C1210.07999,756.89975 1210.94953,771.029125 1210.94953,771.029125 L1210.94953,840.8065 L1210.73215,840.8065 Z" id="Shape" fill="#FFFFFF"></path>
        <path d="M1213.99293,844.067125 L1176.38526,844.067125 L1176.38526,771.029125 C1176.82003,764.942625 1181.16774,753.639125 1195.29779,753.639125 C1209.42784,753.639125 1213.77554,764.942625 1214.21031,770.81175 L1213.99293,844.067125 L1213.99293,844.067125 Z M1182.90682,837.545875 L1207.47137,837.545875 L1207.47137,771.2465 C1207.25398,769.724875 1205.94967,760.160375 1195.0804,760.160375 C1183.55898,760.160375 1182.68944,770.81175 1182.68944,771.2465 L1182.90682,837.545875 L1182.90682,837.545875 Z" id="Shape" fill="#091F2F"></path>
        <path d="M1223.77527,1183.60688 L1158.55967,1183.60688 L1158.55967,1109.26463 C1158.55967,1109.26463 1160.51613,1088.39662 1191.16747,1088.39662 C1221.8188,1088.39662 1223.77527,1109.26463 1223.77527,1109.26463 L1223.77527,1183.60688 L1223.77527,1183.60688 Z" id="Shape" fill="#FFFFFF"></path>
        <path d="M1227.03605,1186.8675 L1155.29889,1186.8675 L1155.29889,1109.04725 C1155.29889,1108.82987 1157.90751,1085.35337 1191.16747,1085.35337 C1208.34091,1085.35337 1217.03632,1091.65725 1221.60142,1096.87425 C1226.60128,1102.74338 1227.03605,1108.82987 1227.25343,1109.04725 L1227.25343,1109.26463 L1227.25343,1186.8675 L1227.03605,1186.8675 Z M1161.82045,1180.34625 L1220.51449,1180.34625 L1220.51449,1109.482 C1220.2971,1107.743 1217.47109,1091.65725 1191.16747,1091.65725 C1164.86384,1091.65725 1162.03783,1107.96038 1161.82045,1109.482 L1161.82045,1180.34625 L1161.82045,1180.34625 Z" id="Shape" fill="#091F2F"></path>
        <path d="M1223.77527,1359.68062 L1158.55967,1359.68062 L1158.55967,1285.33837 C1158.55967,1285.33837 1160.51613,1264.47037 1191.16747,1264.47037 C1221.8188,1264.47037 1223.77527,1285.33837 1223.77527,1285.33837 L1223.77527,1359.68062 L1223.77527,1359.68062 Z" id="Shape" fill="#FFFFFF"></path>
        <path d="M1227.03605,1362.94125 L1155.29889,1362.94125 L1155.29889,1285.121 C1155.29889,1284.90362 1157.90751,1261.42712 1191.16747,1261.42712 C1208.34091,1261.42712 1217.03632,1267.731 1221.60142,1272.948 C1226.60128,1278.81713 1227.03605,1284.90362 1227.25343,1285.121 L1227.25343,1285.33838 L1227.25343,1362.94125 L1227.03605,1362.94125 Z M1161.82045,1356.42 L1220.51449,1356.42 L1220.51449,1285.55575 C1220.2971,1283.81675 1217.47109,1267.731 1191.16747,1267.731 C1164.86384,1267.731 1162.03783,1283.59937 1161.82045,1285.55575 L1161.82045,1356.42 L1161.82045,1356.42 Z" id="Shape" fill="#091F2F"></path>
        <path d="M1432.24781,1417.50237 L1383.33611,1417.50237 L1383.33611,1361.85437 C1383.33611,1361.85437 1384.85781,1346.20337 1407.90065,1346.20337 C1430.9435,1346.20337 1432.4652,1361.85437 1432.4652,1361.85437 L1432.4652,1417.50237 L1432.24781,1417.50237 Z" id="Shape" fill="#FFFFFF"></path>
        <path d="M1435.50859,1420.763 L1380.07533,1420.763 L1380.07533,1361.41962 C1380.07533,1361.20225 1382.0318,1342.94275 1407.90065,1342.94275 C1421.16116,1342.94275 1427.90011,1347.725 1431.37827,1351.85512 C1435.07382,1356.42 1435.72598,1360.98487 1435.72598,1361.41962 L1435.72598,1361.637 L1435.72598,1420.763 L1435.50859,1420.763 Z M1386.59689,1414.24175 L1428.98703,1414.24175 L1428.98703,1362.07175 C1428.76965,1360.7675 1426.59579,1349.464 1407.68327,1349.464 C1388.98813,1349.464 1386.59689,1360.55012 1386.37951,1362.07175 L1386.37951,1414.24175 L1386.59689,1414.24175 Z" id="Shape" fill="#091F2F"></path>
        <path d="M1432.24781,1527.7115 L1383.33611,1527.7115 L1383.33611,1472.0635 C1383.33611,1472.0635 1384.85781,1456.4125 1407.90065,1456.4125 C1430.9435,1456.4125 1432.4652,1472.0635 1432.4652,1472.0635 L1432.4652,1527.7115 L1432.24781,1527.7115 Z" id="Shape" fill="#FFFFFF"></path>
        <path d="M1435.50859,1530.97212 L1380.07533,1530.97212 L1380.07533,1471.62875 C1380.07533,1471.41137 1382.0318,1453.15187 1407.90065,1453.15187 C1421.16116,1453.15187 1427.90011,1457.93412 1431.37827,1462.06425 C1435.07382,1466.62912 1435.72598,1471.194 1435.72598,1471.62875 L1435.72598,1471.84612 L1435.72598,1530.97212 L1435.50859,1530.97212 Z M1386.59689,1524.45087 L1428.98703,1524.45087 L1428.98703,1472.28087 C1428.76965,1470.97662 1426.59579,1459.67312 1407.68327,1459.67312 C1388.77074,1459.67312 1386.59689,1470.97662 1386.37951,1472.28087 L1386.37951,1524.45087 L1386.59689,1524.45087 Z" id="Shape" fill="#091F2F"></path>
        <path d="M999.650979,1417.50237 L950.739277,1417.50237 L950.739277,1361.85437 C950.739277,1361.85437 952.260975,1346.20337 975.303821,1346.20337 C998.346667,1346.20337 999.868365,1361.85437 999.868365,1361.85437 L999.868365,1417.50237 L999.650979,1417.50237 Z" id="Shape" fill="#FFFFFF"></path>
        <path d="M1002.91176,1420.763 L947.478497,1420.763 L947.478497,1361.41962 C947.478497,1361.20225 949.434965,1342.94275 975.303821,1342.94275 C988.564327,1342.94275 995.303273,1347.725 998.781438,1351.85512 C1002.47699,1356.42 1003.12914,1360.98487 1003.12914,1361.41962 L1003.12914,1361.637 L1003.12914,1420.763 L1002.91176,1420.763 Z M954.000057,1414.24175 L996.390199,1414.24175 L996.390199,1362.07175 C996.172814,1360.7675 993.998961,1349.464 975.086436,1349.464 C956.173911,1349.464 954.000057,1360.7675 953.782672,1362.07175 L953.782672,1414.24175 L954.000057,1414.24175 Z" id="Shape" fill="#091F2F"></path>
        <path d="M999.650979,1527.7115 L950.739277,1527.7115 L950.739277,1472.0635 C950.739277,1472.0635 952.260975,1456.4125 975.303821,1456.4125 C998.346667,1456.4125 999.868365,1472.0635 999.868365,1472.0635 L999.868365,1527.7115 L999.650979,1527.7115 Z" id="Shape" fill="#FFFFFF"></path>
        <path d="M1002.91176,1530.97212 L947.478497,1530.97212 L947.478497,1471.62875 C947.478497,1471.41137 949.434965,1453.15187 975.303821,1453.15187 C988.564327,1453.15187 995.303273,1457.93412 998.781438,1462.06425 C1002.47699,1466.62912 1003.12914,1471.194 1003.12914,1471.62875 L1003.12914,1471.84612 L1003.12914,1530.97212 L1002.91176,1530.97212 Z M954.000057,1524.45087 L996.390199,1524.45087 L996.390199,1472.28087 C996.172814,1470.97662 993.998961,1459.67312 975.086436,1459.67312 C956.391296,1459.67312 954.000057,1470.75925 953.782672,1472.28087 L953.782672,1524.45087 L954.000057,1524.45087 Z" id="Shape" fill="#091F2F"></path>
        <path d="M1223.77527,1582.92475 L1158.55967,1582.92475 L1158.55967,1505.1045 C1158.55967,1505.1045 1160.51613,1484.2365 1191.16747,1484.2365 C1221.8188,1484.2365 1223.77527,1505.1045 1223.77527,1505.1045 L1223.77527,1582.92475 L1223.77527,1582.92475 Z" id="Shape" fill="#FFFFFF"></path>
        <path d="M1227.03605,1586.18538 L1155.29889,1586.18538 L1155.29889,1504.88713 C1155.29889,1504.66975 1157.90751,1481.19325 1191.16747,1481.19325 C1208.34091,1481.19325 1217.03632,1487.49713 1221.60142,1492.71413 C1226.60128,1498.58325 1227.03605,1504.66975 1227.25343,1504.88713 L1227.25343,1505.1045 L1227.25343,1586.18538 L1227.03605,1586.18538 Z M1161.82045,1579.66413 L1220.51449,1579.66413 L1220.51449,1505.32188 C1220.2971,1503.58288 1217.47109,1487.49712 1191.16747,1487.49712 C1164.86384,1487.49712 1162.03783,1503.58287 1161.82045,1505.32188 L1161.82045,1579.66413 L1161.82045,1579.66413 Z" id="Shape" fill="#091F2F"></path>
        <path d="M2472.2193,361.712 C2462.21957,361.712 2452.65461,363.668375 2443.9592,367.146375 C2471.56714,378.449875 2490.91443,405.404375 2490.91443,436.92375 C2490.91443,468.443125 2471.56714,495.397625 2443.9592,506.701125 C2452.65461,510.179125 2462.21957,512.1355 2472.2193,512.1355 C2513.7399,512.1355 2547.65201,478.442375 2547.65201,436.706375 C2547.65201,395.405125 2513.95728,361.712 2472.2193,361.712 L2472.2193,361.712 Z" id="Shape" fill="#FFFFFF"></path>
        <path d="M2472.2193,515.6135 C2462.00218,515.6135 2452.00246,513.657125 2442.65489,509.744375 L2435.26379,506.701125 L2442.65489,503.657875 C2470.04544,492.57175 2487.65365,466.269375 2487.65365,436.92375 C2487.65365,407.578125 2470.04544,381.27575 2442.65489,370.189625 L2435.26379,367.146375 L2442.65489,364.103125 C2452.00246,360.190375 2462.00218,358.234 2472.2193,358.234 C2515.47898,358.234 2550.91279,393.44875 2550.91279,436.92375 C2550.91279,480.39875 2515.69636,515.6135 2472.2193,515.6135 L2472.2193,515.6135 Z M2452.65461,506.48375 C2458.95879,508.22275 2465.69774,509.309625 2472.43668,509.309625 C2512.2182,509.309625 2544.60861,476.92075 2544.60861,437.141125 C2544.60861,397.3615 2512.2182,364.972625 2472.43668,364.972625 C2465.69774,364.972625 2459.17617,365.842125 2452.65461,367.7985 C2478.0887,381.27575 2494.17522,407.7955 2494.17522,437.141125 C2494.17522,466.48675 2478.0887,492.789125 2452.65461,506.48375 L2452.65461,506.48375 Z" id="Shape" fill="#091F2F"></path>
        <path d="M2576.56426,1065.78962 C2576.12949,1064.48537 2575.69472,1062.96375 2575.04256,1061.6595 C2564.39068,1036.66137 2536.34797,1025.57525 2512.00081,1036.87875 C2487.65365,1048.18225 2476.78439,1077.52787 2487.21888,1102.526 C2487.87104,1103.83025 2488.5232,1105.1345 2489.17535,1106.43875 L2576.56426,1065.78962 L2576.56426,1065.78962 Z" id="Shape" fill="#FFFFFF"></path>
        <path d="M2487.87104,1110.78625 L2486.34934,1107.96037 C2485.4798,1106.43875 2484.82765,1105.1345 2484.39287,1103.83025 C2473.08884,1077.3105 2485.04503,1046.0085 2510.6965,1034.05287 C2517.43545,1031.00962 2524.60916,1029.27062 2531.78288,1029.27062 C2551.78233,1029.27062 2570.0427,1041.44362 2578.08596,1060.35525 C2578.73811,1061.6595 2579.17288,1063.18113 2579.60766,1064.70275 L2580.4772,1067.52862 L2487.87104,1110.78625 L2487.87104,1110.78625 Z M2531.78288,1035.79187 C2525.4787,1035.79187 2519.17453,1037.09613 2513.30513,1039.922 C2490.69705,1050.57337 2480.26255,1077.96262 2490.26228,1101.22175 C2490.47966,1101.43912 2490.47966,1101.87387 2490.69705,1102.09125 L2572.43394,1064.05062 C2572.21655,1063.61587 2572.21655,1063.3985 2571.99917,1062.96375 C2565.04284,1046.44325 2549.17371,1035.79187 2531.78288,1035.79187 L2531.78288,1035.79187 Z" id="Shape" fill="#091F2F"></path>
        <path d="M2529.82641,1054.26875 C2530.91334,1056.4425 2531.34811,1059.051 2530.91334,1061.6595 C2529.82641,1067.96337 2523.95701,1072.31087 2517.87022,1071.00662 C2513.95728,1070.3545 2511.13127,1067.746 2509.60957,1064.268 C2484.39287,1079.70162 2479.17563,1104.48237 2466.34989,1119.48125 L2603.30266,1055.13825 C2582.65105,1051.2255 2559.6082,1042.5305 2529.82641,1054.26875 L2529.82641,1054.26875 Z" id="Shape" fill="#FFFFFF"></path>
        <path d="M2453.95893,1129.04575 L2463.74127,1117.52487 C2467.87159,1112.74262 2471.13237,1106.65612 2474.82792,1100.13487 C2482.21902,1087.09237 2490.47966,1072.0935 2507.65311,1061.6595 L2510.91389,1059.70312 L2512.43558,1063.18113 C2513.52251,1065.78963 2515.69636,1067.52863 2518.30499,1067.96338 C2522.6527,1068.83288 2526.78302,1065.57225 2527.65256,1061.22475 C2528.08733,1059.26838 2527.65256,1057.52938 2527.0004,1055.79038 L2525.4787,1052.52975 L2528.73948,1051.2255 C2539.39137,1047.09537 2549.82586,1045.139 2560.91252,1045.139 C2573.30348,1045.139 2584.60752,1047.7475 2594.60724,1050.13862 C2597.86802,1050.79075 2600.91142,1051.66025 2603.95481,1052.31237 L2613.73715,1054.26875 L2453.95893,1129.04575 L2453.95893,1129.04575 Z M2508.30526,1069.05025 C2494.17522,1078.61475 2487.0015,1091.65725 2480.47994,1103.3955 C2478.95824,1106.22137 2477.43654,1108.82987 2475.91485,1111.65575 L2593.30293,1056.65987 L2593.08555,1056.65987 C2582.86844,1054.26875 2572.43394,1051.87762 2560.91252,1051.87762 C2551.78233,1051.87762 2542.86953,1053.39925 2534.17412,1056.4425 C2534.60889,1058.39887 2534.60889,1060.57262 2534.3915,1062.529 C2533.08719,1069.70237 2527.0004,1074.702 2520.04407,1074.702 C2519.17453,1074.702 2518.30499,1074.702 2517.43545,1074.48462 C2513.52251,1073.8325 2510.47912,1071.87612 2508.30526,1069.05025 L2508.30526,1069.05025 Z" id="Shape" fill="#091F2F"></path>
        <path d="M2771.12414,1095.57 L2764.60258,1095.57 L2764.60258,1089.04875 L2771.12414,1089.04875 L2771.12414,1095.57 L2771.12414,1095.57 Z M2753.73332,1095.57 L2747.21175,1095.57 L2747.21175,1089.04875 L2753.73332,1089.04875 L2753.73332,1095.57 L2753.73332,1095.57 Z M2736.34249,1095.57 L2729.82093,1095.57 L2729.82093,1089.04875 L2736.34249,1089.04875 L2736.34249,1095.57 L2736.34249,1095.57 Z M2718.95166,1095.57 L2712.4301,1095.57 L2712.4301,1089.04875 L2718.95166,1089.04875 L2718.95166,1095.57 L2718.95166,1095.57 Z M2701.56083,1095.57 L2695.03927,1095.57 L2695.03927,1089.04875 L2701.56083,1089.04875 L2701.56083,1095.57 L2701.56083,1095.57 Z M2684.17001,1095.57 L2677.64844,1095.57 L2677.64844,1089.04875 L2684.17001,1089.04875 L2684.17001,1095.57 L2684.17001,1095.57 Z M2666.77918,1095.57 L2660.25762,1095.57 L2660.25762,1089.04875 L2666.77918,1089.04875 L2666.77918,1095.57 L2666.77918,1095.57 Z M2649.38835,1095.57 L2642.86679,1095.57 L2642.86679,1089.04875 L2649.38835,1089.04875 L2649.38835,1095.57 L2649.38835,1095.57 Z M2631.99752,1095.57 L2625.47596,1095.57 L2625.47596,1089.04875 L2631.99752,1089.04875 L2631.99752,1095.57 L2631.99752,1095.57 Z M2614.6067,1095.57 L2608.08514,1095.57 L2608.08514,1089.04875 L2614.6067,1089.04875 L2614.6067,1095.57 L2614.6067,1095.57 Z" id="Shape" fill="#FFFFFF"></path>
        <path d="M2768.95029,1065.1375 L2762.42873,1065.1375 L2762.42873,1058.61625 L2768.95029,1058.61625 L2768.95029,1065.1375 L2768.95029,1065.1375 Z M2751.55946,1065.1375 L2745.0379,1065.1375 L2745.0379,1058.61625 L2751.55946,1058.61625 L2751.55946,1065.1375 L2751.55946,1065.1375 Z M2734.16863,1065.1375 L2727.64707,1065.1375 L2727.64707,1058.61625 L2734.16863,1058.61625 L2734.16863,1065.1375 L2734.16863,1065.1375 Z M2716.77781,1065.1375 L2710.25625,1065.1375 L2710.25625,1058.61625 L2716.77781,1058.61625 L2716.77781,1065.1375 L2716.77781,1065.1375 Z M2699.38698,1065.1375 L2692.86542,1065.1375 L2692.86542,1058.61625 L2699.38698,1058.61625 L2699.38698,1065.1375 L2699.38698,1065.1375 Z" id="Shape" fill="#FFFFFF"></path>
        <path d="M2766.77644,1036.87875 L2760.25488,1036.87875 L2760.25488,1030.3575 L2766.77644,1030.3575 L2766.77644,1036.87875 L2766.77644,1036.87875 Z M2749.38561,1036.87875 L2742.86405,1036.87875 L2742.86405,1030.3575 L2749.38561,1030.3575 L2749.38561,1036.87875 L2749.38561,1036.87875 Z M2731.99478,1036.87875 L2725.47322,1036.87875 L2725.47322,1030.3575 L2731.99478,1030.3575 L2731.99478,1036.87875 L2731.99478,1036.87875 Z M2714.60395,1036.87875 L2708.08239,1036.87875 L2708.08239,1030.3575 L2714.60395,1030.3575 L2714.60395,1036.87875 L2714.60395,1036.87875 Z M2697.21313,1036.87875 L2690.69157,1036.87875 L2690.69157,1030.3575 L2697.21313,1030.3575 L2697.21313,1036.87875 L2697.21313,1036.87875 Z M2679.8223,1036.87875 L2673.30074,1036.87875 L2673.30074,1030.3575 L2679.8223,1030.3575 L2679.8223,1036.87875 L2679.8223,1036.87875 Z M2662.43147,1036.87875 L2655.90991,1036.87875 L2655.90991,1030.3575 L2662.43147,1030.3575 L2662.43147,1036.87875 L2662.43147,1036.87875 Z M2645.04064,1036.87875 L2638.51908,1036.87875 L2638.51908,1030.3575 L2645.04064,1030.3575 L2645.04064,1036.87875 L2645.04064,1036.87875 Z" id="Shape" fill="#FFFFFF"></path>
        <path d="M2460.2631,1689.00375 L2453.74154,1689.00375 L2453.74154,1682.4825 L2460.2631,1682.4825 L2460.2631,1689.00375 L2460.2631,1689.00375 Z M2442.87227,1689.00375 L2436.35071,1689.00375 L2436.35071,1682.4825 L2442.87227,1682.4825 L2442.87227,1689.00375 L2442.87227,1689.00375 Z M2425.48145,1689.00375 L2418.95989,1689.00375 L2418.95989,1682.4825 L2425.48145,1682.4825 L2425.48145,1689.00375 L2425.48145,1689.00375 Z M2408.09062,1689.00375 L2401.56906,1689.00375 L2401.56906,1682.4825 L2408.09062,1682.4825 L2408.09062,1689.00375 L2408.09062,1689.00375 Z M2390.69979,1689.00375 L2384.17823,1689.00375 L2384.17823,1682.4825 L2390.69979,1682.4825 L2390.69979,1689.00375 L2390.69979,1689.00375 Z M2373.30896,1689.00375 L2366.7874,1689.00375 L2366.7874,1682.4825 L2373.30896,1682.4825 L2373.30896,1689.00375 L2373.30896,1689.00375 Z M2355.91814,1689.00375 L2349.39658,1689.00375 L2349.39658,1682.4825 L2355.91814,1682.4825 L2355.91814,1689.00375 L2355.91814,1689.00375 Z M2338.52731,1689.00375 L2332.00575,1689.00375 L2332.00575,1682.4825 L2338.52731,1682.4825 L2338.52731,1689.00375 L2338.52731,1689.00375 Z M2321.13648,1689.00375 L2314.61492,1689.00375 L2314.61492,1682.4825 L2321.13648,1682.4825 L2321.13648,1689.00375 L2321.13648,1689.00375 Z M2303.74565,1689.00375 L2297.22409,1689.00375 L2297.22409,1682.4825 L2303.74565,1682.4825 L2303.74565,1689.00375 L2303.74565,1689.00375 Z M2286.35483,1689.00375 L2279.83327,1689.00375 L2279.83327,1682.4825 L2286.35483,1682.4825 L2286.35483,1689.00375 L2286.35483,1689.00375 Z M2268.964,1689.00375 L2262.44244,1689.00375 L2262.44244,1682.4825 L2268.964,1682.4825 L2268.964,1689.00375 L2268.964,1689.00375 Z M2251.57317,1689.00375 L2245.05161,1689.00375 L2245.05161,1682.4825 L2251.57317,1682.4825 L2251.57317,1689.00375 L2251.57317,1689.00375 Z" id="Shape" fill="#091F2F"></path>
        <path d="M2425.48145,1658.57125 L2418.95989,1658.57125 L2418.95989,1652.05 L2425.48145,1652.05 L2425.48145,1658.57125 L2425.48145,1658.57125 Z M2408.09062,1658.57125 L2401.56906,1658.57125 L2401.56906,1652.05 L2408.09062,1652.05 L2408.09062,1658.57125 L2408.09062,1658.57125 Z M2390.69979,1658.57125 L2384.17823,1658.57125 L2384.17823,1652.05 L2390.69979,1652.05 L2390.69979,1658.57125 L2390.69979,1658.57125 Z M2373.30896,1658.57125 L2366.7874,1658.57125 L2366.7874,1652.05 L2373.30896,1652.05 L2373.30896,1658.57125 L2373.30896,1658.57125 Z M2355.91814,1658.57125 L2349.39658,1658.57125 L2349.39658,1652.05 L2355.91814,1652.05 L2355.91814,1658.57125 L2355.91814,1658.57125 Z M2338.52731,1658.57125 L2332.00575,1658.57125 L2332.00575,1652.05 L2338.52731,1652.05 L2338.52731,1658.57125 L2338.52731,1658.57125 Z M2321.13648,1658.57125 L2314.61492,1658.57125 L2314.61492,1652.05 L2321.13648,1652.05 L2321.13648,1658.57125 L2321.13648,1658.57125 Z M2303.74565,1658.57125 L2297.22409,1658.57125 L2297.22409,1652.05 L2303.74565,1652.05 L2303.74565,1658.57125 L2303.74565,1658.57125 Z M2286.35483,1658.57125 L2279.83327,1658.57125 L2279.83327,1652.05 L2286.35483,1652.05 L2286.35483,1658.57125 L2286.35483,1658.57125 Z M2268.964,1658.57125 L2262.44244,1658.57125 L2262.44244,1652.05 L2268.964,1652.05 L2268.964,1658.57125 L2268.964,1658.57125 Z M2251.57317,1658.57125 L2245.05161,1658.57125 L2245.05161,1652.05 L2251.57317,1652.05 L2251.57317,1658.57125 L2251.57317,1658.57125 Z M2234.18234,1658.57125 L2227.66078,1658.57125 L2227.66078,1652.05 L2234.18234,1652.05 L2234.18234,1658.57125 L2234.18234,1658.57125 Z M2216.79152,1658.57125 L2210.26996,1658.57125 L2210.26996,1652.05 L2216.79152,1652.05 L2216.79152,1658.57125 L2216.79152,1658.57125 Z" id="Shape" fill="#091F2F"></path>
        <path d="M2449.39383,1630.3125 L2442.87227,1630.3125 L2442.87227,1623.79125 L2449.39383,1623.79125 L2449.39383,1630.3125 L2449.39383,1630.3125 Z M2432.00301,1630.3125 L2425.48145,1630.3125 L2425.48145,1623.79125 L2432.00301,1623.79125 L2432.00301,1630.3125 L2432.00301,1630.3125 Z M2414.61218,1630.3125 L2408.09062,1630.3125 L2408.09062,1623.79125 L2414.61218,1623.79125 L2414.61218,1630.3125 L2414.61218,1630.3125 Z M2397.22135,1630.3125 L2390.69979,1630.3125 L2390.69979,1623.79125 L2397.22135,1623.79125 L2397.22135,1630.3125 L2397.22135,1630.3125 Z M2379.83052,1630.3125 L2373.30896,1630.3125 L2373.30896,1623.79125 L2379.83052,1623.79125 L2379.83052,1630.3125 L2379.83052,1630.3125 Z M2362.4397,1630.3125 L2355.91814,1630.3125 L2355.91814,1623.79125 L2362.4397,1623.79125 L2362.4397,1630.3125 L2362.4397,1630.3125 Z M2345.04887,1630.3125 L2338.52731,1630.3125 L2338.52731,1623.79125 L2345.04887,1623.79125 L2345.04887,1630.3125 L2345.04887,1630.3125 Z M2327.65804,1630.3125 L2321.13648,1630.3125 L2321.13648,1623.79125 L2327.65804,1623.79125 L2327.65804,1630.3125 L2327.65804,1630.3125 Z M2310.26721,1630.3125 L2303.74565,1630.3125 L2303.74565,1623.79125 L2310.26721,1623.79125 L2310.26721,1630.3125 L2310.26721,1630.3125 Z M2292.87639,1630.3125 L2286.35483,1630.3125 L2286.35483,1623.79125 L2292.87639,1623.79125 L2292.87639,1630.3125 L2292.87639,1630.3125 Z M2275.48556,1630.3125 L2268.964,1630.3125 L2268.964,1623.79125 L2275.48556,1623.79125 L2275.48556,1630.3125 L2275.48556,1630.3125 Z M2258.09473,1630.3125 L2251.57317,1630.3125 L2251.57317,1623.79125 L2258.09473,1623.79125 L2258.09473,1630.3125 L2258.09473,1630.3125 Z M2240.7039,1630.3125 L2234.18234,1630.3125 L2234.18234,1623.79125 L2240.7039,1623.79125 L2240.7039,1630.3125 L2240.7039,1630.3125 Z" id="Shape" fill="#091F2F"></path>
        <path d="M2331.78836,1351.203 L2327.22327,1346.63812 C2345.04887,1329.03075 2385.91731,1314.90137 2431.13347,1310.55387 C2472.00191,1306.64112 2535.69582,1308.16275 2608.30252,1338.59525 L2605.6939,1344.68175 C2480.91471,1292.29437 2362.65708,1320.55312 2331.78836,1351.203 L2331.78836,1351.203 Z" id="Shape" fill="#FFFFFF"></path>
        <path d="M2381.78699,1357.72425 L2377.2219,1353.15937 C2395.0475,1335.552 2435.91594,1321.42262 2481.13209,1317.07512 C2522.00054,1313.16237 2585.69444,1314.684 2658.30115,1345.1165 L2655.69253,1351.203 C2530.91334,1298.81562 2412.65571,1327.07437 2381.78699,1357.72425 L2381.78699,1357.72425 Z" id="Shape" fill="#FFFFFF"></path>
        <path d="M2278.09418,1358.159 L2272.87694,1354.24625 C2287.44175,1334.6825 2325.04942,1316.85775 2371.13511,1307.29325 C2410.69924,1299.25037 2473.95838,1293.59862 2550.91279,1312.72762 L2549.39109,1319.0315 C2413.74264,1285.121 2302.44134,1325.9875 2278.09418,1358.159 L2278.09418,1358.159 Z" id="Shape" fill="#FFFFFF"></path>
        <polyline id="Shape" fill="#FFFFFF" points="2602.43312 1475.10675 2641.56248 1568.578 2568.73839 1635.74687 2521.56577 1629.66037 2539.60875 1586.8375 2562.21683 1602.92325 2594.60724 1561.18725 2554.82573 1510.53887"></polyline>
        <polygon id="Shape" fill="#091F2F" points="2569.82531 1639.22487 2516.78329 1632.48625 2538.08705 1581.83787 2561.56467 1598.57575 2590.47692 1561.18725 2552.2171 1512.49525 2557.43435 1508.5825 2598.95495 1561.18725 2563.08637 1607.48812 2540.91306 1591.83712 2526.13086 1627.05187 2567.65146 1632.48625 2637.64954 1567.7085 2599.38972 1476.411 2605.47651 1473.8025 2645.47541 1569.4475"></polygon>
        <path d="M2583.08582,1495.75737 C2593.7377,1491.40987 2605.25913,1488.36662 2616.99793,1486.62762 C2655.25775,1481.19325 2718.95166,1497.49637 2755.03763,1520.7555 L2835.90497,1475.10675 L2832.64419,1432.936 L2606.99821,1410.11162 L2588.30307,1459.67312 L2583.08582,1495.75737 L2583.08582,1495.75737 Z" id="Shape" fill="#FFFFFF"></path>
        <path d="M2755.03763,1524.45087 L2753.29854,1523.364 C2722.64721,1503.58287 2670.9095,1488.80137 2633.08445,1488.80137 C2627.43243,1488.80137 2622.21518,1489.23612 2617.4327,1489.88825 C2605.91128,1491.40987 2594.82463,1494.45312 2584.39013,1498.80062 L2579.17288,1500.97437 L2585.47706,1458.58625 L2605.04174,1406.63362 L2835.90497,1429.89275 L2839.60053,1476.84575 L2755.03763,1524.45087 L2755.03763,1524.45087 Z M2633.08445,1482.28012 C2671.34427,1482.28012 2723.51675,1497.06162 2755.25501,1516.84275 L2832.64419,1473.15037 L2829.81819,1435.76187 L2609.38945,1413.37225 L2591.78123,1460.32525 L2587.43353,1490.54037 C2596.7811,1487.06237 2606.78082,1484.67125 2616.78055,1483.367 C2621.56303,1482.71487 2626.99766,1482.28012 2633.08445,1482.28012 L2633.08445,1482.28012 Z" id="Shape" fill="#091F2F"></path>
        <path d="M2620.91087,1477.49788 C2602.43312,1490.75775 2578.9555,1497.49638 2554.39096,1494.23575 C2502.87063,1487.7145 2466.34989,1440.7615 2472.87145,1389.24363 C2479.39301,1337.72575 2526.34825,1301.20675 2577.86857,1307.728 C2593.30293,1309.68438 2627.64982,1326.42225 2627.64982,1326.42225 C2666.34441,1345.1165 2719.60382,1353.15938 2756.9941,1343.16013 C2756.9941,1343.16013 2779.60217,1335.98675 2810.90566,1325.9875 L2887.86007,1366.41925 L2848.73071,1440.54413" id="Shape" fill="#FFFFFF"></path>
        <path d="M2566.34715,1498.36587 C2562.21683,1498.36587 2558.08651,1498.1485 2553.95618,1497.49638 C2500.69678,1490.75775 2462.87173,1442.06575 2469.61067,1388.80888 C2476.34962,1335.552 2525.04393,1297.72875 2578.30334,1304.46738 C2594.17247,1306.42375 2627.64982,1322.72688 2629.17151,1323.379 C2668.95303,1342.508 2721.12551,1349.464 2756.34194,1339.8995 C2756.9941,1339.68213 2787.21066,1329.90025 2810.03612,1322.72688 L2811.34043,1322.29213 L2892.20778,1364.89763 L2851.55672,1442.06575 L2845.68732,1439.0225 L2883.29498,1367.7235 L2810.47089,1329.4655 C2758.08102,1346.20338 2757.86364,1346.42075 2757.86364,1346.42075 C2721.3429,1356.20263 2667.21395,1349.24663 2626.3455,1329.4655 C2625.91073,1329.24813 2592.21601,1312.945 2577.4338,1311.206 C2527.86994,1304.90213 2482.43641,1340.11688 2476.13223,1389.89575 C2469.82806,1439.45725 2505.04448,1484.88863 2554.82573,1491.1925 C2577.65119,1494.01838 2600.47665,1488.36663 2618.9544,1474.88938 L2622.64995,1480.10638 C2606.34605,1492.062 2586.56399,1498.36587 2566.34715,1498.36587 L2566.34715,1498.36587 Z" id="Shape" fill="#091F2F"></path>
        <path d="M2502.65324,1386.41775 L2501.7837,1422.28462 L2447.21998,1499.45275 L2499.82723,1634.22525 L2464.61081,1645.094 L2497.87077,1688.13425 L2530.0438,1647.05037 L2508.95742,1529.01575 L2531.56549,1509.66937 C2531.56549,1509.66937 2588.73784,1520.97287 2621.34564,1477.93262" id="Shape" fill="#FFFFFF"></path>
        <path d="M2497.87077,1693.56862 L2458.95879,1643.355 L2495.26214,1632.26887 L2443.30704,1499.018 L2498.30554,1421.19775 L2499.17508,1386.20037 L2505.69664,1386.41775 L2504.8271,1423.3715 L2450.69815,1500.10487 L2503.95756,1636.61637 L2469.82806,1647.05037 L2497.65338,1683.13462 L2526.34825,1646.61562 L2505.26187,1528.14625 L2530.47857,1506.40875 L2532.00026,1506.62612 C2532.65242,1506.8435 2587.43353,1517.06012 2618.51963,1476.19362 L2623.73688,1480.10637 C2593.30293,1520.32075 2541.99999,1514.669 2532.43504,1513.36475 L2512.43558,1530.53737 L2533.52196,1648.13725 L2497.87077,1693.56862 L2497.87077,1693.56862 Z" id="Shape" fill="#091F2F"></path>
        <path d="M2902.85966,1399.0255 C2915.25063,1415.11125 2922.64173,1435.10975 2922.64173,1457.06462 C2922.64173,1509.452 2880.0342,1552.0575 2827.64433,1552.0575 C2785.68896,1552.0575 2750.25515,1524.88562 2737.6468,1487.27975" id="Shape" fill="#FFFFFF"></path>
        <path d="M2827.64433,1555.31812 C2785.47158,1555.31812 2747.86391,1528.36362 2734.6034,1488.36662 L2740.69019,1486.19287 C2753.29854,1523.58137 2788.0802,1548.79687 2827.64433,1548.79687 C2878.29512,1548.79687 2919.38095,1507.713 2919.38095,1457.06462 C2919.38095,1436.63137 2912.85939,1417.285 2900.25104,1401.19925 L2905.46828,1397.2865 C2918.72879,1414.6765 2925.90251,1435.32712 2925.90251,1457.282 C2925.90251,1511.191 2881.77328,1555.31812 2827.64433,1555.31812 L2827.64433,1555.31812 Z" id="Shape" fill="#091F2F"></path>
        <path d="M2792.21052,1386.41775 C2792.21052,1386.41775 2598.08541,1396.19962 2577.65119,1380.54862 C2557.43435,1364.89762 2589.60738,1312.945 2589.60738,1312.945 L2804.60149,1328.16125" id="Shape" fill="#FFFFFF"></path>
        <path d="M2676.12675,1392.72162 C2629.82367,1392.72162 2585.25967,1390.54787 2575.69472,1383.15712 C2553.30403,1365.76712 2585.47706,1313.37975 2586.78137,1311.206 L2587.8683,1309.467 L2804.81887,1324.90062 L2804.3841,1331.42188 L2591.34646,1316.423 C2582.43366,1331.42188 2565.47761,1367.07137 2579.60766,1378.1575 C2593.7377,1389.02625 2714.38657,1387.28725 2791.99314,1383.3745 L2792.42791,1389.89575 C2781.77602,1390.11312 2727.86446,1392.72162 2676.12675,1392.72162 L2676.12675,1392.72162 Z" id="Shape" fill="#091F2F"></path>
        <path d="M2818.94892,1125.56775 L2648.30142,1246.42825 C2648.30142,1246.42825 2601.34619,1274.46962 2626.3455,1310.3365 C2643.95372,1335.76937 2677.43106,1368.81037 2677.43106,1368.81037 L2617.65009,1409.4595 L2641.34509,1450.97812 L2741.55974,1393.15637 C2741.55974,1393.15637 2757.42887,1375.98375 2745.25529,1350.98562 C2729.38616,1329.68287 2714.16918,1302.07625 2714.16918,1302.07625 L2852.64365,1272.29587 L2888.07746,1169.91225 L2818.94892,1125.56775 L2818.94892,1125.56775 Z" id="Shape" fill="#FFFFFF"></path>
        <path d="M2640.04078,1455.543 L2613.30238,1408.59 L2672.21381,1368.37562 C2663.73578,1359.898 2638.3017,1333.59562 2623.51949,1312.0755 C2616.56316,1302.07625 2614.17192,1291.64225 2616.56316,1281.20825 C2621.34564,1259.47075 2644.38849,1244.90662 2646.56234,1243.60237 L2818.73153,1121.655 L2891.77301,1168.39062 L2854.8175,1275.12175 L2718.95166,1304.46737 C2723.73414,1312.72762 2735.47295,1332.9435 2747.64653,1349.24662 L2747.86391,1349.68137 C2761.12442,1376.20113 2744.38575,1394.678 2743.73359,1395.5475 L2743.29882,1395.98225 L2742.86405,1396.19962 L2640.04078,1455.543 L2640.04078,1455.543 Z M2621.78041,1410.54637 L2642.43202,1446.63062 L2739.38588,1390.76525 C2741.34235,1388.37412 2752.429,1373.59262 2742.21189,1352.942 C2726.34276,1331.63925 2711.12579,1304.03262 2711.12579,1303.81525 L2708.95193,1299.9025 L2849.81764,1269.47 L2883.94714,1171.2165 L2818.94892,1129.69787 L2650.04051,1249.4715 C2649.82312,1249.68887 2627.21505,1263.3835 2623.08472,1282.94725 C2621.12826,1291.64225 2623.30211,1300.33725 2628.95413,1308.81487 C2646.12757,1333.813 2679.17014,1366.63662 2679.60491,1366.854 L2682.43092,1369.67987 L2621.78041,1410.54637 L2621.78041,1410.54637 Z" id="Shape" fill="#091F2F"></path>
        <path d="M2648.30142,1246.42825 L2713.9518,1302.07625" id="Shape" fill="#FFFFFF"></path>
        <rect id="Rectangle-path" fill="#091F2F" transform="translate(2681.151262, 1274.216992) rotate(40.278752) translate(-2681.151262, -1274.216992) " x="2638.10942" y="1270.9564" width="86.0836774" height="6.52118042"></rect>
        <polygon id="Shape" fill="#FFFFFF" points="2617.4327 1409.89425 2590.91169 1427.719 2602.21573 1453.36925 2606.99821 1482.4975 2643.30156 1497.49637 2646.56234 1483.58437 2634.38876 1470.75925 2641.34509 1451.1955"></polygon>
        <path d="M2645.47541,1501.84387 L2604.1722,1484.88862 L2599.17234,1454.45612 L2586.78137,1426.63212 L2618.51963,1405.54675 L2644.82326,1450.97812 L2638.08431,1470.10712 L2650.25789,1482.93225 L2645.47541,1501.84387 L2645.47541,1501.84387 Z M2610.0416,1480.32375 L2641.12771,1493.14887 L2643.08418,1484.67125 L2630.69321,1471.62875 L2637.86693,1451.63025 L2616.56316,1414.6765 L2595.2594,1429.02325 L2605.6939,1453.15187 L2610.0416,1480.32375 L2610.0416,1480.32375 Z" id="Shape" fill="#091F2F"></path>
    </g>
</svg>