<?xml version="1.0" encoding="UTF-8" standalone="no"?>
<svg
   xmlns:dc="http://purl.org/dc/elements/1.1/"
   xmlns:cc="http://creativecommons.org/ns#"
   xmlns:rdf="http://www.w3.org/1999/02/22-rdf-syntax-ns#"
   xmlns:svg="http://www.w3.org/2000/svg"
   xmlns="http://www.w3.org/2000/svg"
   xml:space="preserve"
   enable-background="new 0 0 1280 800"
   viewBox="0 0 1280 413.95035"
   y="0px"
   x="0px"
   id="Layer_1"
   version="1.1"><metadata
     id="metadata4726"><rdf:RDF><cc:Work
         rdf:about=""><dc:format>image/svg+xml</dc:format><dc:type
           rdf:resource="http://purl.org/dc/dcmitype/StillImage" /><dc:title></dc:title></cc:Work></rdf:RDF></metadata><defs
     id="defs4724" /><g
     transform="translate(0,-386.04965)"
     id="g4400"><rect
       style="fill:#ffffff"
       id="rect4402"
       height="20.9"
       width="20.9"
       transform="matrix(0.9864,0.1646,-0.1646,0.9864,127.3172,-57.2785)"
       y="729.09998"
       x="398.79999" /><path
       id="path4404"
       d="m 419.5,754 -24.6,-4.1 4.1,-24.6 24.6,4.1 -4.1,24.6 z m -20,-7.4 16.7,2.8 2.8,-16.7 -16.7,-2.8 -2.8,16.7 z" /></g><g
     transform="translate(0,-386.04965)"
     id="g4406"><rect
       style="fill:#ffffff"
       id="rect4408"
       height="25.6"
       width="25.299999"
       y="579.59998"
       x="139.2" /><path
       id="path4410"
       d="m 166.5,607.2 -29.3,0 0,-29.6 29.3,0 0,29.6 z m -25.3,-4 21.3,0 0,-21.6 -21.3,0 0,21.6 z" /></g><g
     transform="translate(0,-386.04965)"
     id="g4412"><rect
       style="fill:#ffffff"
       id="rect4414"
       height="10.9"
       width="6.6999998"
       y="586.29999"
       x="148.5" /><path
       id="path4416"
       d="m 157.2,599.2 -10.7,0 0,-14.9 10.7,0 0,14.9 z m -6.7,-4 2.7,0 0,-6.9 -2.7,0 0,6.9 z" /></g><g
     transform="translate(0,-386.04965)"
     id="g4418"><rect
       style="fill:#ffffff"
       id="rect4420"
       height="70.199997"
       width="189.7"
       y="642.90002"
       x="90" /><path
       id="path4422"
       d="m 281.7,715.1 -193.7,0 0,-74.2 193.7,0 0,74.2 z m -189.7,-4 185.7,0 0,-66.2 -185.7,0 0,66.2 z" /></g><g
     transform="translate(0,-386.04965)"
     id="g4424"><rect
       style="fill:#ffffff"
       id="rect4426"
       height="40.299999"
       width="12.6"
       y="713.09998"
       x="61.099998" /><path
       id="path4428"
       d="m 75.7,755.4 -16.6,0 0,-44.3 16.6,0 0,44.3 z m -12.6,-4 8.6,0 0,-36.3 -8.6,0 0,36.3 z" /></g><g
     transform="translate(0,-386.04965)"
     id="g4430"><rect
       style="fill:#ffffff"
       id="rect4432"
       height="32.900002"
       width="204.5"
       y="610.09998"
       x="81.699997" /><path
       id="path4434"
       d="m 288.2,644.9 -208.5,0 0,-36.9 208.5,0 0,36.9 z m -204.5,-4 200.5,0 0,-28.9 -200.5,0 0,28.9 z" /></g><g
     transform="translate(0,-386.04965)"
     id="g4436"><rect
       style="fill:#ffffff"
       id="rect4438"
       height="40.299999"
       width="12.6"
       y="713.09998"
       x="97.5" /><path
       id="path4440"
       d="m 112.1,755.4 -16.6,0 0,-44.3 16.6,0 0,44.3 z m -12.6,-4 8.6,0 0,-36.3 -8.6,0 0,36.3 z" /></g><g
     transform="translate(0,-386.04965)"
     id="g4442"><rect
       style="fill:#ffffff"
       id="rect4444"
       height="17.1"
       width="33.400002"
       y="604.40002"
       x="135.2" /><path
       id="path4446"
       d="m 170.5,623.5 -37.4,0 0,-21.1 37.4,0 0,21.1 z m -33.3,-4 29.4,0 0,-13.1 -29.4,0 0,13.1 z" /></g><g
     transform="translate(0,-386.04965)"
     id="g4448"><polygon
       style="fill:#ffffff"
       id="polygon4450"
       points="157.9,568.8 166.8,579.6 136.9,579.6 145.8,568.8 " /><path
       id="path4452"
       d="m 171,581.6 -38.4,0 12.1,-14.8 14.1,0 12.2,14.8 z m -29.9,-4 21.5,0 -5.6,-6.8 -10.3,0 -5.6,6.8 z" /></g><g
     transform="translate(0,-386.04965)"
     id="g4454"><rect
       style="fill:#ffffff"
       id="rect4456"
       height="40.299999"
       width="12.6"
       y="713.09998"
       x="133.89999" /><path
       id="path4458"
       d="m 148.5,755.4 -16.6,0 0,-44.3 16.6,0 0,44.3 z m -12.6,-4 8.6,0 0,-36.3 -8.6,0 0,36.3 z" /></g><g
     transform="translate(0,-386.04965)"
     id="g4460"><rect
       style="fill:#ffffff"
       id="rect4462"
       height="40.299999"
       width="12.6"
       y="713.09998"
       x="170.3" /><path
       id="path4464"
       d="m 184.9,755.4 -16.6,0 0,-44.3 16.6,0 0,44.3 z m -12.6,-4 8.6,0 0,-36.3 -8.6,0 0,36.3 z" /></g><g
     transform="translate(0,-386.04965)"
     id="g4466"><rect
       style="fill:#ffffff"
       id="rect4468"
       height="40.299999"
       width="12.6"
       y="713.09998"
       x="206.7" /><path
       id="path4470"
       d="m 221.4,755.4 -16.6,0 0,-44.3 16.6,0 0,44.3 z m -12.7,-4 8.6,0 0,-36.3 -8.6,0 0,36.3 z" /></g><g
     transform="translate(0,-386.04965)"
     id="g4472"><rect
       style="fill:#ffffff"
       id="rect4474"
       height="40.299999"
       width="12.6"
       y="713.09998"
       x="243.2" /><path
       id="path4476"
       d="m 257.8,755.4 -16.6,0 0,-44.3 16.6,0 0,44.3 z m -12.6,-4 8.6,0 0,-36.3 -8.6,0 0,36.3 z" /></g><g
     transform="translate(0,-386.04965)"
     id="g4478"><rect
       style="fill:#ffffff"
       id="rect4480"
       height="40.299999"
       width="12.6"
       y="713.09998"
       x="279.60001" /><path
       id="path4482"
       d="m 294.2,755.4 -16.6,0 0,-44.3 16.6,0 0,44.3 z m -12.6,-4 8.6,0 0,-36.3 -8.6,0 0,36.3 z" /></g><g
     transform="translate(0,-386.04965)"
     id="g4484"><rect
       style="fill:#ffffff"
       id="rect4486"
       height="40.299999"
       width="12.6"
       y="713.09998"
       x="316" /><path
       id="path4488"
       d="m 330.6,755.4 -16.6,0 0,-44.3 16.6,0 0,44.3 z m -12.6,-4 8.6,0 0,-36.3 -8.6,0 0,36.3 z" /></g><g
     transform="translate(0,-386.04965)"
     id="g4490"><path
       style="fill:#ffffff"
       id="path4492"
       d="m 1301.2,744.9 c -10.7,-0.8 -10.4,-6.7 -21.1,-6.7 -10.7,0 -10.7,6.6 -21.4,6.6 -10.7,0 -10.7,-6.7 -21.4,-6.7 -10.7,0 -10.7,6.6 -21.4,6.6 -10.7,0 -10.7,-6.7 -21.4,-6.7 -10.7,0 -10.7,6.6 -21.4,6.6 -10.7,0 -10.7,-6.7 -21.4,-6.7 -10.7,0 -10.7,6.6 -21.4,6.6 -10.7,0 -10.7,-6.7 -21.4,-6.7 -10.7,0 -10.7,6.6 -21.4,6.6 -10.7,0 -10.7,-6.7 -21.4,-6.7 -10.7,0 -10.7,6.6 -21.4,6.6 -10.7,0 -10.7,-6.7 -21.4,-6.7 -10.7,0 -10.7,6.6 -21.4,6.6 -10.7,0 -10.7,-6.7 -21.4,-6.7 -10.7,0 -10.7,6.6 -21.4,6.6 -10.7,0 -10.7,-6.7 -21.4,-6.7 -10.7,0 -10.7,6.6 -21.4,6.6 -10.7,0 -10.7,-6.7 -21.4,-6.7 -10.7,0 -10.7,6.6 -21.4,6.6 -10.7,0 -10.7,-6.7 -21.4,-6.7 -10.7,0 -10.7,6.6 -21.4,6.6 -10.7,0 -10.7,-6.7 -21.4,-6.7 -10.7,0 -10.7,6.6 -21.4,6.6 -10.7,0 -10.7,-6.7 -21.4,-6.7 -10.7,0 -10.7,6.6 -21.4,6.6 -10.7,0 -10.7,-6.7 -21.4,-6.7 -10.7,0 -10.7,6.6 -21.4,6.6 -10.7,0 -10.7,-6.7 -21.4,-6.7 -10.7,0 -10.7,6.6 -21.4,6.6 -10.7,0 -10.7,-6.7 -21.4,-6.7 -10.7,0 -10.7,6.6 -21.4,6.6 -10.7,0 -10.7,-6.7 -21.4,-6.7 -10.7,0 -10.7,6.6 -21.4,6.6 -10.7,0 -10.7,-6.7 -21.4,-6.7 -10.7,0 -10.7,6.6 -21.4,6.6 -10.7,0 -10.7,-6.7 -21.4,-6.7 -10.7,0 -10.7,6.6 -21.4,6.6 -10.7,0 -10.7,-6.7 -21.4,-6.7 -10.7,0 -10.7,6.6 -21.4,6.6 -10.7,0 -10.7,-6.7 -21.4,-6.7 -10.7,0 -10.7,6.6 -21.4,6.6 -10.7,0 -10.7,-6.7 -21.4,-6.7 -10.7,0 -10.7,6.6 -21.4,6.6 -10.7,0 -10.7,-6.7 -21.4,-6.7 -10.7,0 -10.7,6.6 -21.4,6.6 -10.7,0 -10.7,-6.7 -21.4,-6.7 -10.7,0 -10.7,6.6 -21.4,6.6 -10.7,0 -10.7,-6.7 -21.4,-6.7 -10.7,0 -10.7,6.6 -21.4,6.6 -10.7,0 -10.7,-6.7 -21.4,-6.7 -10.7,0 -10.7,6.6 -21.4,6.6 -10.7,0 -10.7,-6.7 -21.4,-6.7 -10.7,0 -10.7,6.6 -21.4,6.6 -10.7,0 -10.7,-6.7 -21.4,-6.7 -10.7,0 -10.7,6.6 -21.4,6.6 -10.7,0 -10.7,-6.7 -21.4,-6.7 -10.7,0 -10.7,6.6 -21.4,6.6 -10.7,0 -10.7,-6.7 -21.4,-6.7 -10.7,0 -10.7,6.6 -21.4,6.6 -10.7,0 -10.7,-6.7 -21.4,-6.7 -10.7,0 -10.5,5.8 -21.2,6.6 -0.8,0.1 -3.6,-2.5 -3.6,-1.7 0,0.8 6.7,0.8 6.7,1.6 0,0.8 -6.7,0.8 -6.7,1.6 0,0.8 6.7,0.8 6.7,1.6 0,0.8 -6.7,0.8 -6.7,1.6 0,0.8 6.7,0.8 6.7,1.6 0,0.8 -6.7,0.8 -6.7,1.6 0,0.8 6.7,0.8 6.7,1.6 0,0.8 -6.7,0.8 -6.7,1.6 0,0.8 6.7,0.8 6.7,1.6 0,0.8 -6.7,0.8 -6.7,1.6 0,0.8 6.7,0.8 6.7,1.6 0,0.8 -6.7,0.8 -6.7,1.6 0,0.8 6.7,0.8 6.7,1.6 0,0.8 -6.7,0.8 -6.7,1.6 0,0.8 6.7,0.8 6.7,1.6 0,0.8 -6.7,0.8 -6.7,1.6 0,0.8 6.7,0.8 6.7,1.6 0,0.8 -6.7,0.8 -6.7,1.6 0,0.8 6.7,0.8 6.7,1.6 0,0.8 -6.7,0.8 -6.7,1.6 0,0.8 6.7,0.8 6.7,1.6 0,0.8 -6.7,0.8 -6.7,1.6 0,0.8 6.7,0.8 6.7,1.6 0,0.8 -6.7,0.8 -6.7,1.6 0,0.8 6.7,0.8 6.7,1.6 0,0.8 -6.7,0.8 -6.7,1.6 0,0.8 6.7,0.8 6.7,1.6 0,0.8 -6.7,0.8 -6.7,1.6 0,0.8 6.7,0.8 6.7,1.6 0,0.8 -6.7,0.8 -6.7,1.6 0,0.8 6.7,0.8 6.7,1.6 0,0.8 -6.7,0.8 -6.7,1.6 0,0.8 6.7,0.8 6.7,1.6 0,0.8 -6.7,0.8 -6.7,1.6 0,0.8 6.7,0.8 6.7,1.6 0,0.8 -6.7,0.8 -6.7,1.6 0,0.8 6.7,0.8 6.7,1.6 0,0.8 -6.7,0.8 -6.7,1.6 0,0.8 6.7,0.8 6.7,1.6 0,0.8 -6.7,0.8 -6.7,1.6 0,0.8 6.7,0.8 6.7,1.6 0,0.8 -6.7,0.8 -6.7,1.6 0,0.8 6.7,0.8 6.7,1.6 0,0.8 -6.7,0.8 -6.7,1.6 0,0.8 6.7,0.8 6.7,1.6 0,0.8 -6.7,0.8 -6.7,1.6 0,0.8 6.7,0.8 6.7,1.6 0,0.8 -6.7,0.8 -6.7,1.6 0,0.8 6.7,0.8 6.7,1.6 0,0.8 -6.7,0.8 -6.7,1.6 0,0.8 6.7,0.8 6.7,1.6 0,0.8 -6.7,0.8 -6.7,1.6 0,0.8 6.7,0.8 6.7,1.6 0,0.8 -6.7,0.8 -6.7,1.6 0,0.8 6.7,0.8 6.7,1.6 0,0.8 -6.7,0.8 -6.7,1.6 0,0.8 6.7,0.8 6.7,1.6 0,0.8 -6.7,0.8 -6.7,1.6 0,0.8 6.7,0.8 6.7,1.6 0,0.8 -6.7,0.8 -6.7,1.6 0,0.8 2.8,-1.8 3.6,-1.7 10.7,0.8 10.5,6.6 21.2,6.6 10.7,0 10.7,-6.7 21.5,-6.7 10.7,0 10.7,6.7 21.5,6.7 10.7,0 10.7,-6.7 21.5,-6.7 10.7,0 10.7,6.7 21.5,6.7 10.7,0 10.7,-6.7 21.5,-6.7 10.7,0 10.7,6.7 21.5,6.7 10.7,0 10.7,-6.7 21.5,-6.7 10.7,0 10.7,6.7 21.5,6.7 10.7,0 10.7,-6.7 21.5,-6.7 10.7,0 10.7,6.7 21.5,6.7 10.7,0 10.7,-6.7 21.5,-6.7 10.7,0 10.7,6.7 21.5,6.7 10.7,0 10.7,-6.7 21.5,-6.7 10.7,0 10.7,6.7 21.5,6.7 10.7,0 10.7,-6.7 21.5,-6.7 10.7,0 10.7,6.7 21.5,6.7 10.7,0 10.7,-6.7 21.5,-6.7 10.7,0 10.7,6.7 21.5,6.7 10.7,0 10.7,-6.7 21.5,-6.7 10.7,0 10.7,6.7 21.5,6.7 10.7,0 10.7,-6.7 21.5,-6.7 10.7,0 10.7,6.7 21.5,6.7 10.7,0 10.7,-6.7 21.5,-6.7 10.7,0 10.7,6.7 21.5,6.7 10.7,0 10.7,-6.7 21.5,-6.7 10.7,0 10.7,6.7 21.5,6.7 10.7,0 10.7,-6.7 21.5,-6.7 10.7,0 10.7,6.7 21.5,6.7 10.7,0 10.7,-6.7 21.5,-6.7 10.7,0 10.7,6.7 21.5,6.7 10.7,0 10.7,-6.7 21.5,-6.7 10.7,0 10.7,6.7 21.5,6.7 10.7,0 10.7,-6.7 21.5,-6.7 10.7,0 10.7,6.7 21.5,6.7 10.7,0 10.7,-6.7 21.5,-6.7 10.7,0 10.7,6.7 21.5,6.7 10.7,0 10.7,-6.7 21.5,-6.7 10.7,0 10.7,6.7 21.5,6.7 10.7,0 10.7,-6.7 21.5,-6.7 10.7,0 10.7,6.7 21.5,6.7 10.7,0 10.7,-6.7 21.5,-6.7 10.7,0 10.7,6.7 21.5,6.7 10.7,0 10.7,-6.7 21.5,-6.7 10.7,0 10.7,6.7 21.5,6.7 10.7,0 10.7,-6.7 21.5,-6.7 10.7,0 10.7,6.7 21.5,6.7 10.7,0 10.7,-6.7 21.5,-6.7 10.7,0 10.7,6.7 21.5,6.7 10.7,0 10.7,-6.7 21.5,-6.7 10.7,0 10.7,6.7 21.5,6.7 10.7,0 10.7,-6.7 21.5,-6.7 10.7,0 10.7,6.7 21.5,6.7 10.7,0 10.7,-6.7 21.5,-6.7 10.7,0 10.7,6.7 21.5,6.7 10.7,0 10.7,-6.7 21.5,-6.7 10.7,0 10.7,6.7 21.5,6.7 10.8,0 10.7,-6.7 21.5,-6.7 10.7,0 10.7,6.7 21.5,6.7 10.7,0 10.7,-6.7 21.5,-6.7 10.7,0 10.7,6.7 21.5,6.7 10.7,0 10.5,-5.9 21.2,-6.7 0.8,-0.1 3.5,2.3 3.5,1.6 0,-0.8 -6.7,-0.4 -6.7,-1.2 0,-0.8 6.6,-1.2 6.6,-2 0,-0.8 -6.7,-0.4 -6.7,-1.2 0,-0.8 6.6,-1.2 6.6,-2 0,-0.8 -6.7,-0.4 -6.7,-1.2 0,-0.8 6.6,-1.2 6.6,-2 0,-0.8 -6.7,-0.4 -6.7,-1.2 0,-0.8 6.6,-1.2 6.6,-2 0,-0.8 -6.7,-0.4 -6.7,-1.2 0,-0.8 6.6,-1.2 6.6,-2 0,-0.8 -6.7,-0.4 -6.7,-1.2 0,-0.8 6.6,-1.2 6.6,-2 0,-0.8 -6.7,-0.4 -6.7,-1.2 0,-0.8 6.6,-1.2 6.6,-2 0,-0.8 -6.7,-0.4 -6.7,-1.2 0,-0.8 6.6,-1.2 6.6,-2 0,-0.8 -6.7,-0.4 -6.7,-1.2 0,-0.8 6.6,-1.2 6.6,-2 0,-0.8 -6.7,-0.4 -6.7,-1.2 0,-0.8 6.6,-1.2 6.6,-2 0,-0.8 -6.7,-0.4 -6.7,-1.2 0,-0.8 6.6,-1.2 6.6,-2 0,-0.8 -6.7,-0.4 -6.7,-1.2 0,-0.8 6.6,-1.2 6.6,-2 0,-0.8 -6.7,-0.4 -6.7,-1.2 0,-0.8 6.6,-1.2 6.6,-2 0,-0.8 -6.7,-0.4 -6.7,-1.2 0,-0.8 6.6,-1.2 6.6,-2 0,-0.8 -6.7,-0.4 -6.7,-1.2 0,-0.8 6.6,-1.2 6.6,-2 0,-0.8 -6.7,-0.4 -6.7,-1.2 0,-0.8 6.6,-1.2 6.6,-2 0,-0.8 -6.7,-0.4 -6.7,-1.2 0,-0.8 6.6,-1.2 6.6,-2 0,-0.8 -6.7,-0.4 -6.7,-1.2 0,-0.8 6.6,-1.2 6.6,-2 0,-0.8 -6.7,-0.4 -6.7,-1.2 0,-0.8 6.6,-1.2 6.6,-2 0,-0.8 -6.7,-0.4 -6.7,-1.2 0,-0.8 6.6,-1.2 6.6,-2 0,-0.8 -6.7,-0.4 -6.7,-1.2 0,-0.8 6.6,-1.2 6.6,-2 0,-0.8 -6.7,-0.4 -6.7,-1.2 0,-0.8 6.6,-1.2 6.6,-2 0,-0.8 -6.7,-0.4 -6.7,-1.2 0,-0.8 6.6,-1.2 6.6,-2 0,-0.8 -6.7,-0.4 -6.7,-1.2 0,-0.8 6.6,-1.2 6.6,-2 0,-0.8 -6.7,-0.4 -6.7,-1.2 0,-0.8 6.6,-1.2 6.6,-2 0,-0.8 -6.7,-0.4 -6.7,-1.2 0,-0.8 6.6,-1.2 6.6,-2 0,-0.8 -6.7,-0.4 -6.7,-1.2 0,-0.8 6.6,-1.2 6.6,-2 0,-0.8 -6.7,-0.4 -6.7,-1.2 0,-0.8 6.6,-1.2 6.6,-2 0,-0.8 -6.7,-0.4 -6.7,-1.2 0,-0.8 6.6,-1.2 6.6,-2 0,-0.8 -6.7,-0.4 -6.7,-1.2 0,-0.8 1,0.8 1.7,1.2 -2.1,3.5 -0.9,1.9 -1.7,1.8 z" /></g><g
     transform="translate(0,-386.04965)"
     id="g4494"><path
       id="path4496"
       d="m 1300,765 c 0,0 0,0 0,0 -5.9,0 -9,-2.1 -11.8,-3.8 -2.6,-1.6 -4.9,-3.2 -9.6,-3.2 0,0 0,0 0,0 -4.8,0 -7,1.6 -9.6,3.2 -2.7,1.7 -5.8,3.8 -11.7,3.8 0,0 0,0 0,0 -5.9,0 -9,-2.1 -11.7,-3.8 -2.6,-1.6 -4.9,-3.2 -9.6,-3.2 0,0 0,0 0,0 -4.8,0 -7,1.6 -9.6,3.2 -2.7,1.7 -5.8,3.8 -11.7,3.8 0,0 0,0 0,0 -5.9,0 -9,-2.1 -11.7,-3.8 -2.6,-1.6 -4.9,-3.2 -9.6,-3.2 0,0 0,0 0,0 -4.8,0 -7,1.6 -9.6,3.2 -2.7,1.7 -5.8,3.8 -11.7,3.8 0,0 0,0 0,0 -5.9,0 -9,-2.1 -11.7,-3.8 -2.6,-1.6 -4.9,-3.2 -9.6,-3.2 0,0 0,0 0,0 -4.8,0 -7,1.6 -9.6,3.2 -2.7,1.7 -5.8,3.8 -11.7,3.8 0,0 0,0 0,0 -5.9,0 -9,-2.1 -11.7,-3.8 -2.6,-1.6 -4.9,-3.2 -9.6,-3.2 0,0 0,0 0,0 -4.8,0 -7,1.6 -9.6,3.2 -2.7,1.7 -5.8,3.8 -11.7,3.8 0,0 0,0 0,0 -5.9,0 -9,-2.1 -11.7,-3.8 -2.6,-1.6 -4.9,-3.2 -9.6,-3.2 0,0 0,0 0,0 -4.8,0 -7,1.6 -9.6,3.2 -2.7,1.7 -5.8,3.8 -11.7,3.8 0,0 0,0 0,0 -5.9,0 -9,-2.1 -11.7,-3.8 -2.6,-1.6 -4.9,-3.2 -9.6,-3.2 0,0 0,0 0,0 -4.8,0 -7,1.6 -9.6,3.2 -2.7,1.7 -5.8,3.8 -11.7,3.8 0,0 0,0 0,0 -5.9,0 -9,-2.1 -11.7,-3.8 -2.6,-1.6 -4.9,-3.2 -9.6,-3.2 0,0 0,0 0,0 -4.8,0 -7,1.6 -9.6,3.2 -2.7,1.7 -5.8,3.8 -11.7,3.8 0,0 0,0 0,0 -5.9,0 -9,-2.1 -11.7,-3.8 -2.6,-1.6 -4.9,-3.2 -9.6,-3.2 0,0 0,0 0,0 -4.8,0 -7,1.1 -9.6,2.7 -2.7,1.7 -5.8,3.3 -11.7,3.3 0,0 0,0 0,0 -5.9,0 -9,-1.6 -11.7,-3.3 -2.6,-1.6 -4.9,-2.7 -9.6,-2.7 0,0 0,0 0,0 -4.8,0 -7,1.1 -9.6,2.7 -2.7,1.7 -5.8,3.3 -11.7,3.3 0,0 0,0 0,0 -5.9,0 -9,-1.6 -11.7,-3.3 -2.6,-1.6 -4.9,-2.7 -9.6,-2.7 0,0 0,0 0,0 -4.8,0 -7,1.1 -9.6,2.7 -2.7,1.7 -5.8,3.3 -11.7,3.3 0,0 0,0 0,0 -5.9,0 -9,-1.6 -11.7,-3.3 -2.6,-1.6 -4.9,-2.7 -9.6,-2.7 0,0 0,0 0,0 -4.8,0 -7,1.1 -9.6,2.7 -2.7,1.7 -5.8,3.3 -11.7,3.3 0,0 0,0 0,0 -5.9,0 -9,-1.6 -11.7,-3.3 -2.6,-1.6 -4.9,-2.7 -9.6,-2.7 0,0 0,0 0,0 -4.8,0 -7,1.1 -9.6,2.7 -2.7,1.7 -5.8,3.3 -11.7,3.3 0,0 0,0 0,0 -5.9,0 -9,-1.6 -11.7,-3.3 -2.6,-1.6 -4.9,-2.7 -9.6,-2.7 0,0 0,0 0,0 -4.8,0 -7,1.1 -9.6,2.7 -2.7,1.7 -5.8,3.3 -11.7,3.3 0,0 0,0 0,0 -5.9,0 -9,-1.6 -11.7,-3.3 -2.6,-1.6 -4.9,-2.7 -9.6,-2.7 0,0 0,0 0,0 -4.8,0 -7,1.1 -9.6,2.7 -2.7,1.7 -5.8,3.3 -11.7,3.3 0,0 0,0 0,0 -5.9,0 -9,-1.6 -11.7,-3.3 -2.6,-1.6 -4.9,-2.7 -9.6,-2.7 0,0 0,0 0,0 -4.8,0 -7,1.1 -9.6,2.7 -2.7,1.7 -5.8,3.3 -11.7,3.3 0,0 0,0 0,0 -5.9,0 -9,-1.6 -11.7,-3.3 -2.6,-1.6 -4.9,-2.7 -9.6,-2.7 0,0 0,0 0,0 -4.8,0 -7,1.1 -9.6,2.7 -2.7,1.7 -5.8,3.3 -11.7,3.3 0,0 0,0 0,0 -5.9,0 -9,-2.1 -11.7,-3.8 -2.6,-1.6 -4.9,-3.2 -9.6,-3.2 0,0 0,0 0,0 -4.8,0 -7,1.6 -9.6,3.2 -2.7,1.7 -5.8,3.8 -11.7,3.8 0,0 0,0 0,0 -5.9,0 -9,-2.1 -11.7,-3.8 -2.6,-1.6 -4.9,-3.2 -9.6,-3.2 0,0 0,0 0,0 -4.8,0 -7,1.6 -9.6,3.2 -2.7,1.7 -5.8,3.8 -11.7,3.8 0,0 0,0 0,0 -5.9,0 -9,-2.1 -11.7,-3.8 -2.6,-1.6 -4.9,-3.2 -9.6,-3.2 0,0 0,0 0,0 -4.8,0 -7,1.6 -9.6,3.2 -2.7,1.7 -5.8,3.8 -11.7,3.8 0,0 0,0 0,0 -5.9,0 -9,-2.1 -11.7,-3.8 -2.6,-1.6 -4.9,-3.2 -9.6,-3.2 0,0 0,0 0,0 -4.8,0 -7,1.6 -9.6,3.2 -2.7,1.7 -5.8,3.8 -11.7,3.8 0,0 0,0 0,0 -5.9,0 -9,-2.1 -11.7,-3.8 -2.6,-1.6 -4.9,-3.2 -9.6,-3.2 0,0 0,0 0,0 -4.8,0 -7,1.6 -9.6,3.2 -2.7,1.7 -5.8,3.8 -11.7,3.8 0,0 0,0 0,0 -5.9,0 -9,-2.1 -11.7,-3.8 -2.6,-1.6 -4.9,-3.2 -9.6,-3.2 0,0 0,0 0,0 -4.8,0 -7,1.6 -9.6,3.2 -2.7,1.7 -5.8,3.8 -11.7,3.8 0,0 0,0 0,0 -5.9,0 -9,-2.1 -11.7,-3.8 -2.6,-1.6 -4.9,-3.2 -9.6,-3.2 0,0 0,0 0,0 -4.8,0 -7,1.5 -9.6,3.1 -2.7,1.7 -5.8,3.7 -11.8,3.7 -5.9,0 -9,-2 -11.7,-3.7 -2.6,-1.6 -4.9,-3.1 -9.6,-3.1 0,0 0,0 0,0 -4.8,0 -7,1.6 -9.6,3.2 -2.7,1.7 -5.8,3.8 -11.7,3.8 0,0 0,0 0,0 -5.9,0 -9,-2.1 -11.7,-3.8 -2.6,-1.6 -4.9,-3.2 -9.6,-3.2 0,0 0,0 0,0 -4.8,0 -7,1.6 -9.6,3.2 -2.7,1.7 -5.8,3.8 -11.7,3.8 0,0 0,0 0,0 -5.9,0 -9,-2.1 -11.7,-3.8 -2.6,-1.6 -4.9,-3.2 -9.6,-3.2 0,0 0,0 0,0 -4.8,0 -7,1.6 -9.6,3.2 -2.7,1.7 -5.8,3.8 -11.7,3.8 0,0 0,0 0,0 -5.9,0 -9,-2.1 -11.7,-3.8 -2.6,-1.6 -4.9,-3.2 -9.6,-3.2 0,0 0,0 0,0 -4.8,0 -7,1.6 -9.6,3.2 -2.7,1.7 -5.8,3.8 -11.7,3.8 0,0 0,0 0,0 -5.9,0 -9,-2.1 -11.7,-3.8 -2.6,-1.6 -4.9,-3.2 -9.6,-3.2 0,0 0,0 0,0 -4.8,0 -7,1.6 -9.6,3.2 -2.7,1.7 -5.8,3.8 -11.7,3.8 0,0 0,0 0,0 -5.9,0 -9,-2.1 -11.7,-3.8 -2.6,-1.6 -4.9,-3.2 -9.6,-3.2 0,0 0,0 0,0 -4.8,0 -7,1.6 -9.6,3.2 -2.7,1.7 -5.8,3.8 -11.7,3.8 0,0 0,0 0,0 -5.9,0 -9,-2.2 -11.7,-3.9 C 7.5,758.5 5.2,757 0.5,757 l 0,-4.1 c 5.9,0 9,2.1 11.7,3.8 2.6,1.6 4.9,3.2 9.6,3.2 0,0 0,0 0,0 4.8,0 7,-1.6 9.6,-3.2 2.7,-1.7 5.8,-3.8 11.7,-3.8 0,0 0,0 0,0 5.9,0 9,2.1 11.7,3.8 2.6,1.6 4.9,3.2 9.6,3.2 0,0 0,0 0,0 4.8,0 7,-1.6 9.6,-3.2 2.7,-1.7 5.8,-3.8 11.7,-3.8 0,0 0,0 0,0 5.9,0 9,2.1 11.7,3.8 2.6,1.6 4.9,3.2 9.6,3.2 0,0 0,0 0,0 4.8,0 7,-1.6 9.6,-3.2 2.7,-1.7 5.8,-3.8 11.7,-3.8 0,0 0,0 0,0 5.9,0 9,2.1 11.7,3.8 2.6,1.6 4.9,3.2 9.6,3.2 0,0 0,0 0,0 4.8,0 7,-1.6 9.6,-3.2 2.7,-1.7 5.8,-3.8 11.7,-3.8 0,0 0,0 0,0 5.9,0 9,2.1 11.7,3.8 2.6,1.6 4.9,3.2 9.6,3.2 0,0 0,0 0,0 4.8,0 7,-1.6 9.6,-3.2 2.7,-1.7 5.8,-3.8 11.7,-3.8 0,0 0,0 0,0 5.9,0 9,2.1 11.7,3.8 2.6,1.6 4.9,3.2 9.6,3.2 0,0 0,0 0,0 4.8,0 7,-1.6 9.6,-3.2 2.7,-1.7 5.8,-3.8 11.7,-3.8 0,0 0,0 0,0 5.9,0 9,2.1 11.7,3.8 2.6,1.6 4.9,3.2 9.6,3.2 0,0 0,0 0,0 4.8,0 7,-1.6 9.6,-3.2 2.7,-1.7 5.8,-3.8 11.7,-3.8 0,0 0,0 0,0 5.9,0 9,2.1 11.7,3.8 2.6,1.6 4.9,3.2 9.6,3.2 0,0 0,0 0,0 4.8,0 7,-1.6 9.6,-3.2 2.7,-1.7 5.8,-3.8 11.7,-3.8 0,0 0,0 0,0 5.9,0 9,2.1 11.7,3.8 2.6,1.6 4.9,3.2 9.6,3.2 0,0 0,0 0,0 4.8,0 7,-1.6 9.6,-3.2 2.7,-1.7 5.8,-3.8 11.7,-3.8 0,0 0,0 0,0 5.9,0 9,2.1 11.7,3.8 2.6,1.6 4.9,3.2 9.6,3.2 0,0 0,0 0,0 4.8,0 7,-1.6 9.6,-3.2 2.7,-1.7 5.8,-3.8 11.7,-3.8 0,0 0,0 0,0 5.9,0 9,2.1 11.7,3.8 2.6,1.6 4.9,3.2 9.6,3.2 0,0 0,0 0,0 4.8,0 7,-1.6 9.6,-3.2 2.7,-1.7 5.8,-3.8 11.7,-3.8 0,0 0,0 0,0 5.9,0 9,2.1 11.7,3.8 2.6,1.6 4.9,3.2 9.6,3.2 0,0 0,0 0,0 4.8,0 7,-1.6 9.6,-3.2 2.7,-1.7 5.8,-3.8 11.7,-3.8 0,0 0,0 0,0 5.9,0 9,2.1 11.7,3.8 2.6,1.6 4.9,3.2 9.6,3.2 0,0 0,0 0,0 4.8,0 7,-1.6 9.6,-3.2 2.7,-1.7 5.8,-3.8 11.7,-3.8 0,0 0,0 0,0 5.9,0 9,2.1 11.7,3.8 2.6,1.6 4.9,3.2 9.6,3.2 0,0 0,0 0,0 4.8,0 7,-1.3 9.6,-2.9 2.7,-1.7 5.8,-3.6 11.8,-3.6 5.9,0 9,1.9 11.7,3.6 2.6,1.6 4.9,3 9.6,3 0,0 0,0 0,0 4.8,0 7,-1.1 9.6,-2.7 2.7,-1.7 5.8,-3.3 11.7,-3.3 0,0 0,0 0,0 5.9,0 9,1.6 11.7,3.3 2.6,1.6 4.9,2.7 9.6,2.7 0,0 0,0 0,0 4.8,0 7,-1.1 9.6,-2.7 2.7,-1.7 5.8,-3.3 11.7,-3.3 0,0 0,0 0,0 5.9,0 9,1.6 11.7,3.3 2.6,1.6 4.9,2.7 9.6,2.7 0,0 0,0 0,0 4.8,0 7,-1.1 9.6,-2.7 2.7,-1.7 5.8,-3.3 11.7,-3.3 0,0 0,0 0,0 5.9,0 9,1.6 11.7,3.3 2.6,1.6 4.9,2.7 9.6,2.7 0,0 0,0 0,0 4.8,0 7,-1.1 9.6,-2.7 2.7,-1.7 5.8,-3.3 11.7,-3.3 0,0 0,0 0,0 5.9,0 9,1.6 11.7,3.3 2.6,1.6 4.9,2.7 9.6,2.7 0,0 0,0 0,0 4.8,0 7,-1.1 9.6,-2.7 2.7,-1.7 5.8,-3.3 11.7,-3.3 0,0 0,0 0,0 5.9,0 9,1.6 11.7,3.3 2.6,1.6 4.9,2.7 9.6,2.7 0,0 0,0 0,0 4.8,0 7,-1.1 9.6,-2.7 2.7,-1.7 5.8,-3.3 11.7,-3.3 0,0 0,0 0,0 5.9,0 9,1.6 11.7,3.3 2.6,1.6 4.9,2.7 9.6,2.7 0,0 0,0 0,0 4.8,0 7,-1.1 9.6,-2.7 2.7,-1.7 5.8,-3.3 11.7,-3.3 0,0 0,0 0,0 5.9,0 9,1.6 11.7,3.3 2.6,1.6 4.9,2.7 9.6,2.7 0,0 0,0 0,0 4.8,0 7,-1.1 9.6,-2.7 2.7,-1.7 5.8,-3.3 11.7,-3.3 0,0 0,0 0,0 5.9,0 9,2.1 11.7,3.8 2.6,1.6 4.9,3.2 9.6,3.2 0,0 0,0 0,0 4.8,0 7,-1.6 9.6,-3.2 2.7,-1.7 5.8,-3.8 11.7,-3.8 0,0 0,0 0,0 5.9,0 9,2.1 11.7,3.8 2.6,1.6 4.9,3.2 9.6,3.2 0,0 0,0 0,0 4.8,0 7,-1.6 9.6,-3.2 2.7,-1.7 5.8,-3.8 11.7,-3.8 0,0 0,0 0,0 5.9,0 9,2.1 11.7,3.8 2.6,1.6 4.9,3.2 9.6,3.2 0,0 0,0 0,0 4.8,0 7,-1.6 9.6,-3.2 2.7,-1.7 5.8,-3.8 11.7,-3.8 0,0 0,0 0,0 5.9,0 9,2.1 11.7,3.8 2.6,1.6 4.9,3.2 9.6,3.2 0,0 0,0 0,0 4.8,0 7,-1.6 9.6,-3.2 2.7,-1.7 5.9,-3.7 11.8,-3.7 5.9,0 9,2 11.7,3.7 2.6,1.6 4.9,3.1 9.6,3.1 0,0 0,0 0,0 4.8,0 7,-1.6 9.6,-3.2 2.7,-1.7 5.8,-3.8 11.7,-3.8 0,0 0,0 0,0 5.9,0 9,2.1 11.7,3.8 2.6,1.6 4.9,3.2 9.6,3.2 0,0 0,0 0,0 4.8,0 7,-1.6 9.6,-3.2 2.7,-1.7 5.8,-3.8 11.7,-3.8 0,0 0,0 0,0 5.9,0 9,2.1 11.7,3.8 2.6,1.6 4.9,3.2 9.6,3.2 0,0 0,0 0,0 4.8,0 7,-1.6 9.6,-3.2 2.7,-1.7 5.8,-3.8 11.7,-3.8 0,0 0,0 0,0 5.9,0 9,2.1 11.7,3.8 2.6,1.6 4.9,3.2 9.6,3.2 0,0 0,0 0,0 4.8,0 7,-1.6 9.6,-3.2 2.7,-1.7 5.8,-3.8 11.7,-3.8 0,0 0,0 0,0 5.9,0 9,2.1 11.8,3.8 2.6,1.6 4.9,3.2 9.6,3.2 0,0 0,0 0,0 4.8,0 7,-1.6 9.6,-3.2 2.7,-1.7 5.8,-3.8 11.7,-3.8 0,0 0,0 0,0 l 0,4 c 0,0 0,0 0,0 -4.8,0 -7,1.6 -9.6,3.2 -2.8,1.8 -5.9,3.9 -11.8,3.9 z" /></g><g
     transform="translate(0,-386.04965)"
     id="g4498"><polygon
       style="fill:#ffffff"
       id="polygon4500"
       points="110,659 110,713 196,713 196,659 212.6,659 152,608.2 96.4,659 " /><path
       id="path4502"
       d="m 198,715 -90,0 0,-54 -16.8,0 60.7,-55.5 66.2,55.5 -20.1,0 0,54 z m -86,-4 82,0 0,-54 13.1,0 -55.1,-46.1 -50.5,46.1 10.5,0 0,54 z" /></g><g
     transform="translate(0,-386.04965)"
     id="g4504"><rect
       style="fill:#ffffff"
       id="rect4506"
       height="20.9"
       width="20.9"
       transform="matrix(0.9202,0.3914,-0.3914,0.9202,327.6417,-68.357)"
       y="759.09998"
       x="321" /><path
       id="path4508"
       d="m 338.1,785.9 -22.9,-9.8 9.8,-22.9 22.9,9.8 -9.8,22.9 z M 320.4,774 336,780.6 342.6,765 327,758.4 320.4,774 Z" /></g><g
     transform="translate(0,-386.04965)"
     id="g4510"><rect
       style="fill:#ffffff"
       id="rect4512"
       height="20.9"
       width="20.9"
       transform="matrix(0.8723,-0.4889,0.4889,0.8723,-356.8477,172.4843)"
       y="759.09998"
       x="141.39999" /><path
       id="path4514"
       d="m 147.1,786.5 -12.2,-21.8 21.8,-12.2 12.2,21.8 -21.8,12.2 z m -6.8,-20.2 8.3,14.8 14.8,-8.3 -8.3,-14.8 -14.8,8.3 z" /></g><g
     transform="translate(0,-386.04965)"
     id="g4516"><path
       style="fill:#ffffff"
       id="path4518"
       d="m 1301.2,779.9 c -10.7,-0.8 -10.4,-6.7 -21.1,-6.7 -10.7,0 -10.7,6.6 -21.4,6.6 -10.7,0 -10.7,-6.7 -21.4,-6.7 -10.7,0 -10.7,6.6 -21.4,6.6 -10.7,0 -10.7,-6.7 -21.4,-6.7 -10.7,0 -10.7,6.6 -21.4,6.6 -10.7,0 -10.7,-6.7 -21.4,-6.7 -10.7,0 -10.7,6.6 -21.4,6.6 -10.7,0 -10.7,-6.7 -21.4,-6.7 -10.7,0 -10.7,6.6 -21.4,6.6 -10.7,0 -10.7,-6.7 -21.4,-6.7 -10.7,0 -10.7,6.6 -21.4,6.6 -10.7,0 -10.7,-6.7 -21.4,-6.7 -10.7,0 -10.7,6.6 -21.4,6.6 -10.7,0 -10.7,-6.7 -21.4,-6.7 -10.7,0 -10.7,6.6 -21.4,6.6 -10.7,0 -10.7,-6.7 -21.4,-6.7 -10.7,0 -10.7,6.6 -21.4,6.6 -10.7,0 -10.7,-6.7 -21.4,-6.7 -10.7,0 -10.7,6.6 -21.4,6.6 -10.7,0 -10.7,-6.7 -21.4,-6.7 -10.7,0 -10.7,6.6 -21.4,6.6 -10.7,0 -10.7,-6.7 -21.4,-6.7 -10.7,0 -10.7,6.6 -21.4,6.6 -10.7,0 -10.7,-6.7 -21.4,-6.7 -10.7,0 -10.7,6.6 -21.4,6.6 -10.7,0 -10.7,-6.7 -21.4,-6.7 -10.7,0 -10.7,6.6 -21.4,6.6 -10.7,0 -10.7,-6.7 -21.4,-6.7 -10.7,0 -10.7,6.6 -21.4,6.6 -10.7,0 -10.7,-6.7 -21.4,-6.7 -10.7,0 -10.7,6.6 -21.4,6.6 -10.7,0 -10.7,-6.7 -21.4,-6.7 -10.7,0 -10.7,6.6 -21.4,6.6 -10.7,0 -10.7,-6.7 -21.4,-6.7 -10.7,0 -10.7,6.6 -21.4,6.6 -10.7,0 -10.7,-6.7 -21.4,-6.7 -10.7,0 -10.7,6.6 -21.4,6.6 -10.7,0 -10.7,-6.7 -21.4,-6.7 -10.7,0 -10.7,6.6 -21.4,6.6 -10.7,0 -10.7,-6.7 -21.4,-6.7 -10.7,0 -10.7,6.6 -21.4,6.6 -10.7,0 -10.7,-6.7 -21.4,-6.7 -10.7,0 -10.7,6.6 -21.4,6.6 -10.7,0 -10.7,-6.7 -21.4,-6.7 -10.7,0 -10.7,6.6 -21.4,6.6 -10.7,0 -10.7,-6.7 -21.4,-6.7 -10.7,0 -10.7,6.6 -21.4,6.6 -10.7,0 -10.7,-6.7 -21.4,-6.7 -10.7,0 -10.7,6.6 -21.4,6.6 -10.7,0 -10.7,-6.7 -21.4,-6.7 -10.7,0 -10.7,6.6 -21.4,6.6 -10.7,0 -10.7,-6.7 -21.4,-6.7 -10.7,0 -10.7,6.6 -21.4,6.6 -10.7,0 -10.7,-6.7 -21.4,-6.7 -10.7,0 -10.7,6.6 -21.4,6.6 -10.7,0 -10.7,-6.7 -21.4,-6.7 -10.7,0 -10.7,6.6 -21.4,6.6 -10.7,0 -10.7,-6.7 -21.4,-6.7 -10.7,0 -10.7,6.6 -21.4,6.6 -10.7,0 -10.7,-6.7 -21.4,-6.7 -10.7,0 -10.5,5.8 -21.2,6.6 -0.8,0.1 -3.6,-2.5 -3.6,-1.7 0,0.8 6.7,0.8 6.7,1.6 0,0.8 -6.7,0.8 -6.7,1.6 0,0.8 6.7,0.8 6.7,1.6 0,0.8 -6.7,0.8 -6.7,1.6 0,0.8 6.7,0.8 6.7,1.6 0,0.8 -6.7,0.8 -6.7,1.6 0,0.8 6.7,0.8 6.7,1.6 0,0.8 -6.7,0.8 -6.7,1.6 0,0.8 6.7,0.8 6.7,1.6 0,0.8 -6.7,0.8 -6.7,1.6 0,0.8 6.7,0.8 6.7,1.6 0,0.8 -6.7,0.8 -6.7,1.6 0,0.8 6.7,0.8 6.7,1.6 0,0.8 -6.7,0.8 -6.7,1.6 0,0.8 6.7,0.8 6.7,1.6 0,0.8 -6.7,0.8 -6.7,1.6 0,0.8 6.7,0.8 6.7,1.6 0,0.8 -6.7,0.8 -6.7,1.6 0,0.8 6.7,0.8 6.7,1.6 0,0.8 -6.7,0.8 -6.7,1.6 0,0.8 6.7,0.8 6.7,1.6 0,0.8 -6.7,0.8 -6.7,1.6 0,0.8 6.7,0.8 6.7,1.6 0,0.8 -6.7,0.8 -6.7,1.6 0,0.8 6.7,0.8 6.7,1.6 0,0.8 -6.7,0.8 -6.7,1.6 0,0.8 6.7,0.8 6.7,1.6 0,0.8 -6.7,0.8 -6.7,1.6 0,0.8 6.7,0.8 6.7,1.6 0,0.8 -6.7,0.8 -6.7,1.6 0,0.8 6.7,0.8 6.7,1.6 0,0.8 -6.7,0.8 -6.7,1.6 0,0.8 6.7,0.8 6.7,1.6 0,0.8 -6.7,0.8 -6.7,1.6 0,0.8 6.7,0.8 6.7,1.6 0,0.8 -6.7,0.8 -6.7,1.6 0,0.8 6.7,0.8 6.7,1.6 0,0.8 -6.7,0.8 -6.7,1.6 0,0.8 6.7,0.8 6.7,1.6 0,0.8 -6.7,0.8 -6.7,1.6 0,0.8 6.7,0.8 6.7,1.6 0,0.8 -6.7,0.8 -6.7,1.6 0,0.8 6.7,0.8 6.7,1.6 0,0.8 -6.7,0.8 -6.7,1.6 0,0.8 6.7,0.8 6.7,1.6 0,0.8 -6.7,0.8 -6.7,1.6 0,0.8 6.7,0.8 6.7,1.6 0,0.8 -6.7,0.8 -6.7,1.6 0,0.8 6.7,0.8 6.7,1.6 0,0.8 -6.7,0.8 -6.7,1.6 0,0.8 6.7,0.8 6.7,1.6 0,0.8 -6.7,0.8 -6.7,1.6 0,0.8 6.7,0.8 6.7,1.6 0,0.8 -6.7,0.8 -6.7,1.6 0,0.8 6.7,0.8 6.7,1.6 0,0.8 -6.7,0.8 -6.7,1.6 0,0.8 6.7,0.8 6.7,1.6 0,0.8 -6.7,0.8 -6.7,1.6 0,0.8 6.7,0.8 6.7,1.6 0,0.8 -6.7,0.8 -6.7,1.6 0,0.8 2.8,-1.8 3.6,-1.7 10.7,0.8 10.5,6.6 21.2,6.6 10.7,0 10.7,-6.7 21.5,-6.7 10.7,0 10.7,6.7 21.5,6.7 10.7,0 10.7,-6.7 21.5,-6.7 10.7,0 10.7,6.7 21.5,6.7 10.7,0 10.7,-6.7 21.5,-6.7 10.7,0 10.7,6.7 21.5,6.7 10.7,0 10.7,-6.7 21.5,-6.7 10.7,0 10.7,6.7 21.5,6.7 10.7,0 10.7,-6.7 21.5,-6.7 10.7,0 10.7,6.7 21.5,6.7 10.7,0 10.7,-6.7 21.5,-6.7 10.7,0 10.7,6.7 21.5,6.7 10.7,0 10.7,-6.7 21.5,-6.7 10.7,0 10.7,6.7 21.5,6.7 10.7,0 10.7,-6.7 21.5,-6.7 10.7,0 10.7,6.7 21.5,6.7 10.7,0 10.7,-6.7 21.5,-6.7 10.7,0 10.7,6.7 21.5,6.7 10.7,0 10.7,-6.7 21.5,-6.7 10.7,0 10.7,6.7 21.5,6.7 10.7,0 10.7,-6.7 21.5,-6.7 10.7,0 10.7,6.7 21.5,6.7 10.7,0 10.7,-6.7 21.5,-6.7 10.7,0 10.7,6.7 21.5,6.7 10.7,0 10.7,-6.7 21.5,-6.7 10.7,0 10.7,6.7 21.5,6.7 10.7,0 10.7,-6.7 21.5,-6.7 10.7,0 10.7,6.7 21.5,6.7 10.7,0 10.7,-6.7 21.5,-6.7 10.7,0 10.7,6.7 21.5,6.7 10.7,0 10.7,-6.7 21.5,-6.7 10.7,0 10.7,6.7 21.5,6.7 10.7,0 10.7,-6.7 21.5,-6.7 10.7,0 10.7,6.7 21.5,6.7 10.7,0 10.7,-6.7 21.5,-6.7 10.7,0 10.7,6.7 21.5,6.7 10.7,0 10.7,-6.7 21.5,-6.7 10.7,0 10.7,6.7 21.5,6.7 10.7,0 10.7,-6.7 21.5,-6.7 10.7,0 10.7,6.7 21.5,6.7 10.7,0 10.7,-6.7 21.5,-6.7 10.7,0 10.7,6.7 21.5,6.7 10.7,0 10.7,-6.7 21.5,-6.7 10.7,0 10.7,6.7 21.5,6.7 10.7,0 10.7,-6.7 21.5,-6.7 10.7,0 10.7,6.7 21.5,6.7 10.7,0 10.7,-6.7 21.5,-6.7 10.7,0 10.7,6.7 21.5,6.7 10.7,0 10.7,-6.7 21.5,-6.7 10.7,0 10.7,6.7 21.5,6.7 10.7,0 10.7,-6.7 21.5,-6.7 10.7,0 10.7,6.7 21.5,6.7 10.7,0 10.7,-6.7 21.5,-6.7 10.7,0 10.7,6.7 21.5,6.7 10.7,0 10.7,-6.7 21.5,-6.7 10.7,0 10.7,6.7 21.5,6.7 10.8,0 10.7,-6.7 21.5,-6.7 10.7,0 10.7,6.7 21.5,6.7 10.7,0 10.7,-6.7 21.5,-6.7 10.7,0 10.7,6.7 21.5,6.7 10.7,0 10.5,-5.9 21.2,-6.7 0.8,-0.1 3.5,2.3 3.5,1.6 0,-0.8 -6.7,-0.4 -6.7,-1.2 0,-0.8 6.6,-1.2 6.6,-2 0,-0.8 -6.7,-0.4 -6.7,-1.2 0,-0.8 6.6,-1.2 6.6,-2 0,-0.8 -6.7,-0.4 -6.7,-1.2 0,-0.8 6.6,-1.2 6.6,-2 0,-0.8 -6.7,-0.4 -6.7,-1.2 0,-0.8 6.6,-1.2 6.6,-2 0,-0.8 -6.7,-0.4 -6.7,-1.2 0,-0.8 6.6,-1.2 6.6,-2 0,-0.8 -6.7,-0.4 -6.7,-1.2 0,-0.8 6.6,-1.2 6.6,-2 0,-0.8 -6.7,-0.4 -6.7,-1.2 0,-0.8 6.6,-1.2 6.6,-2 0,-0.8 -6.7,-0.4 -6.7,-1.2 0,-0.8 6.6,-1.2 6.6,-2 0,-0.8 -6.7,-0.4 -6.7,-1.2 0,-0.8 6.6,-1.2 6.6,-2 0,-0.8 -6.7,-0.4 -6.7,-1.2 0,-0.8 6.6,-1.2 6.6,-2 0,-0.8 -6.7,-0.4 -6.7,-1.2 0,-0.8 6.6,-1.2 6.6,-2 0,-0.8 -6.7,-0.4 -6.7,-1.2 0,-0.8 6.6,-1.2 6.6,-2 0,-0.8 -6.7,-0.4 -6.7,-1.2 0,-0.8 6.6,-1.2 6.6,-2 0,-0.8 -6.7,-0.4 -6.7,-1.2 0,-0.8 6.6,-1.2 6.6,-2 0,-0.8 -6.7,-0.4 -6.7,-1.2 0,-0.8 6.6,-1.2 6.6,-2 0,-0.8 -6.7,-0.4 -6.7,-1.2 0,-0.8 6.6,-1.2 6.6,-2 0,-0.8 -6.7,-0.4 -6.7,-1.2 0,-0.8 6.6,-1.2 6.6,-2 0,-0.8 -6.7,-0.4 -6.7,-1.2 0,-0.8 6.6,-1.2 6.6,-2 0,-0.8 -6.7,-0.4 -6.7,-1.2 0,-0.8 6.6,-1.2 6.6,-2 0,-0.8 -6.7,-0.4 -6.7,-1.2 0,-0.8 6.6,-1.2 6.6,-2 0,-0.8 -6.7,-0.4 -6.7,-1.2 0,-0.8 6.6,-1.2 6.6,-2 0,-0.8 -6.7,-0.4 -6.7,-1.2 0,-0.8 6.6,-1.2 6.6,-2 0,-0.8 -6.7,-0.4 -6.7,-1.2 0,-0.8 6.6,-1.2 6.6,-2 0,-0.8 -6.7,-0.4 -6.7,-1.2 0,-0.8 6.6,-1.2 6.6,-2 0,-0.8 -6.7,-0.4 -6.7,-1.2 0,-0.8 6.6,-1.2 6.6,-2 0,-0.8 -6.7,-0.4 -6.7,-1.2 0,-0.8 6.6,-1.2 6.6,-2 0,-0.8 -6.7,-0.4 -6.7,-1.2 0,-0.8 6.6,-1.2 6.6,-2 0,-0.8 -6.7,-0.4 -6.7,-1.2 0,-0.8 6.6,-1.2 6.6,-2 0,-0.8 -6.7,-0.4 -6.7,-1.2 0,-0.8 6.6,-1.2 6.6,-2 0,-0.8 -6.7,-0.4 -6.7,-1.2 0,-0.8 1,0.8 1.7,1.2 -2.1,3.5 -0.9,1.9 -1.7,1.8 z" /></g><g
     transform="translate(0,-386.04965)"
     id="g4520"><g
       id="g4522"><rect
         style="fill:#ffffff"
         id="rect4524"
         height="18.299999"
         width="6.6999998"
         y="684"
         x="122.7" /><path
         id="path4526"
         d="m 131.3,704.3 -10.7,0 0,-22.3 10.7,0 0,22.3 z m -6.6,-4 2.7,0 0,-14.3 -2.7,0 0,14.3 z" /></g><g
       id="g4528"><rect
         style="fill:#ffffff"
         id="rect4530"
         height="18.299999"
         width="6.6999998"
         y="684"
         x="139.39999" /><path
         id="path4532"
         d="m 148,704.3 -10.7,0 0,-22.3 10.7,0 0,22.3 z m -6.6,-4 2.7,0 0,-14.3 -2.7,0 0,14.3 z" /></g><g
       id="g4534"><rect
         style="fill:#ffffff"
         id="rect4536"
         height="18.299999"
         width="6.6999998"
         y="684"
         x="156.89999" /><path
         id="path4538"
         d="m 165.5,704.3 -10.7,0 0,-22.3 10.7,0 0,22.3 z m -6.6,-4 2.7,0 0,-14.3 -2.7,0 0,14.3 z" /></g><g
       id="g4540"><rect
         style="fill:#ffffff"
         id="rect4542"
         height="18.299999"
         width="6.6999998"
         y="642.29999"
         x="139.39999" /><path
         id="path4544"
         d="m 148,662.6 -10.7,0 0,-22.3 10.7,0 0,22.3 z m -6.6,-4 2.7,0 0,-14.3 -2.7,0 0,14.3 z" /></g><g
       id="g4546"><rect
         style="fill:#ffffff"
         id="rect4548"
         height="18.299999"
         width="6.6999998"
         y="642.29999"
         x="156.89999" /><path
         id="path4550"
         d="m 165.5,662.6 -10.7,0 0,-22.3 10.7,0 0,22.3 z m -6.6,-4 2.7,0 0,-14.3 -2.7,0 0,14.3 z" /></g><g
       id="g4552"><rect
         style="fill:#ffffff"
         id="rect4554"
         height="18.299999"
         width="6.6999998"
         y="684"
         x="174.39999" /><path
         id="path4556"
         d="m 183,704.3 -10.7,0 0,-22.3 10.7,0 0,22.3 z m -6.6,-4 2.7,0 0,-14.3 -2.7,0 0,14.3 z" /></g></g><g
     transform="translate(0,-386.04965)"
     id="g4558"><path
       id="path4560"
       d="m 1300,748 c 0,0 0,0 0,0 -5.9,0 -9,-2.1 -11.8,-3.8 -2.6,-1.6 -4.9,-3.2 -9.6,-3.2 0,0 0,0 0,0 -4.8,0 -7,1.6 -9.6,3.2 -2.7,1.7 -5.8,3.8 -11.7,3.8 0,0 0,0 0,0 -5.9,0 -9,-2.1 -11.7,-3.8 -2.6,-1.6 -4.9,-3.2 -9.6,-3.2 0,0 0,0 0,0 -4.8,0 -7,1.6 -9.6,3.2 -2.7,1.7 -5.8,3.8 -11.7,3.8 0,0 0,0 0,0 -5.9,0 -9,-2.1 -11.7,-3.8 -2.6,-1.6 -4.9,-3.2 -9.6,-3.2 0,0 0,0 0,0 -4.8,0 -7,1.6 -9.6,3.2 -2.7,1.7 -5.8,3.8 -11.7,3.8 0,0 0,0 0,0 -5.9,0 -9,-2.1 -11.7,-3.8 -2.6,-1.6 -4.9,-3.2 -9.6,-3.2 0,0 0,0 0,0 -4.8,0 -7,1.6 -9.6,3.2 -2.7,1.7 -5.8,3.8 -11.7,3.8 0,0 0,0 0,0 -5.9,0 -9,-2.1 -11.7,-3.8 -2.6,-1.6 -4.9,-3.2 -9.6,-3.2 0,0 0,0 0,0 -4.8,0 -7,1.6 -9.6,3.2 -2.7,1.7 -5.8,3.8 -11.7,3.8 0,0 0,0 0,0 -5.9,0 -9,-2.1 -11.7,-3.8 -2.6,-1.6 -4.9,-3.2 -9.6,-3.2 0,0 0,0 0,0 -4.8,0 -7,1.6 -9.6,3.2 -2.7,1.7 -5.8,3.8 -11.7,3.8 0,0 0,0 0,0 -5.9,0 -9,-2.1 -11.7,-3.8 -2.6,-1.6 -4.9,-3.2 -9.6,-3.2 0,0 0,0 0,0 -4.8,0 -7,1.6 -9.6,3.2 -2.7,1.7 -5.8,3.8 -11.7,3.8 0,0 0,0 0,0 -5.9,0 -9,-2.1 -11.7,-3.8 -2.6,-1.6 -4.9,-3.2 -9.6,-3.2 0,0 0,0 0,0 -4.8,0 -7,1.6 -9.6,3.2 -2.7,1.7 -5.8,3.8 -11.7,3.8 0,0 0,0 0,0 -5.9,0 -9,-2.1 -11.7,-3.8 -2.6,-1.6 -4.9,-3.2 -9.6,-3.2 0,0 0,0 0,0 -4.8,0 -7,1.1 -9.6,2.7 -2.7,1.7 -5.8,3.3 -11.7,3.3 0,0 0,0 0,0 -5.9,0 -9,-1.6 -11.7,-3.3 -2.6,-1.6 -4.9,-2.7 -9.6,-2.7 0,0 0,0 0,0 -4.8,0 -7,1.1 -9.6,2.7 -2.7,1.7 -5.8,3.3 -11.7,3.3 0,0 0,0 0,0 -5.9,0 -9,-1.6 -11.7,-3.3 -2.6,-1.6 -4.9,-2.7 -9.6,-2.7 0,0 0,0 0,0 -4.8,0 -7,1.1 -9.6,2.7 -2.7,1.7 -5.8,3.3 -11.7,3.3 0,0 0,0 0,0 -5.9,0 -9,-1.6 -11.7,-3.3 -2.6,-1.6 -4.9,-2.7 -9.6,-2.7 0,0 0,0 0,0 -4.8,0 -7,1.1 -9.6,2.7 -2.7,1.7 -5.8,3.3 -11.7,3.3 0,0 0,0 0,0 -5.9,0 -9,-1.6 -11.7,-3.3 -2.6,-1.6 -4.9,-2.7 -9.6,-2.7 0,0 0,0 0,0 -4.8,0 -7,1.1 -9.6,2.7 -2.7,1.7 -5.8,3.3 -11.7,3.3 0,0 0,0 0,0 -5.9,0 -9,-1.6 -11.7,-3.3 -2.6,-1.6 -4.9,-2.7 -9.6,-2.7 0,0 0,0 0,0 -4.8,0 -7,1.1 -9.6,2.7 -2.7,1.7 -5.8,3.3 -11.7,3.3 0,0 0,0 0,0 -5.9,0 -9,-1.6 -11.7,-3.3 -2.6,-1.6 -4.9,-2.7 -9.6,-2.7 0,0 0,0 0,0 -4.8,0 -7,1.1 -9.6,2.7 -2.7,1.7 -5.8,3.3 -11.7,3.3 0,0 0,0 0,0 -5.9,0 -9,-1.6 -11.7,-3.3 -2.6,-1.6 -4.9,-2.7 -9.6,-2.7 0,0 0,0 0,0 -4.8,0 -7,1.1 -9.6,2.7 -2.7,1.7 -5.8,3.3 -11.7,3.3 0,0 0,0 0,0 -5.9,0 -9,-1.6 -11.7,-3.3 -2.6,-1.6 -4.9,-2.7 -9.6,-2.7 0,0 0,0 0,0 -4.8,0 -7,1.1 -9.6,2.7 -2.7,1.7 -5.8,3.3 -11.7,3.3 0,0 0,0 0,0 -5.9,0 -9,-2.1 -11.7,-3.8 -2.6,-1.6 -4.9,-3.2 -9.6,-3.2 0,0 0,0 0,0 -4.8,0 -7,1.6 -9.6,3.2 -2.7,1.7 -5.8,3.8 -11.7,3.8 0,0 0,0 0,0 -5.9,0 -9,-2.1 -11.7,-3.8 -2.6,-1.6 -4.9,-3.2 -9.6,-3.2 0,0 0,0 0,0 -4.8,0 -7,1.6 -9.6,3.2 -2.7,1.7 -5.8,3.8 -11.7,3.8 0,0 0,0 0,0 -5.9,0 -9,-2.1 -11.7,-3.8 -2.6,-1.6 -4.9,-3.2 -9.6,-3.2 0,0 0,0 0,0 -4.8,0 -7,1.6 -9.6,3.2 -2.7,1.7 -5.8,3.8 -11.7,3.8 0,0 0,0 0,0 -5.9,0 -9,-2.1 -11.7,-3.8 -2.6,-1.6 -4.9,-3.2 -9.6,-3.2 0,0 0,0 0,0 -4.8,0 -7,1.6 -9.6,3.2 -2.7,1.7 -5.8,3.8 -11.7,3.8 0,0 0,0 0,0 -5.9,0 -9,-2.1 -11.7,-3.8 -2.6,-1.6 -4.9,-3.2 -9.6,-3.2 0,0 0,0 0,0 -4.8,0 -7,1.6 -9.6,3.2 -2.7,1.7 -5.8,3.8 -11.7,3.8 0,0 0,0 0,0 -5.9,0 -9,-2.1 -11.7,-3.8 -2.6,-1.6 -4.9,-3.2 -9.6,-3.2 0,0 0,0 0,0 -4.8,0 -7,1.6 -9.6,3.2 -2.7,1.7 -5.8,3.8 -11.7,3.8 0,0 0,0 0,0 -5.9,0 -9,-2.1 -11.7,-3.8 -2.6,-1.6 -4.9,-3.2 -9.6,-3.2 0,0 0,0 0,0 -4.8,0 -7,1.6 -9.6,3.2 -2.7,1.7 -5.8,3.8 -11.7,3.8 0,0 0,0 0,0 -5.9,0 -9,-2.1 -11.7,-3.8 -2.6,-1.6 -4.9,-3.2 -9.6,-3.2 0,0 0,0 0,0 -4.8,0 -7,1.6 -9.6,3.2 -2.7,1.7 -5.8,3.8 -11.7,3.8 0,0 0,0 0,0 -5.9,0 -9,-2.1 -11.7,-3.8 -2.6,-1.6 -4.9,-3.2 -9.6,-3.2 0,0 0,0 0,0 -4.8,0 -7,1.6 -9.6,3.2 -2.7,1.7 -5.8,3.8 -11.7,3.8 0,0 0,0 0,0 -5.9,0 -9,-2.1 -11.7,-3.8 -2.6,-1.6 -4.9,-3.2 -9.6,-3.2 0,0 0,0 0,0 -4.8,0 -7,1.6 -9.6,3.2 -2.7,1.7 -5.8,3.8 -11.7,3.8 0,0 0,0 0,0 -5.9,0 -9,-2.1 -11.7,-3.8 -2.6,-1.6 -4.9,-3.2 -9.6,-3.2 0,0 0,0 0,0 -4.8,0 -7,1.6 -9.6,3.2 -2.7,1.7 -5.8,3.8 -11.7,3.8 0,0 0,0 0,0 -5.9,0 -9,-2.1 -11.7,-3.8 -2.6,-1.6 -4.9,-3.2 -9.6,-3.2 0,0 0,0 0,0 -4.8,0 -7,1.6 -9.6,3.2 -2.7,1.7 -5.8,3.8 -11.7,3.8 0,0 0,0 0,0 -5.9,0 -9,-2.1 -11.7,-3.8 -2.6,-1.6 -4.9,-3.2 -9.6,-3.2 0,0 0,0 0,0 -4.8,0 -7,1.6 -9.6,3.2 -2.7,1.7 -5.8,3.8 -11.7,3.8 0,0 0,0 0,0 -5.9,0 -9,-2.2 -11.7,-3.9 C 7.6,741.5 5.3,740 0.6,740 l 0,-4.1 c 5.9,0 9,2.1 11.7,3.8 2.6,1.6 4.9,3.2 9.6,3.2 0,0 0,0 0,0 4.8,0 7,-1.6 9.6,-3.2 2.7,-1.7 5.8,-3.8 11.7,-3.8 0,0 0,0 0,0 5.9,0 9,2.1 11.7,3.8 2.6,1.6 4.9,3.2 9.6,3.2 0,0 0,0 0,0 4.8,0 7,-1.6 9.6,-3.2 2.7,-1.7 5.8,-3.8 11.7,-3.8 0,0 0,0 0,0 5.9,0 9,2.1 11.7,3.8 2.6,1.6 4.9,3.2 9.6,3.2 0,0 0,0 0,0 4.8,0 7,-1.6 9.6,-3.2 2.7,-1.7 5.8,-3.8 11.7,-3.8 0,0 0,0 0,0 5.9,0 9,2.1 11.7,3.8 2.6,1.6 4.9,3.2 9.6,3.2 0,0 0,0 0,0 4.8,0 7,-1.6 9.6,-3.2 2.7,-1.7 5.8,-3.8 11.7,-3.8 0,0 0,0 0,0 5.9,0 9,2.1 11.7,3.8 2.6,1.6 4.9,3.2 9.6,3.2 0,0 0,0 0,0 4.8,0 7,-1.6 9.6,-3.2 2.7,-1.7 5.8,-3.8 11.7,-3.8 0,0 0,0 0,0 5.9,0 9,2.1 11.7,3.8 2.6,1.6 4.9,3.2 9.6,3.2 0,0 0,0 0,0 4.8,0 7,-1.6 9.6,-3.2 2.7,-1.7 5.8,-3.8 11.7,-3.8 0,0 0,0 0,0 5.9,0 9,2.1 11.7,3.8 2.6,1.6 4.9,3.2 9.6,3.2 0,0 0,0 0,0 4.8,0 7,-1.6 9.6,-3.2 2.7,-1.7 5.8,-3.8 11.7,-3.8 0,0 0,0 0,0 5.9,0 9,2.1 11.7,3.8 2.6,1.6 4.9,3.2 9.6,3.2 0,0 0,0 0,0 4.8,0 7,-1.6 9.6,-3.2 2.7,-1.7 5.8,-3.8 11.7,-3.8 0,0 0,0 0,0 5.9,0 9,2.1 11.7,3.8 2.6,1.6 4.9,3.2 9.6,3.2 0,0 0,0 0,0 4.8,0 7,-1.6 9.6,-3.2 2.7,-1.7 5.8,-3.8 11.7,-3.8 0,0 0,0 0,0 5.9,0 9,2.1 11.7,3.8 2.6,1.6 4.9,3.2 9.6,3.2 0,0 0,0 0,0 4.8,0 7,-1.6 9.6,-3.2 2.7,-1.7 5.8,-3.8 11.7,-3.8 0,0 0,0 0,0 5.9,0 9,2.1 11.7,3.8 2.6,1.6 4.9,3.2 9.6,3.2 0,0 0,0 0,0 4.8,0 7,-1.6 9.6,-3.2 2.7,-1.7 5.8,-3.8 11.7,-3.8 0,0 0,0 0,0 5.9,0 9,2.1 11.7,3.8 2.6,1.6 4.9,3.2 9.6,3.2 0,0 0,0 0,0 4.8,0 7,-1.6 9.6,-3.2 2.7,-1.7 5.8,-3.8 11.7,-3.8 0,0 0,0 0,0 5.9,0 9,2.1 11.7,3.8 2.6,1.6 4.9,3.2 9.6,3.2 0,0 0,0 0,0 4.8,0 7,-1.6 9.6,-3.2 2.7,-1.7 5.8,-3.8 11.7,-3.8 0,0 0,0 0,0 5.9,0 9,2.1 11.7,3.8 2.6,1.6 4.9,3.2 9.6,3.2 0,0 0,0 0,0 4.8,0 7,-1.1 9.6,-2.7 2.7,-1.7 5.8,-3.3 11.7,-3.3 0,0 0,0 0,0 5.9,0 9,1.6 11.7,3.3 2.6,1.6 4.9,2.7 9.6,2.7 0,0 0,0 0,0 4.8,0 7,-1.1 9.6,-2.7 2.7,-1.7 5.8,-3.3 11.7,-3.3 0,0 0,0 0,0 5.9,0 9,1.6 11.7,3.3 2.6,1.6 4.9,2.7 9.6,2.7 0,0 0,0 0,0 4.8,0 7,-1.1 9.6,-2.7 2.7,-1.7 5.8,-3.3 11.7,-3.3 0,0 0,0 0,0 5.9,0 9,1.6 11.7,3.3 2.6,1.6 4.9,2.7 9.6,2.7 0,0 0,0 0,0 4.8,0 7,-1.1 9.6,-2.7 2.7,-1.7 5.8,-3.3 11.7,-3.3 0,0 0,0 0,0 5.9,0 9,1.6 11.7,3.3 2.6,1.6 4.9,2.7 9.6,2.7 0,0 0,0 0,0 4.8,0 7,-1.2 9.6,-2.9 2.7,-1.7 5.9,-3.5 11.8,-3.5 5.9,0 9,1.8 11.7,3.5 2.6,1.6 4.9,2.9 9.6,2.9 0,0 0,0 0,0 4.8,0 7,-1.1 9.6,-2.7 2.7,-1.7 5.8,-3.3 11.7,-3.3 0,0 0,0 0,0 5.9,0 9,1.6 11.7,3.3 2.6,1.6 4.9,2.7 9.6,2.7 0,0 0,0 0,0 4.8,0 7,-1.1 9.6,-2.7 2.7,-1.7 5.8,-3.3 11.7,-3.3 0,0 0,0 0,0 5.9,0 9,1.6 11.7,3.3 2.6,1.6 4.9,2.7 9.6,2.7 0,0 0,0 0,0 4.8,0 7,-1.1 9.6,-2.7 2.7,-1.7 5.8,-3.3 11.7,-3.3 0,0 0,0 0,0 5.9,0 9,1.8 11.7,3.5 2.6,1.6 4.9,3 9.6,3 4.8,0 7,-1.3 9.6,-3 2.7,-1.7 5.8,-3.6 11.7,-3.6 0,0 0,0 0,0 5.9,0 9,2.1 11.7,3.8 2.6,1.6 4.9,3.2 9.6,3.2 0,0 0,0 0,0 4.8,0 7,-1.6 9.6,-3.2 2.7,-1.7 5.8,-3.8 11.7,-3.8 0,0 0,0 0,0 5.9,0 9,2.1 11.7,3.8 2.6,1.6 4.9,3.2 9.6,3.2 0,0 0,0 0,0 4.8,0 7,-1.6 9.6,-3.2 2.7,-1.7 5.8,-3.8 11.7,-3.8 0,0 0,0 0,0 5.9,0 9,2.1 11.7,3.8 2.6,1.6 4.9,3.2 9.6,3.2 0,0 0,0 0,0 4.8,0 7,-1.6 9.6,-3.2 2.7,-1.7 5.8,-3.8 11.7,-3.8 0,0 0,0 0,0 5.9,0 9,2.1 11.7,3.8 2.6,1.6 4.9,3.2 9.6,3.2 0,0 0,0 0,0 4.8,0 7,-1.6 9.6,-3.2 2.7,-1.7 5.8,-3.8 11.7,-3.8 0,0 0,0 0,0 5.9,0 9,2.1 11.7,3.8 2.6,1.6 4.9,3.2 9.6,3.2 0,0 0,0 0,0 4.8,0 7,-1.6 9.6,-3.2 2.7,-1.7 5.8,-3.8 11.7,-3.8 0,0 0,0 0,0 5.9,0 9,2.1 11.7,3.8 2.6,1.6 4.9,3.2 9.6,3.2 0,0 0,0 0,0 4.8,0 7,-1.6 9.6,-3.2 2.7,-1.7 5.8,-3.8 11.7,-3.8 0,0 0,0 0,0 5.9,0 9,2.1 11.7,3.8 2.6,1.6 4.9,3.2 9.6,3.2 0,0 0,0 0,0 4.8,0 7,-1.6 9.6,-3.2 2.7,-1.7 5.8,-3.8 11.7,-3.8 0,0 0,0 0,0 5.9,0 9,2.1 11.7,3.8 2.6,1.6 4.9,3.2 9.6,3.2 0,0 0,0 0,0 4.8,0 7,-1.6 9.6,-3.2 2.7,-1.7 5.8,-3.8 11.7,-3.8 0,0 0,0 0,0 5.9,0 9,2.1 11.8,3.8 2.6,1.6 4.9,3.2 9.6,3.2 0,0 0,0 0,0 4.8,0 7,-1.6 9.6,-3.2 2.7,-1.7 5.8,-3.8 11.7,-3.8 0,0 0,0 0,0 l 0,4 c 0,0 0,0 0,0 -4.8,0 -7,1.6 -9.6,3.2 -2.8,1.9 -5.9,4 -11.8,4 z" /></g><g
     transform="translate(0,-386.04965)"
     id="g4562"><rect
       style="fill:#ffffff"
       id="rect4564"
       height="8.1999998"
       width="340"
       y="712.59998"
       x="-4.5" /><path
       id="path4566"
       d="m 337.5,722.8 -344,0 0,-12.2 344,0 0,12.2 z m -340,-4 336,0 0,-4.2 -336,0 0,4.2 z" /></g><g
     transform="translate(0,-386.04965)"
     id="g4568"><polyline
       style="fill:#ffffff"
       id="polyline4570"
       points="820.2,777.3 844.5,732 804.5,732 708.9,732 697.4,721 680.4,721 674.4,713 602,713 602,737.6    625,775.2  " /><polygon
       id="polygon4572"
       points="708,734 696.6,723 679.4,723 673.4,715 604,715 604,737.1 626.7,774.2 623.3,776.2 600,738.2 600,711 675.4,711 681.4,719 698.2,719 709.7,730 847.8,730 822,778.3 818.5,776.4 841.1,734 " /></g><g
     transform="translate(0,-386.04965)"
     id="g4574"><line
       style="fill:#ffffff"
       id="line4576"
       y2="712"
       x2="651"
       y1="594"
       x1="651" /><rect
       id="rect4578"
       height="118"
       width="4"
       y="594"
       x="649" /></g><g
     transform="translate(0,-386.04965)"
     id="g4580"><line
       style="fill:#ffffff"
       id="line4582"
       y2="700.09998"
       x2="897.29999"
       y1="732.59998"
       x1="844.5" /><rect
       id="rect4584"
       height="62"
       width="4"
       transform="matrix(0.524,0.8517,-0.8517,0.524,1024.6688,-400.7466)"
       y="685.40002"
       x="868.90002" /></g><g
     transform="translate(0,-386.04965)"
     id="g4586"><line
       style="fill:#ffffff"
       id="line4588"
       y2="619"
       x2="676"
       y1="619"
       x1="628" /><rect
       id="rect4590"
       height="4"
       width="48"
       y="617"
       x="628" /></g><g
     transform="translate(0,-386.04965)"
     id="g4592"><rect
       style="fill:#ffffff"
       id="rect4594"
       height="17.200001"
       width="41.700001"
       y="719.90002"
       x="597.40002" /><path
       id="path4596"
       d="m 641.1,739.1 -45.7,0 0,-21.2 45.7,0 0,21.2 z m -41.7,-4 37.7,0 0,-13.2 -37.7,0 0,13.2 z" /></g><g
     transform="translate(0,-386.04965)"
     id="g4598"><path
       id="path4600"
       d="m 1300,782 c 0,0 0,0 0,0 -5.9,0 -9,-2.1 -11.8,-3.8 -2.6,-1.6 -4.9,-3.2 -9.6,-3.2 0,0 0,0 0,0 -4.8,0 -7,1.6 -9.6,3.2 -2.7,1.7 -5.8,3.8 -11.7,3.8 0,0 0,0 0,0 -5.9,0 -9,-2.1 -11.7,-3.8 -2.6,-1.6 -4.9,-3.2 -9.6,-3.2 0,0 0,0 0,0 -4.8,0 -7,1.6 -9.6,3.2 -2.7,1.7 -5.8,3.8 -11.7,3.8 0,0 0,0 0,0 -5.9,0 -9,-2.1 -11.7,-3.8 -2.6,-1.6 -4.9,-3.2 -9.6,-3.2 0,0 0,0 0,0 -4.8,0 -7,1.6 -9.6,3.2 -2.7,1.7 -5.8,3.8 -11.7,3.8 0,0 0,0 0,0 -5.9,0 -9,-2.1 -11.7,-3.8 -2.6,-1.6 -4.9,-3.2 -9.6,-3.2 0,0 0,0 0,0 -4.8,0 -7,1.6 -9.6,3.2 -2.7,1.7 -5.8,3.8 -11.7,3.8 0,0 0,0 0,0 -5.9,0 -9,-2.1 -11.7,-3.8 -2.6,-1.6 -4.9,-3.2 -9.6,-3.2 0,0 0,0 0,0 -4.8,0 -7,1.6 -9.6,3.2 -2.7,1.7 -5.8,3.8 -11.7,3.8 0,0 0,0 0,0 -5.9,0 -9,-2.1 -11.7,-3.8 -2.6,-1.6 -4.9,-3.2 -9.6,-3.2 0,0 0,0 0,0 -4.8,0 -7,1.6 -9.6,3.2 -2.7,1.7 -5.8,3.8 -11.7,3.8 0,0 0,0 0,0 -5.9,0 -9,-2.1 -11.7,-3.8 -2.6,-1.6 -4.9,-3.2 -9.6,-3.2 0,0 0,0 0,0 -4.8,0 -7,1.6 -9.6,3.2 -2.7,1.7 -5.8,3.8 -11.7,3.8 0,0 0,0 0,0 -5.9,0 -9,-2.1 -11.7,-3.8 -2.6,-1.6 -4.9,-3.2 -9.6,-3.2 0,0 0,0 0,0 -4.8,0 -7,1.6 -9.6,3.2 -2.7,1.7 -5.8,3.8 -11.7,3.8 0,0 0,0 0,0 -5.9,0 -9,-2.1 -11.7,-3.8 -2.6,-1.6 -4.9,-3.2 -9.6,-3.2 0,0 0,0 0,0 -4.8,0 -7,1.1 -9.6,2.7 -2.7,1.7 -5.8,3.3 -11.7,3.3 0,0 0,0 0,0 -5.9,0 -9,-1.6 -11.7,-3.3 -2.6,-1.6 -4.9,-2.7 -9.6,-2.7 0,0 0,0 0,0 -4.8,0 -7,1.1 -9.6,2.7 -2.7,1.7 -5.8,3.3 -11.7,3.3 0,0 0,0 0,0 -5.9,0 -9,-1.6 -11.7,-3.3 -2.6,-1.6 -4.9,-2.7 -9.6,-2.7 0,0 0,0 0,0 -4.8,0 -7,1.1 -9.6,2.7 -2.7,1.7 -5.8,3.3 -11.7,3.3 0,0 0,0 0,0 -5.9,0 -9,-1.6 -11.7,-3.3 -2.6,-1.6 -4.9,-2.7 -9.6,-2.7 0,0 0,0 0,0 -4.8,0 -7,1.1 -9.6,2.7 -2.7,1.7 -5.8,3.3 -11.7,3.3 0,0 0,0 0,0 -5.9,0 -9,-1.6 -11.7,-3.3 -2.6,-1.6 -4.9,-2.7 -9.6,-2.7 0,0 0,0 0,0 -4.8,0 -7,1.1 -9.6,2.7 -2.7,1.7 -5.8,3.3 -11.7,3.3 0,0 0,0 0,0 -5.9,0 -9,-1.6 -11.7,-3.3 -2.6,-1.6 -4.9,-2.7 -9.6,-2.7 0,0 0,0 0,0 -4.8,0 -7,1.1 -9.6,2.7 -2.7,1.7 -5.8,3.3 -11.7,3.3 0,0 0,0 0,0 -5.9,0 -9,-1.6 -11.7,-3.3 -2.6,-1.6 -4.9,-2.7 -9.6,-2.7 0,0 0,0 0,0 -4.8,0 -7,1.1 -9.6,2.7 -2.7,1.7 -5.8,3.3 -11.7,3.3 0,0 0,0 0,0 -5.9,0 -9,-1.6 -11.7,-3.3 -2.6,-1.6 -4.9,-2.7 -9.6,-2.7 0,0 0,0 0,0 -4.8,0 -7,1.1 -9.6,2.7 -2.7,1.7 -5.8,3.3 -11.7,3.3 0,0 0,0 0,0 -5.9,0 -9,-1.6 -11.7,-3.3 -2.6,-1.6 -4.9,-2.7 -9.6,-2.7 0,0 0,0 0,0 -4.8,0 -7,1.1 -9.6,2.7 -2.7,1.7 -5.8,3.3 -11.7,3.3 0,0 0,0 0,0 -5.9,0 -9,-2.1 -11.7,-3.8 -2.6,-1.6 -4.9,-3.2 -9.6,-3.2 0,0 0,0 0,0 -4.8,0 -7,1.6 -9.6,3.2 -2.7,1.7 -5.8,3.8 -11.7,3.8 0,0 0,0 0,0 -5.9,0 -9,-2.1 -11.7,-3.8 -2.6,-1.6 -4.9,-3.2 -9.6,-3.2 0,0 0,0 0,0 -4.8,0 -7,1.6 -9.6,3.2 -2.7,1.7 -5.8,3.8 -11.7,3.8 0,0 0,0 0,0 -5.9,0 -9,-2.1 -11.7,-3.8 -2.6,-1.6 -4.9,-3.2 -9.6,-3.2 0,0 0,0 0,0 -4.8,0 -7,1.6 -9.6,3.2 -2.7,1.7 -5.8,3.8 -11.7,3.8 0,0 0,0 0,0 -5.9,0 -9,-2.1 -11.7,-3.8 -2.6,-1.6 -4.9,-3.2 -9.6,-3.2 0,0 0,0 0,0 -4.8,0 -7,1.6 -9.6,3.2 -2.7,1.7 -5.8,3.8 -11.7,3.8 0,0 0,0 0,0 -5.9,0 -9,-2.1 -11.7,-3.8 -2.6,-1.6 -4.9,-3.2 -9.6,-3.2 0,0 0,0 0,0 -4.8,0 -7,1.6 -9.6,3.2 -2.7,1.7 -5.8,3.8 -11.7,3.8 0,0 0,0 0,0 -5.9,0 -9,-2.1 -11.7,-3.8 -2.6,-1.6 -4.9,-3.2 -9.6,-3.2 0,0 0,0 0,0 -4.8,0 -7,1.6 -9.6,3.2 -2.7,1.7 -5.8,3.8 -11.7,3.8 0,0 0,0 0,0 -5.9,0 -9,-2.1 -11.7,-3.8 -2.6,-1.6 -4.9,-3.2 -9.6,-3.2 0,0 0,0 0,0 -4.8,0 -7,1.6 -9.6,3.2 -2.7,1.7 -5.8,3.8 -11.7,3.8 0,0 0,0 0,0 -5.9,0 -9,-2.1 -11.7,-3.8 -2.6,-1.6 -4.9,-3.2 -9.6,-3.2 0,0 0,0 0,0 -4.8,0 -7,1.6 -9.6,3.2 -2.7,1.7 -5.8,3.8 -11.7,3.8 0,0 0,0 0,0 -5.9,0 -9,-2.1 -11.7,-3.8 -2.6,-1.6 -4.9,-3.2 -9.6,-3.2 0,0 0,0 0,0 -4.8,0 -7,1.6 -9.6,3.2 -2.7,1.7 -5.8,3.8 -11.7,3.8 0,0 0,0 0,0 -5.9,0 -9,-2.1 -11.7,-3.8 -2.6,-1.6 -4.9,-3.2 -9.6,-3.2 0,0 0,0 0,0 -4.8,0 -7,1.6 -9.6,3.2 -2.7,1.7 -5.8,3.8 -11.7,3.8 0,0 0,0 0,0 -5.9,0 -9,-2.1 -11.7,-3.8 -2.6,-1.6 -4.9,-3.2 -9.6,-3.2 0,0 0,0 0,0 -4.8,0 -7,1.6 -9.6,3.2 -2.7,1.7 -5.8,3.8 -11.7,3.8 0,0 0,0 0,0 -5.9,0 -9,-2.1 -11.7,-3.8 -2.6,-1.6 -4.9,-3.2 -9.6,-3.2 0,0 0,0 0,0 -4.8,0 -7,1.6 -9.6,3.2 -2.7,1.7 -5.8,3.8 -11.7,3.8 0,0 0,0 0,0 -5.9,0 -9,-2.1 -11.7,-3.8 -2.6,-1.6 -4.9,-3.2 -9.6,-3.2 0,0 0,0 0,0 -4.8,0 -7,1.6 -9.6,3.2 -2.7,1.7 -5.8,3.8 -11.7,3.8 0,0 0,0 0,0 -5.9,0 -9,-2.2 -11.7,-3.9 C 7.6,775.5 5.3,774 0.6,774 l 0,-4.1 c 5.9,0 9,2.1 11.7,3.8 2.6,1.6 4.9,3.2 9.6,3.2 0,0 0,0 0,0 4.8,0 7,-1.6 9.6,-3.2 2.7,-1.7 5.8,-3.8 11.7,-3.8 0,0 0,0 0,0 5.9,0 9,2.1 11.7,3.8 2.6,1.6 4.9,3.2 9.6,3.2 0,0 0,0 0,0 4.8,0 7,-1.6 9.6,-3.2 2.7,-1.7 5.8,-3.8 11.7,-3.8 0,0 0,0 0,0 5.9,0 9,2.1 11.7,3.8 2.6,1.6 4.9,3.2 9.6,3.2 0,0 0,0 0,0 4.8,0 7,-1.6 9.6,-3.2 2.7,-1.7 5.8,-3.7 11.8,-3.7 5.9,0 9,2 11.7,3.7 2.6,1.6 4.9,3.1 9.6,3.1 0,0 0,0 0,0 4.8,0 7,-1.6 9.6,-3.2 2.7,-1.7 5.8,-3.8 11.7,-3.8 0,0 0,0 0,0 5.9,0 9,2.1 11.7,3.8 2.6,1.6 4.9,3.2 9.6,3.2 0,0 0,0 0,0 4.8,0 7,-1.6 9.6,-3.2 2.7,-1.7 5.8,-3.8 11.7,-3.8 0,0 0,0 0,0 5.9,0 9,2.1 11.7,3.8 2.6,1.6 4.9,3.2 9.6,3.2 0,0 0,0 0,0 4.8,0 7,-1.6 9.6,-3.2 2.7,-1.7 5.8,-3.8 11.7,-3.8 0,0 0,0 0,0 5.9,0 9,2.1 11.7,3.8 2.6,1.6 4.9,3.2 9.6,3.2 0,0 0,0 0,0 4.8,0 7,-1.6 9.6,-3.2 2.7,-1.7 5.8,-3.8 11.7,-3.8 0,0 0,0 0,0 5.9,0 9,2.1 11.7,3.8 2.6,1.6 4.9,3.2 9.6,3.2 0,0 0,0 0,0 4.8,0 7,-1.6 9.6,-3.2 2.7,-1.7 5.8,-3.8 11.7,-3.8 0,0 0,0 0,0 5.9,0 9,2.1 11.7,3.8 2.6,1.6 4.9,3.2 9.6,3.2 0,0 0,0 0,0 4.8,0 7,-1.6 9.6,-3.2 2.7,-1.7 5.8,-3.8 11.7,-3.8 0,0 0,0 0,0 5.9,0 9,2.1 11.7,3.8 2.6,1.6 4.9,3.2 9.6,3.2 0,0 0,0 0,0 4.8,0 7,-1.6 9.6,-3.2 2.7,-1.7 5.8,-3.8 11.7,-3.8 0,0 0,0 0,0 5.9,0 9,2.1 11.7,3.8 2.6,1.6 4.9,3.2 9.6,3.2 0,0 0,0 0,0 4.8,0 7,-1.6 9.6,-3.2 2.7,-1.7 5.8,-3.8 11.7,-3.8 0,0 0,0 0,0 5.9,0 9,2.1 11.7,3.8 2.6,1.6 4.9,3.2 9.6,3.2 0,0 0,0 0,0 4.8,0 7,-1.6 9.6,-3.2 2.7,-1.7 5.8,-3.8 11.7,-3.8 0,0 0,0 0,0 5.9,0 9,2.1 11.7,3.8 2.6,1.6 4.9,3.2 9.6,3.2 0,0 0,0 0,0 4.8,0 7,-1.6 9.6,-3.2 2.7,-1.7 5.8,-3.8 11.7,-3.8 0,0 0,0 0,0 5.9,0 9,2.1 11.7,3.8 2.6,1.6 4.9,3.2 9.6,3.2 0,0 0,0 0,0 4.8,0 7,-1.1 9.6,-2.7 2.7,-1.7 5.8,-3.3 11.7,-3.3 0,0 0,0 0,0 5.9,0 9,1.6 11.7,3.3 2.6,1.6 4.9,2.7 9.6,2.7 0,0 0,0 0,0 4.8,0 7,-1.1 9.6,-2.7 2.7,-1.7 5.8,-3.3 11.7,-3.3 0,0 0,0 0,0 5.9,0 9,1.6 11.7,3.3 2.6,1.6 4.9,2.7 9.6,2.7 0,0 0,0 0,0 4.8,0 7,-1.1 9.6,-2.7 2.7,-1.7 5.8,-3.3 11.7,-3.3 0,0 0,0 0,0 5.9,0 9,1.6 11.7,3.3 2.6,1.6 4.9,2.7 9.6,2.7 0,0 0,0 0,0 4.8,0 7,-1.1 9.6,-2.7 2.7,-1.7 5.8,-3.3 11.7,-3.3 0,0 0,0 0,0 5.9,0 9,1.6 11.7,3.3 2.6,1.6 4.9,2.7 9.6,2.7 0,0 0,0 0,0 4.8,0 7,-1.1 9.6,-2.7 2.7,-1.7 5.8,-3.3 11.7,-3.3 0,0 0,0 0,0 5.9,0 9,1.6 11.7,3.3 2.6,1.6 4.9,2.7 9.6,2.7 0,0 0,0 0,0 4.8,0 7,-1.1 9.6,-2.7 2.7,-1.7 5.8,-3.3 11.7,-3.3 0,0 0,0 0,0 5.9,0 9,1.6 11.7,3.3 2.6,1.6 4.9,2.7 9.6,2.7 0,0 0,0 0,0 4.8,0 7,-1.1 9.6,-2.7 2.7,-1.7 5.8,-3.3 11.7,-3.3 0,0 0,0 0,0 5.9,0 9,1.6 11.7,3.3 2.6,1.6 4.9,2.7 9.6,2.7 0,0 0,0 0,0 4.8,0 7,-1.1 9.6,-2.7 2.7,-1.7 5.8,-3.3 11.7,-3.3 0,0 0,0 0,0 5.9,0 9,1.8 11.7,3.5 2.6,1.6 4.9,3 9.6,3 4.8,0 7,-1.3 9.6,-3 2.7,-1.7 5.8,-3.6 11.7,-3.6 0,0 0,0 0,0 5.9,0 9,2.1 11.7,3.8 2.6,1.6 4.9,3.2 9.6,3.2 0,0 0,0 0,0 4.8,0 7,-1.6 9.6,-3.2 2.7,-1.7 5.8,-3.8 11.7,-3.8 0,0 0,0 0,0 5.9,0 9,2.1 11.7,3.8 2.6,1.6 4.9,3.2 9.6,3.2 0,0 0,0 0,0 4.8,0 7,-1.6 9.6,-3.2 2.7,-1.7 5.8,-3.8 11.7,-3.8 0,0 0,0 0,0 5.9,0 9,2.1 11.7,3.8 2.6,1.6 4.9,3.2 9.6,3.2 0,0 0,0 0,0 4.8,0 7,-1.6 9.6,-3.2 2.7,-1.7 5.8,-3.8 11.7,-3.8 0,0 0,0 0,0 5.9,0 9,2.1 11.7,3.8 2.6,1.6 4.9,3.2 9.6,3.2 0,0 0,0 0,0 4.8,0 7,-1.6 9.6,-3.2 2.7,-1.7 5.8,-3.8 11.7,-3.8 0,0 0,0 0,0 5.9,0 9,2.1 11.7,3.8 2.6,1.6 4.9,3.2 9.6,3.2 0,0 0,0 0,0 4.8,0 7,-1.6 9.6,-3.2 2.7,-1.7 5.8,-3.8 11.7,-3.8 0,0 0,0 0,0 5.9,0 9,2.1 11.7,3.8 2.6,1.6 4.9,3.2 9.6,3.2 0,0 0,0 0,0 4.8,0 7,-1.6 9.6,-3.2 2.7,-1.7 5.8,-3.8 11.7,-3.8 0,0 0,0 0,0 5.9,0 9,2.1 11.7,3.8 2.6,1.6 4.9,3.2 9.6,3.2 0,0 0,0 0,0 4.8,0 7,-1.6 9.6,-3.2 2.7,-1.7 5.8,-3.8 11.7,-3.8 0,0 0,0 0,0 5.9,0 9,2.1 11.7,3.8 2.6,1.6 4.9,3.2 9.6,3.2 0,0 0,0 0,0 4.8,0 7,-1.6 9.6,-3.2 2.7,-1.7 5.8,-3.8 11.7,-3.8 0,0 0,0 0,0 5.9,0 9,2.1 11.8,3.8 2.6,1.6 4.9,3.2 9.6,3.2 0,0 0,0 0,0 4.8,0 7,-1.6 9.6,-3.2 2.7,-1.7 5.8,-3.8 11.7,-3.8 0,0 0,0 0,0 l 0,4 c 0,0 0,0 0,0 -4.8,0 -7,1.6 -9.6,3.2 -2.8,2 -5.9,4.1 -11.8,4.1 z" /></g><g
     transform="translate(0,-386.04965)"
     id="g4602"><path
       id="path4604"
       d="m 1300,799 c 0,0 0,0 0,0 -5.9,0 -9,-2.1 -11.8,-3.8 -2.6,-1.6 -4.9,-3.2 -9.6,-3.2 0,0 0,0 0,0 -4.8,0 -7,1.6 -9.6,3.2 -2.7,1.7 -5.8,3.8 -11.7,3.8 0,0 0,0 0,0 -5.9,0 -9,-2.1 -11.7,-3.8 -2.6,-1.6 -4.9,-3.2 -9.6,-3.2 0,0 0,0 0,0 -4.8,0 -7,1.6 -9.6,3.2 -2.7,1.7 -5.8,3.8 -11.7,3.8 0,0 0,0 0,0 -5.9,0 -9,-2.1 -11.7,-3.8 -2.6,-1.6 -4.9,-3.2 -9.6,-3.2 0,0 0,0 0,0 -4.8,0 -7,1.6 -9.6,3.2 -2.7,1.7 -5.8,3.8 -11.7,3.8 0,0 0,0 0,0 -5.9,0 -9,-2.1 -11.7,-3.8 -2.6,-1.6 -4.9,-3.2 -9.6,-3.2 0,0 0,0 0,0 -4.8,0 -7,1.6 -9.6,3.2 -2.7,1.7 -5.8,3.8 -11.7,3.8 0,0 0,0 0,0 -5.9,0 -9,-2.1 -11.7,-3.8 -2.6,-1.6 -4.9,-3.2 -9.6,-3.2 0,0 0,0 0,0 -4.8,0 -7,1.6 -9.6,3.2 -2.7,1.7 -5.8,3.8 -11.7,3.8 0,0 0,0 0,0 -5.9,0 -9,-2.1 -11.7,-3.8 -2.6,-1.6 -4.9,-3.2 -9.6,-3.2 0,0 0,0 0,0 -4.8,0 -7,1.6 -9.6,3.2 -2.7,1.7 -5.8,3.8 -11.7,3.8 0,0 0,0 0,0 -5.9,0 -9,-2.1 -11.7,-3.8 -2.6,-1.6 -4.9,-3.2 -9.6,-3.2 0,0 0,0 0,0 -4.8,0 -7,1.6 -9.6,3.2 -2.7,1.7 -5.8,3.8 -11.7,3.8 0,0 0,0 0,0 -5.9,0 -9,-2.1 -11.7,-3.8 -2.6,-1.6 -4.9,-3.2 -9.6,-3.2 0,0 0,0 0,0 -4.8,0 -7,1.6 -9.6,3.2 -2.7,1.7 -5.8,3.8 -11.7,3.8 0,0 0,0 0,0 -5.9,0 -9,-2.1 -11.7,-3.8 -2.6,-1.6 -4.9,-3.2 -9.6,-3.2 0,0 0,0 0,0 -4.8,0 -7,1.1 -9.6,2.7 -2.7,1.7 -5.8,3.3 -11.7,3.3 0,0 0,0 0,0 -5.9,0 -9,-1.6 -11.7,-3.3 -2.6,-1.6 -4.9,-2.7 -9.6,-2.7 0,0 0,0 0,0 -4.8,0 -7,1.1 -9.6,2.7 -2.7,1.7 -5.8,3.3 -11.7,3.3 0,0 0,0 0,0 -5.9,0 -9,-1.6 -11.7,-3.3 -2.6,-1.6 -4.9,-2.7 -9.6,-2.7 0,0 0,0 0,0 -4.8,0 -7,1.1 -9.6,2.7 -2.7,1.7 -5.8,3.3 -11.7,3.3 0,0 0,0 0,0 -5.9,0 -9,-1.6 -11.7,-3.3 -2.6,-1.6 -4.9,-2.7 -9.6,-2.7 0,0 0,0 0,0 -4.8,0 -7,1.1 -9.6,2.7 -2.7,1.7 -5.8,3.3 -11.7,3.3 0,0 0,0 0,0 -5.9,0 -9,-1.6 -11.7,-3.3 -2.6,-1.6 -4.9,-2.7 -9.6,-2.7 0,0 0,0 0,0 -4.8,0 -7,1.1 -9.6,2.7 -2.7,1.7 -5.8,3.3 -11.7,3.3 0,0 0,0 0,0 -5.9,0 -9,-1.6 -11.7,-3.3 -2.6,-1.6 -4.9,-2.7 -9.6,-2.7 0,0 0,0 0,0 -4.8,0 -7,1.1 -9.6,2.7 -2.7,1.7 -5.8,3.3 -11.7,3.3 0,0 0,0 0,0 -5.9,0 -9,-1.6 -11.7,-3.3 -2.6,-1.6 -4.9,-2.7 -9.6,-2.7 0,0 0,0 0,0 -4.8,0 -7,1.1 -9.6,2.7 -2.7,1.7 -5.8,3.3 -11.7,3.3 0,0 0,0 0,0 -5.9,0 -9,-1.6 -11.7,-3.3 -2.6,-1.6 -4.9,-2.7 -9.6,-2.7 0,0 0,0 0,0 -4.8,0 -7,1.1 -9.6,2.7 -2.7,1.7 -5.8,3.3 -11.7,3.3 0,0 0,0 0,0 -5.9,0 -9,-1.6 -11.7,-3.3 -2.6,-1.6 -4.9,-2.7 -9.6,-2.7 0,0 0,0 0,0 -4.8,0 -7,1.1 -9.6,2.7 -2.7,1.7 -5.8,3.3 -11.7,3.3 0,0 0,0 0,0 -5.9,0 -9,-2.1 -11.7,-3.8 -2.6,-1.6 -4.9,-3.2 -9.6,-3.2 0,0 0,0 0,0 -4.8,0 -7,1.6 -9.6,3.2 -2.7,1.7 -5.8,3.8 -11.7,3.8 0,0 0,0 0,0 -5.9,0 -9,-2.1 -11.7,-3.8 -2.6,-1.6 -4.9,-3.2 -9.6,-3.2 0,0 0,0 0,0 -4.8,0 -7,1.6 -9.6,3.2 -2.7,1.7 -5.8,3.8 -11.7,3.8 0,0 0,0 0,0 -5.9,0 -9,-2.1 -11.7,-3.8 -2.6,-1.6 -4.9,-3.2 -9.6,-3.2 0,0 0,0 0,0 -4.8,0 -7,1.6 -9.6,3.2 -2.7,1.7 -5.8,3.8 -11.7,3.8 0,0 0,0 0,0 -5.9,0 -9,-2.1 -11.7,-3.8 -2.6,-1.6 -4.9,-3.2 -9.6,-3.2 0,0 0,0 0,0 -4.8,0 -7,1.6 -9.6,3.2 -2.7,1.7 -5.8,3.8 -11.7,3.8 0,0 0,0 0,0 -5.9,0 -9,-2.1 -11.7,-3.8 -2.6,-1.6 -4.9,-3.2 -9.6,-3.2 0,0 0,0 0,0 -4.8,0 -7,1.6 -9.6,3.2 -2.7,1.7 -5.8,3.8 -11.7,3.8 0,0 0,0 0,0 -5.9,0 -9,-2.1 -11.7,-3.8 -2.6,-1.6 -4.9,-3.2 -9.6,-3.2 0,0 0,0 0,0 -4.8,0 -7,1.6 -9.6,3.2 -2.7,1.7 -5.8,3.8 -11.7,3.8 0,0 0,0 0,0 -5.9,0 -9,-2.1 -11.7,-3.8 -2.6,-1.6 -4.9,-3.2 -9.6,-3.2 0,0 0,0 0,0 -4.8,0 -7,1.6 -9.6,3.2 -2.7,1.7 -5.8,3.8 -11.7,3.8 0,0 0,0 0,0 -5.9,0 -9,-2.1 -11.7,-3.8 -2.6,-1.6 -4.9,-3.2 -9.6,-3.2 0,0 0,0 0,0 -4.8,0 -7,1.6 -9.6,3.2 -2.7,1.7 -5.8,3.8 -11.7,3.8 0,0 0,0 0,0 -5.9,0 -9,-2.1 -11.7,-3.8 -2.6,-1.6 -4.9,-3.2 -9.6,-3.2 0,0 0,0 0,0 -4.8,0 -7,1.6 -9.6,3.2 -2.7,1.7 -5.8,3.8 -11.7,3.8 0,0 0,0 0,0 -5.9,0 -9,-2.1 -11.7,-3.8 -2.6,-1.6 -4.9,-3.2 -9.6,-3.2 0,0 0,0 0,0 -4.8,0 -7,1.6 -9.6,3.2 -2.7,1.7 -5.8,3.8 -11.7,3.8 0,0 0,0 0,0 -5.9,0 -9,-2.1 -11.7,-3.8 -2.6,-1.6 -4.9,-3.2 -9.6,-3.2 0,0 0,0 0,0 -4.8,0 -7,1.6 -9.6,3.2 -2.7,1.7 -5.8,3.8 -11.7,3.8 0,0 0,0 0,0 -5.9,0 -9,-2.1 -11.7,-3.8 -2.6,-1.6 -4.9,-3.2 -9.6,-3.2 0,0 0,0 0,0 -4.8,0 -7,1.6 -9.6,3.2 -2.7,1.7 -5.8,3.8 -11.7,3.8 0,0 0,0 0,0 -5.9,0 -9,-2.1 -11.7,-3.8 -2.6,-1.6 -4.9,-3.2 -9.6,-3.2 0,0 0,0 0,0 -4.8,0 -7,1.6 -9.6,3.2 -2.7,1.7 -5.8,3.8 -11.7,3.8 0,0 0,0 0,0 -5.9,0 -9,-2.2 -11.7,-3.9 C 7.6,792.5 5.3,791 0.6,791 l 0,-4.1 c 5.9,0 9,2.1 11.7,3.8 2.6,1.6 4.9,3.2 9.6,3.2 0,0 0,0 0,0 4.8,0 7,-1.6 9.6,-3.2 2.7,-1.7 5.8,-3.8 11.7,-3.8 0,0 0,0 0,0 5.9,0 9,2.1 11.7,3.8 2.6,1.6 4.9,3.2 9.6,3.2 0,0 0,0 0,0 4.8,0 7,-1.6 9.6,-3.2 2.7,-1.7 5.8,-3.8 11.7,-3.8 0,0 0,0 0,0 5.9,0 9,2.1 11.7,3.8 2.6,1.6 4.9,3.2 9.6,3.2 0,0 0,0 0,0 4.8,0 7,-1.6 9.6,-3.2 2.7,-1.7 5.8,-3.8 11.7,-3.8 0,0 0,0 0,0 5.9,0 9,2.1 11.7,3.8 2.6,1.6 4.9,3.2 9.6,3.2 0,0 0,0 0,0 4.8,0 7,-1.6 9.6,-3.2 2.7,-1.7 5.8,-3.8 11.7,-3.8 0,0 0,0 0,0 5.9,0 9,2.1 11.7,3.8 2.6,1.6 4.9,3.2 9.6,3.2 0,0 0,0 0,0 4.8,0 7,-1.6 9.6,-3.2 2.7,-1.7 5.8,-3.8 11.7,-3.8 0,0 0,0 0,0 5.9,0 9,2.1 11.7,3.8 2.6,1.6 4.9,3.2 9.6,3.2 0,0 0,0 0,0 4.8,0 7,-1.6 9.6,-3.2 2.7,-1.7 5.8,-3.8 11.7,-3.8 0,0 0,0 0,0 5.9,0 9,2.1 11.7,3.8 2.6,1.6 4.9,3.2 9.6,3.2 0,0 0,0 0,0 4.8,0 7,-1.6 9.6,-3.2 2.7,-1.7 5.8,-3.8 11.7,-3.8 0,0 0,0 0,0 5.9,0 9,2 11.7,3.7 2.6,1.6 4.9,3.1 9.6,3.1 4.7,0 7,-1.5 9.6,-3.1 2.7,-1.7 5.8,-3.7 11.7,-3.7 0,0 0,0 0,0 5.9,0 9,2.1 11.7,3.8 2.6,1.6 4.9,3.2 9.6,3.2 0,0 0,0 0,0 4.8,0 7,-1.6 9.6,-3.2 2.7,-1.7 5.8,-3.8 11.7,-3.8 0,0 0,0 0,0 5.9,0 9,2.1 11.7,3.8 2.6,1.6 4.9,3.2 9.6,3.2 0,0 0,0 0,0 4.8,0 7,-1.6 9.6,-3.2 2.7,-1.7 5.8,-3.8 11.7,-3.8 0,0 0,0 0,0 5.9,0 9,2.1 11.7,3.8 2.6,1.6 4.9,3.2 9.6,3.2 0,0 0,0 0,0 4.8,0 7,-1.6 9.6,-3.2 2.7,-1.7 5.8,-3.8 11.7,-3.8 0,0 0,0 0,0 5.9,0 9,2.1 11.7,3.8 2.6,1.6 4.9,3.2 9.6,3.2 0,0 0,0 0,0 4.8,0 7,-1.6 9.6,-3.2 2.7,-1.7 5.8,-3.8 11.7,-3.8 0,0 0,0 0,0 5.9,0 9,2.1 11.7,3.8 2.6,1.6 4.9,3.2 9.6,3.2 0,0 0,0 0,0 4.8,0 7,-1.6 9.6,-3.2 2.7,-1.7 5.8,-3.8 11.7,-3.8 0,0 0,0 0,0 5.9,0 9,2.2 11.7,3.9 2.6,1.6 4.9,3.1 9.6,3.1 4.8,0 7,-1.1 9.6,-2.7 2.7,-1.7 5.8,-3.3 11.7,-3.3 0,0 0,0 0,0 5.9,0 9,1.6 11.7,3.3 2.6,1.6 4.9,2.7 9.6,2.7 0,0 0,0 0,0 4.8,0 7,-1.1 9.6,-2.7 2.7,-1.7 5.8,-3.3 11.7,-3.3 0,0 0,0 0,0 5.9,0 9,1.6 11.7,3.3 2.6,1.6 4.9,2.7 9.6,2.7 0,0 0,0 0,0 4.8,0 7,-1.1 9.6,-2.7 2.7,-1.7 5.8,-3.3 11.7,-3.3 0,0 0,0 0,0 5.9,0 9,1.6 11.7,3.3 2.6,1.6 4.9,2.7 9.6,2.7 0,0 0,0 0,0 4.8,0 7,-1.1 9.6,-2.7 2.7,-1.7 5.8,-3.3 11.7,-3.3 0,0 0,0 0,0 5.9,0 9,1.6 11.7,3.3 2.6,1.6 4.9,2.7 9.6,2.7 0,0 0,0 0,0 4.8,0 7,-1.1 9.6,-2.7 2.7,-1.7 5.8,-3.3 11.7,-3.3 0,0 0,0 0,0 5.9,0 9,1.6 11.7,3.3 2.6,1.6 4.9,2.7 9.6,2.7 0,0 0,0 0,0 4.8,0 7,-1.1 9.6,-2.7 2.7,-1.7 5.8,-3.3 11.7,-3.3 0,0 0,0 0,0 5.9,0 9,1.6 11.7,3.3 2.6,1.6 4.9,2.7 9.6,2.7 0,0 0,0 0,0 4.8,0 7,-1.1 9.6,-2.7 2.7,-1.7 5.8,-3.3 11.7,-3.3 0,0 0,0 0,0 5.9,0 9,1.6 11.7,3.3 2.6,1.6 4.9,2.7 9.6,2.7 0,0 0,0 0,0 4.8,0 7,-1.1 9.6,-2.7 2.7,-1.7 5.8,-3.3 11.7,-3.3 0,0 0,0 0,0 5.9,0 9,1.6 11.7,3.3 2.6,1.6 4.9,2.7 9.6,2.7 0,0 0,0 0,0 4.8,0 7,-1.1 9.6,-2.7 2.7,-1.7 5.8,-3.3 11.7,-3.3 0,0 0,0 0,0 5.9,0 9,2.1 11.7,3.8 2.6,1.6 4.9,3.2 9.6,3.2 0,0 0,0 0,0 4.8,0 7,-1.6 9.6,-3.2 2.7,-1.7 5.8,-3.8 11.7,-3.8 0,0 0,0 0,0 5.9,0 9,2.1 11.7,3.8 2.6,1.6 4.9,3.2 9.6,3.2 0,0 0,0 0,0 4.8,0 7,-1.6 9.6,-3.2 2.7,-1.7 5.8,-3.8 11.7,-3.8 0,0 0,0 0,0 5.9,0 9,2.1 11.7,3.8 2.6,1.6 4.9,3.2 9.6,3.2 0,0 0,0 0,0 4.8,0 7,-1.6 9.6,-3.2 2.7,-1.7 5.8,-3.8 11.7,-3.8 0,0 0,0 0,0 5.9,0 9,1.9 11.7,3.6 2.6,1.6 4.9,3 9.6,3 4.8,0 7,-1.4 9.6,-3 2.7,-1.7 5.8,-3.6 11.7,-3.6 0,0 0,0 0,0 5.9,0 9,2.1 11.7,3.8 2.6,1.6 4.9,3.2 9.6,3.2 0,0 0,0 0,0 4.8,0 7,-1.6 9.6,-3.2 2.7,-1.7 5.8,-3.8 11.7,-3.8 0,0 0,0 0,0 5.9,0 9,2.1 11.7,3.8 2.6,1.6 4.9,3.2 9.6,3.2 0,0 0,0 0,0 4.8,0 7,-1.6 9.6,-3.2 2.7,-1.7 5.8,-3.8 11.7,-3.8 0,0 0,0 0,0 5.9,0 9,2.1 11.7,3.8 2.6,1.6 4.9,3.2 9.6,3.2 0,0 0,0 0,0 4.8,0 7,-1.6 9.6,-3.2 2.7,-1.7 5.8,-3.8 11.7,-3.8 0,0 0,0 0,0 5.9,0 9,2.1 11.7,3.8 2.6,1.6 4.9,3.2 9.6,3.2 0,0 0,0 0,0 4.8,0 7,-1.6 9.6,-3.2 2.7,-1.7 5.8,-3.8 11.7,-3.8 0,0 0,0 0,0 5.9,0 9,2.1 11.8,3.8 2.6,1.6 4.9,3.2 9.6,3.2 0,0 0,0 0,0 4.8,0 7,-1.6 9.6,-3.2 2.7,-1.7 5.8,-3.8 11.7,-3.8 0,0 0,0 0,0 l 0,4 c 0,0 0,0 0,0 -4.8,0 -7,1.6 -9.6,3.2 -2.7,1.8 -5.8,3.9 -11.7,3.9 z" /></g><g
     transform="translate(0,-386.04965)"
     id="g4606"><line
       style="fill:#ffffff"
       id="line4608"
       y2="738"
       x2="607"
       y1="720"
       x1="607" /><rect
       id="rect4610"
       height="18"
       width="4"
       y="720"
       x="605" /></g><g
     transform="translate(0,-386.04965)"
     id="g4612"><line
       style="fill:#ffffff"
       id="line4614"
       y2="738"
       x2="617"
       y1="721"
       x1="617" /><rect
       id="rect4616"
       height="17"
       width="4"
       y="721"
       x="615" /></g><g
     transform="translate(0,-386.04965)"
     id="g4618"><line
       style="fill:#ffffff"
       id="line4620"
       y2="738"
       x2="628"
       y1="720"
       x1="628" /><rect
       id="rect4622"
       height="18"
       width="4"
       y="720"
       x="626" /></g><g
     transform="translate(0,-386.04965)"
     id="g4624"><line
       style="fill:#ffffff"
       id="line4626"
       y2="732"
       x2="807"
       y1="588"
       x1="807" /><rect
       id="rect4628"
       height="144"
       width="4"
       y="588"
       x="805" /></g><g
     transform="translate(0,-386.04965)"
     id="g4630"><polygon
       style="fill:#ffffff"
       id="polygon4632"
       points="673.7,627.2 687.2,676.5 616.9,676.5 630.3,627.2 " /><path
       id="path4634"
       d="m 689.8,678.5 -75.6,0 14.6,-53.3 46.4,0 14.6,53.3 z m -70.3,-4 65.1,0 -12.4,-45.3 -40.3,0 -12.4,45.3 z" /></g><g
     transform="translate(0,-386.04965)"
     id="g4636"><line
       style="fill:#ffffff"
       id="line4638"
       y2="732"
       x2="728"
       y1="547"
       x1="728" /><rect
       id="rect4640"
       height="185"
       width="4"
       y="547"
       x="726" /></g><g
     transform="translate(0,-386.04965)"
     id="g4642"><line
       style="fill:#ffffff"
       id="line4644"
       y2="624"
       x2="766"
       y1="624"
       x1="691" /><rect
       id="rect4646"
       height="4"
       width="75"
       y="622"
       x="691" /></g><g
     transform="translate(0,-386.04965)"
     id="g4648"><line
       style="fill:#ffffff"
       id="line4650"
       y2="650"
       x2="835"
       y1="650"
       x1="780" /><rect
       id="rect4652"
       height="4"
       width="55"
       y="648"
       x="780" /></g><g
     transform="translate(0,-386.04965)"
     id="g4654"><line
       style="fill:#ffffff"
       id="line4656"
       y2="592"
       x2="823"
       y1="592"
       x1="791" /><rect
       id="rect4658"
       height="4"
       width="32"
       y="590"
       x="791" /></g><g
     transform="translate(0,-386.04965)"
     id="g4660"><line
       style="fill:#ffffff"
       id="line4662"
       y2="560"
       x2="752"
       y1="560"
       x1="707" /><rect
       id="rect4664"
       height="4"
       width="45"
       y="558"
       x="707" /></g><g
     transform="translate(0,-386.04965)"
     id="g4666"><rect
       id="rect4668"
       height="24"
       width="4"
       y="544"
       x="150" /></g><g
     transform="translate(0,-386.04965)"
     id="g4670"><circle
       id="circle4672"
       r="4.0999999"
       cy="555.5"
       cx="152" /></g><g
     transform="translate(0,-386.04965)"
     id="g4674"><polygon
       style="fill:#ffffff"
       id="polygon4676"
       points="748.2,567.1 759.4,616 700.6,616 711.9,567.1 " /><path
       id="path4678"
       d="m 762,618 -63.9,0 12.2,-52.9 39.4,0 12.3,52.9 z m -58.9,-4 53.8,0 -10.4,-44.9 -33.1,0 -10.3,44.9 z" /></g><g
     transform="translate(0,-386.04965)"
     id="g4680"><polygon
       style="fill:#ffffff"
       id="polygon4682"
       points="764.7,630.4 779.5,697.6 681.1,697.6 696,630.4 " /><path
       id="path4684"
       d="m 782,699.6 -103.3,0 15.7,-71.2 72,0 15.6,71.2 z m -98.4,-4 93.4,0 -13.9,-63.2 -65.5,0 -14,63.2 z" /></g><g
     transform="translate(0,-386.04965)"
     id="g4686"><polygon
       style="fill:#ffffff"
       id="polygon4688"
       points="820.8,599.1 829.1,642.9 785.9,642.9 794.2,599.1 " /><path
       id="path4690"
       d="m 831.5,644.9 -48,0 9,-47.8 29.9,0 9.1,47.8 z m -43.1,-4 38.3,0 -7.5,-39.8 -23.3,0 -7.5,39.8 z" /></g><g
     transform="translate(0,-386.04965)"
     id="g4692"><polygon
       style="fill:#ffffff"
       id="polygon4694"
       points="831.3,656.7 841.5,706 773.5,706 783.8,656.7 " /><path
       id="path4696"
       d="m 844,708 -72.9,0 11.1,-53.3 50.8,0 11,53.3 z m -68,-4 63.1,0 -9.4,-45.3 -44.2,0 -9.5,45.3 z" /></g><g
     transform="translate(0,-386.04965)"
     id="g4698"><rect
       style="fill:#ffffff"
       id="rect4700"
       height="20.9"
       width="20.9"
       transform="matrix(0.8703,-0.4926,0.4926,0.8703,-327.834,347.3222)"
       y="785.59998"
       x="485" /><path
       id="path4702"
       d="m 490.8,813.1 -12.3,-21.7 21.7,-12.3 12.3,21.7 -21.7,12.3 z m -6.8,-20.2 8.3,14.7 14.7,-8.3 -8.3,-14.7 -14.7,8.3 z" /></g><g
     transform="translate(0,-386.04965)"
     id="g4704"><rect
       style="fill:#ffffff"
       id="rect4706"
       height="20.9"
       width="20.9"
       transform="matrix(1,-0.00188162,0.00188162,1,-1.3169,0.5087)"
       y="689.70001"
       x="259.20001" /><path
       id="path4708"
       d="m 257.2,712.6 0,-24.9 24.9,0 0,24.9 -24.9,0 z m 4,-20.9 0,16.9 16.9,0 0,-16.9 -16.9,0 z" /></g><g
     transform="translate(0,-386.04965)"
     id="g4710"><rect
       style="fill:#ffffff"
       id="rect4712"
       height="20.9"
       width="20.9"
       transform="matrix(1,-0.00188162,0.00188162,1,-1.3169,0.5481)"
       y="689.70001"
       x="280.20001" /><path
       id="path4714"
       d="m 278.2,712.6 0,-24.9 24.9,0 0,24.9 -24.9,0 z m 4,-20.9 0,16.9 16.9,0 0,-16.9 -16.9,0 z" /></g><g
     transform="translate(0,-386.04965)"
     id="g4716"><rect
       style="fill:#ffffff"
       id="rect4718"
       height="20.9"
       width="20.9"
       transform="matrix(1,-0.00188162,0.00188162,1,-1.2753,0.5284)"
       y="667.59998"
       x="269.70001" /><path
       id="path4720"
       d="m 267.7,690.5 0,-24.9 24.9,0 0,24.9 -24.9,0 z m 4,-20.9 0,16.9 16.9,0 0,-16.9 -16.9,0 z" /></g></svg>