<?xml version="1.0" encoding="utf-8"?>
<!-- Generator: Adobe Illustrator 18.1.1, SVG Export Plug-In . SVG Version: 6.00 Build 0)  -->
<svg version="1.1" id="Layer_1" xmlns="http://www.w3.org/2000/svg" xmlns:xlink="http://www.w3.org/1999/xlink" x="0px" y="0px"
	 viewBox="0 0 1280 800" enable-background="new 0 0 1280 800" xml:space="preserve">
<g>
	
		<rect x="398.8" y="729.1" transform="matrix(0.9864 0.1646 -0.1646 0.9864 127.3172 -57.2785)" fill="#FFFFFF" width="20.9" height="20.9"/>
	<path d="M419.5,754l-24.6-4.1l4.1-24.6l24.6,4.1L419.5,754z M399.5,746.6l16.7,2.8l2.8-16.7l-16.7-2.8L399.5,746.6z"/>
</g>
<g>
	<rect x="139.2" y="579.6" fill="#FFFFFF" width="25.3" height="25.6"/>
	<path d="M166.5,607.2h-29.3v-29.6h29.3V607.2z M141.2,603.2h21.3v-21.6h-21.3V603.2z"/>
</g>
<g>
	<rect x="148.5" y="586.3" fill="#FFFFFF" width="6.7" height="10.9"/>
	<path d="M157.2,599.2h-10.7v-14.9h10.7V599.2z M150.5,595.2h2.7v-6.9h-2.7V595.2z"/>
</g>
<g>
	<rect x="90" y="642.9" fill="#FFFFFF" width="189.7" height="70.2"/>
	<path d="M281.7,715.1H88v-74.2h193.7V715.1z M92,711.1h185.7v-66.2H92V711.1z"/>
</g>
<g>
	<rect x="61.1" y="713.1" fill="#FFFFFF" width="12.6" height="40.3"/>
	<path d="M75.7,755.4H59.1v-44.3h16.6V755.4z M63.1,751.4h8.6v-36.3h-8.6V751.4z"/>
</g>
<g>
	<rect x="81.7" y="610.1" fill="#FFFFFF" width="204.5" height="32.9"/>
	<path d="M288.2,644.9H79.7v-36.9h208.5V644.9z M83.7,640.9h200.5v-28.9H83.7V640.9z"/>
</g>
<g>
	<rect x="97.5" y="713.1" fill="#FFFFFF" width="12.6" height="40.3"/>
	<path d="M112.1,755.4H95.5v-44.3h16.6V755.4z M99.5,751.4h8.6v-36.3h-8.6V751.4z"/>
</g>
<g>
	<rect x="135.2" y="604.4" fill="#FFFFFF" width="33.4" height="17.1"/>
	<path d="M170.5,623.5h-37.4v-21.1h37.4V623.5z M137.2,619.5h29.4v-13.1h-29.4V619.5z"/>
</g>
<g>
	<polygon fill="#FFFFFF" points="166.8,579.6 136.9,579.6 145.8,568.8 157.9,568.8 	"/>
	<path d="M171,581.6h-38.4l12.1-14.8h14.1L171,581.6z M141.1,577.6h21.5l-5.6-6.8h-10.3L141.1,577.6z"/>
</g>
<g>
	<rect x="133.9" y="713.1" fill="#FFFFFF" width="12.6" height="40.3"/>
	<path d="M148.5,755.4h-16.6v-44.3h16.6V755.4z M135.9,751.4h8.6v-36.3h-8.6V751.4z"/>
</g>
<g>
	<rect x="170.3" y="713.1" fill="#FFFFFF" width="12.6" height="40.3"/>
	<path d="M184.9,755.4h-16.6v-44.3h16.6V755.4z M172.3,751.4h8.6v-36.3h-8.6V751.4z"/>
</g>
<g>
	<rect x="206.7" y="713.1" fill="#FFFFFF" width="12.6" height="40.3"/>
	<path d="M221.4,755.4h-16.6v-44.3h16.6V755.4z M208.7,751.4h8.6v-36.3h-8.6V751.4z"/>
</g>
<g>
	<rect x="243.2" y="713.1" fill="#FFFFFF" width="12.6" height="40.3"/>
	<path d="M257.8,755.4h-16.6v-44.3h16.6V755.4z M245.2,751.4h8.6v-36.3h-8.6V751.4z"/>
</g>
<g>
	<rect x="279.6" y="713.1" fill="#FFFFFF" width="12.6" height="40.3"/>
	<path d="M294.2,755.4h-16.6v-44.3h16.6V755.4z M281.6,751.4h8.6v-36.3h-8.6V751.4z"/>
</g>
<g>
	<rect x="316" y="713.1" fill="#FFFFFF" width="12.6" height="40.3"/>
	<path d="M330.6,755.4H314v-44.3h16.6V755.4z M318,751.4h8.6v-36.3H318V751.4z"/>
</g>
<g>
	<path fill="#FFFFFF" d="M1301.2,744.9c-10.7-0.8-10.4-6.7-21.1-6.7c-10.7,0-10.7,6.6-21.4,6.6c-10.7,0-10.7-6.7-21.4-6.7
		c-10.7,0-10.7,6.6-21.4,6.6c-10.7,0-10.7-6.7-21.4-6.7c-10.7,0-10.7,6.6-21.4,6.6c-10.7,0-10.7-6.7-21.4-6.7
		c-10.7,0-10.7,6.6-21.4,6.6c-10.7,0-10.7-6.7-21.4-6.7c-10.7,0-10.7,6.6-21.4,6.6c-10.7,0-10.7-6.7-21.4-6.7
		c-10.7,0-10.7,6.6-21.4,6.6c-10.7,0-10.7-6.7-21.4-6.7c-10.7,0-10.7,6.6-21.4,6.6c-10.7,0-10.7-6.7-21.4-6.7
		c-10.7,0-10.7,6.6-21.4,6.6c-10.7,0-10.7-6.7-21.4-6.7c-10.7,0-10.7,6.6-21.4,6.6c-10.7,0-10.7-6.7-21.4-6.7
		c-10.7,0-10.7,6.6-21.4,6.6c-10.7,0-10.7-6.7-21.4-6.7c-10.7,0-10.7,6.6-21.4,6.6c-10.7,0-10.7-6.7-21.4-6.7
		c-10.7,0-10.7,6.6-21.4,6.6c-10.7,0-10.7-6.7-21.4-6.7c-10.7,0-10.7,6.6-21.4,6.6c-10.7,0-10.7-6.7-21.4-6.7
		c-10.7,0-10.7,6.6-21.4,6.6c-10.7,0-10.7-6.7-21.4-6.7c-10.7,0-10.7,6.6-21.4,6.6c-10.7,0-10.7-6.7-21.4-6.7
		c-10.7,0-10.7,6.6-21.4,6.6c-10.7,0-10.7-6.7-21.4-6.7c-10.7,0-10.7,6.6-21.4,6.6c-10.7,0-10.7-6.7-21.4-6.7
		c-10.7,0-10.7,6.6-21.4,6.6c-10.7,0-10.7-6.7-21.4-6.7c-10.7,0-10.7,6.6-21.4,6.6c-10.7,0-10.7-6.7-21.4-6.7
		c-10.7,0-10.7,6.6-21.4,6.6c-10.7,0-10.7-6.7-21.4-6.7c-10.7,0-10.7,6.6-21.4,6.6c-10.7,0-10.7-6.7-21.4-6.7
		c-10.7,0-10.7,6.6-21.4,6.6c-10.7,0-10.7-6.7-21.4-6.7c-10.7,0-10.7,6.6-21.4,6.6c-10.7,0-10.7-6.7-21.4-6.7
		c-10.7,0-10.7,6.6-21.4,6.6c-10.7,0-10.7-6.7-21.4-6.7c-10.7,0-10.7,6.6-21.4,6.6c-10.7,0-10.7-6.7-21.4-6.7
		c-10.7,0-10.7,6.6-21.4,6.6c-10.7,0-10.7-6.7-21.4-6.7c-10.7,0-10.7,6.6-21.4,6.6c-10.7,0-10.7-6.7-21.4-6.7
		c-10.7,0-10.7,6.6-21.4,6.6c-10.7,0-10.7-6.7-21.4-6.7c-10.7,0-10.7,6.6-21.4,6.6c-10.7,0-10.7-6.7-21.4-6.7
		c-10.7,0-10.7,6.6-21.4,6.6c-10.7,0-10.7-6.7-21.4-6.7s-10.5,5.8-21.2,6.6c-0.8,0.1-3.6-2.5-3.6-1.7c0,0.8,6.7,0.8,6.7,1.6
		c0,0.8-6.7,0.8-6.7,1.6c0,0.8,6.7,0.8,6.7,1.6c0,0.8-6.7,0.8-6.7,1.6c0,0.8,6.7,0.8,6.7,1.6c0,0.8-6.7,0.8-6.7,1.6
		c0,0.8,6.7,0.8,6.7,1.6c0,0.8-6.7,0.8-6.7,1.6c0,0.8,6.7,0.8,6.7,1.6s-6.7,0.8-6.7,1.6c0,0.8,6.7,0.8,6.7,1.6
		c0,0.8-6.7,0.8-6.7,1.6c0,0.8,6.7,0.8,6.7,1.6c0,0.8-6.7,0.8-6.7,1.6c0,0.8,6.7,0.8,6.7,1.6c0,0.8-6.7,0.8-6.7,1.6
		c0,0.8,6.7,0.8,6.7,1.6c0,0.8-6.7,0.8-6.7,1.6c0,0.8,6.7,0.8,6.7,1.6c0,0.8-6.7,0.8-6.7,1.6c0,0.8,6.7,0.8,6.7,1.6
		c0,0.8-6.7,0.8-6.7,1.6c0,0.8,6.7,0.8,6.7,1.6c0,0.8-6.7,0.8-6.7,1.6c0,0.8,6.7,0.8,6.7,1.6c0,0.8-6.7,0.8-6.7,1.6
		c0,0.8,6.7,0.8,6.7,1.6c0,0.8-6.7,0.8-6.7,1.6c0,0.8,6.7,0.8,6.7,1.6c0,0.8-6.7,0.8-6.7,1.6c0,0.8,6.7,0.8,6.7,1.6
		c0,0.8-6.7,0.8-6.7,1.6c0,0.8,6.7,0.8,6.7,1.6c0,0.8-6.7,0.8-6.7,1.6c0,0.8,6.7,0.8,6.7,1.6c0,0.8-6.7,0.8-6.7,1.6
		c0,0.8,6.7,0.8,6.7,1.6c0,0.8-6.7,0.8-6.7,1.6c0,0.8,6.7,0.8,6.7,1.6c0,0.8-6.7,0.8-6.7,1.6c0,0.8,6.7,0.8,6.7,1.6
		c0,0.8-6.7,0.8-6.7,1.6c0,0.8,6.7,0.8,6.7,1.6c0,0.8-6.7,0.8-6.7,1.6c0,0.8,6.7,0.8,6.7,1.6c0,0.8-6.7,0.8-6.7,1.6
		c0,0.8,6.7,0.8,6.7,1.6c0,0.8-6.7,0.8-6.7,1.6c0,0.8,6.7,0.8,6.7,1.6c0,0.8-6.7,0.8-6.7,1.6c0,0.8,6.7,0.8,6.7,1.6
		c0,0.8-6.7,0.8-6.7,1.6s6.7,0.8,6.7,1.6c0,0.8-6.7,0.8-6.7,1.6c0,0.8,6.7,0.8,6.7,1.6c0,0.8-6.7,0.8-6.7,1.6c0,0.8,6.7,0.8,6.7,1.6
		c0,0.8-6.7,0.8-6.7,1.6c0,0.8,6.7,0.8,6.7,1.6c0,0.8-6.7,0.8-6.7,1.6s2.8-1.8,3.6-1.7c10.7,0.8,10.5,6.6,21.2,6.6
		c10.7,0,10.7-6.7,21.5-6.7c10.7,0,10.7,6.7,21.5,6.7c10.7,0,10.7-6.7,21.5-6.7c10.7,0,10.7,6.7,21.5,6.7c10.7,0,10.7-6.7,21.5-6.7
		c10.7,0,10.7,6.7,21.5,6.7c10.7,0,10.7-6.7,21.5-6.7c10.7,0,10.7,6.7,21.5,6.7c10.7,0,10.7-6.7,21.5-6.7c10.7,0,10.7,6.7,21.5,6.7
		c10.7,0,10.7-6.7,21.5-6.7c10.7,0,10.7,6.7,21.5,6.7c10.7,0,10.7-6.7,21.5-6.7c10.7,0,10.7,6.7,21.5,6.7c10.7,0,10.7-6.7,21.5-6.7
		c10.7,0,10.7,6.7,21.5,6.7c10.7,0,10.7-6.7,21.5-6.7c10.7,0,10.7,6.7,21.5,6.7c10.7,0,10.7-6.7,21.5-6.7c10.7,0,10.7,6.7,21.5,6.7
		c10.7,0,10.7-6.7,21.5-6.7c10.7,0,10.7,6.7,21.5,6.7c10.7,0,10.7-6.7,21.5-6.7c10.7,0,10.7,6.7,21.5,6.7c10.7,0,10.7-6.7,21.5-6.7
		c10.7,0,10.7,6.7,21.5,6.7c10.7,0,10.7-6.7,21.5-6.7c10.7,0,10.7,6.7,21.5,6.7c10.7,0,10.7-6.7,21.5-6.7c10.7,0,10.7,6.7,21.5,6.7
		c10.7,0,10.7-6.7,21.5-6.7c10.7,0,10.7,6.7,21.5,6.7c10.7,0,10.7-6.7,21.5-6.7c10.7,0,10.7,6.7,21.5,6.7c10.7,0,10.7-6.7,21.5-6.7
		c10.7,0,10.7,6.7,21.5,6.7c10.7,0,10.7-6.7,21.5-6.7c10.7,0,10.7,6.7,21.5,6.7c10.7,0,10.7-6.7,21.5-6.7c10.7,0,10.7,6.7,21.5,6.7
		c10.7,0,10.7-6.7,21.5-6.7c10.7,0,10.7,6.7,21.5,6.7c10.7,0,10.7-6.7,21.5-6.7c10.7,0,10.7,6.7,21.5,6.7c10.7,0,10.7-6.7,21.5-6.7
		c10.7,0,10.7,6.7,21.5,6.7c10.7,0,10.7-6.7,21.5-6.7c10.7,0,10.7,6.7,21.5,6.7c10.7,0,10.7-6.7,21.5-6.7c10.7,0,10.7,6.7,21.5,6.7
		c10.7,0,10.7-6.7,21.5-6.7c10.7,0,10.7,6.7,21.5,6.7c10.7,0,10.7-6.7,21.5-6.7c10.7,0,10.7,6.7,21.5,6.7c10.7,0,10.7-6.7,21.5-6.7
		c10.7,0,10.7,6.7,21.5,6.7s10.7-6.7,21.5-6.7c10.7,0,10.7,6.7,21.5,6.7c10.7,0,10.7-6.7,21.5-6.7c10.7,0,10.7,6.7,21.5,6.7
		c10.7,0,10.5-5.9,21.2-6.7c0.8-0.1,3.5,2.3,3.5,1.6c0-0.8-6.7-0.4-6.7-1.2c0-0.8,6.6-1.2,6.6-2c0-0.8-6.7-0.4-6.7-1.2
		c0-0.8,6.6-1.2,6.6-2c0-0.8-6.7-0.4-6.7-1.2c0-0.8,6.6-1.2,6.6-2c0-0.8-6.7-0.4-6.7-1.2c0-0.8,6.6-1.2,6.6-2c0-0.8-6.7-0.4-6.7-1.2
		c0-0.8,6.6-1.2,6.6-2c0-0.8-6.7-0.4-6.7-1.2c0-0.8,6.6-1.2,6.6-2c0-0.8-6.7-0.4-6.7-1.2c0-0.8,6.6-1.2,6.6-2c0-0.8-6.7-0.4-6.7-1.2
		c0-0.8,6.6-1.2,6.6-2c0-0.8-6.7-0.4-6.7-1.2c0-0.8,6.6-1.2,6.6-2c0-0.8-6.7-0.4-6.7-1.2c0-0.8,6.6-1.2,6.6-2c0-0.8-6.7-0.4-6.7-1.2
		c0-0.8,6.6-1.2,6.6-2c0-0.8-6.7-0.4-6.7-1.2c0-0.8,6.6-1.2,6.6-2s-6.7-0.4-6.7-1.2c0-0.8,6.6-1.2,6.6-2c0-0.8-6.7-0.4-6.7-1.2
		c0-0.8,6.6-1.2,6.6-2c0-0.8-6.7-0.4-6.7-1.2c0-0.8,6.6-1.2,6.6-2c0-0.8-6.7-0.4-6.7-1.2c0-0.8,6.6-1.2,6.6-2c0-0.8-6.7-0.4-6.7-1.2
		c0-0.8,6.6-1.2,6.6-2c0-0.8-6.7-0.4-6.7-1.2c0-0.8,6.6-1.2,6.6-2c0-0.8-6.7-0.4-6.7-1.2c0-0.8,6.6-1.2,6.6-2c0-0.8-6.7-0.4-6.7-1.2
		c0-0.8,6.6-1.2,6.6-2c0-0.8-6.7-0.4-6.7-1.2c0-0.8,6.6-1.2,6.6-2c0-0.8-6.7-0.4-6.7-1.2c0-0.8,6.6-1.2,6.6-2c0-0.8-6.7-0.4-6.7-1.2
		c0-0.8,6.6-1.2,6.6-2c0-0.8-6.7-0.4-6.7-1.2c0-0.8,6.6-1.2,6.6-2c0-0.8-6.7-0.4-6.7-1.2c0-0.8,6.6-1.2,6.6-2c0-0.8-6.7-0.4-6.7-1.2
		c0-0.8,6.6-1.2,6.6-2c0-0.8-6.7-0.4-6.7-1.2c0-0.8,6.6-1.2,6.6-2c0-0.8-6.7-0.4-6.7-1.2c0-0.8,6.6-1.2,6.6-2c0-0.8-6.7-0.4-6.7-1.2
		c0-0.8,6.6-1.2,6.6-2c0-0.8-6.7-0.4-6.7-1.2c0-0.8,1,0.8,1.7,1.2C1300.8,746.6,1302,745,1301.2,744.9z"/>
</g>
<g>
	<path d="M1300,765C1300,765,1300,765,1300,765c-5.9,0-9-2.1-11.8-3.8c-2.6-1.6-4.9-3.2-9.6-3.2c0,0,0,0,0,0c-4.8,0-7,1.6-9.6,3.2
		c-2.7,1.7-5.8,3.8-11.7,3.8c0,0,0,0,0,0c-5.9,0-9-2.1-11.7-3.8c-2.6-1.6-4.9-3.2-9.6-3.2c0,0,0,0,0,0c-4.8,0-7,1.6-9.6,3.2
		c-2.7,1.7-5.8,3.8-11.7,3.8c0,0,0,0,0,0c-5.9,0-9-2.1-11.7-3.8c-2.6-1.6-4.9-3.2-9.6-3.2c0,0,0,0,0,0c-4.8,0-7,1.6-9.6,3.2
		c-2.7,1.7-5.8,3.8-11.7,3.8c0,0,0,0,0,0c-5.9,0-9-2.1-11.7-3.8c-2.6-1.6-4.9-3.2-9.6-3.2c0,0,0,0,0,0c-4.8,0-7,1.6-9.6,3.2
		c-2.7,1.7-5.8,3.8-11.7,3.8c0,0,0,0,0,0c-5.9,0-9-2.1-11.7-3.8c-2.6-1.6-4.9-3.2-9.6-3.2c0,0,0,0,0,0c-4.8,0-7,1.6-9.6,3.2
		c-2.7,1.7-5.8,3.8-11.7,3.8c0,0,0,0,0,0c-5.9,0-9-2.1-11.7-3.8c-2.6-1.6-4.9-3.2-9.6-3.2c0,0,0,0,0,0c-4.8,0-7,1.6-9.6,3.2
		c-2.7,1.7-5.8,3.8-11.7,3.8c0,0,0,0,0,0c-5.9,0-9-2.1-11.7-3.8c-2.6-1.6-4.9-3.2-9.6-3.2c0,0,0,0,0,0c-4.8,0-7,1.6-9.6,3.2
		c-2.7,1.7-5.8,3.8-11.7,3.8c0,0,0,0,0,0c-5.9,0-9-2.1-11.7-3.8c-2.6-1.6-4.9-3.2-9.6-3.2c0,0,0,0,0,0c-4.8,0-7,1.6-9.6,3.2
		c-2.7,1.7-5.8,3.8-11.7,3.8c0,0,0,0,0,0c-5.9,0-9-2.1-11.7-3.8c-2.6-1.6-4.9-3.2-9.6-3.2c0,0,0,0,0,0c-4.8,0-7,1.1-9.6,2.7
		c-2.7,1.7-5.8,3.3-11.7,3.3c0,0,0,0,0,0c-5.9,0-9-1.6-11.7-3.3c-2.6-1.6-4.9-2.7-9.6-2.7c0,0,0,0,0,0c-4.8,0-7,1.1-9.6,2.7
		c-2.7,1.7-5.8,3.3-11.7,3.3c0,0,0,0,0,0c-5.9,0-9-1.6-11.7-3.3c-2.6-1.6-4.9-2.7-9.6-2.7c0,0,0,0,0,0c-4.8,0-7,1.1-9.6,2.7
		c-2.7,1.7-5.8,3.3-11.7,3.3c0,0,0,0,0,0c-5.9,0-9-1.6-11.7-3.3c-2.6-1.6-4.9-2.7-9.6-2.7c0,0,0,0,0,0c-4.8,0-7,1.1-9.6,2.7
		c-2.7,1.7-5.8,3.3-11.7,3.3c0,0,0,0,0,0c-5.9,0-9-1.6-11.7-3.3c-2.6-1.6-4.9-2.7-9.6-2.7c0,0,0,0,0,0c-4.8,0-7,1.1-9.6,2.7
		c-2.7,1.7-5.8,3.3-11.7,3.3c0,0,0,0,0,0c-5.9,0-9-1.6-11.7-3.3c-2.6-1.6-4.9-2.7-9.6-2.7c0,0,0,0,0,0c-4.8,0-7,1.1-9.6,2.7
		c-2.7,1.7-5.8,3.3-11.7,3.3c0,0,0,0,0,0c-5.9,0-9-1.6-11.7-3.3c-2.6-1.6-4.9-2.7-9.6-2.7c0,0,0,0,0,0c-4.8,0-7,1.1-9.6,2.7
		c-2.7,1.7-5.8,3.3-11.7,3.3c0,0,0,0,0,0c-5.9,0-9-1.6-11.7-3.3c-2.6-1.6-4.9-2.7-9.6-2.7c0,0,0,0,0,0c-4.8,0-7,1.1-9.6,2.7
		c-2.7,1.7-5.8,3.3-11.7,3.3c0,0,0,0,0,0c-5.9,0-9-1.6-11.7-3.3c-2.6-1.6-4.9-2.7-9.6-2.7c0,0,0,0,0,0c-4.8,0-7,1.1-9.6,2.7
		c-2.7,1.7-5.8,3.3-11.7,3.3c0,0,0,0,0,0c-5.9,0-9-2.1-11.7-3.8c-2.6-1.6-4.9-3.2-9.6-3.2c0,0,0,0,0,0c-4.8,0-7,1.6-9.6,3.2
		c-2.7,1.7-5.8,3.8-11.7,3.8c0,0,0,0,0,0c-5.9,0-9-2.1-11.7-3.8c-2.6-1.6-4.9-3.2-9.6-3.2c0,0,0,0,0,0c-4.8,0-7,1.6-9.6,3.2
		c-2.7,1.7-5.8,3.8-11.7,3.8c0,0,0,0,0,0c-5.9,0-9-2.1-11.7-3.8c-2.6-1.6-4.9-3.2-9.6-3.2c0,0,0,0,0,0c-4.8,0-7,1.6-9.6,3.2
		c-2.7,1.7-5.8,3.8-11.7,3.8c0,0,0,0,0,0c-5.9,0-9-2.1-11.7-3.8c-2.6-1.6-4.9-3.2-9.6-3.2c0,0,0,0,0,0c-4.8,0-7,1.6-9.6,3.2
		c-2.7,1.7-5.8,3.8-11.7,3.8c0,0,0,0,0,0c-5.9,0-9-2.1-11.7-3.8c-2.6-1.6-4.9-3.2-9.6-3.2c0,0,0,0,0,0c-4.8,0-7,1.6-9.6,3.2
		c-2.7,1.7-5.8,3.8-11.7,3.8c0,0,0,0,0,0c-5.9,0-9-2.1-11.7-3.8c-2.6-1.6-4.9-3.2-9.6-3.2c0,0,0,0,0,0c-4.8,0-7,1.6-9.6,3.2
		c-2.7,1.7-5.8,3.8-11.7,3.8c0,0,0,0,0,0c-5.9,0-9-2.1-11.7-3.8c-2.6-1.6-4.9-3.2-9.6-3.2c0,0,0,0,0,0c-4.8,0-7,1.5-9.6,3.1
		c-2.7,1.7-5.8,3.7-11.8,3.7c-5.9,0-9-2-11.7-3.7c-2.6-1.6-4.9-3.1-9.6-3.1c0,0,0,0,0,0c-4.8,0-7,1.6-9.6,3.2
		c-2.7,1.7-5.8,3.8-11.7,3.8c0,0,0,0,0,0c-5.9,0-9-2.1-11.7-3.8c-2.6-1.6-4.9-3.2-9.6-3.2c0,0,0,0,0,0c-4.8,0-7,1.6-9.6,3.2
		c-2.7,1.7-5.8,3.8-11.7,3.8c0,0,0,0,0,0c-5.9,0-9-2.1-11.7-3.8c-2.6-1.6-4.9-3.2-9.6-3.2c0,0,0,0,0,0c-4.8,0-7,1.6-9.6,3.2
		c-2.7,1.7-5.8,3.8-11.7,3.8c0,0,0,0,0,0c-5.9,0-9-2.1-11.7-3.8c-2.6-1.6-4.9-3.2-9.6-3.2c0,0,0,0,0,0c-4.8,0-7,1.6-9.6,3.2
		c-2.7,1.7-5.8,3.8-11.7,3.8c0,0,0,0,0,0c-5.9,0-9-2.1-11.7-3.8c-2.6-1.6-4.9-3.2-9.6-3.2c0,0,0,0,0,0c-4.8,0-7,1.6-9.6,3.2
		c-2.7,1.7-5.8,3.8-11.7,3.8c0,0,0,0,0,0c-5.9,0-9-2.1-11.7-3.8c-2.6-1.6-4.9-3.2-9.6-3.2c0,0,0,0,0,0c-4.8,0-7,1.6-9.6,3.2
		c-2.7,1.7-5.8,3.8-11.7,3.8c0,0,0,0,0,0c-5.9,0-9-2.2-11.7-3.9c-2.6-1.6-4.9-3.1-9.6-3.1l0-4.1c5.9,0,9,2.1,11.7,3.8
		c2.6,1.6,4.9,3.2,9.6,3.2c0,0,0,0,0,0c4.8,0,7-1.6,9.6-3.2c2.7-1.7,5.8-3.8,11.7-3.8c0,0,0,0,0,0c5.9,0,9,2.1,11.7,3.8
		c2.6,1.6,4.9,3.2,9.6,3.2c0,0,0,0,0,0c4.8,0,7-1.6,9.6-3.2c2.7-1.7,5.8-3.8,11.7-3.8c0,0,0,0,0,0c5.9,0,9,2.1,11.7,3.8
		c2.6,1.6,4.9,3.2,9.6,3.2c0,0,0,0,0,0c4.8,0,7-1.6,9.6-3.2c2.7-1.7,5.8-3.8,11.7-3.8c0,0,0,0,0,0c5.9,0,9,2.1,11.7,3.8
		c2.6,1.6,4.9,3.2,9.6,3.2c0,0,0,0,0,0c4.8,0,7-1.6,9.6-3.2c2.7-1.7,5.8-3.8,11.7-3.8c0,0,0,0,0,0c5.9,0,9,2.1,11.7,3.8
		c2.6,1.6,4.9,3.2,9.6,3.2c0,0,0,0,0,0c4.8,0,7-1.6,9.6-3.2c2.7-1.7,5.8-3.8,11.7-3.8c0,0,0,0,0,0c5.9,0,9,2.1,11.7,3.8
		c2.6,1.6,4.9,3.2,9.6,3.2c0,0,0,0,0,0c4.8,0,7-1.6,9.6-3.2c2.7-1.7,5.8-3.8,11.7-3.8c0,0,0,0,0,0c5.9,0,9,2.1,11.7,3.8
		c2.6,1.6,4.9,3.2,9.6,3.2c0,0,0,0,0,0c4.8,0,7-1.6,9.6-3.2c2.7-1.7,5.8-3.8,11.7-3.8c0,0,0,0,0,0c5.9,0,9,2.1,11.7,3.8
		c2.6,1.6,4.9,3.2,9.6,3.2c0,0,0,0,0,0c4.8,0,7-1.6,9.6-3.2c2.7-1.7,5.8-3.8,11.7-3.8c0,0,0,0,0,0c5.9,0,9,2.1,11.7,3.8
		c2.6,1.6,4.9,3.2,9.6,3.2c0,0,0,0,0,0c4.8,0,7-1.6,9.6-3.2c2.7-1.7,5.8-3.8,11.7-3.8c0,0,0,0,0,0c5.9,0,9,2.1,11.7,3.8
		c2.6,1.6,4.9,3.2,9.6,3.2c0,0,0,0,0,0c4.8,0,7-1.6,9.6-3.2c2.7-1.7,5.8-3.8,11.7-3.8c0,0,0,0,0,0c5.9,0,9,2.1,11.7,3.8
		c2.6,1.6,4.9,3.2,9.6,3.2c0,0,0,0,0,0c4.8,0,7-1.6,9.6-3.2c2.7-1.7,5.8-3.8,11.7-3.8c0,0,0,0,0,0c5.9,0,9,2.1,11.7,3.8
		c2.6,1.6,4.9,3.2,9.6,3.2c0,0,0,0,0,0c4.8,0,7-1.6,9.6-3.2c2.7-1.7,5.8-3.8,11.7-3.8c0,0,0,0,0,0c5.9,0,9,2.1,11.7,3.8
		c2.6,1.6,4.9,3.2,9.6,3.2c0,0,0,0,0,0c4.8,0,7-1.6,9.6-3.2c2.7-1.7,5.8-3.8,11.7-3.8c0,0,0,0,0,0c5.9,0,9,2.1,11.7,3.8
		c2.6,1.6,4.9,3.2,9.6,3.2c0,0,0,0,0,0c4.8,0,7-1.3,9.6-2.9c2.7-1.7,5.8-3.6,11.8-3.6c5.9,0,9,1.9,11.7,3.6c2.6,1.6,4.9,3,9.6,3
		c0,0,0,0,0,0c4.8,0,7-1.1,9.6-2.7c2.7-1.7,5.8-3.3,11.7-3.3c0,0,0,0,0,0c5.9,0,9,1.6,11.7,3.3c2.6,1.6,4.9,2.7,9.6,2.7c0,0,0,0,0,0
		c4.8,0,7-1.1,9.6-2.7c2.7-1.7,5.8-3.3,11.7-3.3c0,0,0,0,0,0c5.9,0,9,1.6,11.7,3.3c2.6,1.6,4.9,2.7,9.6,2.7c0,0,0,0,0,0
		c4.8,0,7-1.1,9.6-2.7c2.7-1.7,5.8-3.3,11.7-3.3c0,0,0,0,0,0c5.9,0,9,1.6,11.7,3.3c2.6,1.6,4.9,2.7,9.6,2.7c0,0,0,0,0,0
		c4.8,0,7-1.1,9.6-2.7c2.7-1.7,5.8-3.3,11.7-3.3c0,0,0,0,0,0c5.9,0,9,1.6,11.7,3.3c2.6,1.6,4.9,2.7,9.6,2.7c0,0,0,0,0,0
		c4.8,0,7-1.1,9.6-2.7c2.7-1.7,5.8-3.3,11.7-3.3c0,0,0,0,0,0c5.9,0,9,1.6,11.7,3.3c2.6,1.6,4.9,2.7,9.6,2.7c0,0,0,0,0,0
		c4.8,0,7-1.1,9.6-2.7c2.7-1.7,5.8-3.3,11.7-3.3c0,0,0,0,0,0c5.9,0,9,1.6,11.7,3.3c2.6,1.6,4.9,2.7,9.6,2.7c0,0,0,0,0,0
		c4.8,0,7-1.1,9.6-2.7c2.7-1.7,5.8-3.3,11.7-3.3c0,0,0,0,0,0c5.9,0,9,1.6,11.7,3.3c2.6,1.6,4.9,2.7,9.6,2.7c0,0,0,0,0,0
		c4.8,0,7-1.1,9.6-2.7c2.7-1.7,5.8-3.3,11.7-3.3c0,0,0,0,0,0c5.9,0,9,2.1,11.7,3.8c2.6,1.6,4.9,3.2,9.6,3.2c0,0,0,0,0,0
		c4.8,0,7-1.6,9.6-3.2c2.7-1.7,5.8-3.8,11.7-3.8c0,0,0,0,0,0c5.9,0,9,2.1,11.7,3.8c2.6,1.6,4.9,3.2,9.6,3.2c0,0,0,0,0,0
		c4.8,0,7-1.6,9.6-3.2c2.7-1.7,5.8-3.8,11.7-3.8c0,0,0,0,0,0c5.9,0,9,2.1,11.7,3.8c2.6,1.6,4.9,3.2,9.6,3.2c0,0,0,0,0,0
		c4.8,0,7-1.6,9.6-3.2c2.7-1.7,5.8-3.8,11.7-3.8c0,0,0,0,0,0c5.9,0,9,2.1,11.7,3.8c2.6,1.6,4.9,3.2,9.6,3.2c0,0,0,0,0,0
		c4.8,0,7-1.6,9.6-3.2c2.7-1.7,5.9-3.7,11.8-3.7c5.9,0,9,2,11.7,3.7c2.6,1.6,4.9,3.1,9.6,3.1c0,0,0,0,0,0c4.8,0,7-1.6,9.6-3.2
		c2.7-1.7,5.8-3.8,11.7-3.8c0,0,0,0,0,0c5.9,0,9,2.1,11.7,3.8c2.6,1.6,4.9,3.2,9.6,3.2c0,0,0,0,0,0c4.8,0,7-1.6,9.6-3.2
		c2.7-1.7,5.8-3.8,11.7-3.8c0,0,0,0,0,0c5.9,0,9,2.1,11.7,3.8c2.6,1.6,4.9,3.2,9.6,3.2c0,0,0,0,0,0c4.8,0,7-1.6,9.6-3.2
		c2.7-1.7,5.8-3.8,11.7-3.8c0,0,0,0,0,0c5.9,0,9,2.1,11.7,3.8c2.6,1.6,4.9,3.2,9.6,3.2c0,0,0,0,0,0c4.8,0,7-1.6,9.6-3.2
		c2.7-1.7,5.8-3.8,11.7-3.8c0,0,0,0,0,0c5.9,0,9,2.1,11.8,3.8c2.6,1.6,4.9,3.2,9.6,3.2c0,0,0,0,0,0c4.8,0,7-1.6,9.6-3.2
		c2.7-1.7,5.8-3.8,11.7-3.8c0,0,0,0,0,0l0,4c0,0,0,0,0,0c-4.8,0-7,1.6-9.6,3.2C1309,762.9,1305.9,765,1300,765z"/>
</g>
<g>
	<polygon fill="#FFFFFF" points="212.6,659 152,608.2 96.4,659 110,659 110,713 196,713 196,659 	"/>
	<path d="M198,715h-90v-54H91.2l60.7-55.5l66.2,55.5H198V715z M112,711h82v-54h13.1L152,610.9L101.5,657H112V711z"/>
</g>
<g>
	
		<rect x="321" y="759.1" transform="matrix(0.9202 0.3914 -0.3914 0.9202 327.6417 -68.357)" fill="#FFFFFF" width="20.9" height="20.9"/>
	<path d="M338.1,785.9l-22.9-9.8l9.8-22.9l22.9,9.8L338.1,785.9z M320.4,774l15.6,6.6l6.6-15.6l-15.6-6.6L320.4,774z"/>
</g>
<g>
	
		<rect x="141.4" y="759.1" transform="matrix(0.8723 -0.4889 0.4889 0.8723 -356.8477 172.4843)" fill="#FFFFFF" width="20.9" height="20.9"/>
	<path d="M147.1,786.5l-12.2-21.8l21.8-12.2l12.2,21.8L147.1,786.5z M140.3,766.3l8.3,14.8l14.8-8.3l-8.3-14.8L140.3,766.3z"/>
</g>
<g>
	<path fill="#FFFFFF" d="M1301.2,779.9c-10.7-0.8-10.4-6.7-21.1-6.7c-10.7,0-10.7,6.6-21.4,6.6c-10.7,0-10.7-6.7-21.4-6.7
		c-10.7,0-10.7,6.6-21.4,6.6c-10.7,0-10.7-6.7-21.4-6.7c-10.7,0-10.7,6.6-21.4,6.6c-10.7,0-10.7-6.7-21.4-6.7
		c-10.7,0-10.7,6.6-21.4,6.6c-10.7,0-10.7-6.7-21.4-6.7c-10.7,0-10.7,6.6-21.4,6.6c-10.7,0-10.7-6.7-21.4-6.7
		c-10.7,0-10.7,6.6-21.4,6.6c-10.7,0-10.7-6.7-21.4-6.7c-10.7,0-10.7,6.6-21.4,6.6c-10.7,0-10.7-6.7-21.4-6.7
		c-10.7,0-10.7,6.6-21.4,6.6c-10.7,0-10.7-6.7-21.4-6.7c-10.7,0-10.7,6.6-21.4,6.6c-10.7,0-10.7-6.7-21.4-6.7
		c-10.7,0-10.7,6.6-21.4,6.6c-10.7,0-10.7-6.7-21.4-6.7c-10.7,0-10.7,6.6-21.4,6.6c-10.7,0-10.7-6.7-21.4-6.7
		c-10.7,0-10.7,6.6-21.4,6.6c-10.7,0-10.7-6.7-21.4-6.7c-10.7,0-10.7,6.6-21.4,6.6c-10.7,0-10.7-6.7-21.4-6.7
		c-10.7,0-10.7,6.6-21.4,6.6c-10.7,0-10.7-6.7-21.4-6.7c-10.7,0-10.7,6.6-21.4,6.6c-10.7,0-10.7-6.7-21.4-6.7
		c-10.7,0-10.7,6.6-21.4,6.6c-10.7,0-10.7-6.7-21.4-6.7c-10.7,0-10.7,6.6-21.4,6.6c-10.7,0-10.7-6.7-21.4-6.7
		c-10.7,0-10.7,6.6-21.4,6.6c-10.7,0-10.7-6.7-21.4-6.7c-10.7,0-10.7,6.6-21.4,6.6c-10.7,0-10.7-6.7-21.4-6.7
		c-10.7,0-10.7,6.6-21.4,6.6c-10.7,0-10.7-6.7-21.4-6.7c-10.7,0-10.7,6.6-21.4,6.6c-10.7,0-10.7-6.7-21.4-6.7
		c-10.7,0-10.7,6.6-21.4,6.6c-10.7,0-10.7-6.7-21.4-6.7c-10.7,0-10.7,6.6-21.4,6.6c-10.7,0-10.7-6.7-21.4-6.7
		c-10.7,0-10.7,6.6-21.4,6.6c-10.7,0-10.7-6.7-21.4-6.7c-10.7,0-10.7,6.6-21.4,6.6c-10.7,0-10.7-6.7-21.4-6.7
		c-10.7,0-10.7,6.6-21.4,6.6c-10.7,0-10.7-6.7-21.4-6.7c-10.7,0-10.7,6.6-21.4,6.6c-10.7,0-10.7-6.7-21.4-6.7
		c-10.7,0-10.7,6.6-21.4,6.6c-10.7,0-10.7-6.7-21.4-6.7c-10.7,0-10.7,6.6-21.4,6.6c-10.7,0-10.7-6.7-21.4-6.7
		c-10.7,0-10.7,6.6-21.4,6.6c-10.7,0-10.7-6.7-21.4-6.7s-10.5,5.8-21.2,6.6c-0.8,0.1-3.6-2.5-3.6-1.7c0,0.8,6.7,0.8,6.7,1.6
		c0,0.8-6.7,0.8-6.7,1.6c0,0.8,6.7,0.8,6.7,1.6c0,0.8-6.7,0.8-6.7,1.6c0,0.8,6.7,0.8,6.7,1.6c0,0.8-6.7,0.8-6.7,1.6
		c0,0.8,6.7,0.8,6.7,1.6c0,0.8-6.7,0.8-6.7,1.6c0,0.8,6.7,0.8,6.7,1.6s-6.7,0.8-6.7,1.6c0,0.8,6.7,0.8,6.7,1.6
		c0,0.8-6.7,0.8-6.7,1.6c0,0.8,6.7,0.8,6.7,1.6c0,0.8-6.7,0.8-6.7,1.6c0,0.8,6.7,0.8,6.7,1.6c0,0.8-6.7,0.8-6.7,1.6
		c0,0.8,6.7,0.8,6.7,1.6c0,0.8-6.7,0.8-6.7,1.6c0,0.8,6.7,0.8,6.7,1.6c0,0.8-6.7,0.8-6.7,1.6c0,0.8,6.7,0.8,6.7,1.6
		c0,0.8-6.7,0.8-6.7,1.6c0,0.8,6.7,0.8,6.7,1.6c0,0.8-6.7,0.8-6.7,1.6c0,0.8,6.7,0.8,6.7,1.6c0,0.8-6.7,0.8-6.7,1.6
		c0,0.8,6.7,0.8,6.7,1.6c0,0.8-6.7,0.8-6.7,1.6c0,0.8,6.7,0.8,6.7,1.6c0,0.8-6.7,0.8-6.7,1.6c0,0.8,6.7,0.8,6.7,1.6
		c0,0.8-6.7,0.8-6.7,1.6c0,0.8,6.7,0.8,6.7,1.6c0,0.8-6.7,0.8-6.7,1.6c0,0.8,6.7,0.8,6.7,1.6c0,0.8-6.7,0.8-6.7,1.6
		c0,0.8,6.7,0.8,6.7,1.6c0,0.8-6.7,0.8-6.7,1.6c0,0.8,6.7,0.8,6.7,1.6c0,0.8-6.7,0.8-6.7,1.6c0,0.8,6.7,0.8,6.7,1.6
		c0,0.8-6.7,0.8-6.7,1.6c0,0.8,6.7,0.8,6.7,1.6c0,0.8-6.7,0.8-6.7,1.6c0,0.8,6.7,0.8,6.7,1.6c0,0.8-6.7,0.8-6.7,1.6
		c0,0.8,6.7,0.8,6.7,1.6c0,0.8-6.7,0.8-6.7,1.6c0,0.8,6.7,0.8,6.7,1.6c0,0.8-6.7,0.8-6.7,1.6c0,0.8,6.7,0.8,6.7,1.6
		c0,0.8-6.7,0.8-6.7,1.6s6.7,0.8,6.7,1.6c0,0.8-6.7,0.8-6.7,1.6c0,0.8,6.7,0.8,6.7,1.6c0,0.8-6.7,0.8-6.7,1.6c0,0.8,6.7,0.8,6.7,1.6
		c0,0.8-6.7,0.8-6.7,1.6c0,0.8,6.7,0.8,6.7,1.6c0,0.8-6.7,0.8-6.7,1.6s2.8-1.8,3.6-1.7c10.7,0.8,10.5,6.6,21.2,6.6
		c10.7,0,10.7-6.7,21.5-6.7c10.7,0,10.7,6.7,21.5,6.7c10.7,0,10.7-6.7,21.5-6.7c10.7,0,10.7,6.7,21.5,6.7c10.7,0,10.7-6.7,21.5-6.7
		c10.7,0,10.7,6.7,21.5,6.7c10.7,0,10.7-6.7,21.5-6.7c10.7,0,10.7,6.7,21.5,6.7c10.7,0,10.7-6.7,21.5-6.7c10.7,0,10.7,6.7,21.5,6.7
		c10.7,0,10.7-6.7,21.5-6.7c10.7,0,10.7,6.7,21.5,6.7c10.7,0,10.7-6.7,21.5-6.7c10.7,0,10.7,6.7,21.5,6.7c10.7,0,10.7-6.7,21.5-6.7
		c10.7,0,10.7,6.7,21.5,6.7c10.7,0,10.7-6.7,21.5-6.7c10.7,0,10.7,6.7,21.5,6.7c10.7,0,10.7-6.7,21.5-6.7c10.7,0,10.7,6.7,21.5,6.7
		c10.7,0,10.7-6.7,21.5-6.7c10.7,0,10.7,6.7,21.5,6.7c10.7,0,10.7-6.7,21.5-6.7c10.7,0,10.7,6.7,21.5,6.7c10.7,0,10.7-6.7,21.5-6.7
		c10.7,0,10.7,6.7,21.5,6.7c10.7,0,10.7-6.7,21.5-6.7c10.7,0,10.7,6.7,21.5,6.7c10.7,0,10.7-6.7,21.5-6.7c10.7,0,10.7,6.7,21.5,6.7
		c10.7,0,10.7-6.7,21.5-6.7c10.7,0,10.7,6.7,21.5,6.7c10.7,0,10.7-6.7,21.5-6.7c10.7,0,10.7,6.7,21.5,6.7c10.7,0,10.7-6.7,21.5-6.7
		c10.7,0,10.7,6.7,21.5,6.7c10.7,0,10.7-6.7,21.5-6.7c10.7,0,10.7,6.7,21.5,6.7c10.7,0,10.7-6.7,21.5-6.7c10.7,0,10.7,6.7,21.5,6.7
		c10.7,0,10.7-6.7,21.5-6.7c10.7,0,10.7,6.7,21.5,6.7c10.7,0,10.7-6.7,21.5-6.7c10.7,0,10.7,6.7,21.5,6.7c10.7,0,10.7-6.7,21.5-6.7
		c10.7,0,10.7,6.7,21.5,6.7c10.7,0,10.7-6.7,21.5-6.7c10.7,0,10.7,6.7,21.5,6.7c10.7,0,10.7-6.7,21.5-6.7c10.7,0,10.7,6.7,21.5,6.7
		c10.7,0,10.7-6.7,21.5-6.7c10.7,0,10.7,6.7,21.5,6.7c10.7,0,10.7-6.7,21.5-6.7c10.7,0,10.7,6.7,21.5,6.7c10.7,0,10.7-6.7,21.5-6.7
		c10.7,0,10.7,6.7,21.5,6.7s10.7-6.7,21.5-6.7c10.7,0,10.7,6.7,21.5,6.7c10.7,0,10.7-6.7,21.5-6.7c10.7,0,10.7,6.7,21.5,6.7
		c10.7,0,10.5-5.9,21.2-6.7c0.8-0.1,3.5,2.3,3.5,1.6c0-0.8-6.7-0.4-6.7-1.2c0-0.8,6.6-1.2,6.6-2c0-0.8-6.7-0.4-6.7-1.2
		c0-0.8,6.6-1.2,6.6-2c0-0.8-6.7-0.4-6.7-1.2c0-0.8,6.6-1.2,6.6-2c0-0.8-6.7-0.4-6.7-1.2c0-0.8,6.6-1.2,6.6-2c0-0.8-6.7-0.4-6.7-1.2
		c0-0.8,6.6-1.2,6.6-2c0-0.8-6.7-0.4-6.7-1.2c0-0.8,6.6-1.2,6.6-2c0-0.8-6.7-0.4-6.7-1.2c0-0.8,6.6-1.2,6.6-2c0-0.8-6.7-0.4-6.7-1.2
		c0-0.8,6.6-1.2,6.6-2c0-0.8-6.7-0.4-6.7-1.2c0-0.8,6.6-1.2,6.6-2c0-0.8-6.7-0.4-6.7-1.2c0-0.8,6.6-1.2,6.6-2c0-0.8-6.7-0.4-6.7-1.2
		c0-0.8,6.6-1.2,6.6-2c0-0.8-6.7-0.4-6.7-1.2c0-0.8,6.6-1.2,6.6-2s-6.7-0.4-6.7-1.2c0-0.8,6.6-1.2,6.6-2c0-0.8-6.7-0.4-6.7-1.2
		c0-0.8,6.6-1.2,6.6-2c0-0.8-6.7-0.4-6.7-1.2c0-0.8,6.6-1.2,6.6-2c0-0.8-6.7-0.4-6.7-1.2c0-0.8,6.6-1.2,6.6-2c0-0.8-6.7-0.4-6.7-1.2
		c0-0.8,6.6-1.2,6.6-2c0-0.8-6.7-0.4-6.7-1.2c0-0.8,6.6-1.2,6.6-2c0-0.8-6.7-0.4-6.7-1.2c0-0.8,6.6-1.2,6.6-2c0-0.8-6.7-0.4-6.7-1.2
		c0-0.8,6.6-1.2,6.6-2c0-0.8-6.7-0.4-6.7-1.2c0-0.8,6.6-1.2,6.6-2c0-0.8-6.7-0.4-6.7-1.2c0-0.8,6.6-1.2,6.6-2c0-0.8-6.7-0.4-6.7-1.2
		c0-0.8,6.6-1.2,6.6-2c0-0.8-6.7-0.4-6.7-1.2c0-0.8,6.6-1.2,6.6-2c0-0.8-6.7-0.4-6.7-1.2c0-0.8,6.6-1.2,6.6-2c0-0.8-6.7-0.4-6.7-1.2
		c0-0.8,6.6-1.2,6.6-2c0-0.8-6.7-0.4-6.7-1.2c0-0.8,6.6-1.2,6.6-2c0-0.8-6.7-0.4-6.7-1.2c0-0.8,6.6-1.2,6.6-2c0-0.8-6.7-0.4-6.7-1.2
		c0-0.8,6.6-1.2,6.6-2c0-0.8-6.7-0.4-6.7-1.2c0-0.8,1,0.8,1.7,1.2C1300.8,781.6,1302,780,1301.2,779.9z"/>
</g>
<g>
	<g>
		<rect x="122.7" y="684" fill="#FFFFFF" width="6.7" height="18.3"/>
		<path d="M131.3,704.3h-10.7V682h10.7V704.3z M124.7,700.3h2.7V686h-2.7V700.3z"/>
	</g>
	<g>
		<rect x="139.4" y="684" fill="#FFFFFF" width="6.7" height="18.3"/>
		<path d="M148,704.3h-10.7V682H148V704.3z M141.4,700.3h2.7V686h-2.7V700.3z"/>
	</g>
	<g>
		<rect x="156.9" y="684" fill="#FFFFFF" width="6.7" height="18.3"/>
		<path d="M165.5,704.3h-10.7V682h10.7V704.3z M158.9,700.3h2.7V686h-2.7V700.3z"/>
	</g>
	<g>
		<rect x="139.4" y="642.3" fill="#FFFFFF" width="6.7" height="18.3"/>
		<path d="M148,662.6h-10.7v-22.3H148V662.6z M141.4,658.6h2.7v-14.3h-2.7V658.6z"/>
	</g>
	<g>
		<rect x="156.9" y="642.3" fill="#FFFFFF" width="6.7" height="18.3"/>
		<path d="M165.5,662.6h-10.7v-22.3h10.7V662.6z M158.9,658.6h2.7v-14.3h-2.7V658.6z"/>
	</g>
	<g>
		<rect x="174.4" y="684" fill="#FFFFFF" width="6.7" height="18.3"/>
		<path d="M183,704.3h-10.7V682H183V704.3z M176.4,700.3h2.7V686h-2.7V700.3z"/>
	</g>
</g>
<g>
	<path d="M1300,748C1300,748,1300,748,1300,748c-5.9,0-9-2.1-11.8-3.8c-2.6-1.6-4.9-3.2-9.6-3.2c0,0,0,0,0,0c-4.8,0-7,1.6-9.6,3.2
		c-2.7,1.7-5.8,3.8-11.7,3.8c0,0,0,0,0,0c-5.9,0-9-2.1-11.7-3.8c-2.6-1.6-4.9-3.2-9.6-3.2c0,0,0,0,0,0c-4.8,0-7,1.6-9.6,3.2
		c-2.7,1.7-5.8,3.8-11.7,3.8c0,0,0,0,0,0c-5.9,0-9-2.1-11.7-3.8c-2.6-1.6-4.9-3.2-9.6-3.2c0,0,0,0,0,0c-4.8,0-7,1.6-9.6,3.2
		c-2.7,1.7-5.8,3.8-11.7,3.8c0,0,0,0,0,0c-5.9,0-9-2.1-11.7-3.8c-2.6-1.6-4.9-3.2-9.6-3.2c0,0,0,0,0,0c-4.8,0-7,1.6-9.6,3.2
		c-2.7,1.7-5.8,3.8-11.7,3.8c0,0,0,0,0,0c-5.9,0-9-2.1-11.7-3.8c-2.6-1.6-4.9-3.2-9.6-3.2c0,0,0,0,0,0c-4.8,0-7,1.6-9.6,3.2
		c-2.7,1.7-5.8,3.8-11.7,3.8c0,0,0,0,0,0c-5.9,0-9-2.1-11.7-3.8c-2.6-1.6-4.9-3.2-9.6-3.2c0,0,0,0,0,0c-4.8,0-7,1.6-9.6,3.2
		c-2.7,1.7-5.8,3.8-11.7,3.8c0,0,0,0,0,0c-5.9,0-9-2.1-11.7-3.8c-2.6-1.6-4.9-3.2-9.6-3.2c0,0,0,0,0,0c-4.8,0-7,1.6-9.6,3.2
		c-2.7,1.7-5.8,3.8-11.7,3.8c0,0,0,0,0,0c-5.9,0-9-2.1-11.7-3.8c-2.6-1.6-4.9-3.2-9.6-3.2c0,0,0,0,0,0c-4.8,0-7,1.6-9.6,3.2
		c-2.7,1.7-5.8,3.8-11.7,3.8c0,0,0,0,0,0c-5.9,0-9-2.1-11.7-3.8c-2.6-1.6-4.9-3.2-9.6-3.2c0,0,0,0,0,0c-4.8,0-7,1.1-9.6,2.7
		c-2.7,1.7-5.8,3.3-11.7,3.3c0,0,0,0,0,0c-5.9,0-9-1.6-11.7-3.3c-2.6-1.6-4.9-2.7-9.6-2.7c0,0,0,0,0,0c-4.8,0-7,1.1-9.6,2.7
		c-2.7,1.7-5.8,3.3-11.7,3.3c0,0,0,0,0,0c-5.9,0-9-1.6-11.7-3.3c-2.6-1.6-4.9-2.7-9.6-2.7c0,0,0,0,0,0c-4.8,0-7,1.1-9.6,2.7
		c-2.7,1.7-5.8,3.3-11.7,3.3c0,0,0,0,0,0c-5.9,0-9-1.6-11.7-3.3c-2.6-1.6-4.9-2.7-9.6-2.7c0,0,0,0,0,0c-4.8,0-7,1.1-9.6,2.7
		c-2.7,1.7-5.8,3.3-11.7,3.3c0,0,0,0,0,0c-5.9,0-9-1.6-11.7-3.3c-2.6-1.6-4.9-2.7-9.6-2.7c0,0,0,0,0,0c-4.8,0-7,1.1-9.6,2.7
		c-2.7,1.7-5.8,3.3-11.7,3.3c0,0,0,0,0,0c-5.9,0-9-1.6-11.7-3.3c-2.6-1.6-4.9-2.7-9.6-2.7c0,0,0,0,0,0c-4.8,0-7,1.1-9.6,2.7
		c-2.7,1.7-5.8,3.3-11.7,3.3c0,0,0,0,0,0c-5.9,0-9-1.6-11.7-3.3c-2.6-1.6-4.9-2.7-9.6-2.7c0,0,0,0,0,0c-4.8,0-7,1.1-9.6,2.7
		c-2.7,1.7-5.8,3.3-11.7,3.3c0,0,0,0,0,0c-5.9,0-9-1.6-11.7-3.3c-2.6-1.6-4.9-2.7-9.6-2.7c0,0,0,0,0,0c-4.8,0-7,1.1-9.6,2.7
		c-2.7,1.7-5.8,3.3-11.7,3.3c0,0,0,0,0,0c-5.9,0-9-1.6-11.7-3.3c-2.6-1.6-4.9-2.7-9.6-2.7c0,0,0,0,0,0c-4.8,0-7,1.1-9.6,2.7
		c-2.7,1.7-5.8,3.3-11.7,3.3c0,0,0,0,0,0c-5.9,0-9-2.1-11.7-3.8c-2.6-1.6-4.9-3.2-9.6-3.2c0,0,0,0,0,0c-4.8,0-7,1.6-9.6,3.2
		c-2.7,1.7-5.8,3.8-11.7,3.8c0,0,0,0,0,0c-5.9,0-9-2.1-11.7-3.8c-2.6-1.6-4.9-3.2-9.6-3.2c0,0,0,0,0,0c-4.8,0-7,1.6-9.6,3.2
		c-2.7,1.7-5.8,3.8-11.7,3.8c0,0,0,0,0,0c-5.9,0-9-2.1-11.7-3.8c-2.6-1.6-4.9-3.2-9.6-3.2c0,0,0,0,0,0c-4.8,0-7,1.6-9.6,3.2
		c-2.7,1.7-5.8,3.8-11.7,3.8c0,0,0,0,0,0c-5.9,0-9-2.1-11.7-3.8c-2.6-1.6-4.9-3.2-9.6-3.2c0,0,0,0,0,0c-4.8,0-7,1.6-9.6,3.2
		c-2.7,1.7-5.8,3.8-11.7,3.8c0,0,0,0,0,0c-5.9,0-9-2.1-11.7-3.8c-2.6-1.6-4.9-3.2-9.6-3.2c0,0,0,0,0,0c-4.8,0-7,1.6-9.6,3.2
		c-2.7,1.7-5.8,3.8-11.7,3.8c0,0,0,0,0,0c-5.9,0-9-2.1-11.7-3.8c-2.6-1.6-4.9-3.2-9.6-3.2c0,0,0,0,0,0c-4.8,0-7,1.6-9.6,3.2
		c-2.7,1.7-5.8,3.8-11.7,3.8c0,0,0,0,0,0c-5.9,0-9-2.1-11.7-3.8c-2.6-1.6-4.9-3.2-9.6-3.2c0,0,0,0,0,0c-4.8,0-7,1.6-9.6,3.2
		c-2.7,1.7-5.8,3.8-11.7,3.8c0,0,0,0,0,0c-5.9,0-9-2.1-11.7-3.8c-2.6-1.6-4.9-3.2-9.6-3.2c0,0,0,0,0,0c-4.8,0-7,1.6-9.6,3.2
		c-2.7,1.7-5.8,3.8-11.7,3.8c0,0,0,0,0,0c-5.9,0-9-2.1-11.7-3.8c-2.6-1.6-4.9-3.2-9.6-3.2c0,0,0,0,0,0c-4.8,0-7,1.6-9.6,3.2
		c-2.7,1.7-5.8,3.8-11.7,3.8c0,0,0,0,0,0c-5.9,0-9-2.1-11.7-3.8c-2.6-1.6-4.9-3.2-9.6-3.2c0,0,0,0,0,0c-4.8,0-7,1.6-9.6,3.2
		c-2.7,1.7-5.8,3.8-11.7,3.8c0,0,0,0,0,0c-5.9,0-9-2.1-11.7-3.8c-2.6-1.6-4.9-3.2-9.6-3.2c0,0,0,0,0,0c-4.8,0-7,1.6-9.6,3.2
		c-2.7,1.7-5.8,3.8-11.7,3.8c0,0,0,0,0,0c-5.9,0-9-2.1-11.7-3.8c-2.6-1.6-4.9-3.2-9.6-3.2c0,0,0,0,0,0c-4.8,0-7,1.6-9.6,3.2
		c-2.7,1.7-5.8,3.8-11.7,3.8c0,0,0,0,0,0c-5.9,0-9-2.1-11.7-3.8c-2.6-1.6-4.9-3.2-9.6-3.2c0,0,0,0,0,0c-4.8,0-7,1.6-9.6,3.2
		c-2.7,1.7-5.8,3.8-11.7,3.8c0,0,0,0,0,0c-5.9,0-9-2.2-11.7-3.9c-2.6-1.6-4.9-3.1-9.6-3.1l0-4.1c5.9,0,9,2.1,11.7,3.8
		c2.6,1.6,4.9,3.2,9.6,3.2c0,0,0,0,0,0c4.8,0,7-1.6,9.6-3.2c2.7-1.7,5.8-3.8,11.7-3.8c0,0,0,0,0,0c5.9,0,9,2.1,11.7,3.8
		c2.6,1.6,4.9,3.2,9.6,3.2c0,0,0,0,0,0c4.8,0,7-1.6,9.6-3.2c2.7-1.7,5.8-3.8,11.7-3.8c0,0,0,0,0,0c5.9,0,9,2.1,11.7,3.8
		c2.6,1.6,4.9,3.2,9.6,3.2c0,0,0,0,0,0c4.8,0,7-1.6,9.6-3.2c2.7-1.7,5.8-3.8,11.7-3.8c0,0,0,0,0,0c5.9,0,9,2.1,11.7,3.8
		c2.6,1.6,4.9,3.2,9.6,3.2c0,0,0,0,0,0c4.8,0,7-1.6,9.6-3.2c2.7-1.7,5.8-3.8,11.7-3.8c0,0,0,0,0,0c5.9,0,9,2.1,11.7,3.8
		c2.6,1.6,4.9,3.2,9.6,3.2c0,0,0,0,0,0c4.8,0,7-1.6,9.6-3.2c2.7-1.7,5.8-3.8,11.7-3.8c0,0,0,0,0,0c5.9,0,9,2.1,11.7,3.8
		c2.6,1.6,4.9,3.2,9.6,3.2c0,0,0,0,0,0c4.8,0,7-1.6,9.6-3.2c2.7-1.7,5.8-3.8,11.7-3.8c0,0,0,0,0,0c5.9,0,9,2.1,11.7,3.8
		c2.6,1.6,4.9,3.2,9.6,3.2c0,0,0,0,0,0c4.8,0,7-1.6,9.6-3.2c2.7-1.7,5.8-3.8,11.7-3.8c0,0,0,0,0,0c5.9,0,9,2.1,11.7,3.8
		c2.6,1.6,4.9,3.2,9.6,3.2c0,0,0,0,0,0c4.8,0,7-1.6,9.6-3.2c2.7-1.7,5.8-3.8,11.7-3.8c0,0,0,0,0,0c5.9,0,9,2.1,11.7,3.8
		c2.6,1.6,4.9,3.2,9.6,3.2c0,0,0,0,0,0c4.8,0,7-1.6,9.6-3.2c2.7-1.7,5.8-3.8,11.7-3.8c0,0,0,0,0,0c5.9,0,9,2.1,11.7,3.8
		c2.6,1.6,4.9,3.2,9.6,3.2c0,0,0,0,0,0c4.8,0,7-1.6,9.6-3.2c2.7-1.7,5.8-3.8,11.7-3.8c0,0,0,0,0,0c5.9,0,9,2.1,11.7,3.8
		c2.6,1.6,4.9,3.2,9.6,3.2c0,0,0,0,0,0c4.8,0,7-1.6,9.6-3.2c2.7-1.7,5.8-3.8,11.7-3.8c0,0,0,0,0,0c5.9,0,9,2.1,11.7,3.8
		c2.6,1.6,4.9,3.2,9.6,3.2c0,0,0,0,0,0c4.8,0,7-1.6,9.6-3.2c2.7-1.7,5.8-3.8,11.7-3.8c0,0,0,0,0,0c5.9,0,9,2.1,11.7,3.8
		c2.6,1.6,4.9,3.2,9.6,3.2c0,0,0,0,0,0c4.8,0,7-1.6,9.6-3.2c2.7-1.7,5.8-3.8,11.7-3.8c0,0,0,0,0,0c5.9,0,9,2.1,11.7,3.8
		c2.6,1.6,4.9,3.2,9.6,3.2c0,0,0,0,0,0c4.8,0,7-1.1,9.6-2.7c2.7-1.7,5.8-3.3,11.7-3.3c0,0,0,0,0,0c5.9,0,9,1.6,11.7,3.3
		c2.6,1.6,4.9,2.7,9.6,2.7c0,0,0,0,0,0c4.8,0,7-1.1,9.6-2.7c2.7-1.7,5.8-3.3,11.7-3.3c0,0,0,0,0,0c5.9,0,9,1.6,11.7,3.3
		c2.6,1.6,4.9,2.7,9.6,2.7c0,0,0,0,0,0c4.8,0,7-1.1,9.6-2.7c2.7-1.7,5.8-3.3,11.7-3.3c0,0,0,0,0,0c5.9,0,9,1.6,11.7,3.3
		c2.6,1.6,4.9,2.7,9.6,2.7c0,0,0,0,0,0c4.8,0,7-1.1,9.6-2.7c2.7-1.7,5.8-3.3,11.7-3.3c0,0,0,0,0,0c5.9,0,9,1.6,11.7,3.3
		c2.6,1.6,4.9,2.7,9.6,2.7c0,0,0,0,0,0c4.8,0,7-1.2,9.6-2.9c2.7-1.7,5.9-3.5,11.8-3.5c5.9,0,9,1.8,11.7,3.5c2.6,1.6,4.9,2.9,9.6,2.9
		c0,0,0,0,0,0c4.8,0,7-1.1,9.6-2.7c2.7-1.7,5.8-3.3,11.7-3.3c0,0,0,0,0,0c5.9,0,9,1.6,11.7,3.3c2.6,1.6,4.9,2.7,9.6,2.7c0,0,0,0,0,0
		c4.8,0,7-1.1,9.6-2.7c2.7-1.7,5.8-3.3,11.7-3.3c0,0,0,0,0,0c5.9,0,9,1.6,11.7,3.3c2.6,1.6,4.9,2.7,9.6,2.7c0,0,0,0,0,0
		c4.8,0,7-1.1,9.6-2.7c2.7-1.7,5.8-3.3,11.7-3.3c0,0,0,0,0,0c5.9,0,9,1.8,11.7,3.5c2.6,1.6,4.9,3,9.6,3c4.8,0,7-1.3,9.6-3
		c2.7-1.7,5.8-3.6,11.7-3.6c0,0,0,0,0,0c5.9,0,9,2.1,11.7,3.8c2.6,1.6,4.9,3.2,9.6,3.2c0,0,0,0,0,0c4.8,0,7-1.6,9.6-3.2
		c2.7-1.7,5.8-3.8,11.7-3.8c0,0,0,0,0,0c5.9,0,9,2.1,11.7,3.8c2.6,1.6,4.9,3.2,9.6,3.2c0,0,0,0,0,0c4.8,0,7-1.6,9.6-3.2
		c2.7-1.7,5.8-3.8,11.7-3.8c0,0,0,0,0,0c5.9,0,9,2.1,11.7,3.8c2.6,1.6,4.9,3.2,9.6,3.2c0,0,0,0,0,0c4.8,0,7-1.6,9.6-3.2
		c2.7-1.7,5.8-3.8,11.7-3.8c0,0,0,0,0,0c5.9,0,9,2.1,11.7,3.8c2.6,1.6,4.9,3.2,9.6,3.2c0,0,0,0,0,0c4.8,0,7-1.6,9.6-3.2
		c2.7-1.7,5.8-3.8,11.7-3.8c0,0,0,0,0,0c5.9,0,9,2.1,11.7,3.8c2.6,1.6,4.9,3.2,9.6,3.2c0,0,0,0,0,0c4.8,0,7-1.6,9.6-3.2
		c2.7-1.7,5.8-3.8,11.7-3.8c0,0,0,0,0,0c5.9,0,9,2.1,11.7,3.8c2.6,1.6,4.9,3.2,9.6,3.2c0,0,0,0,0,0c4.8,0,7-1.6,9.6-3.2
		c2.7-1.7,5.8-3.8,11.7-3.8c0,0,0,0,0,0c5.9,0,9,2.1,11.7,3.8c2.6,1.6,4.9,3.2,9.6,3.2c0,0,0,0,0,0c4.8,0,7-1.6,9.6-3.2
		c2.7-1.7,5.8-3.8,11.7-3.8c0,0,0,0,0,0c5.9,0,9,2.1,11.7,3.8c2.6,1.6,4.9,3.2,9.6,3.2c0,0,0,0,0,0c4.8,0,7-1.6,9.6-3.2
		c2.7-1.7,5.8-3.8,11.7-3.8c0,0,0,0,0,0c5.9,0,9,2.1,11.8,3.8c2.6,1.6,4.9,3.2,9.6,3.2c0,0,0,0,0,0c4.8,0,7-1.6,9.6-3.2
		c2.7-1.7,5.8-3.8,11.7-3.8c0,0,0,0,0,0l0,4c0,0,0,0,0,0c-4.8,0-7,1.6-9.6,3.2C1309,745.9,1305.9,748,1300,748z"/>
</g>
<g>
	<rect x="-4.5" y="712.6" fill="#FFFFFF" width="340" height="8.2"/>
	<path d="M337.5,722.8h-344v-12.2h344V722.8z M-2.5,718.8h336v-4.2h-336V718.8z"/>
</g>
<g>
	<polyline fill="#FFFFFF" points="820.2,777.3 844.5,732 804.5,732 708.9,732 697.4,721 680.4,721 674.4,713 602,713 602,737.6 
		625,775.2 	"/>
	<polygon points="822,778.3 818.5,776.4 841.1,734 708,734 696.6,723 679.4,723 673.4,715 604,715 604,737.1 626.7,774.2 
		623.3,776.2 600,738.2 600,711 675.4,711 681.4,719 698.2,719 709.7,730 847.8,730 	"/>
</g>
<g>
	<line fill="#FFFFFF" x1="651" y1="594" x2="651" y2="712"/>
	<rect x="649" y="594" width="4" height="118"/>
</g>
<g>
	<line fill="#FFFFFF" x1="844.5" y1="732.6" x2="897.3" y2="700.1"/>
	<rect x="868.9" y="685.4" transform="matrix(0.524 0.8517 -0.8517 0.524 1024.6688 -400.7466)" width="4" height="62"/>
</g>
<g>
	<line fill="#FFFFFF" x1="628" y1="619" x2="676" y2="619"/>
	<rect x="628" y="617" width="48" height="4"/>
</g>
<g>
	<rect x="597.4" y="719.9" fill="#FFFFFF" width="41.7" height="17.2"/>
	<path d="M641.1,739.1h-45.7v-21.2h45.7V739.1z M599.4,735.1h37.7v-13.2h-37.7V735.1z"/>
</g>
<g>
	<path d="M1300,782C1300,782,1300,782,1300,782c-5.9,0-9-2.1-11.8-3.8c-2.6-1.6-4.9-3.2-9.6-3.2c0,0,0,0,0,0c-4.8,0-7,1.6-9.6,3.2
		c-2.7,1.7-5.8,3.8-11.7,3.8c0,0,0,0,0,0c-5.9,0-9-2.1-11.7-3.8c-2.6-1.6-4.9-3.2-9.6-3.2c0,0,0,0,0,0c-4.8,0-7,1.6-9.6,3.2
		c-2.7,1.7-5.8,3.8-11.7,3.8c0,0,0,0,0,0c-5.9,0-9-2.1-11.7-3.8c-2.6-1.6-4.9-3.2-9.6-3.2c0,0,0,0,0,0c-4.8,0-7,1.6-9.6,3.2
		c-2.7,1.7-5.8,3.8-11.7,3.8c0,0,0,0,0,0c-5.9,0-9-2.1-11.7-3.8c-2.6-1.6-4.9-3.2-9.6-3.2c0,0,0,0,0,0c-4.8,0-7,1.6-9.6,3.2
		c-2.7,1.7-5.8,3.8-11.7,3.8c0,0,0,0,0,0c-5.9,0-9-2.1-11.7-3.8c-2.6-1.6-4.9-3.2-9.6-3.2c0,0,0,0,0,0c-4.8,0-7,1.6-9.6,3.2
		c-2.7,1.7-5.8,3.8-11.7,3.8c0,0,0,0,0,0c-5.9,0-9-2.1-11.7-3.8c-2.6-1.6-4.9-3.2-9.6-3.2c0,0,0,0,0,0c-4.8,0-7,1.6-9.6,3.2
		c-2.7,1.7-5.8,3.8-11.7,3.8c0,0,0,0,0,0c-5.9,0-9-2.1-11.7-3.8c-2.6-1.6-4.9-3.2-9.6-3.2c0,0,0,0,0,0c-4.8,0-7,1.6-9.6,3.2
		c-2.7,1.7-5.8,3.8-11.7,3.8c0,0,0,0,0,0c-5.9,0-9-2.1-11.7-3.8c-2.6-1.6-4.9-3.2-9.6-3.2c0,0,0,0,0,0c-4.8,0-7,1.6-9.6,3.2
		c-2.7,1.7-5.8,3.8-11.7,3.8c0,0,0,0,0,0c-5.9,0-9-2.1-11.7-3.8c-2.6-1.6-4.9-3.2-9.6-3.2c0,0,0,0,0,0c-4.8,0-7,1.1-9.6,2.7
		c-2.7,1.7-5.8,3.3-11.7,3.3c0,0,0,0,0,0c-5.9,0-9-1.6-11.7-3.3c-2.6-1.6-4.9-2.7-9.6-2.7c0,0,0,0,0,0c-4.8,0-7,1.1-9.6,2.7
		c-2.7,1.7-5.8,3.3-11.7,3.3c0,0,0,0,0,0c-5.9,0-9-1.6-11.7-3.3c-2.6-1.6-4.9-2.7-9.6-2.7c0,0,0,0,0,0c-4.8,0-7,1.1-9.6,2.7
		c-2.7,1.7-5.8,3.3-11.7,3.3c0,0,0,0,0,0c-5.9,0-9-1.6-11.7-3.3c-2.6-1.6-4.9-2.7-9.6-2.7c0,0,0,0,0,0c-4.8,0-7,1.1-9.6,2.7
		c-2.7,1.7-5.8,3.3-11.7,3.3c0,0,0,0,0,0c-5.9,0-9-1.6-11.7-3.3c-2.6-1.6-4.9-2.7-9.6-2.7c0,0,0,0,0,0c-4.8,0-7,1.1-9.6,2.7
		c-2.7,1.7-5.8,3.3-11.7,3.3c0,0,0,0,0,0c-5.9,0-9-1.6-11.7-3.3c-2.6-1.6-4.9-2.7-9.6-2.7c0,0,0,0,0,0c-4.8,0-7,1.1-9.6,2.7
		c-2.7,1.7-5.8,3.3-11.7,3.3c0,0,0,0,0,0c-5.9,0-9-1.6-11.7-3.3c-2.6-1.6-4.9-2.7-9.6-2.7c0,0,0,0,0,0c-4.8,0-7,1.1-9.6,2.7
		c-2.7,1.7-5.8,3.3-11.7,3.3c0,0,0,0,0,0c-5.9,0-9-1.6-11.7-3.3c-2.6-1.6-4.9-2.7-9.6-2.7c0,0,0,0,0,0c-4.8,0-7,1.1-9.6,2.7
		c-2.7,1.7-5.8,3.3-11.7,3.3c0,0,0,0,0,0c-5.9,0-9-1.6-11.7-3.3c-2.6-1.6-4.9-2.7-9.6-2.7c0,0,0,0,0,0c-4.8,0-7,1.1-9.6,2.7
		c-2.7,1.7-5.8,3.3-11.7,3.3c0,0,0,0,0,0c-5.9,0-9-2.1-11.7-3.8c-2.6-1.6-4.9-3.2-9.6-3.2c0,0,0,0,0,0c-4.8,0-7,1.6-9.6,3.2
		c-2.7,1.7-5.8,3.8-11.7,3.8c0,0,0,0,0,0c-5.9,0-9-2.1-11.7-3.8c-2.6-1.6-4.9-3.2-9.6-3.2c0,0,0,0,0,0c-4.8,0-7,1.6-9.6,3.2
		c-2.7,1.7-5.8,3.8-11.7,3.8c0,0,0,0,0,0c-5.9,0-9-2.1-11.7-3.8c-2.6-1.6-4.9-3.2-9.6-3.2c0,0,0,0,0,0c-4.8,0-7,1.6-9.6,3.2
		c-2.7,1.7-5.8,3.8-11.7,3.8c0,0,0,0,0,0c-5.9,0-9-2.1-11.7-3.8c-2.6-1.6-4.9-3.2-9.6-3.2c0,0,0,0,0,0c-4.8,0-7,1.6-9.6,3.2
		c-2.7,1.7-5.8,3.8-11.7,3.8c0,0,0,0,0,0c-5.9,0-9-2.1-11.7-3.8c-2.6-1.6-4.9-3.2-9.6-3.2c0,0,0,0,0,0c-4.8,0-7,1.6-9.6,3.2
		c-2.7,1.7-5.8,3.8-11.7,3.8c0,0,0,0,0,0c-5.9,0-9-2.1-11.7-3.8c-2.6-1.6-4.9-3.2-9.6-3.2c0,0,0,0,0,0c-4.8,0-7,1.6-9.6,3.2
		c-2.7,1.7-5.8,3.8-11.7,3.8c0,0,0,0,0,0c-5.9,0-9-2.1-11.7-3.8c-2.6-1.6-4.9-3.2-9.6-3.2c0,0,0,0,0,0c-4.8,0-7,1.6-9.6,3.2
		c-2.7,1.7-5.8,3.8-11.7,3.8c0,0,0,0,0,0c-5.9,0-9-2.1-11.7-3.8c-2.6-1.6-4.9-3.2-9.6-3.2c0,0,0,0,0,0c-4.8,0-7,1.6-9.6,3.2
		c-2.7,1.7-5.8,3.8-11.7,3.8c0,0,0,0,0,0c-5.9,0-9-2.1-11.7-3.8c-2.6-1.6-4.9-3.2-9.6-3.2c0,0,0,0,0,0c-4.8,0-7,1.6-9.6,3.2
		c-2.7,1.7-5.8,3.8-11.7,3.8c0,0,0,0,0,0c-5.9,0-9-2.1-11.7-3.8c-2.6-1.6-4.9-3.2-9.6-3.2c0,0,0,0,0,0c-4.8,0-7,1.6-9.6,3.2
		c-2.7,1.7-5.8,3.8-11.7,3.8c0,0,0,0,0,0c-5.9,0-9-2.1-11.7-3.8c-2.6-1.6-4.9-3.2-9.6-3.2c0,0,0,0,0,0c-4.8,0-7,1.6-9.6,3.2
		c-2.7,1.7-5.8,3.8-11.7,3.8c0,0,0,0,0,0c-5.9,0-9-2.1-11.7-3.8c-2.6-1.6-4.9-3.2-9.6-3.2c0,0,0,0,0,0c-4.8,0-7,1.6-9.6,3.2
		c-2.7,1.7-5.8,3.8-11.7,3.8c0,0,0,0,0,0c-5.9,0-9-2.1-11.7-3.8c-2.6-1.6-4.9-3.2-9.6-3.2c0,0,0,0,0,0c-4.8,0-7,1.6-9.6,3.2
		c-2.7,1.7-5.8,3.8-11.7,3.8c0,0,0,0,0,0c-5.9,0-9-2.2-11.7-3.9c-2.6-1.6-4.9-3.1-9.6-3.1l0-4.1c5.9,0,9,2.1,11.7,3.8
		c2.6,1.6,4.9,3.2,9.6,3.2c0,0,0,0,0,0c4.8,0,7-1.6,9.6-3.2c2.7-1.7,5.8-3.8,11.7-3.8c0,0,0,0,0,0c5.9,0,9,2.1,11.7,3.8
		c2.6,1.6,4.9,3.2,9.6,3.2c0,0,0,0,0,0c4.8,0,7-1.6,9.6-3.2c2.7-1.7,5.8-3.8,11.7-3.8c0,0,0,0,0,0c5.9,0,9,2.1,11.7,3.8
		c2.6,1.6,4.9,3.2,9.6,3.2c0,0,0,0,0,0c4.8,0,7-1.6,9.6-3.2c2.7-1.7,5.8-3.7,11.8-3.7c5.9,0,9,2,11.7,3.7c2.6,1.6,4.9,3.1,9.6,3.1
		c0,0,0,0,0,0c4.8,0,7-1.6,9.6-3.2c2.7-1.7,5.8-3.8,11.7-3.8c0,0,0,0,0,0c5.9,0,9,2.1,11.7,3.8c2.6,1.6,4.9,3.2,9.6,3.2c0,0,0,0,0,0
		c4.8,0,7-1.6,9.6-3.2c2.7-1.7,5.8-3.8,11.7-3.8c0,0,0,0,0,0c5.9,0,9,2.1,11.7,3.8c2.6,1.6,4.9,3.2,9.6,3.2c0,0,0,0,0,0
		c4.8,0,7-1.6,9.6-3.2c2.7-1.7,5.8-3.8,11.7-3.8c0,0,0,0,0,0c5.9,0,9,2.1,11.7,3.8c2.6,1.6,4.9,3.2,9.6,3.2c0,0,0,0,0,0
		c4.8,0,7-1.6,9.6-3.2c2.7-1.7,5.8-3.8,11.7-3.8c0,0,0,0,0,0c5.9,0,9,2.1,11.7,3.8c2.6,1.6,4.9,3.2,9.6,3.2c0,0,0,0,0,0
		c4.8,0,7-1.6,9.6-3.2c2.7-1.7,5.8-3.8,11.7-3.8c0,0,0,0,0,0c5.9,0,9,2.1,11.7,3.8c2.6,1.6,4.9,3.2,9.6,3.2c0,0,0,0,0,0
		c4.8,0,7-1.6,9.6-3.2c2.7-1.7,5.8-3.8,11.7-3.8c0,0,0,0,0,0c5.9,0,9,2.1,11.7,3.8c2.6,1.6,4.9,3.2,9.6,3.2c0,0,0,0,0,0
		c4.8,0,7-1.6,9.6-3.2c2.7-1.7,5.8-3.8,11.7-3.8c0,0,0,0,0,0c5.9,0,9,2.1,11.7,3.8c2.6,1.6,4.9,3.2,9.6,3.2c0,0,0,0,0,0
		c4.8,0,7-1.6,9.6-3.2c2.7-1.7,5.8-3.8,11.7-3.8c0,0,0,0,0,0c5.9,0,9,2.1,11.7,3.8c2.6,1.6,4.9,3.2,9.6,3.2c0,0,0,0,0,0
		c4.8,0,7-1.6,9.6-3.2c2.7-1.7,5.8-3.8,11.7-3.8c0,0,0,0,0,0c5.9,0,9,2.1,11.7,3.8c2.6,1.6,4.9,3.2,9.6,3.2c0,0,0,0,0,0
		c4.8,0,7-1.6,9.6-3.2c2.7-1.7,5.8-3.8,11.7-3.8c0,0,0,0,0,0c5.9,0,9,2.1,11.7,3.8c2.6,1.6,4.9,3.2,9.6,3.2c0,0,0,0,0,0
		c4.8,0,7-1.1,9.6-2.7c2.7-1.7,5.8-3.3,11.7-3.3c0,0,0,0,0,0c5.9,0,9,1.6,11.7,3.3c2.6,1.6,4.9,2.7,9.6,2.7c0,0,0,0,0,0
		c4.8,0,7-1.1,9.6-2.7c2.7-1.7,5.8-3.3,11.7-3.3c0,0,0,0,0,0c5.9,0,9,1.6,11.7,3.3c2.6,1.6,4.9,2.7,9.6,2.7c0,0,0,0,0,0
		c4.8,0,7-1.1,9.6-2.7c2.7-1.7,5.8-3.3,11.7-3.3c0,0,0,0,0,0c5.9,0,9,1.6,11.7,3.3c2.6,1.6,4.9,2.7,9.6,2.7c0,0,0,0,0,0
		c4.8,0,7-1.1,9.6-2.7c2.7-1.7,5.8-3.3,11.7-3.3c0,0,0,0,0,0c5.9,0,9,1.6,11.7,3.3c2.6,1.6,4.9,2.7,9.6,2.7c0,0,0,0,0,0
		c4.8,0,7-1.1,9.6-2.7c2.7-1.7,5.8-3.3,11.7-3.3c0,0,0,0,0,0c5.9,0,9,1.6,11.7,3.3c2.6,1.6,4.9,2.7,9.6,2.7c0,0,0,0,0,0
		c4.8,0,7-1.1,9.6-2.7c2.7-1.7,5.8-3.3,11.7-3.3c0,0,0,0,0,0c5.9,0,9,1.6,11.7,3.3c2.6,1.6,4.9,2.7,9.6,2.7c0,0,0,0,0,0
		c4.8,0,7-1.1,9.6-2.7c2.7-1.7,5.8-3.3,11.7-3.3c0,0,0,0,0,0c5.9,0,9,1.6,11.7,3.3c2.6,1.6,4.9,2.7,9.6,2.7c0,0,0,0,0,0
		c4.8,0,7-1.1,9.6-2.7c2.7-1.7,5.8-3.3,11.7-3.3c0,0,0,0,0,0c5.9,0,9,1.8,11.7,3.5c2.6,1.6,4.9,3,9.6,3c4.8,0,7-1.3,9.6-3
		c2.7-1.7,5.8-3.6,11.7-3.6c0,0,0,0,0,0c5.9,0,9,2.1,11.7,3.8c2.6,1.6,4.9,3.2,9.6,3.2c0,0,0,0,0,0c4.8,0,7-1.6,9.6-3.2
		c2.7-1.7,5.8-3.8,11.7-3.8c0,0,0,0,0,0c5.9,0,9,2.1,11.7,3.8c2.6,1.6,4.9,3.2,9.6,3.2c0,0,0,0,0,0c4.8,0,7-1.6,9.6-3.2
		c2.7-1.7,5.8-3.8,11.7-3.8c0,0,0,0,0,0c5.9,0,9,2.1,11.7,3.8c2.6,1.6,4.9,3.2,9.6,3.2c0,0,0,0,0,0c4.8,0,7-1.6,9.6-3.2
		c2.7-1.7,5.8-3.8,11.7-3.8c0,0,0,0,0,0c5.9,0,9,2.1,11.7,3.8c2.6,1.6,4.9,3.2,9.6,3.2c0,0,0,0,0,0c4.8,0,7-1.6,9.6-3.2
		c2.7-1.7,5.8-3.8,11.7-3.8c0,0,0,0,0,0c5.9,0,9,2.1,11.7,3.8c2.6,1.6,4.9,3.2,9.6,3.2c0,0,0,0,0,0c4.8,0,7-1.6,9.6-3.2
		c2.7-1.7,5.8-3.8,11.7-3.8c0,0,0,0,0,0c5.9,0,9,2.1,11.7,3.8c2.6,1.6,4.9,3.2,9.6,3.2c0,0,0,0,0,0c4.8,0,7-1.6,9.6-3.2
		c2.7-1.7,5.8-3.8,11.7-3.8c0,0,0,0,0,0c5.9,0,9,2.1,11.7,3.8c2.6,1.6,4.9,3.2,9.6,3.2c0,0,0,0,0,0c4.8,0,7-1.6,9.6-3.2
		c2.7-1.7,5.8-3.8,11.7-3.8c0,0,0,0,0,0c5.9,0,9,2.1,11.7,3.8c2.6,1.6,4.9,3.2,9.6,3.2c0,0,0,0,0,0c4.8,0,7-1.6,9.6-3.2
		c2.7-1.7,5.8-3.8,11.7-3.8c0,0,0,0,0,0c5.9,0,9,2.1,11.8,3.8c2.6,1.6,4.9,3.2,9.6,3.2c0,0,0,0,0,0c4.8,0,7-1.6,9.6-3.2
		c2.7-1.7,5.8-3.8,11.7-3.8c0,0,0,0,0,0l0,4c0,0,0,0,0,0c-4.8,0-7,1.6-9.6,3.2C1309,779.9,1305.9,782,1300,782z"/>
</g>
<g>
	<path d="M1300,799C1300,799,1300,799,1300,799c-5.9,0-9-2.1-11.8-3.8c-2.6-1.6-4.9-3.2-9.6-3.2c0,0,0,0,0,0c-4.8,0-7,1.6-9.6,3.2
		c-2.7,1.7-5.8,3.8-11.7,3.8c0,0,0,0,0,0c-5.9,0-9-2.1-11.7-3.8c-2.6-1.6-4.9-3.2-9.6-3.2c0,0,0,0,0,0c-4.8,0-7,1.6-9.6,3.2
		c-2.7,1.7-5.8,3.8-11.7,3.8c0,0,0,0,0,0c-5.9,0-9-2.1-11.7-3.8c-2.6-1.6-4.9-3.2-9.6-3.2c0,0,0,0,0,0c-4.8,0-7,1.6-9.6,3.2
		c-2.7,1.7-5.8,3.8-11.7,3.8c0,0,0,0,0,0c-5.9,0-9-2.1-11.7-3.8c-2.6-1.6-4.9-3.2-9.6-3.2c0,0,0,0,0,0c-4.8,0-7,1.6-9.6,3.2
		c-2.7,1.7-5.8,3.8-11.7,3.8c0,0,0,0,0,0c-5.9,0-9-2.1-11.7-3.8c-2.6-1.6-4.9-3.2-9.6-3.2c0,0,0,0,0,0c-4.8,0-7,1.6-9.6,3.2
		c-2.7,1.7-5.8,3.8-11.7,3.8c0,0,0,0,0,0c-5.9,0-9-2.1-11.7-3.8c-2.6-1.6-4.9-3.2-9.6-3.2c0,0,0,0,0,0c-4.8,0-7,1.6-9.6,3.2
		c-2.7,1.7-5.8,3.8-11.7,3.8c0,0,0,0,0,0c-5.9,0-9-2.1-11.7-3.8c-2.6-1.6-4.9-3.2-9.6-3.2c0,0,0,0,0,0c-4.8,0-7,1.6-9.6,3.2
		c-2.7,1.7-5.8,3.8-11.7,3.8c0,0,0,0,0,0c-5.9,0-9-2.1-11.7-3.8c-2.6-1.6-4.9-3.2-9.6-3.2c0,0,0,0,0,0c-4.8,0-7,1.6-9.6,3.2
		c-2.7,1.7-5.8,3.8-11.7,3.8c0,0,0,0,0,0c-5.9,0-9-2.1-11.7-3.8c-2.6-1.6-4.9-3.2-9.6-3.2c0,0,0,0,0,0c-4.8,0-7,1.1-9.6,2.7
		c-2.7,1.7-5.8,3.3-11.7,3.3c0,0,0,0,0,0c-5.9,0-9-1.6-11.7-3.3c-2.6-1.6-4.9-2.7-9.6-2.7c0,0,0,0,0,0c-4.8,0-7,1.1-9.6,2.7
		c-2.7,1.7-5.8,3.3-11.7,3.3c0,0,0,0,0,0c-5.9,0-9-1.6-11.7-3.3c-2.6-1.6-4.9-2.7-9.6-2.7c0,0,0,0,0,0c-4.8,0-7,1.1-9.6,2.7
		c-2.7,1.7-5.8,3.3-11.7,3.3c0,0,0,0,0,0c-5.9,0-9-1.6-11.7-3.3c-2.6-1.6-4.9-2.7-9.6-2.7c0,0,0,0,0,0c-4.8,0-7,1.1-9.6,2.7
		c-2.7,1.7-5.8,3.3-11.7,3.3c0,0,0,0,0,0c-5.9,0-9-1.6-11.7-3.3c-2.6-1.6-4.9-2.7-9.6-2.7c0,0,0,0,0,0c-4.8,0-7,1.1-9.6,2.7
		c-2.7,1.7-5.8,3.3-11.7,3.3c0,0,0,0,0,0c-5.9,0-9-1.6-11.7-3.3c-2.6-1.6-4.9-2.7-9.6-2.7c0,0,0,0,0,0c-4.8,0-7,1.1-9.6,2.7
		c-2.7,1.7-5.8,3.3-11.7,3.3c0,0,0,0,0,0c-5.9,0-9-1.6-11.7-3.3c-2.6-1.6-4.9-2.7-9.6-2.7c0,0,0,0,0,0c-4.8,0-7,1.1-9.6,2.7
		c-2.7,1.7-5.8,3.3-11.7,3.3c0,0,0,0,0,0c-5.9,0-9-1.6-11.7-3.3c-2.6-1.6-4.9-2.7-9.6-2.7c0,0,0,0,0,0c-4.8,0-7,1.1-9.6,2.7
		c-2.7,1.7-5.8,3.3-11.7,3.3c0,0,0,0,0,0c-5.9,0-9-1.6-11.7-3.3c-2.6-1.6-4.9-2.7-9.6-2.7c0,0,0,0,0,0c-4.8,0-7,1.1-9.6,2.7
		c-2.7,1.7-5.8,3.3-11.7,3.3c0,0,0,0,0,0c-5.9,0-9-2.1-11.7-3.8c-2.6-1.6-4.9-3.2-9.6-3.2c0,0,0,0,0,0c-4.8,0-7,1.6-9.6,3.2
		c-2.7,1.7-5.8,3.8-11.7,3.8c0,0,0,0,0,0c-5.9,0-9-2.1-11.7-3.8c-2.6-1.6-4.9-3.2-9.6-3.2c0,0,0,0,0,0c-4.8,0-7,1.6-9.6,3.2
		c-2.7,1.7-5.8,3.8-11.7,3.8c0,0,0,0,0,0c-5.9,0-9-2.1-11.7-3.8c-2.6-1.6-4.9-3.2-9.6-3.2c0,0,0,0,0,0c-4.8,0-7,1.6-9.6,3.2
		c-2.7,1.7-5.8,3.8-11.7,3.8c0,0,0,0,0,0c-5.9,0-9-2.1-11.7-3.8c-2.6-1.6-4.9-3.2-9.6-3.2c0,0,0,0,0,0c-4.8,0-7,1.6-9.6,3.2
		c-2.7,1.7-5.8,3.8-11.7,3.8c0,0,0,0,0,0c-5.9,0-9-2.1-11.7-3.8c-2.6-1.6-4.9-3.2-9.6-3.2c0,0,0,0,0,0c-4.8,0-7,1.6-9.6,3.2
		c-2.7,1.7-5.8,3.8-11.7,3.8c0,0,0,0,0,0c-5.9,0-9-2.1-11.7-3.8c-2.6-1.6-4.9-3.2-9.6-3.2c0,0,0,0,0,0c-4.8,0-7,1.6-9.6,3.2
		c-2.7,1.7-5.8,3.8-11.7,3.8c0,0,0,0,0,0c-5.9,0-9-2.1-11.7-3.8c-2.6-1.6-4.9-3.2-9.6-3.2c0,0,0,0,0,0c-4.8,0-7,1.6-9.6,3.2
		c-2.7,1.7-5.8,3.8-11.7,3.8c0,0,0,0,0,0c-5.9,0-9-2.1-11.7-3.8c-2.6-1.6-4.9-3.2-9.6-3.2c0,0,0,0,0,0c-4.8,0-7,1.6-9.6,3.2
		c-2.7,1.7-5.8,3.8-11.7,3.8c0,0,0,0,0,0c-5.9,0-9-2.1-11.7-3.8c-2.6-1.6-4.9-3.2-9.6-3.2c0,0,0,0,0,0c-4.8,0-7,1.6-9.6,3.2
		c-2.7,1.7-5.8,3.8-11.7,3.8c0,0,0,0,0,0c-5.9,0-9-2.1-11.7-3.8c-2.6-1.6-4.9-3.2-9.6-3.2c0,0,0,0,0,0c-4.8,0-7,1.6-9.6,3.2
		c-2.7,1.7-5.8,3.8-11.7,3.8c0,0,0,0,0,0c-5.9,0-9-2.1-11.7-3.8c-2.6-1.6-4.9-3.2-9.6-3.2c0,0,0,0,0,0c-4.8,0-7,1.6-9.6,3.2
		c-2.7,1.7-5.8,3.8-11.7,3.8c0,0,0,0,0,0c-5.9,0-9-2.1-11.7-3.8c-2.6-1.6-4.9-3.2-9.6-3.2c0,0,0,0,0,0c-4.8,0-7,1.6-9.6,3.2
		c-2.7,1.7-5.8,3.8-11.7,3.8c0,0,0,0,0,0c-5.9,0-9-2.1-11.7-3.8c-2.6-1.6-4.9-3.2-9.6-3.2c0,0,0,0,0,0c-4.8,0-7,1.6-9.6,3.2
		c-2.7,1.7-5.8,3.8-11.7,3.8c0,0,0,0,0,0c-5.9,0-9-2.2-11.7-3.9c-2.6-1.6-4.9-3.1-9.6-3.1l0-4.1c5.9,0,9,2.1,11.7,3.8
		c2.6,1.6,4.9,3.2,9.6,3.2c0,0,0,0,0,0c4.8,0,7-1.6,9.6-3.2c2.7-1.7,5.8-3.8,11.7-3.8c0,0,0,0,0,0c5.9,0,9,2.1,11.7,3.8
		c2.6,1.6,4.9,3.2,9.6,3.2c0,0,0,0,0,0c4.8,0,7-1.6,9.6-3.2c2.7-1.7,5.8-3.8,11.7-3.8c0,0,0,0,0,0c5.9,0,9,2.1,11.7,3.8
		c2.6,1.6,4.9,3.2,9.6,3.2c0,0,0,0,0,0c4.8,0,7-1.6,9.6-3.2c2.7-1.7,5.8-3.8,11.7-3.8c0,0,0,0,0,0c5.9,0,9,2.1,11.7,3.8
		c2.6,1.6,4.9,3.2,9.6,3.2c0,0,0,0,0,0c4.8,0,7-1.6,9.6-3.2c2.7-1.7,5.8-3.8,11.7-3.8c0,0,0,0,0,0c5.9,0,9,2.1,11.7,3.8
		c2.6,1.6,4.9,3.2,9.6,3.2c0,0,0,0,0,0c4.8,0,7-1.6,9.6-3.2c2.7-1.7,5.8-3.8,11.7-3.8c0,0,0,0,0,0c5.9,0,9,2.1,11.7,3.8
		c2.6,1.6,4.9,3.2,9.6,3.2c0,0,0,0,0,0c4.8,0,7-1.6,9.6-3.2c2.7-1.7,5.8-3.8,11.7-3.8c0,0,0,0,0,0c5.9,0,9,2.1,11.7,3.8
		c2.6,1.6,4.9,3.2,9.6,3.2c0,0,0,0,0,0c4.8,0,7-1.6,9.6-3.2c2.7-1.7,5.8-3.8,11.7-3.8c0,0,0,0,0,0c5.9,0,9,2,11.7,3.7
		c2.6,1.6,4.9,3.1,9.6,3.1c4.7,0,7-1.5,9.6-3.1c2.7-1.7,5.8-3.7,11.7-3.7c0,0,0,0,0,0c5.9,0,9,2.1,11.7,3.8c2.6,1.6,4.9,3.2,9.6,3.2
		c0,0,0,0,0,0c4.8,0,7-1.6,9.6-3.2c2.7-1.7,5.8-3.8,11.7-3.8c0,0,0,0,0,0c5.9,0,9,2.1,11.7,3.8c2.6,1.6,4.9,3.2,9.6,3.2c0,0,0,0,0,0
		c4.8,0,7-1.6,9.6-3.2c2.7-1.7,5.8-3.8,11.7-3.8c0,0,0,0,0,0c5.9,0,9,2.1,11.7,3.8c2.6,1.6,4.9,3.2,9.6,3.2c0,0,0,0,0,0
		c4.8,0,7-1.6,9.6-3.2c2.7-1.7,5.8-3.8,11.7-3.8c0,0,0,0,0,0c5.9,0,9,2.1,11.7,3.8c2.6,1.6,4.9,3.2,9.6,3.2c0,0,0,0,0,0
		c4.8,0,7-1.6,9.6-3.2c2.7-1.7,5.8-3.8,11.7-3.8c0,0,0,0,0,0c5.9,0,9,2.1,11.7,3.8c2.6,1.6,4.9,3.2,9.6,3.2c0,0,0,0,0,0
		c4.8,0,7-1.6,9.6-3.2c2.7-1.7,5.8-3.8,11.7-3.8c0,0,0,0,0,0c5.9,0,9,2.2,11.7,3.9c2.6,1.6,4.9,3.1,9.6,3.1c4.8,0,7-1.1,9.6-2.7
		c2.7-1.7,5.8-3.3,11.7-3.3c0,0,0,0,0,0c5.9,0,9,1.6,11.7,3.3c2.6,1.6,4.9,2.7,9.6,2.7c0,0,0,0,0,0c4.8,0,7-1.1,9.6-2.7
		c2.7-1.7,5.8-3.3,11.7-3.3c0,0,0,0,0,0c5.9,0,9,1.6,11.7,3.3c2.6,1.6,4.9,2.7,9.6,2.7c0,0,0,0,0,0c4.8,0,7-1.1,9.6-2.7
		c2.7-1.7,5.8-3.3,11.7-3.3c0,0,0,0,0,0c5.9,0,9,1.6,11.7,3.3c2.6,1.6,4.9,2.7,9.6,2.7c0,0,0,0,0,0c4.8,0,7-1.1,9.6-2.7
		c2.7-1.7,5.8-3.3,11.7-3.3c0,0,0,0,0,0c5.9,0,9,1.6,11.7,3.3c2.6,1.6,4.9,2.7,9.6,2.7c0,0,0,0,0,0c4.8,0,7-1.1,9.6-2.7
		c2.7-1.7,5.8-3.3,11.7-3.3c0,0,0,0,0,0c5.9,0,9,1.6,11.7,3.3c2.6,1.6,4.9,2.7,9.6,2.7c0,0,0,0,0,0c4.8,0,7-1.1,9.6-2.7
		c2.7-1.7,5.8-3.3,11.7-3.3c0,0,0,0,0,0c5.9,0,9,1.6,11.7,3.3c2.6,1.6,4.9,2.7,9.6,2.7c0,0,0,0,0,0c4.8,0,7-1.1,9.6-2.7
		c2.7-1.7,5.8-3.3,11.7-3.3c0,0,0,0,0,0c5.9,0,9,1.6,11.7,3.3c2.6,1.6,4.9,2.7,9.6,2.7c0,0,0,0,0,0c4.8,0,7-1.1,9.6-2.7
		c2.7-1.7,5.8-3.3,11.7-3.3c0,0,0,0,0,0c5.9,0,9,1.6,11.7,3.3c2.6,1.6,4.9,2.7,9.6,2.7c0,0,0,0,0,0c4.8,0,7-1.1,9.6-2.7
		c2.7-1.7,5.8-3.3,11.7-3.3c0,0,0,0,0,0c5.9,0,9,2.1,11.7,3.8c2.6,1.6,4.9,3.2,9.6,3.2c0,0,0,0,0,0c4.8,0,7-1.6,9.6-3.2
		c2.7-1.7,5.8-3.8,11.7-3.8c0,0,0,0,0,0c5.9,0,9,2.1,11.7,3.8c2.6,1.6,4.9,3.2,9.6,3.2c0,0,0,0,0,0c4.8,0,7-1.6,9.6-3.2
		c2.7-1.7,5.8-3.8,11.7-3.8c0,0,0,0,0,0c5.9,0,9,2.1,11.7,3.8c2.6,1.6,4.9,3.2,9.6,3.2c0,0,0,0,0,0c4.8,0,7-1.6,9.6-3.2
		c2.7-1.7,5.8-3.8,11.7-3.8c0,0,0,0,0,0c5.9,0,9,1.9,11.7,3.6c2.6,1.6,4.9,3,9.6,3c4.8,0,7-1.4,9.6-3c2.7-1.7,5.8-3.6,11.7-3.6
		c0,0,0,0,0,0c5.9,0,9,2.1,11.7,3.8c2.6,1.6,4.9,3.2,9.6,3.2c0,0,0,0,0,0c4.8,0,7-1.6,9.6-3.2c2.7-1.7,5.8-3.8,11.7-3.8c0,0,0,0,0,0
		c5.9,0,9,2.1,11.7,3.8c2.6,1.6,4.9,3.2,9.6,3.2c0,0,0,0,0,0c4.8,0,7-1.6,9.6-3.2c2.7-1.7,5.8-3.8,11.7-3.8c0,0,0,0,0,0
		c5.9,0,9,2.1,11.7,3.8c2.6,1.6,4.9,3.2,9.6,3.2c0,0,0,0,0,0c4.8,0,7-1.6,9.6-3.2c2.7-1.7,5.8-3.8,11.7-3.8c0,0,0,0,0,0
		c5.9,0,9,2.1,11.7,3.8c2.6,1.6,4.9,3.2,9.6,3.2c0,0,0,0,0,0c4.8,0,7-1.6,9.6-3.2c2.7-1.7,5.8-3.8,11.7-3.8c0,0,0,0,0,0
		c5.9,0,9,2.1,11.8,3.8c2.6,1.6,4.9,3.2,9.6,3.2c0,0,0,0,0,0c4.8,0,7-1.6,9.6-3.2c2.7-1.7,5.8-3.8,11.7-3.8c0,0,0,0,0,0l0,4
		c0,0,0,0,0,0c-4.8,0-7,1.6-9.6,3.2C1309,796.9,1305.9,799,1300,799z"/>
</g>
<g>
	<line fill="#FFFFFF" x1="607" y1="720" x2="607" y2="738"/>
	<rect x="605" y="720" width="4" height="18"/>
</g>
<g>
	<line fill="#FFFFFF" x1="617" y1="721" x2="617" y2="738"/>
	<rect x="615" y="721" width="4" height="17"/>
</g>
<g>
	<line fill="#FFFFFF" x1="628" y1="720" x2="628" y2="738"/>
	<rect x="626" y="720" width="4" height="18"/>
</g>
<g>
	<line fill="#FFFFFF" x1="807" y1="588" x2="807" y2="732"/>
	<rect x="805" y="588" width="4" height="144"/>
</g>
<g>
	<polygon fill="#FFFFFF" points="687.2,676.5 616.9,676.5 630.3,627.2 673.7,627.2 	"/>
	<path d="M689.8,678.5h-75.6l14.6-53.3h46.4L689.8,678.5z M619.5,674.5h65.1l-12.4-45.3h-40.3L619.5,674.5z"/>
</g>
<g>
	<line fill="#FFFFFF" x1="728" y1="547" x2="728" y2="732"/>
	<rect x="726" y="547" width="4" height="185"/>
</g>
<g>
	<line fill="#FFFFFF" x1="691" y1="624" x2="766" y2="624"/>
	<rect x="691" y="622" width="75" height="4"/>
</g>
<g>
	<line fill="#FFFFFF" x1="780" y1="650" x2="835" y2="650"/>
	<rect x="780" y="648" width="55" height="4"/>
</g>
<g>
	<line fill="#FFFFFF" x1="791" y1="592" x2="823" y2="592"/>
	<rect x="791" y="590" width="32" height="4"/>
</g>
<g>
	<line fill="#FFFFFF" x1="707" y1="560" x2="752" y2="560"/>
	<rect x="707" y="558" width="45" height="4"/>
</g>
<g>
	<rect x="150" y="544" width="4" height="24"/>
</g>
<g>
	<circle cx="152" cy="555.5" r="4.1"/>
</g>
<g>
	<polygon fill="#FFFFFF" points="759.4,616 700.6,616 711.9,567.1 748.2,567.1 	"/>
	<path d="M762,618h-63.9l12.2-52.9h39.4L762,618z M703.1,614h53.8l-10.4-44.9h-33.1L703.1,614z"/>
</g>
<g>
	<polygon fill="#FFFFFF" points="779.5,697.6 681.1,697.6 696,630.4 764.7,630.4 	"/>
	<path d="M782,699.6H678.7l15.7-71.2h72L782,699.6z M683.6,695.6h93.4l-13.9-63.2h-65.5L683.6,695.6z"/>
</g>
<g>
	<polygon fill="#FFFFFF" points="829.1,642.9 785.9,642.9 794.2,599.1 820.8,599.1 	"/>
	<path d="M831.5,644.9h-48l9-47.8h29.9L831.5,644.9z M788.4,640.9h38.3l-7.5-39.8h-23.3L788.4,640.9z"/>
</g>
<g>
	<polygon fill="#FFFFFF" points="841.5,706 773.5,706 783.8,656.7 831.3,656.7 	"/>
	<path d="M844,708h-72.9l11.1-53.3h50.8L844,708z M776,704h63.1l-9.4-45.3h-44.2L776,704z"/>
</g>
<g>
	
		<rect x="485" y="785.6" transform="matrix(0.8703 -0.4926 0.4926 0.8703 -327.834 347.3222)" fill="#FFFFFF" width="20.9" height="20.9"/>
	<path d="M490.8,813.1l-12.3-21.7l21.7-12.3l12.3,21.7L490.8,813.1z M484,792.9l8.3,14.7l14.7-8.3l-8.3-14.7L484,792.9z"/>
</g>
<g>
	
		<rect x="259.2" y="689.7" transform="matrix(1 -1.881624e-03 1.881624e-03 1 -1.3169 0.5087)" fill="#FFFFFF" width="20.9" height="20.9"/>
	<path d="M257.2,712.6l0-24.9l24.9,0l0,24.9L257.2,712.6z M261.2,691.7l0,16.9l16.9,0l0-16.9L261.2,691.7z"/>
</g>
<g>
	
		<rect x="280.2" y="689.7" transform="matrix(1 -1.881624e-03 1.881624e-03 1 -1.3169 0.5481)" fill="#FFFFFF" width="20.9" height="20.9"/>
	<path d="M278.2,712.6l0-24.9l24.9,0l0,24.9L278.2,712.6z M282.2,691.7l0,16.9l16.9,0l0-16.9L282.2,691.7z"/>
</g>
<g>
	
		<rect x="269.7" y="667.6" transform="matrix(1 -1.881624e-03 1.881624e-03 1 -1.2753 0.5284)" fill="#FFFFFF" width="20.9" height="20.9"/>
	<path d="M267.7,690.5l0-24.9l24.9,0l0,24.9L267.7,690.5z M271.7,669.6l0,16.9l16.9,0l0-16.9L271.7,669.6z"/>
</g>
</svg>
