<?xml version="1.0" encoding="UTF-8" standalone="no"?>
<svg width="54px" height="84px" viewBox="0 0 54 84" version="1.1" xmlns="http://www.w3.org/2000/svg" xmlns:xlink="http://www.w3.org/1999/xlink">
    <defs></defs>
    <g id="Page-1" stroke="none" stroke-width="1" fill="none" fill-rule="evenodd">
        <g id="b-logo">
            <path d="M0.0823777599,0 L24.2436193,0 C30.7928066,0 36.7224511,0.265275362 40.5279927,1.50343414 C48.2276709,3.97975169 51.3253856,10.0813956 51.3253856,16.0066035 C51.3253856,19.3675864 50.4400578,21.4012607 50.1748947,22.0206507 C47.342654,28.3878806 41.3244147,29.62635 37.9615369,30.3333368 C41.7670786,30.9527269 46.8117061,31.7485529 50.2631788,35.639776 C52.4758765,38.0275648 53.7146515,41.4764552 53.7146515,45.0138742 C53.7146515,49.8782912 51.1485065,56.6872326 43.3599225,60.1367442 C38.6696748,62.1707291 33.6247364,62.4360044 26.456317,62.4360044 L0.0823777599,62.4360044 L0.0823777599,0 L0.0823777599,0 Z M14.9507863,11.6733584 L14.9507863,24.6734043 L26.7214801,24.6734043 C30.2618587,24.5851863 36.0143132,24.4084396 36.0143132,17.9523703 C36.0143132,11.9389444 30.7928066,11.6733584 27.7833761,11.6733584 L14.9507863,11.6733584 L14.9507863,11.6733584 Z M14.9507863,35.9932694 L14.9507863,51.1161394 L25.8364632,51.1161394 C31.0582806,51.0276107 37.872942,50.8505534 37.872942,43.6874974 C37.872942,36.1706373 31.6778236,36.081798 28.491514,35.9932694 L14.9507863,35.9932694 L14.9507863,35.9932694 Z" id="Fill-1" fill="#FFFFFF"></path>
            <path d="M0,71.1335573 L53.1569696,71.1335573 L53.1569696,83.2480059 L0,83.2480059 L0,71.1335573 Z" id="Fill-2" fill="#FB4D42"></path>
        </g>
    </g>
</svg>
