<?xml version="1.0" encoding="UTF-8" standalone="no"?>
<svg width="54px" height="84px" viewBox="0 0 54 84" version="1.1" xmlns="http://www.w3.org/2000/svg" xmlns:xlink="http://www.w3.org/1999/xlink">
    <defs></defs>
    <g id="Page-1" stroke="none" stroke-width="1" fill="none" fill-rule="evenodd">
        <g id="b-on-white">
            <path d="M0.082502954,0 L24.2804637,0 C30.8396042,0 36.7782603,0.264650597 40.5895854,1.49989331 C48.3009653,3.97037875 51.4033877,10.0576524 51.4033877,15.9689055 C51.4033877,19.3219728 50.5167144,21.3508574 50.2511483,21.9687886 C47.4146034,28.3210228 41.3872177,29.5565754 38.0192292,30.2618971 C41.8305544,30.8798284 46.8828485,31.6737802 50.3395666,35.5558387 C52.5556271,37.938004 53.7962847,41.3787717 53.7962847,44.9078595 C53.7962847,49.7608201 51.2262398,56.5537254 43.425819,59.9951128 C38.7284433,62.0243073 33.6758378,62.2889579 26.4965242,62.2889579 L0.082502954,62.2889579 L0.082502954,0 L0.082502954,0 Z M14.9735078,11.6458659 L14.9735078,24.6152946 L26.7620903,24.6152946 C30.3078493,24.5272843 36.0690462,24.3509539 36.0690462,17.9100897 C36.0690462,11.9108264 30.8396042,11.6458659 27.8256001,11.6458659 L14.9735078,11.6458659 L14.9735078,11.6458659 Z M14.9735078,35.9084996 L14.9735078,50.9957529 L25.8757284,50.9957529 C31.1054817,50.9074328 37.9304996,50.7307924 37.9304996,43.5846065 C37.9304996,36.0854498 31.7259661,35.9968198 28.5348142,35.9084996 L14.9735078,35.9084996 L14.9735078,35.9084996 Z" id="Fill-1" fill="#071722"></path>
            <path d="M0,70.9660267 L53.2377553,70.9660267 L53.2377553,83.0519439 L0,83.0519439 L0,70.9660267 Z" id="Fill-2" fill="#FB4D42"></path>
        </g>
    </g>
</svg>
