<?xml version="1.0" encoding="UTF-8" standalone="no"?>
<svg width="427px" height="265px" viewBox="0 0 427 265" version="1.1" xmlns="http://www.w3.org/2000/svg" xmlns:xlink="http://www.w3.org/1999/xlink" xmlns:sketch="http://www.bohemiancoding.com/sketch/ns">
    <!-- Generator: Sketch 3.3.3 (12072) - http://www.bohemiancoding.com/sketch -->
    <title>city-hall</title>
    <desc>Created with Sketch.</desc>
    <defs></defs>
    <g id="Page-1" stroke="none" stroke-width="1" fill="none" fill-rule="evenodd" sketch:type="MSPage">
        <g id="HOME" sketch:type="MSArtboardGroup" transform="translate(-906.000000, -1788.000000)">
            <g id="pilot-story" sketch:type="MSLayerGroup" transform="translate(143.000000, 1377.000000)">
                <g id="city-hall" transform="translate(764.000000, 412.004926)" sketch:type="MSShapeGroup">
                    <path d="M23.6065974,48.0360846 L401.312156,48.0360846 L401.312156,262.069235 L23.6065974,262.069235 L23.6065974,48.0360846 Z" id="Fill-1" fill="#FFFFFF"></path>
                    <path d="M23.6065974,48.0360846 L401.312156,48.0360846 L401.312156,262.069235 L23.6065974,262.069235 L23.6065974,48.0360846 Z" id="Stroke-2" stroke="#E9E9E9" stroke-width="3" stroke-linejoin="round"></path>
                    <path d="M0.524591054,0.524591054 L424.394163,0.524591054 L424.394168,48.1446491 L0.524591054,48.1446491 L0.524591054,0.524591054 Z" id="Stroke-4" stroke="#E9E9E9" stroke-width="3" stroke-linejoin="round" fill="#FFFFFF"></path>
                    <path d="M23.6065974,48.0360846 L401.312156,48.0360846 L401.312156,96.2984616 L23.6065974,96.2984616 L23.6065974,48.0360846 Z" id="Stroke-6" stroke="#E9E9E9" stroke-width="3" stroke-linejoin="round"></path>
                    <path d="M55.0820607,96.2984616 L368.787511,96.2984616 L368.787511,144.560839 L55.0820607,144.560839 L55.0820607,96.2984616 Z" id="Stroke-8" stroke="#E9E9E9" stroke-width="3" stroke-linejoin="round"></path>
                    <path d="M242.885658,82.6590942 L344.656323,82.6590942 L344.656323,184.429759 L242.885658,184.429759 L242.885658,82.6590942 Z" id="Fill-9" fill="#FFFFFF"></path>
                    <path d="M242.885658,82.6590942 L344.656323,82.6590942 L344.656323,184.429759 L242.885658,184.429759 L242.885658,82.6590942 Z" id="Stroke-10" stroke="#E9E9E9" stroke-width="3" stroke-linejoin="round"></path>
                    <path d="M259.672572,124.626379 L284.852942,124.626379 L284.852942,170.790391 L259.672572,170.790391 L259.672572,124.626379 Z" id="Fill-11" fill="#FFFFFF"></path>
                    <path d="M259.672572,124.626379 L284.852942,124.626379 L284.852942,170.790391 L259.672572,170.790391 L259.672572,124.626379 Z" id="Stroke-12" stroke="#E9E9E9" stroke-width="3" stroke-linejoin="round"></path>
                    <path d="M301.639856,124.626379 L326.820227,124.626379 L326.820227,170.790391 L301.639856,170.790391 L301.639856,124.626379 Z" id="Fill-13" fill="#FFFFFF"></path>
                    <path d="M301.639856,124.626379 L326.820227,124.626379 L326.820227,170.790391 L301.639856,170.790391 L301.639856,124.626379 Z" id="Stroke-14" stroke="#E9E9E9" stroke-width="3" stroke-linejoin="round"></path>
                    <path d="M343.082549,107.679372 L243.598243,107.679372" id="Stroke-15" stroke="#E9E9E9" stroke-width="3" stroke-linecap="round"></path>
                    <path d="M87.606706,135.017717 L171.541275,135.017717 L171.541275,184.429759 L87.606706,184.429759 L87.606706,135.017717 Z" id="Stroke-17" stroke="#E9E9E9" stroke-width="3" stroke-linejoin="round"></path>
                    <path d="M106.491984,184.95435 L106.491984,146.134612 M128.524808,182.855986 L128.524808,145.08543 M151.606815,184.95435 L151.606815,146.134612" id="Stroke-18" stroke="#E9E9E9" stroke-width="3" stroke-linecap="round"></path>
                    <path d="M184.13146,135.017717 L242.885658,135.017717 L242.885658,215.905222 L184.13146,215.905222 L184.13146,135.017717 Z" id="Stroke-20" stroke="#E9E9E9" stroke-width="3" stroke-linejoin="round"></path>
                    <path d="M172.065866,144.560839 L86.0329329,144.560839 M222.951198,135.353989 L222.951198,166.161726 M204.162187,136.114369 L204.162187,167.970311 M184.656051,167.642845 L243.410249,167.642845 M316.328406,260.592079 L316.328406,184.482772 M368.787511,261.544644 L368.787511,131.446062 M213.508559,261.544644 L213.508559,216.429813 M141.114994,241.610184 L141.114994,187.052714 M68.7214281,241.610184 L68.7214281,145.08543 M55.0820607,241.610184 L55.0820607,145.08543 M213.084657,242.038507 L24.1311885,242.038507" id="Stroke-21" stroke="#E9E9E9" stroke-width="3" stroke-linecap="round"></path>
                    <path d="M15.2131406,13.4130751 L27.8033259,13.4130751 L27.8033259,34.3967172 L15.2131406,34.3967172 L15.2131406,13.4130751 Z" id="Fill-22" fill="#FFFFFF"></path>
                    <path d="M15.2131406,13.4130751 L27.8033259,13.4130751 L27.8033259,34.3967172 L15.2131406,34.3967172 L15.2131406,13.4130751 Z" id="Stroke-23" stroke="#E9E9E9" stroke-width="3" stroke-linejoin="round"></path>
                    <path d="M365.639965,13.4130751 L379.279332,13.4130751 L379.279332,34.3967172 L365.639965,34.3967172 L365.639965,13.4130751 Z" id="Fill-24" fill="#FFFFFF"></path>
                    <path d="M365.639965,13.4130751 L379.279332,13.4130751 L379.279332,34.3967172 L365.639965,34.3967172 L365.639965,13.4130751 Z" id="Stroke-25" stroke="#E9E9E9" stroke-width="3" stroke-linejoin="round"></path>
                    <path d="M395.017064,13.4130751 L408.656431,13.4130751 L408.656431,34.3967172 L395.017064,34.3967172 L395.017064,13.4130751 Z" id="Fill-26" fill="#FFFFFF"></path>
                    <path d="M395.017064,13.4130751 L408.656431,13.4130751 L408.656431,34.3967172 L395.017064,34.3967172 L395.017064,13.4130751 Z" id="Stroke-27" stroke="#E9E9E9" stroke-width="3" stroke-linejoin="round"></path>
                    <path d="M336.262866,13.4130751 L349.902233,13.4130751 L349.902233,34.3967172 L336.262866,34.3967172 L336.262866,13.4130751 Z" id="Fill-28" fill="#FFFFFF"></path>
                    <path d="M336.262866,13.4130751 L349.902233,13.4130751 L349.902233,34.3967172 L336.262866,34.3967172 L336.262866,13.4130751 Z" id="Stroke-29" stroke="#E9E9E9" stroke-width="3" stroke-linejoin="round"></path>
                    <path d="M306.885767,13.4130751 L320.525134,13.4130751 L320.525134,34.3967172 L306.885767,34.3967172 L306.885767,13.4130751 Z" id="Fill-30" fill="#FFFFFF"></path>
                    <path d="M306.885767,13.4130751 L320.525134,13.4130751 L320.525134,34.3967172 L306.885767,34.3967172 L306.885767,13.4130751 Z" id="Stroke-31" stroke="#E9E9E9" stroke-width="3" stroke-linejoin="round"></path>
                    <path d="M278.55785,13.4130751 L291.148035,13.4130751 L291.148035,34.3967172 L278.55785,34.3967172 L278.55785,13.4130751 Z" id="Fill-32" fill="#FFFFFF"></path>
                    <path d="M278.55785,13.4130751 L291.148035,13.4130751 L291.148035,34.3967172 L278.55785,34.3967172 L278.55785,13.4130751 Z" id="Stroke-33" stroke="#E9E9E9" stroke-width="3" stroke-linejoin="round"></path>
                    <path d="M249.180751,13.4130751 L261.770936,13.4130751 L261.770936,34.3967172 L249.180751,34.3967172 L249.180751,13.4130751 Z" id="Fill-34" fill="#FFFFFF"></path>
                    <path d="M249.180751,13.4130751 L261.770936,13.4130751 L261.770936,34.3967172 L249.180751,34.3967172 L249.180751,13.4130751 Z" id="Stroke-35" stroke="#E9E9E9" stroke-width="3" stroke-linejoin="round"></path>
                    <path d="M219.803652,13.4130751 L232.393837,13.4130751 L232.393837,34.3967172 L219.803652,34.3967172 L219.803652,13.4130751 Z" id="Fill-36" fill="#FFFFFF"></path>
                    <path d="M219.803652,13.4130751 L232.393837,13.4130751 L232.393837,34.3967172 L219.803652,34.3967172 L219.803652,13.4130751 Z" id="Stroke-37" stroke="#E9E9E9" stroke-width="3" stroke-linejoin="round"></path>
                    <path d="M190.426553,13.4130751 L204.06592,13.4130751 L204.06592,34.3967172 L190.426553,34.3967172 L190.426553,13.4130751 Z" id="Fill-38" fill="#FFFFFF"></path>
                    <path d="M190.426553,13.4130751 L204.06592,13.4130751 L204.06592,34.3967172 L190.426553,34.3967172 L190.426553,13.4130751 Z" id="Stroke-39" stroke="#E9E9E9" stroke-width="3" stroke-linejoin="round"></path>
                    <path d="M161.049454,13.4130751 L174.688821,13.4130751 L174.688821,34.3967172 L161.049454,34.3967172 L161.049454,13.4130751 Z" id="Fill-40" fill="#FFFFFF"></path>
                    <path d="M161.049454,13.4130751 L174.688821,13.4130751 L174.688821,34.3967172 L161.049454,34.3967172 L161.049454,13.4130751 Z" id="Stroke-41" stroke="#E9E9E9" stroke-width="3" stroke-linejoin="round"></path>
                    <path d="M131.672355,13.4130751 L145.311722,13.4130751 L145.311722,34.3967172 L131.672355,34.3967172 L131.672355,13.4130751 Z" id="Fill-42" fill="#FFFFFF"></path>
                    <path d="M131.672355,13.4130751 L145.311722,13.4130751 L145.311722,34.3967172 L131.672355,34.3967172 L131.672355,13.4130751 Z" id="Stroke-43" stroke="#E9E9E9" stroke-width="3" stroke-linejoin="round"></path>
                    <path d="M102.295256,13.4130751 L115.934623,13.4130751 L115.934623,34.3967172 L102.295256,34.3967172 L102.295256,13.4130751 Z" id="Fill-44" fill="#FFFFFF"></path>
                    <path d="M102.295256,13.4130751 L115.934623,13.4130751 L115.934623,34.3967172 L102.295256,34.3967172 L102.295256,13.4130751 Z" id="Stroke-45" stroke="#E9E9E9" stroke-width="3" stroke-linejoin="round"></path>
                    <path d="M73.9673386,13.4130751 L86.5575239,13.4130751 L86.5575239,34.3967172 L73.9673386,34.3967172 L73.9673386,13.4130751 Z" id="Fill-46" fill="#FFFFFF"></path>
                    <path d="M73.9673386,13.4130751 L86.5575239,13.4130751 L86.5575239,34.3967172 L73.9673386,34.3967172 L73.9673386,13.4130751 Z" id="Stroke-47" stroke="#E9E9E9" stroke-width="3" stroke-linejoin="round"></path>
                    <path d="M44.5902396,13.4130751 L57.1804249,13.4130751 L57.1804249,34.3967172 L44.5902396,34.3967172 L44.5902396,13.4130751 Z" id="Fill-48" fill="#FFFFFF"></path>
                    <path d="M44.5902396,13.4130751 L57.1804249,13.4130751 L57.1804249,34.3967172 L44.5902396,34.3967172 L44.5902396,13.4130751 Z" id="Stroke-49" stroke="#E9E9E9" stroke-width="3" stroke-linejoin="round"></path>
                    <path d="M365.639965,61.675452 L379.279332,61.675452 L379.279332,82.6590942 L365.639965,82.6590942 L365.639965,61.675452 Z" id="Fill-50" fill="#FFFFFF"></path>
                    <path d="M365.639965,61.675452 L379.279332,61.675452 L379.279332,82.6590942 L365.639965,82.6590942 L365.639965,61.675452 Z" id="Stroke-51" stroke="#E9E9E9" stroke-width="3" stroke-linejoin="round"></path>
                    <path d="M336.262866,61.675452 L349.902233,61.675452 L349.902233,82.6590942 L336.262866,82.6590942 L336.262866,61.675452 Z" id="Fill-52" fill="#FFFFFF"></path>
                    <path d="M336.262866,61.675452 L349.902233,61.675452 L349.902233,82.6590942 L336.262866,82.6590942 L336.262866,61.675452 Z" id="Stroke-53" stroke="#E9E9E9" stroke-width="3" stroke-linejoin="round"></path>
                    <path d="M306.885767,61.675452 L320.525134,61.675452 L320.525134,82.6590942 L306.885767,82.6590942 L306.885767,61.675452 Z" id="Fill-54" fill="#FFFFFF"></path>
                    <path d="M306.885767,61.675452 L320.525134,61.675452 L320.525134,82.6590942 L306.885767,82.6590942 L306.885767,61.675452 Z" id="Stroke-55" stroke="#E9E9E9" stroke-width="3" stroke-linejoin="round"></path>
                    <path d="M278.55785,61.675452 L291.148035,61.675452 L291.148035,82.6590942 L278.55785,82.6590942 L278.55785,61.675452 Z" id="Fill-56" fill="#FFFFFF"></path>
                    <path d="M278.55785,61.675452 L291.148035,61.675452 L291.148035,82.6590942 L278.55785,82.6590942 L278.55785,61.675452 Z" id="Stroke-57" stroke="#E9E9E9" stroke-width="3" stroke-linejoin="round"></path>
                    <path d="M249.180751,61.675452 L261.770936,61.675452 L261.770936,82.6590942 L249.180751,82.6590942 L249.180751,61.675452 Z" id="Fill-58" fill="#FFFFFF"></path>
                    <path d="M249.180751,61.675452 L261.770936,61.675452 L261.770936,82.6590942 L249.180751,82.6590942 L249.180751,61.675452 Z" id="Stroke-59" stroke="#E9E9E9" stroke-width="3" stroke-linejoin="round"></path>
                    <path d="M219.803652,61.675452 L232.393837,61.675452 L232.393837,82.6590942 L219.803652,82.6590942 L219.803652,61.675452 Z" id="Fill-60" fill="#FFFFFF"></path>
                    <path d="M219.803652,61.675452 L232.393837,61.675452 L232.393837,82.6590942 L219.803652,82.6590942 L219.803652,61.675452 Z" id="Stroke-61" stroke="#E9E9E9" stroke-width="3" stroke-linejoin="round"></path>
                    <path d="M190.426553,61.675452 L204.06592,61.675452 L204.06592,82.6590942 L190.426553,82.6590942 L190.426553,61.675452 Z" id="Fill-62" fill="#FFFFFF"></path>
                    <path d="M190.426553,61.675452 L204.06592,61.675452 L204.06592,82.6590942 L190.426553,82.6590942 L190.426553,61.675452 Z" id="Stroke-63" stroke="#E9E9E9" stroke-width="3" stroke-linejoin="round"></path>
                    <path d="M161.049454,61.675452 L174.688821,61.675452 L174.688821,82.6590942 L161.049454,82.6590942 L161.049454,61.675452 Z" id="Fill-64" fill="#FFFFFF"></path>
                    <path d="M161.049454,61.675452 L174.688821,61.675452 L174.688821,82.6590942 L161.049454,82.6590942 L161.049454,61.675452 Z" id="Stroke-65" stroke="#E9E9E9" stroke-width="3" stroke-linejoin="round"></path>
                    <path d="M131.672355,61.675452 L145.311722,61.675452 L145.311722,82.6590942 L131.672355,82.6590942 L131.672355,61.675452 Z" id="Fill-66" fill="#FFFFFF"></path>
                    <path d="M131.672355,61.675452 L145.311722,61.675452 L145.311722,82.6590942 L131.672355,82.6590942 L131.672355,61.675452 Z" id="Stroke-67" stroke="#E9E9E9" stroke-width="3" stroke-linejoin="round"></path>
                    <path d="M102.295256,61.675452 L115.934623,61.675452 L115.934623,82.6590942 L102.295256,82.6590942 L102.295256,61.675452 Z" id="Fill-68" fill="#FFFFFF"></path>
                    <path d="M102.295256,61.675452 L115.934623,61.675452 L115.934623,82.6590942 L102.295256,82.6590942 L102.295256,61.675452 Z" id="Stroke-69" stroke="#E9E9E9" stroke-width="3" stroke-linejoin="round"></path>
                    <path d="M73.9673386,61.675452 L86.5575239,61.675452 L86.5575239,82.6590942 L73.9673386,82.6590942 L73.9673386,61.675452 Z" id="Fill-70" fill="#FFFFFF"></path>
                    <path d="M73.9673386,61.675452 L86.5575239,61.675452 L86.5575239,82.6590942 L73.9673386,82.6590942 L73.9673386,61.675452 Z" id="Stroke-71" stroke="#E9E9E9" stroke-width="3" stroke-linejoin="round"></path>
                    <path d="M44.5902396,61.675452 L57.1804249,61.675452 L57.1804249,82.6590942 L44.5902396,82.6590942 L44.5902396,61.675452 Z" id="Fill-72" fill="#FFFFFF"></path>
                    <path d="M44.5902396,61.675452 L57.1804249,61.675452 L57.1804249,82.6590942 L44.5902396,82.6590942 L44.5902396,61.675452 Z" id="Stroke-73" stroke="#E9E9E9" stroke-width="3" stroke-linejoin="round"></path>
                    <path d="M219.803652,108.888647 L232.393837,108.888647 L232.393837,129.872289 L219.803652,129.872289 L219.803652,108.888647 Z" id="Fill-74" fill="#FFFFFF"></path>
                    <path d="M219.803652,108.888647 L232.393837,108.888647 L232.393837,129.872289 L219.803652,129.872289 L219.803652,108.888647 Z" id="Stroke-75" stroke="#E9E9E9" stroke-width="3" stroke-linejoin="round"></path>
                    <path d="M190.426553,108.888647 L204.06592,108.888647 L204.06592,129.872289 L190.426553,129.872289 L190.426553,108.888647 Z" id="Fill-76" fill="#FFFFFF"></path>
                    <path d="M190.426553,108.888647 L204.06592,108.888647 L204.06592,129.872289 L190.426553,129.872289 L190.426553,108.888647 Z" id="Stroke-77" stroke="#E9E9E9" stroke-width="3" stroke-linejoin="round"></path>
                    <path d="M161.049454,108.888647 L174.688821,108.888647 L174.688821,129.872289 L161.049454,129.872289 L161.049454,108.888647 Z" id="Fill-78" fill="#FFFFFF"></path>
                    <path d="M161.049454,108.888647 L174.688821,108.888647 L174.688821,129.872289 L161.049454,129.872289 L161.049454,108.888647 Z" id="Stroke-79" stroke="#E9E9E9" stroke-width="3" stroke-linejoin="round"></path>
                    <path d="M131.672355,108.888647 L145.311722,108.888647 L145.311722,129.872289 L131.672355,129.872289 L131.672355,108.888647 Z" id="Fill-80" fill="#FFFFFF"></path>
                    <path d="M131.672355,108.888647 L145.311722,108.888647 L145.311722,129.872289 L131.672355,129.872289 L131.672355,108.888647 Z" id="Stroke-81" stroke="#E9E9E9" stroke-width="3" stroke-linejoin="round"></path>
                    <path d="M102.295256,108.888647 L115.934623,108.888647 L115.934623,129.872289 L102.295256,129.872289 L102.295256,108.888647 Z" id="Fill-82" fill="#FFFFFF"></path>
                    <path d="M102.295256,108.888647 L115.934623,108.888647 L115.934623,129.872289 L102.295256,129.872289 L102.295256,108.888647 Z" id="Stroke-83" stroke="#E9E9E9" stroke-width="3" stroke-linejoin="round"></path>
                    <path d="M73.9673386,108.888647 L86.5575239,108.888647 L86.5575239,129.872289 L73.9673386,129.872289 L73.9673386,108.888647 Z" id="Fill-84" fill="#FFFFFF"></path>
                    <path d="M73.9673386,108.888647 L86.5575239,108.888647 L86.5575239,129.872289 L73.9673386,129.872289 L73.9673386,108.888647 Z" id="Stroke-85" stroke="#E9E9E9" stroke-width="3" stroke-linejoin="round"></path>
                </g>
            </g>
        </g>
    </g>
</svg>