<svg id="Layer_1" xmlns="http://www.w3.org/2000/svg" xmlns:xlink="http://www.w3.org/1999/xlink" viewBox="0 0 1440 516"><style>.st0{enable-background:new ;} .st1{clip-path:url(#SVGID_2_);} .st2{clip-path:url(#SVGID_4_);} .st3{clip-path:url(#SVGID_6_);enable-background:new ;} .st4{clip-path:url(#SVGID_8_);} .st5{opacity:0.1;clip-path:url(#SVGID_10_);enable-background:new ;} .st6{clip-path:url(#SVGID_12_);} .st7{clip-path:url(#SVGID_14_);enable-background:new ;} .st8{clip-path:url(#SVGID_16_);} .st9{clip-path:url(#SVGID_18_);} .st10{clip-path:url(#SVGID_20_);fill:#0D202E;} .st11{clip-path:url(#SVGID_22_);} .st12{clip-path:url(#SVGID_24_);fill:#0D202E;} .st13{clip-path:url(#SVGID_26_);} .st14{clip-path:url(#SVGID_28_);fill:#0D202E;} .st15{clip-path:url(#SVGID_30_);} .st16{clip-path:url(#SVGID_32_);fill:#0D202E;} .st17{clip-path:url(#SVGID_34_);} .st18{clip-path:url(#SVGID_36_);fill:#0D202E;} .st19{clip-path:url(#SVGID_38_);} .st20{clip-path:url(#SVGID_40_);fill:#0D202E;} .st21{clip-path:url(#SVGID_42_);} .st22{clip-path:url(#SVGID_44_);fill:#0D202E;} .st23{clip-path:url(#SVGID_46_);} .st24{clip-path:url(#SVGID_48_);fill:#0D202E;} .st25{clip-path:url(#SVGID_50_);} .st26{clip-path:url(#SVGID_52_);fill:#0D202E;} .st27{clip-path:url(#SVGID_54_);} .st28{clip-path:url(#SVGID_56_);fill:#0D202E;} .st29{clip-path:url(#SVGID_58_);} .st30{clip-path:url(#SVGID_60_);fill:#0D202E;} .st31{clip-path:url(#SVGID_62_);} .st32{clip-path:url(#SVGID_64_);fill:#0D202E;} .st33{clip-path:url(#SVGID_66_);} .st34{clip-path:url(#SVGID_68_);fill:#0D202E;} .st35{clip-path:url(#SVGID_70_);} .st36{clip-path:url(#SVGID_72_);fill:#0D202E;} .st37{clip-path:url(#SVGID_74_);} .st38{clip-path:url(#SVGID_76_);fill:#0D202E;} .st39{clip-path:url(#SVGID_78_);} .st40{clip-path:url(#SVGID_80_);fill:#0D202E;} .st41{clip-path:url(#SVGID_82_);} .st42{clip-path:url(#SVGID_84_);fill:#0D202E;} .st43{clip-path:url(#SVGID_86_);} .st44{clip-path:url(#SVGID_88_);fill:#0D202E;} .st45{clip-path:url(#SVGID_90_);} .st46{clip-path:url(#SVGID_92_);fill:#0D202E;} .st47{clip-path:url(#SVGID_94_);} .st48{clip-path:url(#SVGID_96_);fill:#0D202E;} .st49{clip-path:url(#SVGID_98_);} .st50{clip-path:url(#SVGID_100_);fill:#0D202E;} .st51{clip-path:url(#SVGID_102_);} .st52{clip-path:url(#SVGID_104_);fill:#0D202E;} .st53{clip-path:url(#SVGID_106_);} .st54{clip-path:url(#SVGID_108_);fill:#0D202E;} .st55{clip-path:url(#SVGID_110_);} .st56{clip-path:url(#SVGID_112_);fill:#0D202E;} .st57{clip-path:url(#SVGID_114_);} .st58{clip-path:url(#SVGID_116_);fill:#0D202E;} .st59{clip-path:url(#SVGID_118_);} .st60{clip-path:url(#SVGID_120_);fill:#0D202E;} .st61{clip-path:url(#SVGID_122_);} .st62{clip-path:url(#SVGID_124_);fill:#0D202E;} .st63{clip-path:url(#SVGID_126_);} .st64{clip-path:url(#SVGID_128_);fill:#0D202E;} .st65{clip-path:url(#SVGID_130_);} .st66{clip-path:url(#SVGID_132_);fill:#0D202E;} .st67{clip-path:url(#SVGID_134_);} .st68{clip-path:url(#SVGID_136_);fill:#0D202E;} .st69{clip-path:url(#SVGID_138_);} .st70{clip-path:url(#SVGID_140_);fill:#0D202E;} .st71{clip-path:url(#SVGID_142_);} .st72{clip-path:url(#SVGID_144_);fill:#0D202E;} .st73{clip-path:url(#SVGID_146_);} .st74{clip-path:url(#SVGID_148_);fill:#0D202E;} .st75{clip-path:url(#SVGID_150_);} .st76{clip-path:url(#SVGID_152_);fill:#0D202E;} .st77{clip-path:url(#SVGID_154_);} .st78{clip-path:url(#SVGID_156_);fill:#0D202E;} .st79{clip-path:url(#SVGID_158_);} .st80{clip-path:url(#SVGID_160_);fill:#0D202E;} .st81{clip-path:url(#SVGID_162_);} .st82{clip-path:url(#SVGID_164_);fill:#0D202E;} .st83{clip-path:url(#SVGID_166_);} .st84{clip-path:url(#SVGID_168_);fill:#0D202E;} .st85{clip-path:url(#SVGID_170_);} .st86{clip-path:url(#SVGID_172_);fill:#0D202E;} .st87{clip-path:url(#SVGID_174_);} .st88{clip-path:url(#SVGID_176_);fill:#0D202E;} .st89{clip-path:url(#SVGID_178_);} .st90{clip-path:url(#SVGID_180_);fill:#0D202E;} .st91{clip-path:url(#SVGID_182_);} .st92{clip-path:url(#SVGID_184_);fill:#0D202E;} .st93{clip-path:url(#SVGID_186_);} .st94{clip-path:url(#SVGID_188_);fill:#0D202E;} .st95{clip-path:url(#SVGID_190_);} .st96{clip-path:url(#SVGID_192_);fill:#0D202E;} .st97{clip-path:url(#SVGID_194_);} .st98{clip-path:url(#SVGID_196_);fill:#0D202E;} .st99{clip-path:url(#SVGID_198_);} .st100{clip-path:url(#SVGID_200_);fill:#0D202E;} .st101{clip-path:url(#SVGID_202_);} .st102{clip-path:url(#SVGID_204_);fill:#0D202E;} .st103{clip-path:url(#SVGID_206_);} .st104{clip-path:url(#SVGID_208_);fill:#0D202E;} .st105{clip-path:url(#SVGID_210_);} .st106{clip-path:url(#SVGID_212_);fill:#0D202E;} .st107{clip-path:url(#SVGID_214_);} .st108{clip-path:url(#SVGID_216_);fill:#0D202E;} .st109{clip-path:url(#SVGID_218_);} .st110{clip-path:url(#SVGID_220_);fill:#0D202E;} .st111{clip-path:url(#SVGID_222_);} .st112{clip-path:url(#SVGID_224_);fill:#0D202E;} .st113{clip-path:url(#SVGID_226_);} .st114{clip-path:url(#SVGID_228_);fill:#0D202E;} .st115{clip-path:url(#SVGID_230_);} .st116{clip-path:url(#SVGID_232_);fill:#0D202E;} .st117{clip-path:url(#SVGID_234_);} .st118{clip-path:url(#SVGID_236_);fill:#0D202E;} .st119{clip-path:url(#SVGID_238_);} .st120{clip-path:url(#SVGID_240_);fill:#0D202E;} .st121{clip-path:url(#SVGID_242_);} .st122{clip-path:url(#SVGID_244_);fill:#0D202E;} .st123{clip-path:url(#SVGID_246_);} .st124{clip-path:url(#SVGID_248_);fill:#0D202E;} .st125{clip-path:url(#SVGID_250_);} .st126{clip-path:url(#SVGID_252_);fill:#0D202E;} .st127{clip-path:url(#SVGID_254_);} .st128{clip-path:url(#SVGID_256_);fill:#0D202E;} .st129{clip-path:url(#SVGID_258_);} .st130{clip-path:url(#SVGID_260_);fill:#0D202E;} .st131{clip-path:url(#SVGID_262_);} .st132{clip-path:url(#SVGID_264_);fill:#0D202E;} .st133{clip-path:url(#SVGID_266_);} .st134{clip-path:url(#SVGID_268_);fill:#0D202E;} .st135{clip-path:url(#SVGID_270_);} .st136{clip-path:url(#SVGID_272_);fill:#0D202E;} .st137{clip-path:url(#SVGID_274_);} .st138{clip-path:url(#SVGID_276_);fill:#0D202E;} .st139{clip-path:url(#SVGID_278_);} .st140{clip-path:url(#SVGID_280_);fill:#0D202E;}</style><g class="st0"><defs><path id="SVGID_1_" d="M0 0h1440v516H0z"/></defs><clipPath id="SVGID_2_"><use xlink:href="#SVGID_1_" overflow="visible"/></clipPath><g class="st1"><defs><path id="SVGID_3_" d="M0 0h1440v516H0z"/></defs><clipPath id="SVGID_4_"><use xlink:href="#SVGID_3_" overflow="visible"/></clipPath><g class="st2"><defs><path id="SVGID_5_" d="M0 0h1440v516H0z"/></defs><clipPath id="SVGID_6_"><use xlink:href="#SVGID_5_" overflow="visible"/></clipPath><g class="st3"><defs><path id="SVGID_7_" d="M0 0h1440v516H0z"/></defs><clipPath id="SVGID_8_"><use xlink:href="#SVGID_7_" overflow="visible"/></clipPath><g class="st4"><defs><path id="SVGID_9_" d="M0 0h1440v516H0z"/></defs><clipPath id="SVGID_10_"><use xlink:href="#SVGID_9_" overflow="visible"/></clipPath><g class="st5"><defs><path id="SVGID_11_" d="M0 0h1440v516H0z"/></defs><clipPath id="SVGID_12_"><use xlink:href="#SVGID_11_" overflow="visible"/></clipPath><g class="st6"><defs><path id="SVGID_13_" d="M0 0h1440v516H0z"/></defs><clipPath id="SVGID_14_"><use xlink:href="#SVGID_13_" overflow="visible"/></clipPath><g class="st7"><defs><path id="SVGID_15_" d="M0 0h1440v516H0z"/></defs><clipPath id="SVGID_16_"><use xlink:href="#SVGID_15_" overflow="visible"/></clipPath><g class="st8"><defs><path id="SVGID_17_" d="M-480.753 581.666l-1.414-1.414L116.747-18.66l1.414 1.413z"/></defs><clipPath id="SVGID_18_"><use xlink:href="#SVGID_17_" overflow="visible"/></clipPath><g class="st9"><defs><path id="SVGID_19_" d="M0 0h1440v516H0z"/></defs><clipPath id="SVGID_20_"><use xlink:href="#SVGID_19_" overflow="visible"/></clipPath><path class="st10" d="M-480.753 588.736l-8.485-8.485L116.747-25.733l8.485 8.485z"/></g></g><g class="st8"><defs><path id="SVGID_21_" d="M-510.753 581.668l-1.414-1.414L86.747-18.66l1.414 1.414z"/></defs><clipPath id="SVGID_22_"><use xlink:href="#SVGID_21_" overflow="visible"/></clipPath><g class="st11"><defs><path id="SVGID_23_" d="M0 0h1440v516H0z"/></defs><clipPath id="SVGID_24_"><use xlink:href="#SVGID_23_" overflow="visible"/></clipPath><path class="st12" d="M-510.753 588.735l-8.485-8.485L86.746-25.735l8.486 8.486z"/></g></g><g class="st8"><defs><path id="SVGID_25_" d="M-540.753 581.667l-1.414-1.414L56.746-18.66l1.415 1.413z"/></defs><clipPath id="SVGID_26_"><use xlink:href="#SVGID_25_" overflow="visible"/></clipPath><g class="st13"><defs><path id="SVGID_27_" d="M0 0h1440v516H0z"/></defs><clipPath id="SVGID_28_"><use xlink:href="#SVGID_27_" overflow="visible"/></clipPath><path class="st14" d="M-540.753 588.735l-8.485-8.485L56.746-25.735l8.485 8.485z"/></g></g><g class="st8"><defs><path id="SVGID_29_" d="M-570.753 581.668l-1.415-1.415L26.746-18.66l1.414 1.414z"/></defs><clipPath id="SVGID_30_"><use xlink:href="#SVGID_29_" overflow="visible"/></clipPath><g class="st15"><defs><path id="SVGID_31_" d="M0 0h1440v516H0z"/></defs><clipPath id="SVGID_32_"><use xlink:href="#SVGID_31_" overflow="visible"/></clipPath><path class="st16" d="M-570.754 588.735l-8.485-8.486L26.747-25.736l8.485 8.485z"/></g></g><g class="st8"><defs><path id="SVGID_33_" d="M-450.752 581.667l-1.414-1.415L146.747-18.66l1.414 1.413z"/></defs><clipPath id="SVGID_34_"><use xlink:href="#SVGID_33_" overflow="visible"/></clipPath><g class="st17"><defs><path id="SVGID_35_" d="M0 0h1440v516H0z"/></defs><clipPath id="SVGID_36_"><use xlink:href="#SVGID_35_" overflow="visible"/></clipPath><path class="st18" d="M-450.753 588.736l-8.485-8.485L146.747-25.733l8.485 8.485z"/></g></g><g class="st8"><defs><path id="SVGID_37_" d="M-330.75 581.668l-1.414-1.414L266.75-18.66l1.414 1.414z"/></defs><clipPath id="SVGID_38_"><use xlink:href="#SVGID_37_" overflow="visible"/></clipPath><g class="st19"><defs><path id="SVGID_39_" d="M0 0h1440v516H0z"/></defs><clipPath id="SVGID_40_"><use xlink:href="#SVGID_39_" overflow="visible"/></clipPath><path class="st20" d="M-330.752 588.737l-8.485-8.485L266.748-25.733l8.485 8.485z"/></g></g><g class="st8"><defs><path id="SVGID_41_" d="M-360.75 581.667l-1.416-1.414L236.748-18.66l1.414 1.413z"/></defs><clipPath id="SVGID_42_"><use xlink:href="#SVGID_41_" overflow="visible"/></clipPath><g class="st21"><defs><path id="SVGID_43_" d="M0 0h1440v516H0z"/></defs><clipPath id="SVGID_44_"><use xlink:href="#SVGID_43_" overflow="visible"/></clipPath><path class="st22" d="M-360.752 588.737l-8.485-8.486L236.748-25.732l8.485 8.485z"/></g></g><g class="st8"><defs><path id="SVGID_45_" d="M-390.752 581.667l-1.414-1.415L206.748-18.66l1.414 1.413z"/></defs><clipPath id="SVGID_46_"><use xlink:href="#SVGID_45_" overflow="visible"/></clipPath><g class="st23"><defs><path id="SVGID_47_" d="M0 0h1440v516H0z"/></defs><clipPath id="SVGID_48_"><use xlink:href="#SVGID_47_" overflow="visible"/></clipPath><path class="st24" d="M-390.752 588.736l-8.485-8.485L206.747-25.732l8.486 8.485z"/></g></g><g class="st8"><defs><path id="SVGID_49_" d="M-420.752 581.667l-1.414-1.415L176.748-18.66l1.414 1.413z"/></defs><clipPath id="SVGID_50_"><use xlink:href="#SVGID_49_" overflow="visible"/></clipPath><g class="st25"><defs><path id="SVGID_51_" d="M0 0h1440v516H0z"/></defs><clipPath id="SVGID_52_"><use xlink:href="#SVGID_51_" overflow="visible"/></clipPath><path class="st26" d="M-420.752 588.736l-8.486-8.485L176.747-25.733l8.485 8.486z"/></g></g><g class="st8"><defs><path id="SVGID_53_" d="M-300.75 581.668l-1.414-1.414L296.75-18.66l1.414 1.414z"/></defs><clipPath id="SVGID_54_"><use xlink:href="#SVGID_53_" overflow="visible"/></clipPath><g class="st27"><defs><path id="SVGID_55_" d="M0 0h1440v516H0z"/></defs><clipPath id="SVGID_56_"><use xlink:href="#SVGID_55_" overflow="visible"/></clipPath><path class="st28" d="M-300.75 588.737l-8.487-8.485L296.748-25.733l8.485 8.486z"/></g></g><g class="st8"><defs><path id="SVGID_57_" d="M-180.748 581.668l-1.414-1.414L416.752-18.66l1.414 1.414z"/></defs><clipPath id="SVGID_58_"><use xlink:href="#SVGID_57_" overflow="visible"/></clipPath><g class="st29"><defs><path id="SVGID_59_" d="M0 0h1440v516H0z"/></defs><clipPath id="SVGID_60_"><use xlink:href="#SVGID_59_" overflow="visible"/></clipPath><path class="st30" d="M-180.75 588.738l-8.485-8.485L416.75-25.732l8.484 8.485z"/></g></g><g class="st8"><defs><path id="SVGID_61_" d="M-210.748 581.668l-1.414-1.414L386.75-18.66l1.415 1.414z"/></defs><clipPath id="SVGID_62_"><use xlink:href="#SVGID_61_" overflow="visible"/></clipPath><g class="st31"><defs><path id="SVGID_63_" d="M0 0h1440v516H0z"/></defs><clipPath id="SVGID_64_"><use xlink:href="#SVGID_63_" overflow="visible"/></clipPath><path class="st32" d="M-210.75 588.738l-8.486-8.486L386.75-25.73l8.484 8.485z"/></g></g><g class="st8"><defs><path id="SVGID_65_" d="M-240.75 581.668l-1.413-1.414L356.75-18.66l1.415 1.414z"/></defs><clipPath id="SVGID_66_"><use xlink:href="#SVGID_65_" overflow="visible"/></clipPath><g class="st33"><defs><path id="SVGID_67_" d="M0 0h1440v516H0z"/></defs><clipPath id="SVGID_68_"><use xlink:href="#SVGID_67_" overflow="visible"/></clipPath><path class="st34" d="M-240.75 588.737l-8.486-8.485L356.75-25.732l8.484 8.485z"/></g></g><g class="st8"><defs><path id="SVGID_69_" d="M-270.75 581.668l-1.413-1.414L326.75-18.66l1.415 1.414z"/></defs><clipPath id="SVGID_70_"><use xlink:href="#SVGID_69_" overflow="visible"/></clipPath><g class="st35"><defs><path id="SVGID_71_" d="M0 0h1440v516H0z"/></defs><clipPath id="SVGID_72_"><use xlink:href="#SVGID_71_" overflow="visible"/></clipPath><path class="st36" d="M-270.75 588.737l-8.486-8.485L326.748-25.732l8.486 8.485z"/></g></g><g class="st8"><defs><path id="SVGID_73_" d="M-150.747 581.668l-1.415-1.414L446.752-18.66l1.414 1.414z"/></defs><clipPath id="SVGID_74_"><use xlink:href="#SVGID_73_" overflow="visible"/></clipPath><g class="st37"><defs><path id="SVGID_75_" d="M0 0h1440v516H0z"/></defs><clipPath id="SVGID_76_"><use xlink:href="#SVGID_75_" overflow="visible"/></clipPath><path class="st38" d="M-150.75 588.738l-8.485-8.485L446.75-25.732l8.485 8.485z"/></g></g><g class="st8"><defs><path id="SVGID_77_" d="M-30.75 581.668l-1.414-1.415L566.75-18.66l1.414 1.414z"/></defs><clipPath id="SVGID_78_"><use xlink:href="#SVGID_77_" overflow="visible"/></clipPath><g class="st39"><defs><path id="SVGID_79_" d="M0 0h1440v516H0z"/></defs><clipPath id="SVGID_80_"><use xlink:href="#SVGID_79_" overflow="visible"/></clipPath><path class="st40" d="M-30.75 588.74l-8.485-8.487L566.75-25.73l8.485 8.484z"/></g></g><g class="st8"><defs><path id="SVGID_81_" d="M-60.75 581.668l-1.414-1.415L536.75-18.66l1.414 1.414z"/></defs><clipPath id="SVGID_82_"><use xlink:href="#SVGID_81_" overflow="visible"/></clipPath><g class="st41"><defs><path id="SVGID_83_" d="M0 0h1440v516H0z"/></defs><clipPath id="SVGID_84_"><use xlink:href="#SVGID_83_" overflow="visible"/></clipPath><path class="st42" d="M-60.75 588.74l-8.485-8.487L536.75-25.73l8.485 8.484z"/></g></g><g class="st8"><defs><path id="SVGID_85_" d="M-90.746 581.668l-1.415-1.414L506.752-18.66l1.414 1.414z"/></defs><clipPath id="SVGID_86_"><use xlink:href="#SVGID_85_" overflow="visible"/></clipPath><g class="st43"><defs><path id="SVGID_87_" d="M0 0h1440v516H0z"/></defs><clipPath id="SVGID_88_"><use xlink:href="#SVGID_87_" overflow="visible"/></clipPath><path class="st44" d="M-90.75 588.738l-8.485-8.485L506.75-25.732l8.485 8.486z"/></g></g><g class="st8"><defs><path id="SVGID_89_" d="M-120.747 581.668l-1.414-1.414L476.752-18.66l1.414 1.414z"/></defs><clipPath id="SVGID_90_"><use xlink:href="#SVGID_89_" overflow="visible"/></clipPath><g class="st45"><defs><path id="SVGID_91_" d="M0 0h1440v516H0z"/></defs><clipPath id="SVGID_92_"><use xlink:href="#SVGID_91_" overflow="visible"/></clipPath><path class="st46" d="M-120.75 588.738l-8.485-8.485L476.75-25.732l8.485 8.486z"/></g></g><g class="st8"><defs><path id="SVGID_93_" d="M-.75 581.668l-1.414-1.414L596.75-18.66l1.414 1.414z"/></defs><clipPath id="SVGID_94_"><use xlink:href="#SVGID_93_" overflow="visible"/></clipPath><g class="st47"><defs><path id="SVGID_95_" d="M0 0h1440v516H0z"/></defs><clipPath id="SVGID_96_"><use xlink:href="#SVGID_95_" overflow="visible"/></clipPath><path class="st48" d="M-.75 588.74l-8.485-8.486L596.75-25.73l8.485 8.484z"/></g></g><g class="st8"><defs><path id="SVGID_97_" d="M119.25 581.67l-1.413-1.415L716.75-18.66l1.415 1.415z"/></defs><clipPath id="SVGID_98_"><use xlink:href="#SVGID_97_" overflow="visible"/></clipPath><g class="st49"><defs><path id="SVGID_99_" d="M0 0h1440v516H0z"/></defs><clipPath id="SVGID_100_"><use xlink:href="#SVGID_99_" overflow="visible"/></clipPath><path class="st50" d="M119.25 588.74l-8.484-8.485L716.75-25.73l8.486 8.485z"/></g></g><g class="st8"><defs><path id="SVGID_101_" d="M89.25 581.67l-1.413-1.416L686.75-18.66l1.415 1.415z"/></defs><clipPath id="SVGID_102_"><use xlink:href="#SVGID_101_" overflow="visible"/></clipPath><g class="st51"><defs><path id="SVGID_103_" d="M0 0h1440v516H0z"/></defs><clipPath id="SVGID_104_"><use xlink:href="#SVGID_103_" overflow="visible"/></clipPath><path class="st52" d="M89.25 588.74l-8.484-8.486L686.75-25.73l8.486 8.485z"/></g></g><g class="st8"><defs><path id="SVGID_105_" d="M59.25 581.668l-1.413-1.414L656.75-18.66l1.414 1.415z"/></defs><clipPath id="SVGID_106_"><use xlink:href="#SVGID_105_" overflow="visible"/></clipPath><g class="st53"><defs><path id="SVGID_107_" d="M0 0h1440v516H0z"/></defs><clipPath id="SVGID_108_"><use xlink:href="#SVGID_107_" overflow="visible"/></clipPath><path class="st54" d="M59.25 588.74l-8.484-8.486L656.75-25.73l8.486 8.485z"/></g></g><g class="st8"><defs><path id="SVGID_109_" d="M29.25 581.668l-1.414-1.414L626.75-18.66l1.414 1.414z"/></defs><clipPath id="SVGID_110_"><use xlink:href="#SVGID_109_" overflow="visible"/></clipPath><g class="st55"><defs><path id="SVGID_111_" d="M0 0h1440v516H0z"/></defs><clipPath id="SVGID_112_"><use xlink:href="#SVGID_111_" overflow="visible"/></clipPath><path class="st56" d="M29.25 588.74l-8.485-8.486L626.75-25.73l8.485 8.484z"/></g></g><g class="st8"><defs><path id="SVGID_113_" d="M149.25 581.67l-1.413-1.415L746.75-18.66l1.415 1.415z"/></defs><clipPath id="SVGID_114_"><use xlink:href="#SVGID_113_" overflow="visible"/></clipPath><g class="st57"><defs><path id="SVGID_115_" d="M0 0h1440v516H0z"/></defs><clipPath id="SVGID_116_"><use xlink:href="#SVGID_115_" overflow="visible"/></clipPath><path class="st58" d="M149.25 588.74l-8.484-8.485L746.75-25.73l8.486 8.485z"/></g></g><g class="st8"><defs><path id="SVGID_117_" d="M269.252 581.67l-1.414-1.414L866.752-18.658l1.414 1.414z"/></defs><clipPath id="SVGID_118_"><use xlink:href="#SVGID_117_" overflow="visible"/></clipPath><g class="st59"><defs><path id="SVGID_119_" d="M0 0h1440v516H0z"/></defs><clipPath id="SVGID_120_"><use xlink:href="#SVGID_119_" overflow="visible"/></clipPath><path class="st60" d="M269.252 588.74l-8.485-8.485L866.752-25.73l8.485 8.486z"/></g></g><g class="st8"><defs><path id="SVGID_121_" d="M239.252 581.67l-1.414-1.415L836.75-18.658l1.416 1.414z"/></defs><clipPath id="SVGID_122_"><use xlink:href="#SVGID_121_" overflow="visible"/></clipPath><g class="st61"><defs><path id="SVGID_123_" d="M0 0h1440v516H0z"/></defs><clipPath id="SVGID_124_"><use xlink:href="#SVGID_123_" overflow="visible"/></clipPath><path class="st62" d="M239.252 588.74l-8.485-8.485L836.752-25.73l8.485 8.486z"/></g></g><g class="st8"><defs><path id="SVGID_125_" d="M209.252 581.67l-1.414-1.415L806.75-18.658l1.416 1.414z"/></defs><clipPath id="SVGID_126_"><use xlink:href="#SVGID_125_" overflow="visible"/></clipPath><g class="st63"><defs><path id="SVGID_127_" d="M0 0h1440v516H0z"/></defs><clipPath id="SVGID_128_"><use xlink:href="#SVGID_127_" overflow="visible"/></clipPath><path class="st64" d="M209.252 588.74l-8.485-8.485L806.75-25.73l8.487 8.486z"/></g></g><g class="st8"><defs><path id="SVGID_129_" d="M179.252 581.67l-1.415-1.415L776.75-18.66l1.415 1.415z"/></defs><clipPath id="SVGID_130_"><use xlink:href="#SVGID_129_" overflow="visible"/></clipPath><g class="st65"><defs><path id="SVGID_131_" d="M0 0h1440v516H0z"/></defs><clipPath id="SVGID_132_"><use xlink:href="#SVGID_131_" overflow="visible"/></clipPath><path class="st66" d="M179.252 588.74l-8.486-8.485L776.75-25.73l8.486 8.485z"/></g></g><g class="st8"><defs><path id="SVGID_133_" d="M299.252 581.67l-1.414-1.414L896.752-18.658l1.414 1.414z"/></defs><clipPath id="SVGID_134_"><use xlink:href="#SVGID_133_" overflow="visible"/></clipPath><g class="st67"><defs><path id="SVGID_135_" d="M0 0h1440v516H0z"/></defs><clipPath id="SVGID_136_"><use xlink:href="#SVGID_135_" overflow="visible"/></clipPath><path class="st68" d="M299.252 588.74l-8.485-8.484L896.752-25.73l8.485 8.486z"/></g></g><g class="st8"><defs><path id="SVGID_137_" d="M419.194 581.62l-1.415-1.415L1016.777-18.71l1.414 1.416z"/></defs><clipPath id="SVGID_138_"><use xlink:href="#SVGID_137_" overflow="visible"/></clipPath><g class="st69"><defs><path id="SVGID_139_" d="M0 0h1440v516H0z"/></defs><clipPath id="SVGID_140_"><use xlink:href="#SVGID_139_" overflow="visible"/></clipPath><path class="st70" d="M419.243 588.746l-8.485-8.485 605.985-605.984 8.485 8.486z"/></g></g><g class="st8"><defs><path id="SVGID_141_" d="M389.253 581.67l-1.414-1.414L986.752-18.657l1.414 1.414z"/></defs><clipPath id="SVGID_142_"><use xlink:href="#SVGID_141_" overflow="visible"/></clipPath><g class="st71"><defs><path id="SVGID_143_" d="M0 0h1440v516H0z"/></defs><clipPath id="SVGID_144_"><use xlink:href="#SVGID_143_" overflow="visible"/></clipPath><path class="st72" d="M389.253 588.74l-8.485-8.484L986.753-25.728l8.485 8.485z"/></g></g><g class="st8"><defs><path id="SVGID_145_" d="M359.253 581.67l-1.414-1.414L956.75-18.658l1.414 1.415z"/></defs><clipPath id="SVGID_146_"><use xlink:href="#SVGID_145_" overflow="visible"/></clipPath><g class="st73"><defs><path id="SVGID_147_" d="M0 0h1440v516H0z"/></defs><clipPath id="SVGID_148_"><use xlink:href="#SVGID_147_" overflow="visible"/></clipPath><path class="st74" d="M359.253 588.74l-8.485-8.484L956.752-25.73l8.485 8.487z"/></g></g><g class="st8"><defs><path id="SVGID_149_" d="M329.253 581.67l-1.415-1.414L926.752-18.658l1.414 1.414z"/></defs><clipPath id="SVGID_150_"><use xlink:href="#SVGID_149_" overflow="visible"/></clipPath><g class="st75"><defs><path id="SVGID_151_" d="M0 0h1440v516H0z"/></defs><clipPath id="SVGID_152_"><use xlink:href="#SVGID_151_" overflow="visible"/></clipPath><path class="st76" d="M329.253 588.74l-8.486-8.484L926.752-25.73l8.485 8.486z"/></g></g><g class="st8"><defs><path id="SVGID_153_" d="M449.25 581.61l-1.413-1.414 599-598.83 1.413 1.416z"/></defs><clipPath id="SVGID_154_"><use xlink:href="#SVGID_153_" overflow="visible"/></clipPath><g class="st77"><defs><path id="SVGID_155_" d="M0 0h1440v516H0z"/></defs><clipPath id="SVGID_156_"><use xlink:href="#SVGID_155_" overflow="visible"/></clipPath><path class="st78" d="M449.24 588.748l-8.484-8.485L1046.74-25.722l8.485 8.485z"/></g></g><g class="st8"><defs><path id="SVGID_157_" d="M569.257 581.607l-1.414-1.415 598.998-598.83 1.415 1.416z"/></defs><clipPath id="SVGID_158_"><use xlink:href="#SVGID_157_" overflow="visible"/></clipPath><g class="st79"><defs><path id="SVGID_159_" d="M0 0h1440v516H0z"/></defs><clipPath id="SVGID_160_"><use xlink:href="#SVGID_159_" overflow="visible"/></clipPath><path class="st80" d="M569.24 588.75l-8.485-8.485L1166.74-25.72l8.485 8.486z"/></g></g><g class="st8"><defs><path id="SVGID_161_" d="M539.255 581.608l-1.414-1.415 599-598.83 1.414 1.416z"/></defs><clipPath id="SVGID_162_"><use xlink:href="#SVGID_161_" overflow="visible"/></clipPath><g class="st81"><defs><path id="SVGID_163_" d="M0 0h1440v516H0z"/></defs><clipPath id="SVGID_164_"><use xlink:href="#SVGID_163_" overflow="visible"/></clipPath><path class="st82" d="M539.24 588.75l-8.485-8.485L1136.74-25.72l8.485 8.485z"/></g></g><g class="st8"><defs><path id="SVGID_165_" d="M509.254 581.61l-1.414-1.416 599-598.83 1.413 1.416z"/></defs><clipPath id="SVGID_166_"><use xlink:href="#SVGID_165_" overflow="visible"/></clipPath><g class="st83"><defs><path id="SVGID_167_" d="M0 0h1440v516H0z"/></defs><clipPath id="SVGID_168_"><use xlink:href="#SVGID_167_" overflow="visible"/></clipPath><path class="st84" d="M509.24 588.75l-8.485-8.486L1106.74-25.72l8.485 8.485z"/></g></g><g class="st8"><defs><path id="SVGID_169_" d="M479.253 581.61l-1.414-1.415 598.997-598.83 1.414 1.416z"/></defs><clipPath id="SVGID_170_"><use xlink:href="#SVGID_169_" overflow="visible"/></clipPath><g class="st85"><defs><path id="SVGID_171_" d="M0 0h1440v516H0z"/></defs><clipPath id="SVGID_172_"><use xlink:href="#SVGID_171_" overflow="visible"/></clipPath><path class="st86" d="M479.24 588.75l-8.485-8.486L1076.74-25.72l8.485 8.484z"/></g></g><g class="st8"><defs><path id="SVGID_173_" d="M599.258 581.606l-1.414-1.415 599-598.828 1.413 1.415z"/></defs><clipPath id="SVGID_174_"><use xlink:href="#SVGID_173_" overflow="visible"/></clipPath><g class="st87"><defs><path id="SVGID_175_" d="M0 0h1440v516H0z"/></defs><clipPath id="SVGID_176_"><use xlink:href="#SVGID_175_" overflow="visible"/></clipPath><path class="st88" d="M599.24 588.75l-8.485-8.484L1196.74-25.72l8.484 8.486z"/></g></g><g class="st8"><defs><path id="SVGID_177_" d="M631.26 579.605l-1.414-1.415 598.998-598.83 1.414 1.416z"/></defs><clipPath id="SVGID_178_"><use xlink:href="#SVGID_177_" overflow="visible"/></clipPath><g class="st89"><defs><path id="SVGID_179_" d="M0 0h1440v516H0z"/></defs><clipPath id="SVGID_180_"><use xlink:href="#SVGID_179_" overflow="visible"/></clipPath><path class="st90" d="M631.24 586.75l-8.485-8.484L1228.74-27.718l8.484 8.485z"/></g></g><g class="st8"><defs><path id="SVGID_181_" d="M751.265 579.6l-1.414-1.414 599-598.83 1.414 1.416z"/></defs><clipPath id="SVGID_182_"><use xlink:href="#SVGID_181_" overflow="visible"/></clipPath><g class="st91"><defs><path id="SVGID_183_" d="M0 0h1440v516H0z"/></defs><clipPath id="SVGID_184_"><use xlink:href="#SVGID_183_" overflow="visible"/></clipPath><path class="st92" d="M751.24 586.754l-8.486-8.485 605.984-605.986 8.486 8.485z"/></g></g><g class="st8"><defs><path id="SVGID_185_" d="M721.264 579.602l-1.414-1.415 598.998-598.83 1.414 1.416z"/></defs><clipPath id="SVGID_186_"><use xlink:href="#SVGID_185_" overflow="visible"/></clipPath><g class="st93"><defs><path id="SVGID_187_" d="M0 0h1440v516H0z"/></defs><clipPath id="SVGID_188_"><use xlink:href="#SVGID_187_" overflow="visible"/></clipPath><path class="st94" d="M721.24 586.753l-8.486-8.485L1318.74-27.717l8.484 8.486z"/></g></g><g class="st8"><defs><path id="SVGID_189_" d="M691.263 579.603l-1.414-1.415 598.997-598.83 1.414 1.416z"/></defs><clipPath id="SVGID_190_"><use xlink:href="#SVGID_189_" overflow="visible"/></clipPath><g class="st95"><defs><path id="SVGID_191_" d="M0 0h1440v516H0z"/></defs><clipPath id="SVGID_192_"><use xlink:href="#SVGID_191_" overflow="visible"/></clipPath><path class="st96" d="M691.24 586.753l-8.486-8.485L1288.74-27.717l8.484 8.485z"/></g></g><g class="st8"><defs><path id="SVGID_193_" d="M661.26 579.604l-1.413-1.415 598.998-598.83 1.414 1.415z"/></defs><clipPath id="SVGID_194_"><use xlink:href="#SVGID_193_" overflow="visible"/></clipPath><g class="st97"><defs><path id="SVGID_195_" d="M0 0h1440v516H0z"/></defs><clipPath id="SVGID_196_"><use xlink:href="#SVGID_195_" overflow="visible"/></clipPath><path class="st98" d="M661.24 586.752l-8.486-8.485L1258.74-27.718l8.484 8.485z"/></g></g><g class="st8"><defs><path id="SVGID_197_" d="M781.267 579.6l-1.414-1.415L1378.85-20.643l1.415 1.414z"/></defs><clipPath id="SVGID_198_"><use xlink:href="#SVGID_197_" overflow="visible"/></clipPath><g class="st99"><defs><path id="SVGID_199_" d="M0 0h1440v516H0z"/></defs><clipPath id="SVGID_200_"><use xlink:href="#SVGID_199_" overflow="visible"/></clipPath><path class="st100" d="M781.24 586.754l-8.486-8.485 605.984-605.985 8.485 8.485z"/></g></g><g class="st8"><defs><path id="SVGID_201_" d="M901.272 579.596l-1.414-1.414 599-598.83 1.412 1.415z"/></defs><clipPath id="SVGID_202_"><use xlink:href="#SVGID_201_" overflow="visible"/></clipPath><g class="st101"><defs><path id="SVGID_203_" d="M0 0h1440v516H0z"/></defs><clipPath id="SVGID_204_"><use xlink:href="#SVGID_203_" overflow="visible"/></clipPath><path class="st102" d="M901.238 586.757l-8.485-8.485 605.985-605.985 8.485 8.485z"/></g></g><g class="st8"><defs><path id="SVGID_205_" d="M871.27 579.597l-1.413-1.414 598.998-598.83 1.414 1.415z"/></defs><clipPath id="SVGID_206_"><use xlink:href="#SVGID_205_" overflow="visible"/></clipPath><g class="st103"><defs><path id="SVGID_207_" d="M0 0h1440v516H0z"/></defs><clipPath id="SVGID_208_"><use xlink:href="#SVGID_207_" overflow="visible"/></clipPath><path class="st104" d="M871.238 586.756l-8.485-8.485 605.985-605.984 8.485 8.486z"/></g></g><g class="st8"><defs><path id="SVGID_209_" d="M841.27 579.598l-1.415-1.414 599-598.83 1.413 1.415z"/></defs><clipPath id="SVGID_210_"><use xlink:href="#SVGID_209_" overflow="visible"/></clipPath><g class="st105"><defs><path id="SVGID_211_" d="M0 0h1440v516H0z"/></defs><clipPath id="SVGID_212_"><use xlink:href="#SVGID_211_" overflow="visible"/></clipPath><path class="st106" d="M841.24 586.756l-8.487-8.486 605.985-605.984 8.485 8.485z"/></g></g><g class="st8"><defs><path id="SVGID_213_" d="M811.268 579.6l-1.414-1.415 598.998-598.83 1.414 1.415z"/></defs><clipPath id="SVGID_214_"><use xlink:href="#SVGID_213_" overflow="visible"/></clipPath><g class="st107"><defs><path id="SVGID_215_" d="M0 0h1440v516H0z"/></defs><clipPath id="SVGID_216_"><use xlink:href="#SVGID_215_" overflow="visible"/></clipPath><path class="st108" d="M811.24 586.755l-8.487-8.485 605.985-605.985 8.485 8.485z"/></g></g><g class="st8"><defs><path id="SVGID_217_" d="M931.273 579.595l-1.414-1.414 598.998-598.828 1.414 1.414z"/></defs><clipPath id="SVGID_218_"><use xlink:href="#SVGID_217_" overflow="visible"/></clipPath><g class="st109"><defs><path id="SVGID_219_" d="M0 0h1440v516H0z"/></defs><clipPath id="SVGID_220_"><use xlink:href="#SVGID_219_" overflow="visible"/></clipPath><path class="st110" d="M931.238 586.757l-8.485-8.485 605.984-605.985 8.486 8.486z"/></g></g><g class="st8"><defs><path id="SVGID_221_" d="M1051.28 579.59l-1.415-1.413 598.998-598.83 1.414 1.415z"/></defs><clipPath id="SVGID_222_"><use xlink:href="#SVGID_221_" overflow="visible"/></clipPath><g class="st111"><defs><path id="SVGID_223_" d="M0 0h1440v516H0z"/></defs><clipPath id="SVGID_224_"><use xlink:href="#SVGID_223_" overflow="visible"/></clipPath><path class="st112" d="M1051.237 586.76l-8.486-8.486L1648.737-27.71l8.485 8.485z"/></g></g><g class="st8"><defs><path id="SVGID_225_" d="M1021.277 579.592l-1.414-1.414 599-598.83 1.413 1.415z"/></defs><clipPath id="SVGID_226_"><use xlink:href="#SVGID_225_" overflow="visible"/></clipPath><g class="st113"><defs><path id="SVGID_227_" d="M0 0h1440v516H0z"/></defs><clipPath id="SVGID_228_"><use xlink:href="#SVGID_227_" overflow="visible"/></clipPath><path class="st114" d="M1021.237 586.76l-8.485-8.486L1618.737-27.71l8.485 8.484z"/></g></g><g class="st8"><defs><path id="SVGID_229_" d="M991.276 579.593l-1.414-1.414 599-598.83 1.412 1.414z"/></defs><clipPath id="SVGID_230_"><use xlink:href="#SVGID_229_" overflow="visible"/></clipPath><g class="st115"><defs><path id="SVGID_231_" d="M0 0h1440v516H0z"/></defs><clipPath id="SVGID_232_"><use xlink:href="#SVGID_231_" overflow="visible"/></clipPath><path class="st116" d="M991.238 586.76l-8.486-8.487L1588.737-27.71l8.485 8.484z"/></g></g><g class="st8"><defs><path id="SVGID_233_" d="M961.275 579.594l-1.414-1.414 599-598.83 1.413 1.415z"/></defs><clipPath id="SVGID_234_"><use xlink:href="#SVGID_233_" overflow="visible"/></clipPath><g class="st117"><defs><path id="SVGID_235_" d="M0 0h1440v516H0z"/></defs><clipPath id="SVGID_236_"><use xlink:href="#SVGID_235_" overflow="visible"/></clipPath><path class="st118" d="M961.238 586.758l-8.486-8.485 605.985-605.985 8.485 8.485z"/></g></g><g class="st8"><defs><path id="SVGID_237_" d="M1081.28 579.59l-1.414-1.414 598.998-598.83 1.414 1.415z"/></defs><clipPath id="SVGID_238_"><use xlink:href="#SVGID_237_" overflow="visible"/></clipPath><g class="st119"><defs><path id="SVGID_239_" d="M0 0h1440v516H0z"/></defs><clipPath id="SVGID_240_"><use xlink:href="#SVGID_239_" overflow="visible"/></clipPath><path class="st120" d="M1081.237 586.76l-8.486-8.485L1678.737-27.71l8.485 8.485z"/></g></g><g class="st8"><defs><path id="SVGID_241_" d="M1201.286 579.586l-1.414-1.414 598.998-598.83 1.414 1.415z"/></defs><clipPath id="SVGID_242_"><use xlink:href="#SVGID_241_" overflow="visible"/></clipPath><g class="st121"><defs><path id="SVGID_243_" d="M0 0h1440v516H0z"/></defs><clipPath id="SVGID_244_"><use xlink:href="#SVGID_243_" overflow="visible"/></clipPath><path class="st122" d="M1201.236 586.763l-8.485-8.486 605.985-605.984 8.486 8.485z"/></g></g><g class="st8"><defs><path id="SVGID_245_" d="M1171.284 579.587l-1.414-1.414 599-598.83 1.413 1.415z"/></defs><clipPath id="SVGID_246_"><use xlink:href="#SVGID_245_" overflow="visible"/></clipPath><g class="st123"><defs><path id="SVGID_247_" d="M0 0h1440v516H0z"/></defs><clipPath id="SVGID_248_"><use xlink:href="#SVGID_247_" overflow="visible"/></clipPath><path class="st124" d="M1171.236 586.762l-8.485-8.485 605.986-605.985 8.485 8.485z"/></g></g><g class="st8"><defs><path id="SVGID_249_" d="M1141.283 579.588l-1.414-1.414 598.997-598.83 1.414 1.415z"/></defs><clipPath id="SVGID_250_"><use xlink:href="#SVGID_249_" overflow="visible"/></clipPath><g class="st125"><defs><path id="SVGID_251_" d="M0 0h1440v516H0z"/></defs><clipPath id="SVGID_252_"><use xlink:href="#SVGID_251_" overflow="visible"/></clipPath><path class="st126" d="M1141.236 586.76l-8.485-8.484 605.986-605.984 8.485 8.485z"/></g></g><g class="st8"><defs><path id="SVGID_253_" d="M1111.28 579.59l-1.413-1.415 599-598.83 1.413 1.415z"/></defs><clipPath id="SVGID_254_"><use xlink:href="#SVGID_253_" overflow="visible"/></clipPath><g class="st127"><defs><path id="SVGID_255_" d="M0 0h1440v516H0z"/></defs><clipPath id="SVGID_256_"><use xlink:href="#SVGID_255_" overflow="visible"/></clipPath><path class="st128" d="M1111.236 586.76l-8.485-8.484L1708.737-27.71l8.485 8.486z"/></g></g><g class="st8"><defs><path id="SVGID_257_" d="M1231.287 579.585l-1.414-1.414L1828.87-20.657l1.415 1.414z"/></defs><clipPath id="SVGID_258_"><use xlink:href="#SVGID_257_" overflow="visible"/></clipPath><g class="st129"><defs><path id="SVGID_259_" d="M0 0h1440v516H0z"/></defs><clipPath id="SVGID_260_"><use xlink:href="#SVGID_259_" overflow="visible"/></clipPath><path class="st130" d="M1231.236 586.763l-8.485-8.485 605.985-605.985 8.486 8.485z"/></g></g><g class="st8"><defs><path id="SVGID_261_" d="M1351.292 579.58l-1.414-1.413 599-598.83 1.413 1.415z"/></defs><clipPath id="SVGID_262_"><use xlink:href="#SVGID_261_" overflow="visible"/></clipPath><g class="st131"><defs><path id="SVGID_263_" d="M0 0h1440v516H0z"/></defs><clipPath id="SVGID_264_"><use xlink:href="#SVGID_263_" overflow="visible"/></clipPath><path class="st132" d="M1351.235 586.766l-8.485-8.486 605.985-605.984 8.485 8.485z"/></g></g><g class="st8"><defs><path id="SVGID_265_" d="M1321.29 579.582l-1.413-1.414 598.998-598.83 1.414 1.415z"/></defs><clipPath id="SVGID_266_"><use xlink:href="#SVGID_265_" overflow="visible"/></clipPath><g class="st133"><defs><path id="SVGID_267_" d="M0 0h1440v516H0z"/></defs><clipPath id="SVGID_268_"><use xlink:href="#SVGID_267_" overflow="visible"/></clipPath><path class="st134" d="M1321.235 586.765l-8.485-8.485 605.985-605.985 8.485 8.485z"/></g></g><g class="st8"><defs><path id="SVGID_269_" d="M1291.29 579.583l-1.414-1.414 598.998-598.83 1.414 1.414z"/></defs><clipPath id="SVGID_270_"><use xlink:href="#SVGID_269_" overflow="visible"/></clipPath><g class="st135"><defs><path id="SVGID_271_" d="M0 0h1440v516H0z"/></defs><clipPath id="SVGID_272_"><use xlink:href="#SVGID_271_" overflow="visible"/></clipPath><path class="st136" d="M1291.235 586.764l-8.485-8.485 605.985-605.986 8.485 8.486z"/></g></g><g class="st8"><defs><path id="SVGID_273_" d="M1261.288 579.584l-1.414-1.414 599-598.83 1.412 1.415z"/></defs><clipPath id="SVGID_274_"><use xlink:href="#SVGID_273_" overflow="visible"/></clipPath><g class="st137"><defs><path id="SVGID_275_" d="M0 0h1440v516H0z"/></defs><clipPath id="SVGID_276_"><use xlink:href="#SVGID_275_" overflow="visible"/></clipPath><path class="st138" d="M1261.236 586.764l-8.486-8.486 605.985-605.984 8.485 8.485z"/></g></g><g class="st8"><defs><path id="SVGID_277_" d="M1381.294 579.58l-1.414-1.414 598.998-598.83 1.414 1.415z"/></defs><clipPath id="SVGID_278_"><use xlink:href="#SVGID_277_" overflow="visible"/></clipPath><g class="st139"><defs><path id="SVGID_279_" d="M0 0h1440v516H0z"/></defs><clipPath id="SVGID_280_"><use xlink:href="#SVGID_279_" overflow="visible"/></clipPath><path class="st140" d="M1381.235 586.766l-8.485-8.485 605.984-605.984 8.486 8.485z"/></g></g></g></g></g></g></g></g></g></g></svg>
