<?xml version="1.0" encoding="utf-8"?>
<!-- Generator: Adobe Illustrator 19.1.0, SVG Export Plug-In . SVG Version: 6.00 Build 0)  -->
<svg version="1.1" id="Layer_1" xmlns="http://www.w3.org/2000/svg" xmlns:xlink="http://www.w3.org/1999/xlink" x="0px" y="0px"
	 viewBox="0 0 40 40" style="enable-background:new 0 0 40 40;" xml:space="preserve">
<style type="text/css">
	.st0{fill:#091F2F;}
	.st1{enable-background:new    ;}
</style>
<path class="st0" d="M20,39.3C9.4,39.3,0.7,30.6,0.7,20C0.7,9.4,9.4,0.7,20,0.7S39.3,9.4,39.3,20C39.3,30.6,30.6,39.3,20,39.3z
	 M20,3.7C11,3.7,3.7,11,3.7,20c0,9,7.3,16.3,16.3,16.3S36.3,29,36.3,20C36.3,11,29,3.7,20,3.7z"/>
<g>
	<g class="st1">
		<path class="st0" d="M19.6,28.3v-1.5c-1.8-0.2-3.5-0.9-4.9-2.2l1.5-1.7c1.1,1,2.3,1.6,3.5,1.7v-3.9c-1.5-0.4-2.6-0.8-3.3-1.4
			c-0.7-0.6-1-1.5-1-2.6c0-1.2,0.4-2.1,1.2-2.8c0.8-0.7,1.9-1.1,3.1-1.2v-1h1.3v1c1.5,0.1,2.9,0.6,4.2,1.5l-1.3,1.8
			c-0.9-0.6-1.8-1-2.9-1.2v3.8h0.1c1.5,0.4,2.7,0.8,3.4,1.5c0.7,0.6,1.1,1.5,1.1,2.7s-0.4,2.1-1.2,2.8c-0.8,0.7-1.9,1.1-3.3,1.2v1.4
			H19.6z M18.2,15.4c-0.3,0.3-0.5,0.7-0.5,1.1s0.1,0.8,0.4,1.1s0.8,0.5,1.5,0.8v-3.5C19,14.9,18.5,15.1,18.2,15.4z M22.4,24.1
			c0.4-0.3,0.6-0.7,0.6-1.2c0-0.5-0.1-0.8-0.4-1.1c-0.3-0.3-0.8-0.5-1.6-0.8v3.6C21.5,24.6,22,24.5,22.4,24.1z"/>
	</g>
</g>
</svg>
