<?xml version="1.0" encoding="utf-8"?>
<!-- Generator: Adobe Illustrator 19.2.1, SVG Export Plug-In . SVG Version: 6.00 Build 0)  -->
<svg version="1.1" id="Layer_1" xmlns="http://www.w3.org/2000/svg" xmlns:xlink="http://www.w3.org/1999/xlink" x="0px" y="0px"
	 viewBox="0 0 40 40" style="enable-background:new 0 0 40 40;" xml:space="preserve">
<style type="text/css">
	.st0{fill:#091F2F;}
</style>
<title>Group</title>
<desc>Created with Sketch.</desc>
<g id="Page-1">
	<g id="Group">
		<g id="icon-payment">
			<path id="Shape" class="st0" d="M20,39.3C9.4,39.3,0.7,30.6,0.7,20S9.4,0.7,20,0.7S39.3,9.4,39.3,20S30.6,39.3,20,39.3L20,39.3z
				 M20,3.7C11,3.7,3.7,11,3.7,20S11,36.3,20,36.3S36.3,29,36.3,20S29,3.7,20,3.7L20,3.7z"/>
		</g>
		<path id="_x21_" class="st0" d="M18.7,13h2.9v2.7L21,23.2h-1.7l-0.6-7.5V13z M19.1,27.5c-0.3-0.3-0.5-0.7-0.5-1.1s0.2-0.8,0.5-1.1
			s0.7-0.5,1.1-0.5s0.8,0.2,1.1,0.5s0.5,0.7,0.5,1.1s-0.2,0.8-0.5,1.1S20.6,28,20.1,28S19.4,27.8,19.1,27.5L19.1,27.5z"/>
	</g>
</g>
</svg>
