<svg xmlns="http://www.w3.org/2000/svg" viewBox="0 0 44.01 43.66"><defs><style>.cls-1{fill:#091f2f;}</style></defs><title>two tickets</title><g id="Layer_2" data-name="Layer 2"><g id="Layer_1-2" data-name="Layer 1"><path class="cls-1" d="M13.46,36.43,8.87,28.75l.77-.46a2.22,2.22,0,1,0-2.27-3.8L6.6,25,5.35,22.86,0,26.06l3.67,6.13a3.12,3.12,0,1,1,3.2,5.35l3.67,6.13L42,24.84l-2.42-4Z"/><path class="cls-1" d="M7.27,22.57a4,4,0,0,1,4,6.72L14.08,34l24.57-14.7L44,16.06l-2.79-4.67a4,4,0,0,1-4-6.72L34.4,0,4.48,17.9l2.42,4Zm26.75-5-15,8.94-5.22-8.72-.37-.62L29.7,7.46l.37.62L34,14.6l1.31,2.19Z"/></g></g></svg>