<?xml version="1.0" encoding="utf-8"?>
<!-- Generator: Adobe Illustrator 19.1.0, SVG Export Plug-In . SVG Version: 6.00 Build 0)  -->
<svg version="1.1" id="Layer_1" xmlns="http://www.w3.org/2000/svg" xmlns:xlink="http://www.w3.org/1999/xlink" x="0px" y="0px"
	 viewBox="0 0 25 37" style="enable-background:new 0 0 25 37;" xml:space="preserve">
<style type="text/css">
	.st0{enable-background:new    ;}
	.st1{clip-path:url(#SVGID_2_);}
	.st2{clip-path:url(#SVGID_4_);}
	.st3{clip-path:url(#SVGID_6_);}
	.st4{clip-path:url(#SVGID_10_);}
	.st5{clip-path:url(#SVGID_12_);fill:none;stroke:#0D202E;stroke-width:6;stroke-linecap:round;stroke-miterlimit:10;}
	.st6{clip-path:url(#SVGID_14_);}
	.st7{clip-path:url(#SVGID_16_);}
	.st8{clip-path:url(#SVGID_20_);}
	.st9{clip-path:url(#SVGID_22_);fill:none;stroke:#0D202E;stroke-width:6;stroke-linecap:round;stroke-miterlimit:10;}
	.st10{clip-path:url(#SVGID_24_);}
	.st11{clip-path:url(#SVGID_26_);fill:#0D202E;}
</style>
<g class="st0">
	<g>
		<defs>
			<rect id="SVGID_1_" width="25" height="37"/>
		</defs>
		<clipPath id="SVGID_2_">
			<use xlink:href="#SVGID_1_"  style="overflow:visible;"/>
		</clipPath>
		<g class="st1">
			<defs>
				<path id="SVGID_3_" d="M0-1.5h-1.5V0v37v1.5H0h25h1.5V37V0v-1.5H25H0z M0,1.5h25L23.5,0v37l1.5-1.5H0L1.5,37V0L0,1.5z
					 M-21.5-21.5h68v80h-68V-21.5z"/>
			</defs>
			<clipPath id="SVGID_4_">
				<use xlink:href="#SVGID_3_"  style="overflow:visible;"/>
			</clipPath>
			<g class="st2">
				<defs>
					<rect id="SVGID_5_" width="25" height="37"/>
				</defs>
				<clipPath id="SVGID_6_">
					<use xlink:href="#SVGID_5_"  style="overflow:visible;"/>
				</clipPath>
				<g class="st3">
					<defs>
						<rect id="SVGID_7_" width="25" height="37"/>
					</defs>
					<clipPath id="SVGID_8_">
						<use xlink:href="#SVGID_7_"  style="overflow:visible;"/>
					</clipPath>
				</g>
			</g>
		</g>
		<g class="st1">
			<defs>
				<rect id="SVGID_9_" width="25" height="37"/>
			</defs>
			<clipPath id="SVGID_10_">
				<use xlink:href="#SVGID_9_"  style="overflow:visible;"/>
			</clipPath>
			<g class="st4">
				<defs>
					<rect id="SVGID_11_" width="25" height="37"/>
				</defs>
				<clipPath id="SVGID_12_">
					<use xlink:href="#SVGID_11_"  style="overflow:visible;"/>
				</clipPath>
				<rect class="st5" width="25" height="37"/>
			</g>
		</g>
		<g class="st1">
			<defs>
				<path id="SVGID_13_" d="M4,2.5H2.5V4v25v1.5H4h17h1.5V29V4V2.5H21H4z M4,5.5h17L19.5,4v25l1.5-1.5H4L5.5,29V4L4,5.5z
					 M-17.5-17.5h60v68h-60V-17.5z"/>
			</defs>
			<clipPath id="SVGID_14_">
				<use xlink:href="#SVGID_13_"  style="overflow:visible;"/>
			</clipPath>
			<g class="st6">
				<defs>
					<rect id="SVGID_15_" x="4" y="4" width="17" height="25"/>
				</defs>
				<clipPath id="SVGID_16_">
					<use xlink:href="#SVGID_15_"  style="overflow:visible;"/>
				</clipPath>
				<g class="st7">
					<defs>
						<rect id="SVGID_17_" width="25" height="37"/>
					</defs>
					<clipPath id="SVGID_18_">
						<use xlink:href="#SVGID_17_"  style="overflow:visible;"/>
					</clipPath>
				</g>
			</g>
		</g>
		<g class="st1">
			<defs>
				<rect id="SVGID_19_" x="4" y="4" width="17" height="25"/>
			</defs>
			<clipPath id="SVGID_20_">
				<use xlink:href="#SVGID_19_"  style="overflow:visible;"/>
			</clipPath>
			<g class="st8">
				<defs>
					<rect id="SVGID_21_" width="25" height="37"/>
				</defs>
				<clipPath id="SVGID_22_">
					<use xlink:href="#SVGID_21_"  style="overflow:visible;"/>
				</clipPath>
				<rect x="4" y="4" class="st9" width="17" height="25"/>
			</g>
		</g>
		<g class="st1">
			<defs>
				<circle id="SVGID_23_" cx="12.5" cy="31.5" r="1.5"/>
			</defs>
			<clipPath id="SVGID_24_">
				<use xlink:href="#SVGID_23_"  style="overflow:visible;"/>
			</clipPath>
			<g class="st10">
				<defs>
					<rect id="SVGID_25_" width="25" height="37"/>
				</defs>
				<clipPath id="SVGID_26_">
					<use xlink:href="#SVGID_25_"  style="overflow:visible;"/>
				</clipPath>
				<rect x="6" y="25" class="st11" width="13" height="13"/>
			</g>
		</g>
	</g>
</g>
</svg>
