<?xml version="1.0" encoding="utf-8"?>
<!-- Generator: Adobe Illustrator 19.1.0, SVG Export Plug-In . SVG Version: 6.00 Build 0)  -->
<svg version="1.1" id="Layer_1" xmlns="http://www.w3.org/2000/svg" xmlns:xlink="http://www.w3.org/1999/xlink" x="0px" y="0px"
	 viewBox="0 0 35 35" style="enable-background:new 0 0 35 35;" xml:space="preserve">
<style type="text/css">
	.st0{enable-background:new    ;}
	.st1{clip-path:url(#SVGID_2_);}
	.st2{clip-path:url(#SVGID_4_);}
	.st3{clip-path:url(#SVGID_6_);}
	.st4{clip-path:url(#SVGID_8_);fill-rule:evenodd;clip-rule:evenodd;fill:#FFFFFF;}
	.st5{clip-path:url(#SVGID_10_);}
	.st6{clip-path:url(#SVGID_12_);fill:none;stroke:#0D202E;stroke-width:6;stroke-linecap:round;stroke-miterlimit:10;}
	.st7{clip-path:url(#SVGID_14_);fill:none;stroke:#0D202E;stroke-width:3;stroke-linecap:round;stroke-miterlimit:10;}
</style>
<g class="st0">
	<g>
		<defs>
			<rect id="SVGID_1_" width="35" height="35"/>
		</defs>
		<clipPath id="SVGID_2_">
			<use xlink:href="#SVGID_1_"  style="overflow:visible;"/>
		</clipPath>
		<g class="st1">
			<defs>
				<path id="SVGID_3_" d="M17.5,33.3c-8.7,0-15.7-7-15.7-15.7s7-15.7,15.7-15.7s15.7,7,15.7,15.7S26.2,33.3,17.5,33.3z M17.5,36.3
					c10.3,0,18.7-8.4,18.7-18.7S27.9-1.1,17.5-1.1S-1.2,7.3-1.2,17.6S7.2,36.3,17.5,36.3z M-21.2-21.1h77.4v77.4h-77.4V-21.1z"/>
			</defs>
			<clipPath id="SVGID_4_">
				<use xlink:href="#SVGID_3_"  style="overflow:visible;"/>
			</clipPath>
			<g class="st2">
				<defs>
					<circle id="SVGID_5_" cx="17.5" cy="17.6" r="17.2"/>
				</defs>
				<clipPath id="SVGID_6_">
					<use xlink:href="#SVGID_5_"  style="overflow:visible;"/>
				</clipPath>
				<g class="st3">
					<defs>
						<rect id="SVGID_7_" width="35" height="35"/>
					</defs>
					<clipPath id="SVGID_8_">
						<use xlink:href="#SVGID_7_"  style="overflow:visible;"/>
					</clipPath>
					<circle class="st4" cx="17.5" cy="17.6" r="17.2"/>
				</g>
			</g>
		</g>
		<g class="st1">
			<defs>
				<circle id="SVGID_9_" cx="17.5" cy="17.6" r="17.2"/>
			</defs>
			<clipPath id="SVGID_10_">
				<use xlink:href="#SVGID_9_"  style="overflow:visible;"/>
			</clipPath>
			<g class="st5">
				<defs>
					<rect id="SVGID_11_" width="35" height="35"/>
				</defs>
				<clipPath id="SVGID_12_">
					<use xlink:href="#SVGID_11_"  style="overflow:visible;"/>
				</clipPath>
				<circle class="st6" cx="17.5" cy="17.6" r="17.2"/>
			</g>
		</g>
		<g class="st1">
			<defs>
				<rect id="SVGID_13_" width="35" height="35"/>
			</defs>
			<clipPath id="SVGID_14_">
				<use xlink:href="#SVGID_13_"  style="overflow:visible;"/>
			</clipPath>
			<polyline class="st7" points="17.1,9.8 17.1,19.1 22.2,22.8 			"/>
		</g>
	</g>
</g>
</svg>
