<?xml version="1.0" encoding="utf-8"?>
<!-- Generator: Adobe Illustrator 19.1.0, SVG Export Plug-In . SVG Version: 6.00 Build 0)  -->
<svg version="1.1" id="Layer_1" xmlns="http://www.w3.org/2000/svg" xmlns:xlink="http://www.w3.org/1999/xlink" x="0px" y="0px"
	 viewBox="0 0 40 40" style="enable-background:new 0 0 40 40;" xml:space="preserve">
<style type="text/css">
	.st0{fill:#091F2F;}
</style>
<path class="st0" d="M20,39.3C9.4,39.3,0.7,30.6,0.7,20C0.7,9.4,9.4,0.7,20,0.7S39.3,9.4,39.3,20C39.3,30.6,30.6,39.3,20,39.3z
	 M20,3.7C11,3.7,3.7,11,3.7,20c0,9,7.3,16.3,16.3,16.3S36.3,29,36.3,20C36.3,11,29,3.7,20,3.7z"/>
<g>
	<path class="st0" d="M20.2,26.1l6.6-7.4c0.5-0.6,0.4-1.4-0.1-1.9c-0.6-0.5-1.4-0.4-1.9,0.1l-3.4,3.8V10.3h-2.5v10.2l-3.4-3.9
		c-0.5-0.6-1.4-0.6-1.9-0.1c-0.6,0.5-0.6,1.4-0.1,1.9L20.2,26.1z"/>
	<rect x="12.5" y="27.1" class="st0" width="15" height="2.6"/>
</g>
</svg>
