<svg xmlns="http://www.w3.org/2000/svg" viewBox="0 0 65.83 65.83"><defs><style>.cls-1{fill:none;stroke:#091f2f;stroke-miterlimit:10;stroke-width:3px;}.cls-2{fill:#091f2f;}</style></defs><title>Two Tickets</title><g id="Layer_2" data-name="Layer 2"><g id="Layer_1-2" data-name="Layer 1"><circle class="cls-1" cx="32.92" cy="32.92" r="31.42"/><path class="cls-2" d="M24,48.79l-4.59-7.67.77-.46a2.22,2.22,0,1,0-2.27-3.8l-.77.46-1.25-2.09-5.35,3.2,3.67,6.13a3.12,3.12,0,1,1,3.2,5.35L21,56,52.49,37.2l-2.42-4Z"/><path class="cls-2" d="M17.77,34.94a4,4,0,0,1,4,6.72l2.79,4.67,24.57-14.7,5.35-3.2-2.79-4.67a4,4,0,0,1-4-6.72L44.9,12.37,15,30.27l2.42,4Zm26.75-5-15,8.94-5.22-8.72L24,29.53l16.22-9.7.37.62L44.47,27l1.31,2.19Z"/></g></g></svg>