<svg id="Layer_1" data-name="Layer 1" xmlns="http://www.w3.org/2000/svg" viewBox="0 0 66 66"><title>Untitled-4</title><g style="isolation:isolate"><path d="M31.86,50.16v-3.1a17.48,17.48,0,0,1-10.13-4.55L24.83,39a12.52,12.52,0,0,0,7.24,3.51V34.45c-3.1-.83-5.38-1.65-6.82-2.89a6.73,6.73,0,0,1-2.07-5.38,7.21,7.21,0,0,1,2.48-5.79,11.08,11.08,0,0,1,6.41-2.48V15.84h2.69v2.07A17,17,0,0,1,43.44,21l-2.69,3.72a15.39,15.39,0,0,0-6-2.48v7.86H35c3.1.83,5.58,1.65,7,3.1a7,7,0,0,1,2.27,5.58,7.21,7.21,0,0,1-2.48,5.79A11.29,11.29,0,0,1,35,47.06V50h-3.1ZM29,23.49a3.32,3.32,0,0,0-1,2.27A3.11,3.11,0,0,0,28.76,28a10.4,10.4,0,0,0,3.1,1.65V22.46A4.09,4.09,0,0,0,29,23.49Zm8.68,18A3,3,0,0,0,38.89,39a2.82,2.82,0,0,0-.83-2.27,9.61,9.61,0,0,0-3.31-1.65v7.44A3.87,3.87,0,0,0,37.65,41.48Z" fill="#0d202e"/></g></svg>