<?xml version="1.0" encoding="utf-8"?>
<!-- Generator: Adobe Illustrator 19.1.0, SVG Export Plug-In . SVG Version: 6.00 Build 0)  -->
<svg version="1.1" id="Layer_1" xmlns="http://www.w3.org/2000/svg" xmlns:xlink="http://www.w3.org/1999/xlink" x="0px" y="0px"
	 viewBox="0 0 29 37" style="enable-background:new 0 0 29 37;" xml:space="preserve">
<style type="text/css">
	.st0{enable-background:new    ;}
	.st1{clip-path:url(#SVGID_2_);}
	.st2{clip-path:url(#SVGID_4_);}
	.st3{clip-path:url(#SVGID_6_);}
	.st4{clip-path:url(#SVGID_8_);fill-rule:evenodd;clip-rule:evenodd;fill:#FFFFFF;}
	.st5{clip-path:url(#SVGID_10_);}
	.st6{clip-path:url(#SVGID_12_);fill:none;stroke:#0D202E;stroke-width:6;stroke-linecap:round;stroke-miterlimit:10;}
	.st7{clip-path:url(#SVGID_14_);}
	.st8{clip-path:url(#SVGID_16_);}
	.st9{clip-path:url(#SVGID_18_);fill-rule:evenodd;clip-rule:evenodd;fill:#FFFFFF;}
	.st10{clip-path:url(#SVGID_20_);}
	.st11{clip-path:url(#SVGID_22_);fill:none;stroke:#0D202E;stroke-width:6;stroke-linecap:round;stroke-miterlimit:10;}
</style>
<g class="st0">
	<g>
		<defs>
			<rect id="SVGID_1_" width="29" height="37"/>
		</defs>
		<clipPath id="SVGID_2_">
			<use xlink:href="#SVGID_1_"  style="overflow:visible;"/>
		</clipPath>
		<g class="st1">
			<defs>
				<path id="SVGID_3_" d="M13.4,35.9h2.1c-0.1-0.1-0.3-0.3-0.6-0.6c-0.5-0.5-1-1.1-1.6-1.7c-1.7-1.9-3.4-3.8-4.9-5.8
					c-1.4-1.8-2.7-3.6-3.7-5.3c-2.1-3.3-3.2-6.1-3.2-8.1c0-7.1,5.8-12.9,13-12.9s13,5.8,13,12.9c0,2-1.1,4.7-3.2,8.1
					c-1,1.7-2.3,3.5-3.7,5.3c-1.6,2-3.2,4-4.9,5.8c-0.6,0.6-1.1,1.2-1.6,1.7C13.7,35.6,13.5,35.8,13.4,35.9z M15.6,38.1
					c0.1-0.1,0.3-0.3,0.6-0.7c0.5-0.5,1.1-1.1,1.7-1.8c1.7-1.9,3.4-3.9,5.1-6c1.5-1.9,2.8-3.8,3.9-5.6c2.3-3.8,3.7-7,3.7-9.7
					c0-8.8-7.2-15.9-16-15.9s-16,7.1-16,15.9c0,2.7,1.3,5.9,3.7,9.7c1.1,1.8,2.4,3.6,3.9,5.6c1.6,2.1,3.3,4.1,5.1,6
					c0.6,0.7,1.2,1.3,1.7,1.8c0.3,0.3,0.5,0.5,0.6,0.7l1.1,1.1L15.6,38.1z M-21.5-21.5h72v80.6h-72V-21.5z"/>
			</defs>
			<clipPath id="SVGID_4_">
				<use xlink:href="#SVGID_3_"  style="overflow:visible;"/>
			</clipPath>
			<g class="st2">
				<defs>
					<path id="SVGID_5_" d="M14.5,37c0,0,14.5-14.7,14.5-22.6S22.5,0,14.5,0S0,6.4,0,14.4S14.5,37,14.5,37z"/>
				</defs>
				<clipPath id="SVGID_6_">
					<use xlink:href="#SVGID_5_"  style="overflow:visible;"/>
				</clipPath>
				<g class="st3">
					<defs>
						<rect id="SVGID_7_" width="29" height="37"/>
					</defs>
					<clipPath id="SVGID_8_">
						<use xlink:href="#SVGID_7_"  style="overflow:visible;"/>
					</clipPath>
					<path class="st4" d="M14.5,37c0,0,14.5-14.7,14.5-22.6S22.5,0,14.5,0S0,6.4,0,14.4S14.5,37,14.5,37z"/>
				</g>
			</g>
		</g>
		<g class="st1">
			<defs>
				<path id="SVGID_9_" d="M14.5,37c0,0,14.5-14.7,14.5-22.6S22.5,0,14.5,0S0,6.4,0,14.4S14.5,37,14.5,37z"/>
			</defs>
			<clipPath id="SVGID_10_">
				<use xlink:href="#SVGID_9_"  style="overflow:visible;"/>
			</clipPath>
			<g class="st5">
				<defs>
					<rect id="SVGID_11_" width="29" height="37"/>
				</defs>
				<clipPath id="SVGID_12_">
					<use xlink:href="#SVGID_11_"  style="overflow:visible;"/>
				</clipPath>
				<path class="st6" d="M14.5,37c0,0,14.5-14.7,14.5-22.6S22.5,0,14.5,0S0,6.4,0,14.4S14.5,37,14.5,37z"/>
			</g>
		</g>
		<g class="st1">
			<defs>
				<path id="SVGID_13_" d="M14.5,18.5c-2.4,0-4.4-1.9-4.4-4.3c0-2.4,2-4.3,4.4-4.3s4.4,1.9,4.4,4.3C18.9,16.6,16.9,18.5,14.5,18.5z
					 M14.5,21.5c4.1,0,7.4-3.3,7.4-7.3S18.6,7,14.5,7s-7.4,3.3-7.4,7.3S10.4,21.5,14.5,21.5z M-12.9-13h54.8v54.6h-54.8V-13z"/>
			</defs>
			<clipPath id="SVGID_14_">
				<use xlink:href="#SVGID_13_"  style="overflow:visible;"/>
			</clipPath>
			<g class="st7">
				<defs>
					<ellipse id="SVGID_15_" cx="14.5" cy="14.3" rx="5.9" ry="5.8"/>
				</defs>
				<clipPath id="SVGID_16_">
					<use xlink:href="#SVGID_15_"  style="overflow:visible;"/>
				</clipPath>
				<g class="st8">
					<defs>
						<rect id="SVGID_17_" width="29" height="37"/>
					</defs>
					<clipPath id="SVGID_18_">
						<use xlink:href="#SVGID_17_"  style="overflow:visible;"/>
					</clipPath>
					<ellipse class="st9" cx="14.5" cy="14.3" rx="5.9" ry="5.8"/>
				</g>
			</g>
		</g>
		<g class="st1">
			<defs>
				<ellipse id="SVGID_19_" cx="14.5" cy="14.3" rx="5.9" ry="5.8"/>
			</defs>
			<clipPath id="SVGID_20_">
				<use xlink:href="#SVGID_19_"  style="overflow:visible;"/>
			</clipPath>
			<g class="st10">
				<defs>
					<rect id="SVGID_21_" width="29" height="37"/>
				</defs>
				<clipPath id="SVGID_22_">
					<use xlink:href="#SVGID_21_"  style="overflow:visible;"/>
				</clipPath>
				<ellipse class="st11" cx="14.5" cy="14.3" rx="5.9" ry="5.8"/>
			</g>
		</g>
	</g>
</g>
</svg>
