<svg id="Layer_1" data-name="Layer 1" xmlns="http://www.w3.org/2000/svg" xmlns:xlink="http://www.w3.org/1999/xlink" viewBox="0 0 66 66"><defs><clipPath id="clip-path"><rect x="20.5" y="14.5" width="25" height="37" fill="none"/></clipPath><clipPath id="clip-path-2"><path d="M20.5,13H19V53H47V13Zm0,3h25L44,14.5v37L45.5,50h-25L22,51.5v-37ZM-1-7H67V73H-1Z" fill="none"/></clipPath><clipPath id="clip-path-7"><path d="M24.5,17H23V45H43V17ZM3-3H63V65H3Z" fill="none"/></clipPath><clipPath id="clip-path-9"><rect x="24.5" y="18.5" width="17" height="25" fill="none"/></clipPath><clipPath id="clip-path-12"><circle cx="33" cy="46" r="1.5" fill="none"/></clipPath></defs><title>Untitled-4</title><g clip-path="url(#clip-path)"><g clip-path="url(#clip-path)"><g clip-path="url(#clip-path)"><g clip-path="url(#clip-path)"><path d="M20.5,14.5h25v37h-25Z" fill="none" stroke="#10212e" stroke-linecap="round" stroke-miterlimit="10" stroke-width="6"/></g></g><g clip-path="url(#clip-path)"><g clip-path="url(#clip-path)"><g clip-path="url(#clip-path-9)"><g clip-path="url(#clip-path)"><path d="M24.5,18.5h17v25h-17Z" fill="none" stroke="#10212e" stroke-linecap="round" stroke-miterlimit="10" stroke-width="6"/></g></g><g clip-path="url(#clip-path)"><g style="isolation:isolate"><g clip-path="url(#clip-path-12)"><g clip-path="url(#clip-path)"><path d="M26.5,39.5h13v13h-13Z" fill="#10212e"/></g></g></g></g></g></g></g></g></svg>