<svg width="565" height="564" viewBox="0 0 565 564" xmlns="http://www.w3.org/2000/svg"><title>Toggle</title><g fill="#091F2E" class="icon-fill" fill-rule="evenodd"><path d="M283.7 506.7c-60 0-116.5-23.4-158.9-65.8C82.3 398.4 58.9 342 58.9 282s23.4-116.5 65.8-158.9c42.4-42.4 98.9-65.8 158.9-65.8s116.5 23.4 158.9 65.8C485 165.5 508.4 222 508.4 282S485 398.4 442.6 440.9c-42.5 42.4-98.9 65.8-158.9 65.8zm0-379.4C198.4 127.3 129 196.7 129 282c0 85.3 69.4 154.7 154.7 154.7 85.3 0 154.7-69.4 154.7-154.7 0-85.3-69.4-154.7-154.7-154.7z"/><path d="M280.4 222.4c35.2-1.1 64 27.6 62.8 62.8-1 31.9-27 57.8-58.8 58.8-35.2 1.1-64-27.6-62.8-62.8 1-31.8 27-57.8 58.8-58.8zM243.5.8h73v121.7h-73zM243.5 441.5h73v121.7h-73zM443.1 244.3h121.7v73H443.1zM0 244.3h121.7v73H0zM43.53 100.034l51.62-51.62 86.053 86.056-51.618 51.618zM365.276 425.64l51.62-51.62 86.053 86.055-51.62 51.618zM460.513 48.657l51.618 51.618-86.053 86.054-51.618-51.62zM130.01 377.483l51.62 51.618-86.055 86.055-51.618-51.618z"/></g></svg>
