<?xml version="1.0" encoding="utf-8"?>
<!-- Generator: Adobe Illustrator 19.1.0, SVG Export Plug-In . SVG Version: 6.00 Build 0)  -->
<svg version="1.1" id="Layer_1" xmlns="http://www.w3.org/2000/svg" xmlns:xlink="http://www.w3.org/1999/xlink" x="0px" y="0px"
	 viewBox="0 0 19 25" style="enable-background:new 0 0 19 25;" xml:space="preserve">
<style type="text/css">
	.st0{enable-background:new    ;}
	.st1{clip-path:url(#SVGID_2_);}
	.st2{clip-path:url(#SVGID_4_);}
	.st3{clip-path:url(#SVGID_6_);fill-rule:evenodd;clip-rule:evenodd;fill:#FFFFFF;}
	.st4{clip-path:url(#SVGID_8_);}
	.st5{clip-path:url(#SVGID_10_);fill:none;stroke:#0D202E;stroke-width:4;stroke-linecap:round;stroke-miterlimit:10;}
	.st6{fill:none;stroke:#0D202E;stroke-width:2;stroke-miterlimit:10;}
</style>
<g class="st0">
	<g>
		<defs>
			<path id="SVGID_1_" d="M1,1h11.6L18,6.4L18,24L1,24L1,1z"/>
		</defs>
		<clipPath id="SVGID_2_">
			<use xlink:href="#SVGID_1_"  style="overflow:visible;"/>
		</clipPath>
		<g class="st1">
			<defs>
				<polygon id="SVGID_3_" points="0,0 13,0 19,6 19,25 0,25 				"/>
			</defs>
			<clipPath id="SVGID_4_">
				<use xlink:href="#SVGID_3_"  style="overflow:visible;"/>
			</clipPath>
			<g class="st2">
				<defs>
					<rect id="SVGID_5_" x="-0.4" width="20" height="25"/>
				</defs>
				<clipPath id="SVGID_6_">
					<use xlink:href="#SVGID_5_"  style="overflow:visible;"/>
				</clipPath>
				<polygon class="st3" points="0,0 13,0 19,6 19,25 0,25 				"/>
			</g>
		</g>
	</g>
	<g>
		<defs>
			<polygon id="SVGID_7_" points="0,0 13,0 19,6 19,25 0,25 			"/>
		</defs>
		<clipPath id="SVGID_8_">
			<use xlink:href="#SVGID_7_"  style="overflow:visible;"/>
		</clipPath>
		<g class="st4">
			<defs>
				<rect id="SVGID_9_" x="-0.4" width="20" height="25"/>
			</defs>
			<clipPath id="SVGID_10_">
				<use xlink:href="#SVGID_9_"  style="overflow:visible;"/>
			</clipPath>
			<polygon class="st5" points="0,0 13,0 19,6 19,25 0,25 			"/>
		</g>
	</g>
	<g>
		<polyline class="st6" points="11,1 11,8.1 17.6,8.1 		"/>
	</g>
</g>
</svg>
