<svg id="Layer_1" data-name="Layer 1" xmlns="http://www.w3.org/2000/svg" viewBox="0 0 66 66"><title>Untitled-4</title><path d="M24.46,47.59l-4.59-7.67.77-.46a2.22,2.22,0,1,0-2.27-3.8l-.77.46L16.34,34,11,37.23l3.67,6.13a3.12,3.12,0,1,1,3.2,5.35l3.67,6.13L53,36l-2.42-4Z" fill="#0d202e"/><path d="M18.27,33.74a4,4,0,0,1,4,6.72l2.79,4.67,24.57-14.7L55,27.22l-2.79-4.67a4,4,0,0,1-4-6.72L45.4,11.17,15.47,29.07l2.42,4Zm26.75-5-15,8.94-5.22-8.72-.37-.62,16.22-9.7.37.62L45,25.77,46.29,28Z" fill="#0d202e"/></svg>