<?xml version="1.0" encoding="utf-8"?>
<!-- Generator: Adobe Illustrator 19.1.0, SVG Export Plug-In . SVG Version: 6.00 Build 0)  -->
<svg version="1.1" id="Layer_2" xmlns="http://www.w3.org/2000/svg" xmlns:xlink="http://www.w3.org/1999/xlink" x="0px" y="0px"
	 viewBox="0 0 40 41" style="enable-background:new 0 0 40 41;" xml:space="preserve">
<style type="text/css">
	.st0{fill:#000000;}
</style>
<path class="st0" d="M24.2,0.6c-8.4,0-15.2,6.8-15.2,15.2c0,3.7,1.4,7.2,3.6,9.8L1.2,37c-0.8,0.8-0.8,2,0,2.8
	c0.4,0.4,0.9,0.6,1.4,0.6s1-0.2,1.4-0.6l11.5-11.5c2.5,1.7,5.5,2.7,8.7,2.7c8.4,0,15.2-6.8,15.2-15.2C39.4,7.4,32.6,0.6,24.2,0.6z
	 M24.2,27.1c-6.2,0-11.2-5-11.2-11.2S18,4.6,24.2,4.6s11.2,5,11.2,11.2S30.4,27.1,24.2,27.1z"/>
</svg>
