<?xml version="1.0" encoding="UTF-8" standalone="no"?>
<svg class="seal" width="720px" height="720px" viewBox="0 0 720 720" version="1.1" xmlns="http://www.w3.org/2000/svg" xmlns:xlink="http://www.w3.org/1999/xlink">
    <title>Official Seal of the City of Boston</title>
    <defs></defs>
    <g id="Page-1" stroke="none" stroke-width="1" fill="none" fill-rule="evenodd">
        <g class="seal__paths" id="COB_Digital_Seal-01" fill="#1A1918">
            <path d="M359.701,704.073 C267.715,704.073 181.236,668.254 116.192,603.21 C51.151,538.163 15.328,451.683 15.328,359.701 C15.328,267.716 51.147,181.239 116.192,116.195 C181.236,51.151 267.715,15.331 359.701,15.331 C451.689,15.331 538.166,51.151 603.207,116.195 C668.251,181.236 704.07,267.712 704.07,359.701 C704.07,451.686 668.251,538.166 603.207,603.21 C538.166,668.254 451.689,704.073 359.701,704.073 L359.701,704.073 Z M614.045,105.357 C546.109,37.417 455.779,0 359.701,0 C263.622,0 173.293,37.417 105.354,105.357 C37.414,173.293 0,263.622 0,359.701 C0,455.783 37.414,546.112 105.354,614.048 C173.29,681.988 263.619,719.402 359.701,719.402 C455.782,719.402 546.112,681.988 614.045,614.048 C681.984,546.109 719.402,455.779 719.402,359.701 C719.402,263.626 681.984,173.296 614.045,105.357 L614.045,105.357 Z" id="Fill-1"></path>
            <path d="M48.96,300.579 C49.671,300.736 50.366,300.819 51.023,300.819 C55.951,300.819 58.322,296.607 60.416,292.889 C62.427,289.321 64.346,286.032 67.991,286.948 C70.815,287.579 71.994,290.884 70.995,295.365 C70.322,298.394 68.32,301.286 65.899,302.734 L64.583,303.522 L66.633,306.773 L67.901,305.985 C71.181,303.935 73.861,300.092 74.732,296.194 C75.443,293.017 75.302,290.128 74.326,287.835 C73.275,285.379 71.376,283.78 68.833,283.217 C68.061,283.044 67.321,282.954 66.626,282.954 C61.614,282.954 59.218,287.207 57.108,290.958 C54.872,294.926 53.05,297.581 49.796,296.841 C47.339,296.29 46.35,293.267 47.272,289.135 C47.785,286.842 49.002,284.482 50.376,283.127 L51.464,282.064 L48.758,279.415 L47.714,280.453 C45.824,282.31 44.188,285.391 43.538,288.299 C42.106,294.702 44.233,299.519 48.96,300.579" id="Fill-2"></path>
            <path d="M81.535,270.787 L50.798,261.307 L49.668,264.968 L80.391,274.438 L81.535,270.787" id="Fill-3"></path>
            <path d="M69.457,255.142 C71.328,255.904 73.307,256.291 75.341,256.291 C81.938,256.291 88.062,252.134 90.576,245.947 C92.104,242.196 92.21,238.007 90.874,234.148 L90.336,232.569 L86.88,234.193 L87.329,235.471 C88.353,238.379 88.261,241.594 87.072,244.518 C85.128,249.303 80.423,252.515 75.366,252.515 C73.839,252.515 72.333,252.221 70.886,251.638 C67.859,250.405 65.508,248.025 64.259,244.938 C63.007,241.831 63.02,238.395 64.295,235.262 C65.492,232.309 67.658,229.936 70.389,228.581 L71.642,227.954 L70.184,224.482 L68.753,225.203 C65.147,227.006 62.315,230.071 60.788,233.834 C57.37,242.248 61.258,251.808 69.457,255.142" id="Fill-4"></path>
            <path d="M94.628,222.644 C99.025,222.644 102.705,220.206 105.27,215.594 C107.211,212.1 107.746,208.603 106.814,205.483 C105.885,202.367 103.509,199.674 99.944,197.694 L83.498,188.554 L81.634,191.888 L98.083,201.035 C100.777,202.534 102.474,204.395 103.128,206.569 C103.775,208.725 103.371,211.136 101.93,213.73 C99.092,218.848 94.391,220.104 89.119,217.18 L72.667,208.033 L70.812,211.386 L87.258,220.517 C89.791,221.926 92.27,222.644 94.628,222.644" id="Fill-5"></path>
            <path d="M98.307,173.325 L121.031,189.409 L121.431,189.694 L123.647,186.578 L100.517,170.199 L106.305,162.026 L103.182,159.819 L89.401,179.282 L92.523,181.498 L98.307,173.325" id="Fill-6"></path>
            <path d="M129.124,135.51 L134.437,130.13 C138.367,126.142 142.457,125.662 145.708,128.871 C147.245,130.383 148.03,132.029 148.039,133.762 C148.052,135.853 146.915,138.117 144.753,140.305 L139.443,145.695 L129.124,135.51 L129.124,135.51 Z M146.611,158.134 L149.295,155.406 L142.166,148.379 L147.479,142.995 C153.032,137.358 153.375,131.065 148.398,126.155 C146.243,124.025 143.7,122.901 141.045,122.901 C137.877,122.901 134.649,124.471 131.712,127.44 L123.718,135.549 L146.259,157.789 L146.611,158.134 L146.611,158.134 Z" id="Fill-7"></path>
            <path d="M174.18,115.654 L164.655,123.398 L160.918,109.171 L174.18,115.654 L174.18,115.654 Z M168.194,136.913 L165.725,127.465 L177.962,117.511 L186.456,121.684 L186.741,121.822 L190.04,119.132 L158.186,103.595 L155.992,105.382 L164.863,139.62 L168.194,136.913 L168.194,136.913 Z" id="Fill-8"></path>
            <path d="M182.895,90.109 L198.575,113.709 L201.765,111.592 L186.085,87.988 L194.418,82.448 L192.314,79.255 L172.438,92.456 L174.548,95.649 L182.895,90.109" id="Fill-9"></path>
            <path d="M207.565,74.985 L214.278,71.498 C219.297,68.887 223.255,69.685 225.385,73.781 C226.474,75.879 226.653,77.849 225.917,79.639 C225.167,81.455 223.495,83.047 220.953,84.369 L214.243,87.847 L207.565,74.985 L207.565,74.985 Z M220.619,100.14 L216.004,91.246 L222.717,87.758 C223.351,87.425 223.921,87.082 224.411,86.775 L235.615,92.341 L239.836,90.16 L227.608,84.087 C230.57,80.667 231.006,76.305 228.78,72.02 C226.82,68.237 223.572,66.152 219.639,66.152 C217.398,66.152 215.002,66.809 212.51,68.106 L202.409,73.358 L217.218,101.882 L220.619,100.14 L220.619,100.14 Z" id="Fill-10"></path>
            <path d="M252.813,84.978 L240.668,55.202 L237.12,56.637 L249.274,86.419 L252.813,84.978" id="Fill-11"></path>
            <path d="M267.651,75.376 L264.49,64.945 L273.477,62.222 C275.002,61.758 276.392,61.524 277.609,61.524 C280.376,61.524 282.134,62.697 282.836,65.009 C284.155,69.374 280.196,71.574 276.641,72.651 L267.651,75.376 L267.651,75.376 Z M260.538,51.929 L269.528,49.203 C270.659,48.858 271.706,48.685 272.632,48.685 C275.011,48.685 276.555,49.793 277.221,51.983 C277.673,53.469 277.525,54.77 276.786,55.846 C275.985,57.008 274.46,57.96 272.375,58.594 L263.389,61.319 L260.538,51.929 L260.538,51.929 Z M265.102,80.155 L277.753,76.311 C281.225,75.261 283.764,73.666 285.302,71.578 C286.916,69.387 287.319,66.751 286.467,63.946 C285.487,60.711 283.143,58.555 279.972,57.934 C281.353,55.961 281.676,53.482 280.882,50.862 C279.726,47.048 276.731,44.861 272.664,44.861 C271.338,44.861 269.909,45.088 268.417,45.54 L255.763,49.38 L264.958,79.684 L265.102,80.155 L265.102,80.155 Z" id="Fill-12"></path>
            <path d="M308.646,68.753 C309.585,68.753 310.574,68.663 311.583,68.487 C315.548,67.824 318.62,66.066 320.464,63.404 C322.335,60.714 322.934,57.268 322.242,53.168 L319.202,35.102 L319.122,34.615 L315.35,35.249 L318.472,53.806 C318.981,56.842 318.584,59.327 317.294,61.191 C316.013,63.042 313.876,64.231 310.952,64.721 C305.053,65.649 301.274,62.873 300.268,56.868 L297.232,38.785 L297.152,38.295 L293.376,38.955 L296.498,57.492 C297.696,64.647 302.126,68.753 308.646,68.753" id="Fill-13"></path>
            <path d="M344.293,61.076 L343.995,61.082 C340.872,61.082 337.74,59.945 335.821,58.117 L334.716,57.053 L332.122,59.891 L333.221,60.903 C335.901,63.379 339.946,64.916 343.783,64.916 C344.017,64.916 344.245,64.91 344.469,64.894 C351.377,64.56 355.675,60.977 355.422,55.772 C355.147,49.075 349.436,47.657 344.85,46.52 C339.796,45.251 337.394,44.294 337.234,41.017 C337.189,40.13 337.471,39.345 338.079,38.679 C339.203,37.437 341.308,36.678 343.985,36.549 L344.267,36.546 C346.637,36.546 349.125,37.094 350.605,37.946 L351.918,38.705 L353.766,35.409 L352.488,34.669 C350.198,33.344 346.762,32.569 343.809,32.732 C337.359,33.043 333.179,36.453 333.41,41.219 C333.73,47.692 339.344,49.091 343.857,50.219 C349.01,51.503 351.454,52.486 351.598,55.948 C351.665,57.316 351.111,58.463 349.945,59.353 C348.639,60.362 346.679,60.957 344.293,61.076" id="Fill-14"></path>
            <path d="M392.769,66.418 C393.557,66.505 394.303,66.549 394.995,66.549 C400.683,66.549 404.549,63.744 405.077,59.231 C405.916,52.589 400.52,50.241 396.186,48.355 C391.408,46.267 389.198,44.928 389.585,41.674 C389.835,39.554 391.984,38.289 395.328,38.289 C395.863,38.289 396.423,38.321 396.997,38.388 C399.325,38.657 401.794,39.627 403.283,40.857 L404.462,41.831 L406.806,38.865 L405.682,37.939 C403.636,36.248 400.404,34.932 397.445,34.58 C396.715,34.497 395.994,34.452 395.305,34.452 C389.925,34.452 386.277,37.046 385.784,41.225 C385.025,47.663 390.325,49.975 394.598,51.839 C399.466,53.963 401.714,55.34 401.279,58.767 C400.987,61.249 398.649,62.729 395.024,62.729 C394.447,62.732 393.839,62.69 393.214,62.613 C390.127,62.251 387.046,60.557 385.364,58.293 L384.448,57.066 L381.422,59.436 L382.334,60.615 C384.701,63.673 388.798,65.95 392.769,66.418" id="Fill-15"></path>
            <path d="M424.992,39.592 L425.088,39.112 L421.34,38.33 L415.041,69.361 L414.945,69.842 L418.695,70.626 L424.992,39.592" id="Fill-16"></path>
            <path d="M436.701,75.011 L440.384,76.055 L448.166,48.806 L457.797,51.557 L458.844,47.871 L435.903,41.322 L434.849,44.992 L444.483,47.75 L436.701,75.011" id="Fill-17"></path>
            <path d="M498.853,68.538 C501.87,70.021 504.144,72.57 505.258,75.716 C506.366,78.851 506.184,82.188 504.739,85.116 C502.699,89.266 498.462,91.841 493.69,91.841 C491.711,91.841 489.805,91.396 488.031,90.519 L479.825,86.477 L490.65,64.503 L498.853,68.538 L498.853,68.538 Z M493.693,95.669 C499.935,95.669 505.482,92.271 508.176,86.807 C512.09,78.841 508.666,69.105 500.544,65.099 L488.908,59.372 L474.704,88.225 L486.336,93.952 C488.655,95.089 491.128,95.669 493.693,95.669 L493.693,95.669 Z" id="Fill-18"></path>
            <path d="M509.278,106.366 L527.11,118.059 L527.52,118.331 L529.618,115.128 L514.575,105.274 L520.484,96.258 L533.019,104.463 L533.429,104.729 L535.53,101.542 L522.578,93.055 L528.007,84.776 L542.557,94.301 L544.661,91.114 L527.312,79.741 L526.902,79.469 L509.55,105.956 L509.278,106.366" id="Fill-19"></path>
            <path d="M540.168,123.529 C540.411,126.757 542.163,129.832 545.238,132.423 C548.021,134.755 550.913,135.936 553.84,135.936 C557.437,135.936 560.886,134.092 563.823,130.604 L575.926,116.201 L572.996,113.748 L560.889,128.141 C557.011,132.753 552.165,133.256 547.704,129.489 C545.42,127.574 544.181,125.463 544.021,123.215 C543.857,120.964 544.78,118.626 546.762,116.268 L558.551,102.244 L558.865,101.866 L555.941,99.412 L543.835,113.802 C541.161,116.983 539.928,120.256 540.168,123.529" id="Fill-20"></path>
            <path d="M580.778,154.695 C578.703,156.674 575.202,155.739 572.118,152.478 C569.982,150.224 568.707,146.944 568.864,144.129 L568.951,142.582 L565.104,142.496 L565.053,143.966 C564.909,147.822 566.593,152.197 569.338,155.111 C572.083,158.013 575.199,159.611 578.117,159.611 C580.106,159.611 581.931,158.874 583.395,157.484 C588.298,152.924 585.662,147.665 583.542,143.437 C581.214,138.777 580.378,136.337 582.761,134.079 C584.551,132.385 587.751,133.323 590.566,136.311 C592.174,138.005 593.442,140.331 593.797,142.236 L594.079,143.738 L597.775,142.976 L597.509,141.535 C597.026,138.928 595.386,135.844 593.339,133.682 C590.752,130.937 587.76,129.425 584.913,129.425 C583.087,129.425 581.432,130.072 580.131,131.296 C575.42,135.757 578.008,140.933 580.09,145.093 C582.463,149.849 583.305,152.344 580.778,154.695" id="Fill-21"></path>
            <path d="M595.347,186.085 L597.445,189.284 L618.535,175.448 L607.764,203.882 L607.489,204.596 L609.42,207.53 L635.891,190.155 L636.304,189.886 L634.206,186.687 L613.119,200.522 L623.884,172.089 L624.159,171.374 L622.231,168.441 L595.761,185.816 L595.347,186.085" id="Fill-22"></path>
            <path d="M647.049,218.288 C650.082,224.568 647.613,232.069 641.544,235.009 C639.929,235.784 638.193,236.178 636.39,236.178 C631.583,236.178 627.106,233.344 624.985,228.956 C621.952,222.676 624.438,215.169 630.533,212.222 C632.137,211.447 633.867,211.053 635.667,211.053 C640.461,211.053 644.929,213.891 647.049,218.288 L647.049,218.288 Z M628.864,208.785 C625.014,210.646 622.129,213.958 620.739,218.105 C619.355,222.24 619.637,226.682 621.539,230.618 C624.297,236.322 630.126,240.009 636.39,240.009 C638.773,240.009 641.063,239.484 643.206,238.446 C651.174,234.593 654.444,224.805 650.495,216.626 C647.738,210.915 641.915,207.223 635.667,207.223 C633.29,207.223 631,207.748 628.864,208.785 L628.864,208.785 Z" id="Fill-23"></path>
            <path d="M660.135,249.105 L663.13,258.008 C663.514,259.142 663.918,260.817 663.665,262.345 C663.386,264.055 662.377,265.179 660.59,265.781 C659.985,265.986 659.399,266.089 658.851,266.089 C656.077,266.089 654.588,263.395 653.826,261.137 L650.831,252.234 L660.135,249.105 L660.135,249.105 Z M647.725,271.783 C644.394,272.926 641.56,270.739 639.904,265.823 L636.912,256.919 L647.241,253.444 L650.239,262.348 C651.209,265.227 652.17,270.284 647.725,271.783 L647.725,271.783 Z M636.278,267.04 C638.2,272.753 641.601,275.902 645.858,275.902 C646.847,275.902 647.869,275.726 648.897,275.386 C652.157,274.284 654.197,271.934 654.716,268.715 C656.702,270.009 659.235,270.268 661.81,269.41 C664.388,268.535 666.198,266.873 667.044,264.606 C667.863,262.412 667.764,259.779 666.759,256.785 L662.544,244.256 L632.063,254.508 L636.278,267.04 L636.278,267.04 Z" id="Fill-24"></path>
            <path d="M642.594,288.95 L643.475,292.678 L673.302,285.519 L674.756,285.177 L673.872,281.455 L643.071,288.837 L642.594,288.95" id="Fill-25"></path>
            <path d="M669.91,299.839 C663.508,300.857 662.717,306.59 662.079,311.199 C661.352,316.464 660.638,319.001 657.221,319.51 C654.377,319.997 652.045,317.313 651.334,312.791 C650.847,309.722 651.645,306.296 653.365,304.066 L654.303,302.846 L651.19,300.582 L650.313,301.773 C648.013,304.877 646.93,309.434 647.552,313.39 C648.532,319.561 651.975,323.398 656.535,323.398 C656.965,323.398 657.397,323.36 657.807,323.292 C664.421,322.296 665.221,316.467 665.865,311.785 C666.582,306.622 667.271,304.134 670.509,303.624 C672.953,303.208 675.022,305.7 675.685,309.867 C676.05,312.179 675.784,314.818 675.006,316.589 L674.397,317.982 L677.872,319.456 L678.464,318.104 C679.537,315.676 679.928,312.208 679.461,309.268 C678.532,303.394 675.329,299.743 671.101,299.743 C670.711,299.743 670.307,299.775 669.91,299.839" id="Fill-26"></path>
            <path d="M41.427,363.067 L44.031,360.351 L43.166,359.342 C41.209,357.03 40.162,354.055 40.223,350.97 C40.351,344.251 45.873,338.784 52.521,338.784 C55.711,338.838 58.699,340.187 60.932,342.579 C63.171,344.978 64.368,348.123 64.301,351.438 C64.24,354.557 63.094,357.488 61.076,359.685 L60.134,360.713 L62.719,363.374 L63.773,362.215 C66.44,359.291 67.952,355.489 68.029,351.508 C68.202,342.602 61.281,335.216 52.585,335.043 L52.304,335.043 C43.752,335.043 36.662,342.156 36.495,350.9 C36.418,354.865 37.792,358.737 40.37,361.808 L41.427,363.067" id="Fill-27"></path>
            <path d="M68.727,376.211 L68.506,372.448 L37.504,374.382 L37.014,374.411 L37.251,378.174 L68.24,376.24 L68.727,376.211" id="Fill-28"></path>
            <path d="M72.436,408.113 L45.965,401.301 L69.525,387.42 L68.961,383.321 L39.554,400.75 L39.947,403.597 L73.009,412.258 L72.436,408.113" id="Fill-29"></path>
            <path d="M74.777,419.137 L44.444,425.847 L43.961,425.952 L44.793,429.629 L75.587,422.82 L74.777,419.137" id="Fill-30"></path>
            <path d="M80.347,454.21 L83.956,453.118 L77.266,430.705 L73.656,431.772 L76.462,441.185 L49.841,449.127 L50.92,452.734 L77.538,444.797 L80.347,454.21" id="Fill-31"></path>
            <path d="M84.03,469.817 L74.124,480.319 L69.659,469.173 L84.03,469.817 L84.03,469.817 Z M89.042,466.287 L55.148,464.667 L54.385,464.628 L55.955,468.555 L65.521,468.997 L71.27,483.329 L64.669,490.292 L66.239,494.18 L90.076,468.885 L89.042,466.287 L89.042,466.287 Z" id="Fill-32"></path>
            <path d="M102.852,504.646 L106.215,502.939 L95.79,482.541 L95.566,482.106 L92.203,483.813 L96.674,492.556 L72.382,504.976 L71.946,505.201 L73.656,508.563 L98.388,495.919 L102.852,504.646" id="Fill-33"></path>
            <path d="M112.383,512.986 L110.433,509.761 L83.87,525.858 L83.45,526.111 L85.401,529.336 L111.964,513.239 L112.383,512.986" id="Fill-34"></path>
            <path d="M127.158,538.874 C127.033,536.273 125.851,533.061 124.15,530.688 C121.716,527.286 118.587,525.339 115.57,525.339 C114.135,525.339 112.809,525.772 111.624,526.62 C106.452,530.323 108.281,535.7 109.751,540.021 C111.423,544.946 111.909,547.48 109.146,549.424 C106.881,551.067 103.595,549.683 101.049,546.131 C99.278,543.652 98.474,540.302 98.999,537.593 L99.281,536.113 L95.55,535.479 L95.297,536.93 C94.647,540.671 95.704,545.142 97.984,548.316 C100.572,551.935 103.759,553.93 106.958,553.93 C108.537,553.93 110.01,553.446 111.333,552.498 C116.701,548.709 114.837,543.252 113.341,538.868 C111.701,534.038 111.215,531.556 113.818,529.689 C115.814,528.292 118.741,529.612 121.085,532.872 C122.421,534.742 123.346,537.177 123.442,539.069 L123.519,540.568 L127.225,540.315 L127.158,538.874" id="Fill-35"></path>
            <path d="M154.544,581.874 C151.252,585.172 147.261,584.769 143.357,580.881 L138.117,575.664 L148.129,565.604 L153.369,570.831 C156.155,573.604 158.621,577.771 154.544,581.874 L154.544,581.874 Z M156.03,568.153 L148.119,560.275 L126.206,582.28 L125.861,582.63 L128.535,585.281 L135.459,578.325 L140.699,583.552 C141.154,584.003 141.605,584.404 142.124,584.843 L140.247,596.968 L143.565,600.251 L145.605,587.043 C146.95,587.623 148.318,587.914 149.686,587.914 C152.408,587.914 155.015,586.745 157.218,584.529 C161.965,579.76 161.523,573.636 156.03,568.153 L156.03,568.153 Z" id="Fill-36"></path>
            <path d="M173.511,589.205 L186.844,599.831 L189.201,596.885 L172.912,583.901 L153.253,608.562 L169.991,621.904 L172.335,618.948 L158.554,607.973 L165.126,599.722 L176.995,609.183 L179.34,606.227 L167.477,596.782 L173.511,589.205" id="Fill-37"></path>
            <path d="M215.514,618.83 C214.371,615.025 211.886,611.774 208.516,609.677 C205.906,608.043 202.908,607.178 199.847,607.178 C194.322,607.178 189.319,609.904 186.469,614.471 C184.233,618.039 183.558,622.292 184.566,626.446 C185.572,630.593 188.137,634.136 191.789,636.419 C194.389,638.043 197.403,638.905 200.503,638.905 C201.4,638.905 202.287,638.834 203.136,638.7 L203.796,638.594 L210.403,628.025 L207.206,626.023 L201.506,635.145 C198.809,635.359 196.061,634.699 193.765,633.261 C190.956,631.503 188.98,628.774 188.202,625.578 C187.423,622.398 187.929,619.15 189.627,616.441 C191.801,612.969 195.616,610.9 199.831,610.9 C202.191,610.9 204.513,611.569 206.54,612.834 C209.183,614.49 211.107,616.979 211.959,619.842 L212.353,621.168 L215.972,620.338 L215.514,618.83" id="Fill-38"></path>
            <path d="M228.633,621.043 L214.384,649.195 L217.743,650.911 L231.992,622.76 L228.633,621.043" id="Fill-39"></path>
            <path d="M249.124,654.178 L246.561,629.732 L242.997,628.374 L231.698,657.813 L235.211,659.175 L243.516,637.55 L245.793,659.05 L245.991,659.914 L247.625,660.59 L264.321,645.541 L256.054,667.181 L259.574,668.517 L270.877,639.071 L267.315,637.703 L249.124,654.178" id="Fill-40"></path>
            <path d="M274.717,672.264 L274.585,672.741 L278.227,673.712 L286.474,643.26 L282.839,642.28 L274.717,672.264" id="Fill-41"></path>
            <path d="M315.433,674.416 L301.937,647.027 L298.532,646.447 L293.2,677.542 L296.915,678.167 L301.091,653.816 L314.587,681.206 L317.989,681.786 L323.324,650.691 L319.606,650.066 L315.433,674.416" id="Fill-42"></path>
            <path d="M333.829,683.358 L355.195,684.444 L355.39,680.681 L337.788,679.778 L338.329,669.244 L353.481,670.019 L353.67,666.249 L338.521,665.474 L339.018,655.799 L356.047,656.676 L356.235,652.907 L335.443,651.847 L333.829,683.358" id="Fill-43"></path>
            <path d="M391.248,679.047 L388.179,655.242 L397.057,654.092 C397.595,654.025 398.143,653.989 398.684,653.989 C404.84,653.989 410.067,658.483 410.839,664.443 C411.681,670.993 406.874,677.033 400.126,677.907 L391.248,679.047 L391.248,679.047 Z M398.707,650.217 C397.999,650.217 397.282,650.265 396.574,650.357 L383.958,651.981 L387.93,682.782 L387.99,683.269 L400.603,681.635 C404.853,681.094 408.648,678.955 411.293,675.611 C413.949,672.264 415.114,668.126 414.576,663.956 C413.571,656.126 406.746,650.217 398.707,650.217 L398.707,650.217 Z" id="Fill-44"></path>
            <path d="M440.842,669.891 C439.762,670.176 438.67,670.317 437.597,670.317 C432.028,670.317 427.166,666.679 425.773,661.464 C424.956,658.403 425.427,655.171 427.105,652.372 C428.787,649.563 431.467,647.545 434.651,646.694 C435.714,646.412 436.813,646.271 437.914,646.271 C443.474,646.271 448.327,649.893 449.71,655.085 C451.417,661.487 447.436,668.129 440.842,669.891 L440.842,669.891 Z M437.911,642.492 C436.499,642.492 435.074,642.681 433.68,643.055 C425.075,645.352 419.893,654.05 422.131,662.445 C423.957,669.298 430.321,674.09 437.601,674.09 C439.023,674.09 440.441,673.901 441.812,673.532 C450.415,671.236 455.59,662.521 453.348,654.105 C451.526,647.267 445.175,642.492 437.911,642.492 L437.911,642.492 Z" id="Fill-45"></path>
            <path d="M520.237,626.369 L509.899,632.464 L508.365,618.154 L520.237,626.369 L520.237,626.369 Z M504.124,613.744 L507.705,648.25 L511.346,646.098 L510.338,636.579 L523.642,628.733 L531.514,634.203 L535.14,632.086 L506.523,612.322 L504.124,613.744 L504.124,613.744 Z" id="Fill-46"></path>
            <path d="M539.902,594.246 L537.682,591.203 L518.726,604.917 L520.945,607.96 L528.894,602.211 L545.17,624.726 L548.223,622.507 L531.943,599.998 L539.902,594.246" id="Fill-47"></path>
            <path d="M566.606,591.456 L557.571,599.361 L553.414,585.589 L566.606,591.456 L566.606,591.456 Z M550.529,580.192 L548.428,582.027 L558.34,615.268 L561.523,612.505 L558.769,603.322 L570.389,593.144 L579.142,597.064 L582.296,594.3 L550.814,580.32 L550.529,580.192 L550.529,580.192 Z" id="Fill-48"></path>
            <path d="M603.053,552.156 L595.485,561.476 L589.054,548.604 L603.053,552.156 L603.053,552.156 Z M583.542,545.949 L598.595,576.349 L598.938,577.038 L601.602,573.748 L597.336,565.178 L607.069,553.184 L616.361,555.567 L619.009,552.309 L585.301,543.781 L583.542,545.949 L583.542,545.949 Z" id="Fill-49"></path>
            <path d="M620.06,541.923 C619.278,543.053 619.57,544.668 620.697,545.449 C621.117,545.741 621.616,545.898 622.138,545.898 C622.984,545.898 623.768,545.488 624.236,544.809 C624.617,544.258 624.758,543.585 624.636,542.909 C624.511,542.234 624.143,541.654 623.595,541.279 C622.526,540.536 620.799,540.863 620.06,541.923" id="Fill-50"></path>
            <path d="M610.24,515.18 L614.701,507.423 C616.924,503.554 621.036,501.155 625.431,501.155 C627.487,501.155 629.508,501.69 631.276,502.709 C637.005,506.008 638.904,513.492 635.513,519.392 L631.051,527.155 L610.24,515.18 L610.24,515.18 Z M633.159,499.448 C630.814,498.097 628.143,497.383 625.434,497.383 C619.698,497.383 614.333,500.509 611.438,505.54 L605.097,516.577 L632.441,532.305 L638.78,521.272 C640.919,517.547 641.515,513.223 640.455,509.098 C639.391,504.967 636.8,501.54 633.159,499.448 L633.159,499.448 Z" id="Fill-51"></path>
            <path d="M650.245,494.26 C649.044,493.69 647.411,494.298 646.863,495.474 C646.578,496.079 646.546,496.768 646.777,497.415 C647.007,498.055 647.472,498.564 648.08,498.853 C648.413,499.01 648.775,499.093 649.15,499.093 C650.14,499.093 651.046,498.52 651.459,497.636 C651.744,497.027 651.773,496.339 651.536,495.692 C651.302,495.048 650.844,494.539 650.245,494.26" id="Fill-52"></path>
            <path d="M632.819,460.135 L636.39,461.349 L638.37,455.546 L664.658,464.5 L665.868,460.929 L636.012,450.761 L632.819,460.135" id="Fill-53"></path>
            <path d="M653.33,434.452 C652.039,439.349 649.204,441.758 645.832,440.714 C642.476,439.692 641.252,436.108 642.559,431.128 C643.641,427.003 645.768,424.636 648.388,424.636 L648.513,424.639 C648.977,424.652 649.461,424.735 649.951,424.886 C651.613,425.392 652.759,426.436 653.358,427.993 C654.012,429.684 654.002,431.916 653.33,434.452 L653.33,434.452 Z M670.269,439.612 C668.69,445.627 665.308,448.375 661.125,447.129 C659.274,446.565 658.002,445.335 657.343,443.471 C656.622,441.447 656.667,438.766 657.471,435.724 C658.79,430.683 661.327,427.791 664.43,427.791 L664.581,427.794 C665.077,427.807 665.606,427.896 666.144,428.06 C668.19,428.684 669.596,429.969 670.317,431.877 C671.085,433.895 671.069,436.569 670.269,439.612 L670.269,439.612 Z M667.393,423.662 C663.626,422.5 660.039,423.547 657.298,426.57 C656.279,423.496 654.137,421.389 651.052,420.444 C650.117,420.162 649.185,420.018 648.285,420.018 C643.725,420.018 640.032,423.717 638.408,429.908 C637.46,433.527 637.479,436.826 638.466,439.445 C639.529,442.261 641.627,444.214 644.538,445.095 C647.59,446.017 650.479,445.425 652.849,443.394 C653.707,447.58 656.174,450.399 660.017,451.574 C661.01,451.875 662.006,452.045 662.976,452.077 L663.264,452.08 C668.472,452.08 672.539,447.981 674.423,440.835 C675.649,436.163 675.451,432.041 673.843,428.915 C672.527,426.362 670.298,424.546 667.393,423.662 L667.393,423.662 Z" id="Fill-54"></path>
            <path d="M674.554,410.755 L666.422,400.869 C663.498,397.054 660.065,394.518 657.23,394.082 C652.289,393.365 648.622,396.555 647.747,402.284 C647.235,405.666 648.244,409.407 650.447,412.29 L651.325,413.443 L654.358,411.213 L653.445,410.022 C651.869,407.96 651.116,405.212 651.478,402.848 C652.023,399.264 653.932,397.371 656.67,397.81 C658.495,398.086 661.157,400.186 663.457,403.175 L674.163,416.235 L674.285,416.383 L677.436,416.863 L680.687,395.501 L676.959,394.937 L674.554,410.755" id="Fill-55"></path>
            <path d="M679.198,364.194 L678.266,380.163 L669.25,371.074 C665.983,367.541 662.329,365.338 659.482,365.178 C654.563,364.796 651.12,368.419 650.787,374.216 C650.588,377.627 651.94,381.258 654.402,383.929 L655.386,384.996 L658.198,382.498 L657.179,381.393 C655.418,379.487 654.412,376.819 654.553,374.433 C654.758,370.882 656.314,368.928 658.925,368.928 L659.255,368.931 C661.083,369.046 663.998,370.936 666.515,373.649 L678.388,385.653 L678.519,385.787 L681.706,385.982 L682.961,364.402 L679.198,364.194" id="Fill-56"></path>
            <path d="M213.782,528.471 C217.004,528.471 220.053,529.596 222.365,531.639 L223.31,532.472 L225.75,530.031 L224.674,529.086 C221.66,526.454 217.791,525 213.782,525 C204.785,525 197.467,532.132 197.467,540.898 C197.467,549.686 204.785,556.835 213.782,556.835 C217.791,556.835 221.673,555.368 224.716,552.706 L225.83,551.73 L223.275,549.353 L222.365,550.154 C220.021,552.226 216.975,553.366 213.782,553.366 C206.7,553.366 200.939,547.774 200.939,540.898 C200.939,534.044 206.7,528.471 213.782,528.471" id="Fill-57"></path>
            <path d="M238.587,540.898 C238.587,534.067 244.329,528.513 251.388,528.513 C258.447,528.513 264.189,534.067 264.189,540.898 C264.189,547.752 258.447,553.325 251.388,553.325 C244.329,553.325 238.587,547.752 238.587,540.898 L238.587,540.898 Z M267.703,540.898 C267.703,532.132 260.384,525 251.388,525 C242.392,525 235.073,532.132 235.073,540.898 C235.073,549.686 242.392,556.835 251.388,556.835 C260.384,556.835 267.703,549.686 267.703,540.898 L267.703,540.898 Z" id="Fill-58"></path>
            <path d="M281.276,531.293 L299.672,556.63 L299.82,556.835 L303.09,556.835 L303.09,525 L299.579,525 L299.579,550.545 L281.18,525.205 L281.032,525 L277.762,525 L277.762,556.835 L281.276,556.835 L281.276,531.293" id="Fill-59"></path>
            <path d="M322.588,553.325 L322.588,528.513 L331.885,528.513 C338.922,528.513 344.645,534.086 344.645,540.94 C344.645,547.771 338.922,553.325 331.885,553.325 L322.588,553.325 L322.588,553.325 Z M348.158,540.94 C348.158,532.151 340.856,525 331.885,525 L319.074,525 L319.074,556.835 L331.885,556.835 C340.856,556.835 348.158,549.702 348.158,540.94 L348.158,540.94 Z" id="Fill-60"></path>
            <path d="M361.648,556.835 L365.158,556.835 L365.158,525 L361.648,525 L361.648,556.835 Z" id="Fill-61"></path>
            <path d="M390.376,556.835 L390.376,528.513 L400.388,528.513 L400.388,525 L376.851,525 L376.851,528.513 L386.863,528.513 L386.863,556.835 L390.376,556.835" id="Fill-62"></path>
            <path d="M412.965,544.437 L419.284,530.508 L425.735,544.437 L412.965,544.437 L412.965,544.437 Z M411.377,547.95 L427.346,547.95 L431.435,556.835 L435.346,556.835 L420.719,525.285 L420.588,525 L417.955,525 L403.703,556.137 L403.386,556.835 L407.332,556.835 L411.377,547.95 L411.377,547.95 Z" id="Fill-63"></path>
            <path d="M488.578,544.437 L475.806,544.437 L482.128,530.508 L488.578,544.437 L488.578,544.437 Z M483.428,525 L480.799,525 L466.544,556.137 L466.227,556.835 L470.172,556.835 L474.217,547.95 L490.189,547.95 L494.276,556.835 L498.186,556.835 L483.428,525 L483.428,525 Z" id="Fill-64"></path>
            <path d="M536.488,540.94 C536.488,547.771 530.765,553.325 523.728,553.325 L514.427,553.325 L514.427,528.513 L523.728,528.513 C530.765,528.513 536.488,534.086 536.488,540.94 L536.488,540.94 Z M539.998,540.94 C539.998,532.151 532.699,525 523.728,525 L510.917,525 L510.917,556.835 L523.728,556.835 C532.699,556.835 539.998,549.702 539.998,540.94 L539.998,540.94 Z" id="Fill-65"></path>
            <path d="M311.196,618.836 L311.196,582.066 L300.021,582.066 L300.021,585.98 L307.282,585.98 L307.282,618.836 L311.196,618.836" id="Fill-66"></path>
            <path d="M350.81,608.315 C350.81,613.859 346.826,617.44 340.654,617.44 C333.493,617.44 330.271,612.351 330.271,608.735 C330.271,604.363 334.089,599.716 341.17,599.716 C347.117,599.716 350.81,603.012 350.81,608.315 L350.81,608.315 Z M355.265,608.421 C355.265,600.488 349.862,595.559 341.17,595.559 C336.142,595.559 331.959,597.211 329.211,600.245 C329.608,595.392 331.085,591.575 333.519,589.153 C334.905,587.773 337.826,585.458 341.798,585.458 C344.321,585.458 348.136,585.458 350.829,586.735 L351.242,586.931 L352.568,584.663 L352.876,584.084 L352.857,584.077 L353.343,583.216 L352.841,582.998 C349.231,581.432 345.189,581.3 341.682,581.3 C331.472,581.3 324.612,589.906 324.612,602.714 C324.612,606.692 325.272,610.147 326.578,612.998 L327.023,613.888 C329.714,618.932 334.527,621.597 340.943,621.597 C349.641,621.597 355.265,616.425 355.265,608.421 L355.265,608.421 Z" id="Fill-67"></path>
            <path d="M393.078,608.739 C393.078,602.683 388.633,598.801 381.401,598.439 L391.984,585.086 L392.103,584.948 L392.103,582.066 L368.105,582.066 L368.105,585.98 L386.139,585.98 L375.54,599.304 L375.421,599.442 L375.421,602.327 L380.28,602.327 C384.331,602.327 389.161,603.474 389.161,608.935 C389.161,613.537 385.715,616.509 380.376,616.509 C377.529,616.509 374.489,615.609 372.247,614.097 L371.088,613.319 L368.728,616.461 L370.034,617.326 C372.971,619.266 376.837,620.426 380.376,620.426 C387.973,620.426 393.078,615.727 393.078,608.739" id="Fill-68"></path>
            <path d="M411.652,599.213 C411.652,592.622 413.545,584.769 422.567,584.769 C429.635,584.769 433.527,589.896 433.527,599.213 C433.527,608.562 429.635,613.709 422.567,613.709 C415.527,613.709 411.652,608.562 411.652,599.213 L411.652,599.213 Z M422.567,617.622 C432.021,617.622 437.444,610.913 437.444,599.213 C437.444,587.546 432.021,580.852 422.567,580.852 C413.145,580.852 407.738,587.546 407.738,599.213 C407.738,610.913 413.145,617.622 422.567,617.622 L422.567,617.622 Z" id="Fill-69"></path>
            <path d="M178.408,474.221 L178.408,456.673 L194.261,456.673 C201.598,456.673 205.64,459.776 205.64,465.413 C205.64,471.095 201.598,474.221 194.261,474.221 L178.408,474.221 L178.408,474.221 Z M208.142,487.682 C208.142,493.956 203.213,497.411 194.261,497.411 L178.408,497.411 L178.408,478.15 L194.261,478.15 C203.213,478.15 208.142,481.536 208.142,487.682 L208.142,487.682 Z M212.071,487.749 C212.071,482.144 209.131,477.868 203.962,475.864 C207.629,473.82 209.634,470.153 209.634,465.413 C209.634,457.438 203.885,452.676 194.261,452.676 L174.411,452.676 L174.411,501.405 L194.261,501.405 C205.579,501.405 212.071,496.428 212.071,487.749 L212.071,487.749 Z" id="Fill-70"></path>
            <path d="M270.005,477.01 C270.005,488.261 260.589,497.411 249.012,497.411 C237.434,497.411 228.015,488.261 228.015,477.01 C228.015,465.794 237.434,456.673 249.012,456.673 C260.589,456.673 270.005,465.794 270.005,477.01 L270.005,477.01 Z M249.012,452.676 C235.233,452.676 224.021,463.594 224.021,477.01 C224.021,490.462 235.233,501.405 249.012,501.405 C262.79,501.405 273.999,490.462 273.999,477.01 C273.999,463.594 262.79,452.676 249.012,452.676 L249.012,452.676 Z" id="Fill-71"></path>
            <path d="M317.944,488.876 C318.021,479.079 309.889,476.626 302.708,474.454 C296.108,472.459 290.407,470.733 290.407,464.228 C290.407,459.639 295.128,456.673 302.439,456.673 C306.324,456.673 310.594,457.803 313.313,459.555 L314.453,460.292 L316.525,456.968 L315.42,456.253 C312.057,454.082 306.962,452.676 302.439,452.676 C292.703,452.676 286.41,457.211 286.41,464.228 C286.41,473.699 294.401,476.12 301.459,478.259 C308.191,480.296 314.004,482.058 313.95,488.867 C313.95,494.058 308.864,497.411 300.992,497.411 C295.823,497.411 290.384,495.198 287.14,491.772 L286.195,490.772 L283.364,493.603 L284.29,494.548 C288.386,498.712 294.939,501.405 300.992,501.405 C311.288,501.405 317.944,496.486 317.944,488.876" id="Fill-72"></path>
            <path d="M363.336,452.676 L327.718,452.676 L327.718,456.673 L343.53,456.673 L343.53,501.405 L347.524,501.405 L347.524,456.673 L363.336,456.673 L363.336,452.676" id="Fill-73"></path>
            <path d="M414.089,477.01 C414.089,488.261 404.673,497.411 393.096,497.411 C381.518,497.411 372.099,488.261 372.099,477.01 C372.099,465.794 381.518,456.673 393.096,456.673 C404.673,456.673 414.089,465.794 414.089,477.01 L414.089,477.01 Z M418.083,477.01 C418.083,463.594 406.874,452.676 393.096,452.676 C379.318,452.676 368.105,463.594 368.105,477.01 C368.105,490.462 379.318,501.405 393.096,501.405 C406.874,501.405 418.083,490.462 418.083,477.01 L418.083,477.01 Z" id="Fill-74"></path>
            <path d="M437.719,459.453 L468.03,501.2 L468.177,501.405 L472.174,501.405 L472.174,452.676 L468.177,452.676 L468.177,494.632 L437.866,452.881 L437.719,452.676 L433.722,452.676 L433.722,501.405 L437.719,501.405 L437.719,459.453" id="Fill-75"></path>
            <path d="M495.115,501.405 L499.109,501.405 L499.109,452.676 L495.115,452.676 L495.115,501.405 Z" id="Fill-76"></path>
            <path d="M550.946,484.239 L527.599,484.239 L539.178,458.745 L550.946,484.239 L550.946,484.239 Z M558.737,501.117 L558.868,501.405 L563.33,501.405 L540.747,452.676 L537.583,452.676 L515.596,500.707 L515.279,501.405 L519.802,501.405 L525.697,488.425 L552.878,488.425 L558.737,501.117 L558.737,501.117 Z" id="Fill-77"></path>
            <path d="M435.293,140.852 C435.164,138.241 434.648,135.743 433.78,133.4 L446.168,133.4 C447.061,133.4 447.788,132.673 447.788,131.779 C447.788,130.886 447.061,130.159 446.168,130.159 L432.274,130.159 C428.447,123.129 421.429,118.179 413.129,117.226 L444.381,117.226 C445.274,117.226 446.001,116.499 446.001,115.606 C446.001,114.712 445.274,113.985 444.381,113.985 L391.642,113.985 C390.748,113.985 390.021,114.712 390.021,115.606 C390.021,116.499 390.748,117.226 391.642,117.226 L407.427,117.226 C394.92,118.662 385.14,129.191 385.14,142.076 C385.14,144.414 385.571,146.672 386.196,148.881 C380.655,149.094 375.923,152.338 373.544,157.01 C373.499,157.007 373.473,156.962 373.428,156.962 L372.236,156.962 C371.343,156.962 370.616,157.689 370.616,158.583 C370.616,159.476 371.343,160.203 372.236,160.203 L372.339,160.203 C372.064,161.332 371.878,162.495 371.878,163.707 C371.878,165.01 372.104,166.272 372.432,167.51 C367.088,169.074 363.15,173.95 363.113,179.785 L338.13,179.785 C341.061,176.816 342.72,172.79 342.72,168.556 C342.72,159.733 335.539,152.552 326.716,152.552 C324.4,152.552 322.101,153.058 320.013,154.019 C320.003,152.498 319.834,151.014 319.537,149.577 L325.496,149.577 C326.389,149.577 327.116,148.847 327.116,147.953 C327.116,147.059 326.389,146.332 325.496,146.332 L319.033,146.332 C318.859,146.332 318.744,146.466 318.587,146.517 C315.432,137.788 307.145,131.494 297.341,131.494 C295.22,131.494 293.207,131.881 291.259,132.428 C291.362,132.214 291.528,132.032 291.528,131.779 C291.528,130.886 290.801,130.159 289.907,130.159 L276.523,130.159 C275.629,130.159 274.902,130.886 274.902,131.779 C274.902,132.673 275.629,133.4 276.523,133.4 L288.301,133.4 C282.675,135.859 278.291,140.549 276.143,146.332 L271.863,146.332 C270.969,146.332 270.242,147.059 270.242,147.953 C270.242,148.847 270.969,149.577 271.863,149.577 L275.134,149.577 C274.97,150.371 274.957,151.213 274.878,152.035 C273.769,151.839 272.655,151.649 271.527,151.649 C266.41,151.649 261.781,153.69 258.335,156.962 L242.366,156.962 C241.472,156.962 240.745,157.689 240.745,158.583 C240.745,159.476 241.472,160.203 242.366,160.203 L255.557,160.203 C253.513,163.256 252.314,166.918 252.314,170.859 C252.314,171.63 252.509,172.377 252.601,173.139 L242.366,173.139 C242.25,173.139 242.177,173.24 242.068,173.263 C241.959,173.24 241.886,173.139 241.77,173.139 L239.384,173.139 C238.491,173.139 237.764,173.866 237.764,174.76 C237.764,175.653 238.491,176.38 239.384,176.38 L241.77,176.38 C241.886,176.38 241.959,176.28 242.068,176.257 C242.177,176.28 242.25,176.38 242.366,176.38 L253.212,176.38 C253.499,177.33 253.871,178.247 254.3,179.141 C247.329,182.108 242.427,189.023 242.427,197.064 C242.427,198.13 242.513,199.193 242.686,200.237 C239.291,198.117 235.39,197.003 231.333,197.003 C223.441,197.003 216.296,201.246 212.51,208.123 C207.344,202.511 200.301,199.43 192.605,199.43 C180.675,199.43 170.359,206.976 166.772,218.259 C164.264,217.266 161.609,216.76 158.877,216.76 C147.04,216.76 137.406,226.394 137.406,238.231 C137.406,238.958 137.445,239.689 137.515,240.406 C137.599,241.235 138.29,241.863 139.126,241.863 L139.293,241.857 C140.177,241.764 140.827,240.97 140.74,240.079 C140.676,239.474 140.648,238.849 140.648,238.231 C140.648,228.178 148.824,220.001 158.877,220.001 C161.142,220.001 163.318,220.481 165.401,221.282 C164.607,221.793 163.852,222.369 163.198,223.082 C161.613,224.805 160.629,226.942 160.347,229.267 C160.245,230.154 160.879,230.961 161.753,231.064 C161.821,231.073 161.891,231.08 161.958,231.08 C162.778,231.08 163.47,230.465 163.566,229.651 C163.762,228.015 164.457,226.5 165.581,225.273 C167.003,223.726 168.94,222.826 171.038,222.737 C173.12,222.672 175.144,223.383 176.688,224.802 C177.258,225.324 177.745,225.92 178.132,226.58 C178.571,227.31 179.609,227.585 180.352,227.143 C181.12,226.689 181.373,225.693 180.919,224.927 C180.371,224.002 179.685,223.156 178.882,222.416 C176.825,220.53 174.148,219.492 171.339,219.492 C171.195,219.492 171.051,219.495 170.9,219.502 C170.532,219.517 170.181,219.603 169.82,219.654 C172.842,209.6 181.951,202.671 192.605,202.671 C200.215,202.671 207.19,206.169 211.754,212.276 C212.142,212.782 212.808,213.029 213.449,212.872 C214.083,212.709 214.557,212.187 214.653,211.54 L214.752,210.864 C217.724,204.411 224.226,200.244 231.333,200.244 C236.158,200.244 240.712,202.145 244.223,205.6 C243.541,207.321 243.138,209.182 243.138,211.143 C243.138,214.339 244.124,217.394 245.988,219.982 C246.292,220.402 246.782,220.655 247.301,220.655 C247.641,220.655 247.967,220.546 248.243,220.347 C248.595,220.094 248.829,219.723 248.899,219.294 C248.967,218.868 248.867,218.438 248.614,218.086 C247.151,216.056 246.379,213.654 246.379,211.143 C246.379,204.58 251.715,199.245 258.277,199.245 C259.443,199.245 260.596,199.411 261.704,199.744 C262.556,199.994 263.472,199.504 263.722,198.658 C263.847,198.245 263.802,197.807 263.597,197.425 C263.392,197.048 263.049,196.769 262.636,196.644 C261.227,196.221 259.76,196.003 258.277,196.003 C253.474,196.003 249.237,198.296 246.461,201.796 C245.993,200.267 245.671,198.7 245.671,197.064 C245.671,188.115 252.951,180.835 261.899,180.835 C263.357,180.835 264.795,181.024 266.172,181.402 C266.995,181.636 267.93,181.104 268.157,180.262 C268.273,179.846 268.215,179.41 268.001,179.032 C267.786,178.657 267.437,178.388 267.02,178.276 C265.358,177.825 263.635,177.594 261.899,177.594 C260.335,177.594 258.834,177.829 257.375,178.179 C256.934,177.326 256.602,176.423 256.323,175.503 C256.457,175.267 256.631,175.05 256.631,174.76 C256.631,174.209 256.311,173.797 255.89,173.504 C255.742,172.627 255.558,171.754 255.558,170.859 C255.558,166.699 257.193,162.941 259.806,160.097 C260.434,159.981 260.88,159.536 261.029,158.92 C263.843,156.443 267.491,154.89 271.527,154.89 C272.622,154.89 273.714,155.041 274.789,155.262 C274.942,158.469 275.656,161.561 277.112,164.428 C277.503,165.206 278.512,165.536 279.29,165.142 C280.084,164.735 280.405,163.758 280.001,162.961 C278.608,160.226 277.903,157.27 277.903,154.173 C277.903,152.139 278.304,150.215 278.887,148.371 C278.931,148.222 279.06,148.116 279.06,147.953 C279.06,147.93 279.035,147.917 279.035,147.894 C281.661,140.265 288.831,134.735 297.341,134.735 C308.057,134.735 316.775,143.453 316.775,154.173 C316.775,155.656 316.608,157.132 316.278,158.557 C316.105,159.323 316.503,160.101 317.226,160.408 C317.925,160.716 318.796,160.444 319.218,159.8 L320.913,157.186 C322.69,156.274 324.695,155.793 326.716,155.793 C333.756,155.793 339.479,161.517 339.479,168.556 C339.479,173.405 336.789,177.774 332.455,179.961 C331.783,180.3 331.434,181.05 331.61,181.783 C331.786,182.514 332.433,183.026 333.186,183.026 L363.544,183.026 C364.76,187.826 368.623,191.644 373.668,192.577 C373.767,192.596 373.87,192.605 373.966,192.605 C374.747,192.605 375.417,192.045 375.557,191.276 C375.718,190.402 375.138,189.556 374.26,189.39 C369.674,188.541 366.346,184.538 366.346,179.865 C366.346,175.19 369.676,171.278 374.087,170.374 C374.243,170.422 374.383,170.513 374.552,170.513 C374.77,170.513 374.981,170.468 375.183,170.382 C375.244,170.356 375.256,170.282 375.313,170.25 C375.555,170.232 375.787,170.177 376.035,170.177 C378.357,170.177 380.602,171.009 382.357,172.521 C383.01,173.085 384.074,173.017 384.644,172.355 C384.925,172.025 385.063,171.608 385.031,171.176 C384.999,170.744 384.801,170.353 384.471,170.071 C382.133,168.05 379.135,166.936 376.035,166.936 C375.9,166.936 375.776,166.971 375.642,166.975 C375.332,165.917 375.119,164.833 375.119,163.707 C375.119,157.289 380.339,152.068 386.761,152.068 C386.955,152.068 387.134,152.141 387.326,152.151 C387.62,152.608 388.087,152.93 388.644,152.93 C388.862,152.93 389.076,152.885 389.281,152.799 C389.429,152.735 389.475,152.577 389.592,152.479 C392.942,153.329 395.83,155.592 397.323,158.804 C397.685,159.592 398.678,159.966 399.475,159.588 C400.283,159.214 400.635,158.247 400.26,157.436 C398.25,153.117 394.253,150.184 389.686,149.249 C388.885,146.944 388.381,144.555 388.381,142.076 C388.381,130.002 398.204,120.179 410.278,120.179 C422.015,120.179 431.547,129.502 432.076,141.136 C431.869,141.385 431.679,141.66 431.653,142.002 C431.583,142.896 432.252,143.677 433.139,143.745 C441.306,144.388 447.705,151.319 447.705,159.524 C447.705,163.906 445.864,168.127 442.651,171.115 C442.246,171.494 442.167,172.017 442.246,172.529 C442.226,172.555 442.2,172.572 442.181,172.598 C441.646,173.312 441.79,174.327 442.501,174.869 C443.199,175.387 444.259,175.234 444.772,174.545 C447.564,170.833 451.824,168.703 456.461,168.703 C464.52,168.703 471.072,175.259 471.072,183.317 C471.072,188.426 468.347,193.233 463.959,195.859 C463.587,196.083 463.325,196.436 463.219,196.859 C463.117,197.278 463.181,197.714 463.402,198.082 C463.693,198.569 464.225,198.873 464.792,198.873 C465.083,198.873 465.371,198.793 465.624,198.642 C468.144,197.133 470.165,195.001 471.652,192.554 L478.941,192.554 C479.835,192.554 480.565,191.827 480.565,190.934 C480.565,190.04 479.835,189.313 478.941,189.313 L473.13,189.313 C473.825,187.396 474.317,185.402 474.317,183.317 C474.317,180.859 473.817,178.514 472.913,176.38 L473.535,176.38 C474.429,176.38 475.156,175.653 475.156,174.76 C475.156,173.866 474.429,173.139 473.535,173.139 L471.096,173.139 C467.867,168.511 462.521,165.462 456.461,165.462 C453.968,165.462 451.598,166.046 449.397,166.997 C450.309,164.86 450.789,162.555 450.875,160.203 L457.49,160.203 C458.383,160.203 459.11,159.476 459.11,158.583 C459.11,157.689 458.383,156.962 457.49,156.962 L450.699,156.962 C450.331,154.3 449.459,151.788 448.094,149.577 L467.024,149.577 C467.918,149.577 468.645,148.847 468.645,147.953 C468.645,147.059 467.918,146.332 467.024,146.332 L445.561,146.332 C442.853,143.522 439.29,141.587 435.293,140.852" id="Fill-78"></path>
            <path d="M563.394,246.786 C563.388,247.218 563.554,247.628 563.855,247.936 C564.159,248.249 564.573,248.426 565.011,248.426 C565.434,248.426 565.838,248.259 566.145,247.961 C572.73,241.508 576.359,232.88 576.359,223.659 C576.359,204.904 561.098,189.643 542.342,189.643 C536.224,189.643 530.347,191.345 525.129,194.422 C522.468,185.117 513.979,178.244 503.833,178.244 C495.446,178.244 488.217,182.964 484.427,189.835 C484.131,189.52 483.727,189.313 483.262,189.313 L482.371,189.313 C481.478,189.313 480.751,190.04 480.751,190.934 C480.751,191.827 481.478,192.554 482.371,192.554 L483.115,192.554 C482.164,195.027 481.587,197.684 481.587,200.487 C481.587,202.278 481.801,204.061 482.227,205.791 C482.436,206.649 483.323,207.216 484.184,206.982 C485.049,206.768 485.584,205.89 485.372,205.022 C485.01,203.546 484.828,202.018 484.828,200.487 C484.828,190.008 493.354,181.485 503.833,181.485 C514.312,181.485 522.835,190.008 522.835,200.487 C522.835,203.879 521.931,207.207 520.218,210.115 C519.766,210.886 520.026,211.883 520.794,212.328 C521.044,212.475 521.329,212.555 521.614,212.555 C522.185,212.555 522.719,212.251 523.011,211.758 C525.016,208.356 526.076,204.459 526.076,200.487 C526.076,199.556 525.912,198.669 525.801,197.767 C530.743,194.602 536.427,192.884 542.342,192.884 C559.314,192.884 573.117,206.688 573.117,223.659 C573.117,231.999 569.838,239.807 563.881,245.646 C563.57,245.95 563.397,246.353 563.394,246.786" id="Fill-79"></path>
            <path d="M109.68,400.792 C108.787,400.792 108.06,401.519 108.06,402.412 C108.06,403.306 108.787,404.036 109.68,404.036 L124.932,404.036 C125.825,404.036 126.552,403.306 126.552,402.412 C126.552,401.519 125.825,400.792 124.932,400.792 L109.68,400.792" id="Fill-80"></path>
            <path d="M163.525,402.412 C163.525,401.519 162.798,400.792 161.904,400.792 L138.332,400.792 C137.438,400.792 136.711,401.519 136.711,402.412 C136.711,403.306 137.438,404.036 138.332,404.036 L161.904,404.036 C162.798,404.036 163.525,403.306 163.525,402.412" id="Fill-81"></path>
            <path d="M192.865,400.792 L172.531,400.792 C171.637,400.792 170.91,401.519 170.91,402.412 C170.91,403.306 171.637,404.036 172.531,404.036 L192.865,404.036 C193.758,404.036 194.488,403.306 194.488,402.412 C194.488,401.519 193.758,400.792 192.865,400.792" id="Fill-82"></path>
            <path d="M307.477,400.792 L223.367,400.792 C222.694,400.792 222.225,401.262 221.981,401.849 C221.736,401.262 221.268,400.792 220.594,400.792 L206.268,400.792 C205.374,400.792 204.647,401.519 204.647,402.412 C204.647,403.306 205.374,404.036 206.268,404.036 L220.594,404.036 C221.268,404.036 221.736,403.564 221.981,402.977 C222.225,403.564 222.694,404.036 223.367,404.036 L307.477,404.036 C308.371,404.036 309.098,403.306 309.098,402.412 C309.098,401.519 308.371,400.792 307.477,400.792" id="Fill-83"></path>
            <path d="M345.144,402.412 C345.144,401.519 344.417,400.792 343.524,400.792 L325.038,400.792 C324.144,400.792 323.417,401.519 323.417,402.412 C323.417,403.306 324.144,404.036 325.038,404.036 L343.524,404.036 C344.417,404.036 345.144,403.306 345.144,402.412" id="Fill-84"></path>
            <path d="M379.109,400.792 L365.709,400.792 C364.816,400.792 364.089,401.519 364.089,402.412 C364.089,403.306 364.816,404.036 365.709,404.036 L379.109,404.036 C380.003,404.036 380.73,403.306 380.73,402.412 C380.73,401.519 380.003,400.792 379.109,400.792" id="Fill-85"></path>
            <path d="M426.25,400.792 L410.999,400.792 C410.105,400.792 409.378,401.519 409.378,402.412 C409.378,403.306 410.105,404.036 410.999,404.036 L426.25,404.036 C427.144,404.036 427.871,403.306 427.871,402.412 C427.871,401.519 427.144,400.792 426.25,400.792" id="Fill-86"></path>
            <path d="M537.625,400.792 L435.029,400.792 C434.135,400.792 433.408,401.519 433.408,402.412 C433.408,403.306 434.135,404.036 435.029,404.036 L537.625,404.036 C538.518,404.036 539.245,403.306 539.245,402.412 C539.245,401.519 538.518,400.792 537.625,400.792" id="Fill-87"></path>
            <path d="M571.596,402.412 C571.596,401.519 570.869,400.792 569.976,400.792 L541.324,400.792 C540.43,400.792 539.703,401.519 539.703,402.412 C539.703,403.306 540.43,404.036 541.324,404.036 L569.976,404.036 C570.869,404.036 571.596,403.306 571.596,402.412" id="Fill-88"></path>
            <path d="M597.477,402.412 C597.477,401.519 596.75,400.792 595.857,400.792 L576.448,400.792 C575.555,400.792 574.828,401.519 574.828,402.412 C574.828,403.306 575.555,404.036 576.448,404.036 L595.857,404.036 C596.75,404.036 597.477,403.306 597.477,402.412" id="Fill-89"></path>
            <path d="M608.338,400.792 C607.444,400.792 606.717,401.519 606.717,402.412 C606.717,403.306 607.444,404.036 608.338,404.036 L609.718,404.036 C610.612,404.036 611.342,403.306 611.342,402.412 C611.342,401.519 610.612,400.792 609.718,400.792 L608.338,400.792" id="Fill-90"></path>
            <path d="M399.482,404.036 C400.375,404.036 401.102,403.306 401.102,402.412 C401.102,401.519 400.375,400.792 399.482,400.792 L398.101,400.792 C397.208,400.792 396.481,401.519 396.481,402.412 C396.481,403.306 397.208,404.036 398.101,404.036 L399.482,404.036" id="Fill-91"></path>
            <path d="M391.382,404.036 C392.276,404.036 393.003,403.306 393.003,402.412 C393.003,401.519 392.276,400.792 391.382,400.792 L390.002,400.792 C389.108,400.792 388.381,401.519 388.381,402.412 C388.381,403.306 389.108,404.036 390.002,404.036 L391.382,404.036" id="Fill-92"></path>
            <path d="M167.214,404.036 C168.108,404.036 168.835,403.306 168.835,402.412 C168.835,401.519 168.108,400.792 167.214,400.792 L165.834,400.792 C164.94,400.792 164.213,401.519 164.213,402.412 C164.213,403.306 164.94,404.036 165.834,404.036 L167.214,404.036" id="Fill-93"></path>
            <path d="M130.476,416.969 C129.582,416.969 128.855,417.696 128.855,418.589 C128.855,419.483 129.582,420.21 130.476,420.21 L146.191,420.21 C147.085,420.21 147.812,419.483 147.812,418.589 C147.812,417.696 147.085,416.969 146.191,416.969 L130.476,416.969" id="Fill-94"></path>
            <path d="M178.773,418.589 C178.773,417.696 178.046,416.969 177.152,416.969 L152.197,416.969 C151.303,416.969 150.576,417.696 150.576,418.589 C150.576,419.483 151.303,420.21 152.197,420.21 L177.152,420.21 C178.046,420.21 178.773,419.483 178.773,418.589" id="Fill-95"></path>
            <path d="M180.614,418.589 C180.614,419.483 181.344,420.21 182.238,420.21 L221.981,420.21 C222.874,420.21 223.601,419.483 223.601,418.589 C223.601,417.696 222.874,416.969 221.981,416.969 L182.238,416.969 C181.344,416.969 180.614,417.696 180.614,418.589" id="Fill-96"></path>
            <path d="M226.141,416.969 C225.247,416.969 224.52,417.696 224.52,418.589 C224.52,419.483 225.247,420.21 226.141,420.21 L307.942,420.21 C308.835,420.21 309.562,419.483 309.562,418.589 C309.562,417.696 308.835,416.969 307.942,416.969 L226.141,416.969" id="Fill-97"></path>
            <path d="M366.869,418.589 C366.869,417.696 366.138,416.969 365.245,416.969 L337.054,416.969 C336.161,416.969 335.434,417.696 335.434,418.589 C335.434,419.483 336.161,420.21 337.054,420.21 L365.245,420.21 C366.138,420.21 366.869,419.483 366.869,418.589" id="Fill-98"></path>
            <path d="M370.558,418.589 C370.558,419.483 371.285,420.21 372.179,420.21 L404.991,420.21 C405.884,420.21 406.611,419.483 406.611,418.589 C406.611,417.696 405.884,416.969 404.991,416.969 L372.179,416.969 C371.285,416.969 370.558,417.696 370.558,418.589" id="Fill-99"></path>
            <path d="M419.082,418.589 C419.082,419.483 419.81,420.21 420.703,420.21 L435.029,420.21 C435.922,420.21 436.649,419.483 436.649,418.589 C436.649,417.696 435.922,416.969 435.029,416.969 L420.703,416.969 C419.81,416.969 419.082,417.696 419.082,418.589" id="Fill-100"></path>
            <path d="M438.728,416.969 C437.834,416.969 437.107,417.696 437.107,418.589 C437.107,419.483 437.834,420.21 438.728,420.21 L454.902,420.21 C455.795,420.21 456.522,419.483 456.522,418.589 C456.522,417.696 455.795,416.969 454.902,416.969 L438.728,416.969" id="Fill-101"></path>
            <path d="M464.145,416.969 C463.251,416.969 462.524,417.696 462.524,418.589 C462.524,419.483 463.251,420.21 464.145,420.21 L539.473,420.21 C539.653,420.21 539.773,420.073 539.936,420.018 C540.098,420.073 540.218,420.21 540.398,420.21 L544.094,420.21 C544.988,420.21 545.718,419.483 545.718,418.589 C545.718,417.696 544.988,416.969 544.094,416.969 L540.398,416.969 C540.218,416.969 540.098,417.106 539.936,417.161 C539.773,417.106 539.653,416.969 539.473,416.969 L464.145,416.969" id="Fill-102"></path>
            <path d="M595.45,420.21 L599.149,420.21 C600.043,420.21 600.77,419.483 600.77,418.589 C600.77,417.696 600.043,416.969 599.149,416.969 L595.45,416.969 C594.556,416.969 593.829,417.696 593.829,418.589 C593.829,419.483 594.556,420.21 595.45,420.21" id="Fill-103"></path>
            <path d="M411.659,416.969 C410.765,416.969 410.038,417.696 410.038,418.589 C410.038,419.483 410.765,420.21 411.659,420.21 L413.507,420.21 C414.4,420.21 415.127,419.483 415.127,418.589 C415.127,417.696 414.4,416.969 413.507,416.969 L411.659,416.969" id="Fill-104"></path>
            <path d="M391.257,433.142 C390.364,433.142 389.637,433.87 389.637,434.763 C389.637,435.657 390.364,436.384 391.257,436.384 L393.108,436.384 C394.002,436.384 394.729,435.657 394.729,434.763 C394.729,433.87 394.002,433.142 393.108,433.142 L391.257,433.142" id="Fill-105"></path>
            <path d="M336.19,436.384 L338.038,436.384 C338.931,436.384 339.658,435.657 339.658,434.763 C339.658,433.87 338.931,433.142 338.038,433.142 L336.19,433.142 C335.296,433.142 334.569,433.87 334.569,434.763 C334.569,435.657 335.296,436.384 336.19,436.384" id="Fill-106"></path>
            <path d="M171.608,436.384 L173.456,436.384 C174.35,436.384 175.077,435.657 175.077,434.763 C175.077,433.87 174.35,433.142 173.456,433.142 L171.608,433.142 C170.715,433.142 169.988,433.87 169.988,434.763 C169.988,435.657 170.715,436.384 171.608,436.384" id="Fill-107"></path>
            <path d="M543.172,433.142 C542.278,433.142 541.551,433.87 541.551,434.763 C541.551,435.657 542.278,436.384 543.172,436.384 L545.02,436.384 C545.913,436.384 546.64,435.657 546.64,434.763 C546.64,433.87 545.913,433.142 545.02,433.142 L543.172,433.142" id="Fill-108"></path>
            <path d="M567.666,433.142 C566.773,433.142 566.046,433.87 566.046,434.763 C566.046,435.657 566.773,436.384 567.666,436.384 L569.514,436.384 C570.408,436.384 571.135,435.657 571.135,434.763 C571.135,433.87 570.408,433.142 569.514,433.142 L567.666,433.142" id="Fill-109"></path>
            <path d="M325.963,420.21 C326.857,420.21 327.584,419.483 327.584,418.589 C327.584,417.696 326.857,416.969 325.963,416.969 L324.115,416.969 C323.222,416.969 322.495,417.696 322.495,418.589 C322.495,419.483 323.222,420.21 324.115,420.21 L325.963,420.21" id="Fill-110"></path>
            <path d="M590.543,418.589 C590.543,417.696 589.816,416.969 588.923,416.969 L553.341,416.969 C552.447,416.969 551.72,417.696 551.72,418.589 C551.72,419.483 552.447,420.21 553.341,420.21 L588.923,420.21 C589.816,420.21 590.543,419.483 590.543,418.589" id="Fill-111"></path>
            <path d="M158.205,433.142 C157.311,433.142 156.584,433.87 156.584,434.763 C156.584,435.657 157.311,436.384 158.205,436.384 L167.909,436.384 C168.803,436.384 169.533,435.657 169.533,434.763 C169.533,433.87 168.803,433.142 167.909,433.142 L158.205,433.142" id="Fill-112"></path>
            <path d="M183.622,433.142 C182.728,433.142 182.001,433.87 182.001,434.763 C182.001,435.657 182.728,436.384 183.622,436.384 L201.185,436.384 C202.079,436.384 202.806,435.657 202.806,434.763 C202.806,433.87 202.079,433.142 201.185,433.142 L183.622,433.142" id="Fill-113"></path>
            <path d="M233.767,436.288 C233.853,436.302 233.907,436.384 233.997,436.384 L297.773,436.384 C298.667,436.384 299.394,435.657 299.394,434.763 C299.394,433.87 298.667,433.142 297.773,433.142 L233.997,433.142 C233.907,433.142 233.853,433.224 233.767,433.238 C233.681,433.224 233.626,433.142 233.536,433.142 L205.807,433.142 C204.913,433.142 204.186,433.87 204.186,434.763 C204.186,435.657 204.913,436.384 205.807,436.384 L233.536,436.384 C233.626,436.384 233.681,436.302 233.767,436.288" id="Fill-114"></path>
            <path d="M329.432,434.763 C329.432,433.87 328.705,433.142 327.811,433.142 L301.469,433.142 C300.575,433.142 299.848,433.87 299.848,434.763 C299.848,435.657 300.575,436.384 301.469,436.384 L327.811,436.384 C328.705,436.384 329.432,435.657 329.432,434.763" id="Fill-115"></path>
            <path d="M347.684,436.384 L380.035,436.384 C380.928,436.384 381.655,435.657 381.655,434.763 C381.655,433.87 380.928,433.142 380.035,433.142 L347.684,433.142 C346.791,433.142 346.064,433.87 346.064,434.763 C346.064,435.657 346.791,436.384 347.684,436.384" id="Fill-116"></path>
            <path d="M400.135,434.763 C400.135,435.657 400.862,436.384 401.756,436.384 L450.28,436.384 C451.174,436.384 451.901,435.657 451.901,434.763 C451.901,433.87 451.174,433.142 450.28,433.142 L401.756,433.142 C400.862,433.142 400.135,433.87 400.135,434.763" id="Fill-117"></path>
            <path d="M510.129,434.771 C510.134,435.659 510.856,436.384 511.747,436.384 L539.476,436.384 C540.37,436.384 541.097,435.657 541.097,434.763 C541.097,433.87 540.37,433.142 539.476,433.142 L511.747,433.142 C510.856,433.142 510.134,433.867 510.129,434.755 C510.125,433.867 509.402,433.142 508.512,433.142 L453.979,433.142 C453.086,433.142 452.356,433.87 452.356,434.763 C452.356,435.657 453.086,436.384 453.979,436.384 L508.512,436.384 C509.402,436.384 510.125,435.659 510.129,434.771" id="Fill-118"></path>
            <path d="M561.194,436.384 C562.087,436.384 562.817,435.657 562.817,434.763 C562.817,433.87 562.087,433.142 561.194,433.142 L553.805,433.142 C552.911,433.142 552.184,433.87 552.184,434.763 C552.184,435.657 552.911,436.384 553.805,436.384 L561.194,436.384" id="Fill-119"></path>
            <path d="M242.888,146.332 C241.994,146.332 241.267,147.059 241.267,147.953 C241.267,148.847 241.994,149.577 242.888,149.577 L264.042,149.577 C264.936,149.577 265.663,148.847 265.663,147.953 C265.663,147.059 264.936,146.332 264.042,146.332 L242.888,146.332" id="Fill-120"></path>
            <path d="M221.077,190.934 C221.077,191.827 221.808,192.554 222.701,192.554 L241.175,192.554 C242.068,192.554 242.795,191.827 242.795,190.934 C242.795,190.04 242.068,189.313 241.175,189.313 L222.701,189.313 C221.808,189.313 221.077,190.04 221.077,190.934" id="Fill-121"></path>
            <path d="M204.394,190.934 C204.394,191.827 205.121,192.554 206.015,192.554 L218.528,192.554 C219.422,192.554 220.149,191.827 220.149,190.934 C220.149,190.04 219.422,189.313 218.528,189.313 L206.015,189.313 C205.121,189.313 204.394,190.04 204.394,190.934" id="Fill-122"></path>
            <path d="M197.967,192.554 C198.86,192.554 199.587,191.827 199.587,190.934 C199.587,190.04 198.86,189.313 197.967,189.313 L197.076,189.313 C196.183,189.313 195.456,190.04 195.456,190.934 C195.456,191.827 196.183,192.554 197.076,192.554 L197.967,192.554" id="Fill-123"></path>
            <path d="M496.56,174.76 C496.56,175.653 497.29,176.38 498.183,176.38 L508.314,176.38 C509.207,176.38 509.934,175.653 509.934,174.76 C509.934,173.866 509.207,173.139 508.314,173.139 L498.183,173.139 C497.29,173.139 496.56,173.866 496.56,174.76" id="Fill-124"></path>
            <path d="M478.218,176.38 L494.308,176.38 C495.202,176.38 495.929,175.653 495.929,174.76 C495.929,173.866 495.202,173.139 494.308,173.139 L478.218,173.139 C477.324,173.139 476.597,173.866 476.597,174.76 C476.597,175.653 477.324,176.38 478.218,176.38" id="Fill-125"></path>
            <path d="M203.892,176.38 L206.274,176.38 C207.168,176.38 207.895,175.653 207.895,174.76 C207.895,173.866 207.168,173.139 206.274,173.139 L203.892,173.139 C202.998,173.139 202.271,173.866 202.271,174.76 C202.271,175.653 202.998,176.38 203.892,176.38" id="Fill-126"></path>
            <path d="M482.922,160.203 C483.816,160.203 484.543,159.476 484.543,158.583 C484.543,157.689 483.816,156.962 482.922,156.962 L481.731,156.962 C480.837,156.962 480.11,157.689 480.11,158.583 C480.11,159.476 480.837,160.203 481.731,160.203 L482.922,160.203" id="Fill-127"></path>
            <path d="M234.913,158.583 C234.913,159.476 235.64,160.203 236.534,160.203 L237.725,160.203 C238.619,160.203 239.346,159.476 239.346,158.583 C239.346,157.689 238.619,156.962 237.725,156.962 L236.534,156.962 C235.64,156.962 234.913,157.689 234.913,158.583" id="Fill-128"></path>
            <path d="M221.936,160.203 C222.829,160.203 223.556,159.476 223.556,158.583 C223.556,157.689 222.829,156.962 221.936,156.962 L220.741,156.962 C219.848,156.962 219.121,157.689 219.121,158.583 C219.121,159.476 219.848,160.203 220.741,160.203 L221.936,160.203" id="Fill-129"></path>
            <path d="M208.862,174.76 C208.862,175.653 209.589,176.38 210.483,176.38 L233.424,176.38 C234.317,176.38 235.048,175.653 235.048,174.76 C235.048,173.866 234.317,173.139 233.424,173.139 L210.483,173.139 C209.589,173.139 208.862,173.866 208.862,174.76" id="Fill-130"></path>
            <path d="M499.458,156.962 L493.2,156.962 C492.306,156.962 491.579,157.689 491.579,158.583 C491.579,159.476 492.306,160.203 493.2,160.203 L499.458,160.203 C500.352,160.203 501.079,159.476 501.079,158.583 C501.079,157.689 500.352,156.962 499.458,156.962" id="Fill-131"></path>
            <path d="M475.175,156.962 L463.853,156.962 C462.96,156.962 462.233,157.689 462.233,158.583 C462.233,159.476 462.96,160.203 463.853,160.203 L475.175,160.203 C476.069,160.203 476.796,159.476 476.796,158.583 C476.796,157.689 476.069,156.962 475.175,156.962" id="Fill-132"></path>
            <path d="M343.54,158.583 C343.54,159.476 344.267,160.203 345.16,160.203 L366.017,160.203 C366.91,160.203 367.637,159.476 367.637,158.583 C367.637,157.689 366.91,156.962 366.017,156.962 L345.16,156.962 C344.267,156.962 343.54,157.689 343.54,158.583" id="Fill-133"></path>
            <path d="M230.871,160.203 C231.765,160.203 232.492,159.476 232.492,158.583 C232.492,157.689 231.765,156.962 230.871,156.962 L226.106,156.962 C225.212,156.962 224.485,157.689 224.485,158.583 C224.485,159.476 225.212,160.203 226.106,160.203 L230.871,160.203" id="Fill-134"></path>
            <path d="M363.695,147.953 C363.695,148.847 364.422,149.577 365.315,149.577 L373.658,149.577 C374.552,149.577 375.279,148.847 375.279,147.953 C375.279,147.059 374.552,146.332 373.658,146.332 L365.315,146.332 C364.422,146.332 363.695,147.059 363.695,147.953" id="Fill-135"></path>
            <path d="M345.817,147.953 C345.817,148.847 346.544,149.577 347.438,149.577 L360.847,149.577 C361.741,149.577 362.468,148.847 362.468,147.953 C362.468,147.059 361.741,146.332 360.847,146.332 L347.438,146.332 C346.544,146.332 345.817,147.059 345.817,147.953" id="Fill-136"></path>
            <path d="M336.475,147.953 C336.475,148.847 337.202,149.577 338.095,149.577 L340.779,149.577 C341.673,149.577 342.4,148.847 342.4,147.953 C342.4,147.059 341.673,146.332 340.779,146.332 L338.095,146.332 C337.202,146.332 336.475,147.059 336.475,147.953" id="Fill-137"></path>
            <path d="M454.229,131.779 C454.229,132.673 454.956,133.4 455.85,133.4 L465.086,133.4 C465.98,133.4 466.71,132.673 466.71,131.779 C466.71,130.886 465.98,130.159 465.086,130.159 L455.85,130.159 C454.956,130.159 454.229,130.886 454.229,131.779" id="Fill-138"></path>
            <path d="M367.077,131.779 C367.077,132.673 367.807,133.4 368.7,133.4 L380.618,133.4 C381.511,133.4 382.238,132.673 382.238,131.779 C382.238,130.886 381.511,130.159 380.618,130.159 L368.7,130.159 C367.807,130.159 367.077,130.886 367.077,131.779" id="Fill-139"></path>
            <path d="M354.397,130.159 L345.756,130.159 C344.863,130.159 344.136,130.886 344.136,131.779 C344.136,132.673 344.863,133.4 345.756,133.4 L354.397,133.4 C355.291,133.4 356.018,132.673 356.018,131.779 C356.018,130.886 355.291,130.159 354.397,130.159" id="Fill-140"></path>
            <path d="M313.745,131.779 C313.745,132.673 314.472,133.4 315.366,133.4 L325.198,133.4 C326.091,133.4 326.818,132.673 326.818,131.779 C326.818,130.886 326.091,130.159 325.198,130.159 L315.366,130.159 C314.472,130.159 313.745,130.886 313.745,131.779" id="Fill-141"></path>
            <path d="M269.89,131.779 C269.89,130.886 269.16,130.159 268.266,130.159 L238.664,130.159 C237.77,130.159 237.043,130.886 237.043,131.779 C237.043,132.673 237.77,133.4 238.664,133.4 L268.266,133.4 C269.16,133.4 269.89,132.673 269.89,131.779" id="Fill-142"></path>
            <path d="M333.512,133.4 C334.406,133.4 335.133,132.673 335.133,131.779 C335.133,130.886 334.406,130.159 333.512,130.159 L332.622,130.159 C331.728,130.159 331.001,130.886 331.001,131.779 C331.001,132.673 331.728,133.4 332.622,133.4 L333.512,133.4" id="Fill-143"></path>
            <path d="M338.733,130.159 L337.845,130.159 C336.952,130.159 336.222,130.886 336.222,131.779 C336.222,132.673 336.952,133.4 337.845,133.4 L338.733,133.4 C339.626,133.4 340.353,132.673 340.353,131.779 C340.353,130.886 339.626,130.159 338.733,130.159" id="Fill-144"></path>
            <path d="M380.541,146.332 L379.651,146.332 C378.757,146.332 378.03,147.059 378.03,147.953 C378.03,148.847 378.757,149.577 379.651,149.577 L380.541,149.577 C381.435,149.577 382.162,148.847 382.162,147.953 C382.162,147.059 381.435,146.332 380.541,146.332" id="Fill-145"></path>
            <path d="M353.074,115.606 C353.074,116.499 353.801,117.226 354.695,117.226 L372.87,117.226 C373.764,117.226 374.491,116.499 374.491,115.606 C374.491,114.712 373.764,113.985 372.87,113.985 L354.695,113.985 C353.801,113.985 353.074,114.712 353.074,115.606" id="Fill-146"></path>
            <path d="M329.07,117.226 L350.227,117.226 C351.121,117.226 351.848,116.499 351.848,115.606 C351.848,114.712 351.121,113.985 350.227,113.985 L329.07,113.985 C328.176,113.985 327.449,114.712 327.449,115.606 C327.449,116.499 328.176,117.226 329.07,117.226" id="Fill-147"></path>
            <path d="M318.94,113.985 L309.703,113.985 C308.81,113.985 308.083,114.712 308.083,115.606 C308.083,116.499 308.81,117.226 309.703,117.226 L318.94,117.226 C319.833,117.226 320.56,116.499 320.56,115.606 C320.56,114.712 319.833,113.985 318.94,113.985" id="Fill-148"></path>
            <path d="M254.636,117.226 L257.022,117.226 C257.138,117.226 257.21,117.126 257.319,117.102 C257.429,117.126 257.501,117.226 257.617,117.226 L290.932,117.226 C291.826,117.226 292.553,116.499 292.553,115.606 C292.553,114.712 291.826,113.985 290.932,113.985 L257.617,113.985 C257.501,113.985 257.429,114.085 257.319,114.109 C257.21,114.085 257.138,113.985 257.022,113.985 L254.636,113.985 C253.742,113.985 253.015,114.712 253.015,115.606 C253.015,116.499 253.742,117.226 254.636,117.226" id="Fill-149"></path>
            <path d="M324.772,117.226 C325.665,117.226 326.393,116.499 326.393,115.606 C326.393,114.712 325.665,113.985 324.772,113.985 L323.581,113.985 C322.687,113.985 321.96,114.712 321.96,115.606 C321.96,116.499 322.687,117.226 323.581,117.226 L324.772,117.226" id="Fill-150"></path>
            <path d="M299.525,117.226 C300.418,117.226 301.145,116.499 301.145,115.606 C301.145,114.712 300.418,113.985 299.525,113.985 L298.333,113.985 C297.44,113.985 296.713,114.712 296.713,115.606 C296.713,116.499 297.44,117.226 298.333,117.226 L299.525,117.226" id="Fill-151"></path>
            <path d="M367.679,101.049 L368.87,101.049 C369.764,101.049 370.491,100.322 370.491,99.429 C370.491,98.535 369.764,97.808 368.87,97.808 L367.679,97.808 C366.785,97.808 366.058,98.535 366.058,99.429 C366.058,100.322 366.785,101.049 367.679,101.049" id="Fill-152"></path>
            <path d="M404.376,101.049 C405.269,101.049 405.996,100.322 405.996,99.429 C405.996,98.535 405.269,97.808 404.376,97.808 L403.184,97.808 C402.291,97.808 401.564,98.535 401.564,99.429 C401.564,100.322 402.291,101.049 403.184,101.049 L404.376,101.049" id="Fill-153"></path>
            <path d="M381.214,117.226 C382.107,117.226 382.834,116.499 382.834,115.606 C382.834,114.712 382.107,113.985 381.214,113.985 L380.022,113.985 C379.129,113.985 378.402,114.712 378.402,115.606 C378.402,116.499 379.129,117.226 380.022,117.226 L381.214,117.226" id="Fill-154"></path>
            <path d="M376.105,101.049 L396.965,101.049 C397.858,101.049 398.585,100.322 398.585,99.429 C398.585,98.535 397.858,97.808 396.965,97.808 L376.105,97.808 C375.212,97.808 374.485,98.535 374.485,99.429 C374.485,100.322 375.212,101.049 376.105,101.049" id="Fill-155"></path>
            <path d="M330.815,101.049 L362.103,101.049 C362.996,101.049 363.723,100.322 363.723,99.429 C363.723,98.535 362.996,97.808 362.103,97.808 L330.815,97.808 C329.922,97.808 329.195,98.535 329.195,99.429 C329.195,100.322 329.922,101.049 330.815,101.049" id="Fill-156"></path>
            <path d="M291.018,101.049 L326.178,101.049 C327.072,101.049 327.799,100.322 327.799,99.429 C327.799,98.535 327.072,97.808 326.178,97.808 L291.018,97.808 C290.125,97.808 289.398,98.535 289.398,99.429 C289.398,100.322 290.125,101.049 291.018,101.049" id="Fill-157"></path>
            <path d="M364.06,250.76 L387.85,270.178 L340.267,270.178 L364.06,250.76 L364.06,250.76 Z M337.343,288.722 L390.774,288.722 L390.774,273.42 L337.343,273.42 L337.343,288.722 Z M382.19,261.281 L365.046,247.071 C364.758,246.831 364.39,246.696 364.015,246.696 C363.64,246.696 363.272,246.827 362.977,247.071 L345.929,261.272 L345.929,253.691 C345.929,243.74 354.026,235.643 363.976,235.643 C373.927,235.643 382.024,243.74 382.024,253.691 C382.024,253.944 382.081,254.184 382.19,254.405 L382.19,261.281 L382.19,261.281 Z M535.889,324.228 L545.327,313.771 L555.826,324.276 L555.826,331.639 L535.889,331.639 L535.889,324.228 L535.889,324.228 Z M546.41,310.28 C546.112,309.979 545.718,309.802 545.241,309.802 L545.228,309.802 C544.786,309.812 544.36,310.007 544.062,310.337 L537.952,317.108 L545.343,293.164 L553.687,317.553 L546.41,310.28 L546.41,310.28 Z M574.565,334.883 L587.44,347.755 L541.449,347.755 L528.572,334.883 L574.565,334.883 L574.565,334.883 Z M335.722,291.963 L422.436,291.963 L422.436,301.555 L306.808,301.555 L306.808,291.963 L335.722,291.963 L335.722,291.963 Z M419.922,343.918 L419.371,343.707 L408.99,333.323 L446.421,333.323 L457.016,343.918 L419.922,343.918 L419.922,343.918 Z M323.315,336.081 L309.964,322.735 L382.03,322.735 L395.401,336.103 L323.641,336.103 C323.536,336.103 323.47,336.196 323.37,336.216 C323.339,336.177 323.35,336.116 323.315,336.081 L323.315,336.081 Z M456.301,314.604 C456.169,314.682 456.009,314.692 455.904,314.804 C455.894,314.814 455.875,314.81 455.866,314.821 L442.337,329.81 C442.268,329.887 442.293,329.996 442.241,330.082 L405.077,330.082 C405.072,330.082 405.069,330.087 405.064,330.087 C405.059,330.087 405.057,330.082 405.051,330.082 L405.039,330.082 C404.903,330.085 404.81,330.21 404.681,330.246 C404.398,330.328 404.11,330.39 403.913,330.599 C403.902,330.61 403.883,330.606 403.873,330.617 L399.427,335.543 L383.849,319.968 C383.545,319.667 383.129,319.491 382.703,319.491 L306.052,319.491 C306.044,319.491 306.04,319.499 306.032,319.499 C306.028,319.499 306.025,319.494 306.02,319.494 L306.014,319.494 C305.906,319.496 305.835,319.6 305.731,319.624 C305.414,319.697 305.104,319.782 304.887,320.012 C304.878,320.022 304.86,320.018 304.851,320.029 L291.526,334.789 L280.421,323.686 C280.113,323.382 279.706,323.212 279.274,323.212 L271.815,323.212 L271.815,304.797 L456.301,304.797 L456.301,314.604 L456.301,314.604 Z M269.801,326.453 C269.942,326.493 270.041,326.617 270.194,326.617 C270.348,326.617 270.447,326.493 270.588,326.453 L278.602,326.453 L290.276,338.126 C290.343,338.22 290.33,338.348 290.42,338.428 C290.486,338.488 290.587,338.465 290.661,338.511 L291.476,339.325 L245.485,339.325 L232.608,326.453 L269.801,326.453 L269.801,326.453 Z M473.852,330.399 L460.98,317.527 L506.975,317.527 L519.846,330.399 L473.852,330.399 L473.852,330.399 Z M365.892,219.524 L386.13,219.524 L386.13,208.552 L365.892,208.552 L365.892,219.524 Z M141.624,361.639 L128.75,348.767 L161.395,348.767 L161.395,361.639 L141.624,361.639 L141.624,361.639 Z M178.709,328.644 C178.408,328.346 178.017,328.17 177.543,328.17 L177.524,328.17 C177.078,328.18 176.652,328.375 176.361,328.705 L166.69,339.42 L177.639,303.951 L189.928,339.864 L178.709,328.644 L178.709,328.644 Z M215.863,348.767 L228.908,361.639 L195.299,361.639 L195.299,348.767 L215.863,348.767 L215.863,348.767 Z M123.635,346.061 L109.088,362.177 C108.819,362.474 108.668,362.859 108.668,363.259 L108.668,381.854 C108.668,382.748 109.395,383.475 110.289,383.475 C111.182,383.475 111.913,382.748 111.913,381.854 L111.913,363.884 L124.897,349.497 L139.331,363.932 L139.331,381.854 C139.331,382.748 140.058,383.475 140.952,383.475 C141.845,383.475 142.572,382.748 142.572,381.854 L142.572,364.883 L161.395,364.883 L161.395,381.854 C161.395,382.748 162.122,383.475 163.015,383.475 C163.909,383.475 164.636,382.748 164.636,381.854 L164.636,346.528 L177.623,332.141 L192.058,346.576 L192.058,381.854 C192.058,382.748 192.785,383.475 193.678,383.475 C194.572,383.475 195.299,382.748 195.299,381.854 L195.299,364.883 L229.353,364.883 L229.353,376.07 C229.353,376.964 230.08,377.691 230.974,377.691 C231.867,377.691 232.594,376.964 232.594,376.07 L232.594,361.402 C232.594,360.969 232.418,360.546 232.114,360.249 L217.667,345.993 C217.362,345.692 216.956,345.526 216.526,345.526 L215.774,345.526 L215.774,341.57 L228.758,327.184 L243.192,341.618 L243.192,350.615 C243.192,351.508 243.919,352.239 244.813,352.239 C245.706,352.239 246.433,351.508 246.433,350.615 L246.433,342.566 L293.77,342.566 L293.77,359.541 C293.77,360.434 294.497,361.161 295.39,361.161 C296.284,361.161 297.011,360.434 297.011,359.541 L297.011,340.946 C297.011,340.52 296.838,340.1 296.537,339.799 L293.82,337.083 L306.113,323.462 L320.548,337.9 L320.548,374.984 C320.548,375.878 321.275,376.605 322.168,376.605 C323.062,376.605 323.789,375.878 323.789,374.984 L323.789,339.344 L397.198,339.344 L397.198,367.656 C397.198,368.55 397.925,369.277 398.819,369.277 C399.712,369.277 400.439,368.55 400.439,367.656 L400.439,339.255 L405.138,334.053 L417.318,346.237 C417.478,346.394 417.664,346.515 417.875,346.599 L417.994,346.645 L417.994,386.075 C417.994,386.969 418.721,387.696 419.614,387.696 C420.508,387.696 421.235,386.969 421.235,386.075 L421.235,347.159 L458.86,347.159 L458.86,365.024 C458.86,365.917 459.587,366.644 460.481,366.644 C461.374,366.644 462.105,365.917 462.105,365.024 L462.105,345.538 C462.105,345.45 462.024,345.396 462.01,345.311 C462.023,345.23 462.101,345.173 462.101,345.09 C462.101,344.658 461.932,344.251 461.627,343.944 L448.24,330.556 C447.939,330.255 447.519,330.082 447.093,330.082 L446.455,330.082 L457.131,318.258 L471.562,332.692 L471.562,374.984 C471.562,375.878 472.289,376.605 473.183,376.605 C474.076,376.605 474.803,375.878 474.803,374.984 L474.803,333.644 L522.135,333.644 L508.912,348.293 C508.643,348.591 508.493,348.975 508.493,349.375 L508.493,357.433 C508.493,358.327 509.22,359.054 510.113,359.054 C511.007,359.054 511.737,358.327 511.737,357.433 L511.737,350 L524.721,335.613 L539.153,350.048 L539.153,377.764 C539.153,378.658 539.883,379.385 540.776,379.385 C541.67,379.385 542.397,378.658 542.397,377.764 L542.397,350.999 L589.733,350.999 L589.733,371.029 C589.733,371.922 590.46,372.65 591.354,372.65 C592.247,372.65 592.974,371.922 592.974,371.029 L592.974,349.375 C592.974,348.949 592.801,348.53 592.5,348.229 L576.384,332.116 C576.08,331.815 575.664,331.639 575.238,331.639 L559.07,331.639 L559.07,323.603 C559.07,323.503 558.978,323.435 558.961,323.339 C558.947,323.228 559.019,323.127 558.981,323.017 L546.797,287.406 C546.576,286.765 545.974,286.336 545.241,286.311 C544.536,286.32 543.925,286.778 543.716,287.454 L532.721,323.062 C532.692,323.157 532.759,323.249 532.748,323.346 C532.731,323.438 532.648,323.507 532.648,323.603 L532.648,331.639 L525.222,331.639 C525.149,331.368 525.109,331.081 524.907,330.876 L508.791,314.76 C508.483,314.456 508.077,314.286 507.644,314.286 L459.542,314.286 L459.542,303.176 C459.542,302.283 458.815,301.555 457.922,301.555 L425.677,301.555 L425.677,290.343 C425.677,289.449 424.95,288.722 424.056,288.722 L394.015,288.722 L394.015,271.799 C394.015,271.734 393.953,271.695 393.945,271.631 C393.914,271.345 393.803,271.1 393.628,270.867 C393.566,270.785 393.546,270.694 393.47,270.625 C393.446,270.603 393.444,270.567 393.419,270.547 L385.431,264.026 L385.431,253.691 C385.431,253.431 385.367,253.178 385.249,252.951 C384.883,242.246 376.358,233.543 365.844,232.59 L365.844,222.765 L387.75,222.765 C388.644,222.765 389.371,222.038 389.371,221.145 L389.371,206.931 C389.371,206.038 388.644,205.307 387.75,205.307 L365.844,205.307 L365.844,204.945 C365.844,204.052 365.117,203.325 364.223,203.325 C363.33,203.325 362.603,204.052 362.603,204.945 L362.603,232.541 C351.511,233.265 342.685,242.423 342.685,253.691 L342.685,264.027 L334.697,270.547 C334.672,270.567 334.67,270.603 334.646,270.625 C334.571,270.694 334.55,270.784 334.489,270.866 C334.314,271.1 334.202,271.345 334.171,271.631 C334.164,271.695 334.101,271.734 334.101,271.799 L334.101,288.722 L305.187,288.722 C304.294,288.722 303.567,289.449 303.567,290.343 L303.567,301.555 L270.194,301.555 C269.301,301.555 268.574,302.283 268.574,303.176 L268.574,323.212 L228.697,323.212 C228.691,323.212 228.687,323.219 228.681,323.219 C228.674,323.219 228.671,323.212 228.665,323.212 L228.658,323.212 C228.524,323.215 228.433,323.339 228.305,323.375 C228.02,323.455 227.732,323.52 227.534,323.73 C227.524,323.74 227.505,323.736 227.496,323.747 L212.946,339.863 C212.68,340.161 212.533,340.545 212.533,340.946 L212.533,345.526 L195.195,345.526 C195.181,345.447 195.236,345.376 195.209,345.298 L179.096,298.196 C178.875,297.549 178.238,297.094 177.536,297.094 C176.832,297.11 176.22,297.568 176.012,298.241 L161.468,345.343 C161.45,345.404 161.497,345.464 161.486,345.526 L124.836,345.526 C124.83,345.526 124.826,345.532 124.82,345.532 C124.82,345.532 124.81,345.526 124.804,345.526 L124.797,345.526 C124.662,345.528 124.573,345.653 124.444,345.688 C124.159,345.769 123.871,345.833 123.673,346.043 C123.663,346.053 123.644,346.05 123.635,346.061 L123.635,346.061 Z" id="Fill-158"></path>
            <path d="M480.703,627.154 L489.443,650.261 L464.558,633.899 L463.927,633.492 L460.699,634.715 L471.687,663.761 L471.863,664.222 L475.383,662.88 L466.643,639.772 L491.531,656.135 L492.162,656.542 L495.387,655.315 L484.223,625.805 L480.703,627.154" id="Fill-159"></path>
        </g>
    </g>
</svg>
