<?xml version="1.0" encoding="utf-8"?>
<!-- Generator: Adobe Illustrator 19.1.0, SVG Export Plug-In . SVG Version: 6.00 Build 0)  -->
<svg version="1.1" id="Layer_1" xmlns:sketch="http://www.bohemiancoding.com/sketch/ns"
	 xmlns="http://www.w3.org/2000/svg" xmlns:xlink="http://www.w3.org/1999/xlink" x="0px" y="0px" viewBox="170.6 16 382.8 9"
	 style="enable-background:new 170.6 16 382.8 9;" xml:space="preserve">
<style type="text/css">
	.st0{fill:none;stroke:#ECECEC;stroke-width:3;}
</style>
<title>squiggly-line</title>
<desc>Created with Sketch.</desc>
<g id="Page-1" sketch:type="MSPage">
	<g id="squiggly-line" transform="translate(0.000000, 1.000000)" sketch:type="MSLayerGroup">
		<path id="Imported-Layers" sketch:type="MSShapeGroup" class="st0" d="M170.6,22.4c8.7,0,8.7-5.8,17.4-5.8s8.7,5.8,17.4,5.8
			s8.7-5.8,17.4-5.8s8.7,5.8,17.4,5.8s8.7-5.8,17.4-5.8c8.7,0,8.7,5.8,17.4,5.8c8.7,0,8.7-5.8,17.4-5.8s8.7,5.8,17.4,5.8
			c8.7,0,8.7-5.8,17.4-5.8c8.7,0,8.7,5.8,17.4,5.8c8.7,0,8.7-5.8,17.4-5.8c8.7,0,8.7,5.8,17.4,5.8s8.7-5.8,17.4-5.8
			c8.7,0,8.7,5.8,17.4,5.8c8.7,0,8.7-5.8,17.4-5.8c8.7,0,8.7,5.8,17.4,5.8c8.7,0,8.7-5.8,17.4-5.8c8.7,0,8.7,5.8,17.4,5.8
			c8.7,0,8.7-5.8,17.4-5.8s8.7,5.8,17.4,5.8c8.7,0,8.7-5.8,17.4-5.8s8.7,5.8,17.4,5.8"/>
	</g>
</g>
</svg>
