<?xml version="1.0" encoding="utf-8"?>
<!-- Generator: Adobe Illustrator 19.0.1, SVG Export Plug-In . SVG Version: 6.00 Build 0)  -->
<svg version="1.1" id="Layer_1" xmlns="http://www.w3.org/2000/svg" xmlns:xlink="http://www.w3.org/1999/xlink" x="0px" y="0px"
	 viewBox="0 0 180.7 40.3" enable-background="new 0 0 180.7 40.3" xml:space="preserve">
<g>
	<g>
		<path fill="#FFFFFF" d="M0.9,1h21.8v5.6h-7.3v22.7H8.2V6.6H0.9V1z"/>
		<path fill="#FFFFFF" d="M49.9,1.1v28.2h-7.1v-12H32.5v12h-7.1V1.1h7.1v10.2h10.3V1.1H49.9z"/>
		<path fill="#FFFFFF" d="M56.7,1.1h20.9v5.5H63.7v5.1h12.9V17H63.7v6.7h15.1v5.6H56.7V1.1z"/>
		<path fill="#FFFFFF" d="M118,1.1v28.2H111v-12h-10.3v12h-7.1V1.1h7.1v10.2H111V1.1H118z"/>
		<path fill="#FFFFFF" d="M148.7,1.1v15.8c0,2.7-0.1,5.4-1.6,8c-3,4.9-9.3,5.1-10.5,5.1c-2.1,0-4.6-0.5-6.6-1.5
			c-5.4-2.8-5.4-7.8-5.4-11.6V1.1h7.1v17.6c0,1.4,0,2.6,0.5,3.5c0.9,1.5,2.8,1.9,4.6,1.9c4.8,0,4.8-3.3,4.8-5.5V1.1H148.7z"/>
		<path fill="#FFFFFF" d="M155.2,1.1h10.9c3,0,5.6,0.1,7.4,0.7c3.5,1.1,4.9,3.9,4.9,6.6c0,1.5-0.4,2.4-0.5,2.7
			c-1.3,2.9-4,3.4-5.5,3.8c1.7,0.3,4,0.6,5.6,2.4c1,1.1,1.6,2.6,1.6,4.2c0,2.2-1.2,5.3-4.7,6.8c-2.1,0.9-4.4,1-7.6,1h-11.9V1.1z
			 M162,6.4v5.9h5.3c1.6,0,4.2-0.1,4.2-3c0-2.7-2.4-2.8-3.7-2.8H162z M162,17.4v6.8h4.9c2.4,0,5.4-0.1,5.4-3.4
			c0-3.4-2.8-3.4-4.2-3.5H162z"/>
	</g>
	<g>
		<defs>
			<rect id="SVGID_1_" x="93.5" y="35.6" width="85.9" height="3.6"/>
		</defs>
		<clipPath id="SVGID_2_">
			<use xlink:href="#SVGID_1_"  overflow="visible"/>
		</clipPath>
		<g clip-path="url(#SVGID_2_)">
			<defs>
				<rect id="SVGID_3_" x="18" y="15.3" width="161.5" height="24"/>
			</defs>
			<clipPath id="SVGID_4_">
				<use xlink:href="#SVGID_3_"  overflow="visible"/>
			</clipPath>
			<rect x="89" y="30.6" clip-path="url(#SVGID_4_)" fill="#EF5146" width="95" height="13.6"/>
		</g>
	</g>
</g>
</svg>
