<?xml version="1.0" encoding="utf-8"?>
<!-- Generator: Adobe Illustrator 19.1.0, SVG Export Plug-In . SVG Version: 6.00 Build 0)  -->
<svg version="1.1" id="Layer_2" xmlns="http://www.w3.org/2000/svg" xmlns:xlink="http://www.w3.org/1999/xlink" x="0px" y="0px"
	 viewBox="0 0 40 40" style="enable-background:new 0 0 40 40;" xml:space="preserve">
<style type="text/css">
	.st0{fill:#FFFFFF;}
	.st1{fill:#0C1F2E;stroke:#0C1F2E;stroke-width:0.25;stroke-miterlimit:10;}
</style>
<g>
	<circle class="st0" cx="20" cy="20" r="20"/>
	<path class="st1" d="M31.4,29.3c-0.2-5-3.5-9.1-8.3-10.5c2.2-1.2,3.6-3.5,3.6-5.9c0-3.7-3-6.7-6.7-6.7s-6.7,3-6.7,6.7
		c0,2.5,1.4,4.8,3.6,5.9c-4.7,1.3-8,5.5-8.3,10.5l0,0.6h22.8L31.4,29.3z M20.2,18.5C20.2,18.5,20.1,18.5,20.2,18.5
		c-0.2,0-0.2,0-0.3,0c0,0-0.1,0-0.1,0c-3.1-0.1-5.5-2.6-5.5-5.7c0-3.1,2.6-5.7,5.7-5.7s5.7,2.6,5.7,5.7
		C25.7,15.9,23.3,18.4,20.2,18.5z M19.8,19.6L19.8,19.6c0.2,0,0.2,0,0.3,0l0.1,0c5.2,0.1,9.4,4,9.9,9.1H9.9
		C10.4,23.7,14.7,19.7,19.8,19.6z"/>
</g>
</svg>
