<svg id="Layer_1" xmlns="http://www.w3.org/2000/svg" xmlns:xlink="http://www.w3.org/1999/xlink" viewBox="-479 1743 1440 516"><style>.st0{clip-path:url(#SVGID_2_);fill:#24A0BC;}</style><defs><path id="SVGID_1_" d="M-479 1743H961v516H-479z"/></defs><clipPath id="SVGID_2_"><use xlink:href="#SVGID_1_" overflow="visible"/></clipPath><path class="st0" d="M688.92 1716.256l1.413 1.415L91.335 2316.5l-1.414-1.415zM719 1716.302l1.414 1.414-598.998 598.83-1.414-1.415zM749.01 1716.276l1.415 1.414-599 598.83-1.413-1.415zM869.123 1716.244l1.414 1.414-599 598.83-1.413-1.415zM839.112 1716.27l1.414 1.414-598.998 598.83-1.414-1.415zM809.102 1716.295l1.414 1.415-598.998 598.83-1.414-1.416zM779.02 1716.25l1.415 1.415-598.998 598.83-1.414-1.416zM899.204 1716.29l1.414 1.414-599 598.83-1.413-1.416zM1019.316 1716.257l1.414 1.415-599 598.83-1.413-1.416zM989.306 1716.283l1.414 1.414-599 598.83-1.413-1.415zM959.225 1716.238l1.414 1.414-599 598.83-1.414-1.415zM929.214 1716.263l1.414 1.415-598.998 598.83-1.414-1.416zM1049.326 1716.232l1.414 1.414-598.998 598.83-1.414-1.415zM1169.51 1716.27l1.413 1.415-598.998 598.83-1.414-1.415zM1139.5 1716.296l1.413 1.415-599 598.83-1.413-1.415zM1109.418 1716.25l1.414 1.416-599 598.83-1.413-1.416zM1079.407 1716.277l1.414 1.414-598.997 598.83-1.414-1.414zM1199.52 1716.245l1.413 1.414-598.998 598.828-1.414-1.414zM1319.702 1716.284l1.414 1.414-598.998 598.83-1.414-1.415zM1289.62 1716.24l1.415 1.413-598.998 598.83-1.414-1.415zM1259.61 1716.264l1.415 1.415-599 598.828-1.413-1.415zM1229.6 1716.29l1.414 1.414-598.998 598.83-1.414-1.415zM1349.712 1716.258l1.414 1.415-598.998 598.83-1.414-1.416zM1469.824 1716.226l1.414 1.415-598.998 598.83-1.414-1.415zM1439.814 1716.252l1.414 1.415-598.998 598.83-1.414-1.416zM1409.804 1716.278l1.414 1.414-599 598.83-1.413-1.415zM1379.723 1716.233l1.414 1.414-599 598.83-1.413-1.415zM1499.905 1716.272l1.414 1.414-599 598.83-1.413-1.415zM-152.077 1716.267l1.414 1.414-598.998 598.83-1.415-1.414zM-122.067 1716.24l1.414 1.416-598.998 598.83-1.415-1.416zM-91.986 1716.286l1.414 1.415-598.998 598.83-1.414-1.415zM28.127 1716.255l1.414 1.414-598.998 598.828-1.414-1.414zM-1.884 1716.28l1.414 1.415-598.998 598.83-1.414-1.416zM-31.894 1716.306l1.414 1.414-599 598.83-1.413-1.415zM-61.975 1716.26l1.414 1.415-599 598.83-1.414-1.415zM58.208 1716.3l1.414 1.414-599 598.83-1.413-1.415zM178.32 1716.268l1.414 1.414-599 598.83-1.413-1.415zM148.31 1716.293l1.413 1.415-598.998 598.83-1.414-1.415zM118.228 1716.248l1.414 1.415-598.998 598.83-1.414-1.416zM88.218 1716.274l1.414 1.414-599 598.83-1.413-1.415zM208.33 1716.242l1.414 1.415-598.998 598.83-1.414-1.416zM328.513 1716.28l1.414 1.416-599 598.83-1.413-1.416zM298.432 1716.236l1.414 1.414-599 598.83-1.413-1.415zM268.42 1716.262l1.415 1.414-598.998 598.83-1.414-1.415zM238.41 1716.287l1.415 1.415-598.998 598.83-1.414-1.416zM358.523 1716.256l1.414 1.414-598.998 598.83-1.415-1.415zM478.706 1716.294l1.414 1.415-599 598.828-1.413-1.415zM448.625 1716.25l1.414 1.414-599 598.83-1.414-1.416zM418.614 1716.275l1.414 1.414-598.998 598.828-1.414-1.414zM388.604 1716.3l1.414 1.415-598.998 598.83-1.414-1.415zM508.716 1716.27l1.414 1.413-598.998 598.83-1.414-1.415zM628.828 1716.237l1.414 1.414-598.998 598.83-1.414-1.414zM598.818 1716.263l1.414 1.414-599 598.83-1.413-1.415zM568.807 1716.288l1.414 1.415-598.997 598.83-1.414-1.416zM538.726 1716.243l1.414 1.415-598.998 598.83-1.414-1.416zM658.91 1716.282l1.413 1.414-598.998 598.83-1.414-1.415zM-362.29 1716.305l1.413 1.414-598.998 598.828-1.414-1.414zM-392.372 1716.26l1.414 1.414-598.998 598.83-1.414-1.415zM-422.382 1716.286l1.414 1.414-598.998 598.83-1.414-1.415zM-452.463 1716.24l1.414 1.415-598.997 598.83-1.414-1.416zM-332.28 1716.28l1.414 1.414-599 598.83-1.413-1.416zM-212.168 1716.247l1.414 1.415-599 598.83-1.413-1.416zM-242.18 1716.273l1.415 1.415-598.998 598.83-1.414-1.416zM-272.19 1716.3l1.415 1.413-598.998 598.83-1.414-1.415zM-302.27 1716.254l1.414 1.414-598.998 598.83-1.414-1.415zM-182.087 1716.293l1.414 1.414-599 598.83-1.413-1.415z"/></svg>
