<svg xmlns="http://www.w3.org/2000/svg" viewBox="0 0 200 200"><path fill="#0C1F2E" d="M.5 0h200v199.7H.5z"/><path fill="none" stroke="#4286C6" stroke-width="3" stroke-miterlimit="10" d="M47.2 65h106.7v80.3H47.2zm.8 10.5h106"/><path fill="none" stroke="#4286C6" stroke-width="3" stroke-miterlimit="10" d="M54.8 83.3h12.7V96H54.8zm19 0h12.7V96H73.8zm19 0h12.7V96H92.8zm19 0h12.7V96h-12.7zm19 0h12.7V96h-12.7zm-76 19.5h12.7v12.7H54.8zm19 0h12.7v12.7H73.8zm19 0h12.7v12.7H92.8zm19 0h12.7v12.7h-12.7zm19 0h12.7v12.7h-12.7zm-76 19.4h12.7v12.7H54.8zm19 0h12.7v12.7H73.8zm19 0h12.7v12.7H92.8zm19 0h12.7v12.7h-12.7z"/><path fill="#4286C6" d="M129.8 120.9H145v15.5h-15.2zM47.2 65h106.3v10.5H47.2z"/></svg>