<?xml version="1.0" encoding="utf-8"?>
<!-- Generator: Adobe Illustrator 18.1.1, SVG Export Plug-In . SVG Version: 6.00 Build 0)  -->
<svg version="1.1" xmlns="http://www.w3.org/2000/svg" xmlns:xlink="http://www.w3.org/1999/xlink" x="0px" y="0px"
	 viewBox="0 0 140 140" enable-background="new 0 0 140 140" xml:space="preserve">
<g id="Layer_1">
	<g>
		<defs>
			<path id="SVGID_269_" d="M-895.5-616l-1.4,0.4l0.4,1.4l30.4,99.5l0.4,1.4l1.4-0.4l60.2-18.4l1.4-0.4l-0.4-1.4l-30.4-99.5
				l-0.4-1.4l-1.4,0.4L-895.5-616z M-894.6-613.1l60.2-18.4l-1.9-1l30.4,99.5l1-1.9l-60.2,18.4l1.9,1l-30.4-99.5L-894.6-613.1z
				 M-921.9-628.8l101.4-31l43,140.6l-101.4,31L-921.9-628.8z"/>
		</defs>
		<clipPath id="SVGID_2_">
			<use xlink:href="#SVGID_269_"  overflow="visible"/>
		</clipPath>
		<g clip-path="url(#SVGID_2_)">
			<defs>
				
					<rect id="SVGID_271_" x="-881.2" y="-626" transform="matrix(-0.9563 0.2924 -0.2924 -0.9563 -1830.0953 -874.4894)" width="63" height="104"/>
			</defs>
			<clipPath id="SVGID_4_">
				<use xlink:href="#SVGID_271_"  overflow="visible"/>
			</clipPath>
			<g clip-path="url(#SVGID_4_)">
				<defs>
					<rect id="SVGID_273_" x="-1025.2" y="-923.5" width="1121" height="1030"/>
				</defs>
				<clipPath id="SVGID_6_">
					<use xlink:href="#SVGID_273_"  overflow="visible"/>
				</clipPath>
			</g>
		</g>
	</g>
	<g>
		<defs>
			
				<rect id="SVGID_275_" x="-881.2" y="-626" transform="matrix(-0.9563 0.2924 -0.2924 -0.9563 -1830.0953 -874.4894)" width="63" height="104"/>
		</defs>
		<clipPath id="SVGID_8_">
			<use xlink:href="#SVGID_275_"  overflow="visible"/>
		</clipPath>
		<g clip-path="url(#SVGID_8_)">
			<defs>
				<rect id="SVGID_277_" x="-1025.2" y="-923.5" width="1121" height="1030"/>
			</defs>
			<clipPath id="SVGID_10_">
				<use xlink:href="#SVGID_277_"  overflow="visible"/>
			</clipPath>
		</g>
	</g>
	<g>
		<defs>
			<path id="SVGID_279_" d="M-860.2-639h-1.5v1.5v104v1.5h1.5h63h1.5v-1.5v-104v-1.5h-1.5H-860.2z M-860.2-636h63l-1.5-1.5v104
				l1.5-1.5h-63l1.5,1.5v-104L-860.2-636z M-881.7-659h106v147h-106V-659z"/>
		</defs>
		<clipPath id="SVGID_12_">
			<use xlink:href="#SVGID_279_"  overflow="visible"/>
		</clipPath>
		<g clip-path="url(#SVGID_12_)">
			<defs>
				<rect id="SVGID_281_" x="-860.2" y="-637.5" width="63" height="104"/>
			</defs>
			<clipPath id="SVGID_14_">
				<use xlink:href="#SVGID_281_"  overflow="visible"/>
			</clipPath>
			<g clip-path="url(#SVGID_14_)">
				<defs>
					<rect id="SVGID_283_" x="-1025.2" y="-923.5" width="1121" height="1030"/>
				</defs>
				<clipPath id="SVGID_16_">
					<use xlink:href="#SVGID_283_"  overflow="visible"/>
				</clipPath>
			</g>
		</g>
	</g>
	<g>
		<defs>
			<rect id="SVGID_285_" x="-860.2" y="-637.5" width="63" height="104"/>
		</defs>
		<clipPath id="SVGID_18_">
			<use xlink:href="#SVGID_285_"  overflow="visible"/>
		</clipPath>
		<g clip-path="url(#SVGID_18_)">
			<defs>
				<rect id="SVGID_287_" x="-1025.2" y="-923.5" width="1121" height="1030"/>
			</defs>
			<clipPath id="SVGID_20_">
				<use xlink:href="#SVGID_287_"  overflow="visible"/>
			</clipPath>
		</g>
	</g>
	<g>
		<defs>
			<rect id="SVGID_289_" x="-851.2" y="-609.5" width="44" height="13"/>
		</defs>
		<clipPath id="SVGID_22_">
			<use xlink:href="#SVGID_289_"  overflow="visible"/>
		</clipPath>
		<g clip-path="url(#SVGID_22_)">
			<defs>
				<rect id="SVGID_291_" x="-1025.2" y="-923.5" width="1121" height="1030"/>
			</defs>
			<clipPath id="SVGID_24_">
				<use xlink:href="#SVGID_291_"  overflow="visible"/>
			</clipPath>
		</g>
	</g>
	<g>
		<defs>
			<rect id="SVGID_293_" x="-851.2" y="-599.5" width="44" height="13"/>
		</defs>
		<clipPath id="SVGID_26_">
			<use xlink:href="#SVGID_293_"  overflow="visible"/>
		</clipPath>
		<g clip-path="url(#SVGID_26_)">
			<defs>
				<rect id="SVGID_295_" x="-1025.2" y="-923.5" width="1121" height="1030"/>
			</defs>
			<clipPath id="SVGID_28_">
				<use xlink:href="#SVGID_295_"  overflow="visible"/>
			</clipPath>
		</g>
	</g>
	<g>
		<defs>
			<rect id="SVGID_297_" x="-851.2" y="-589.5" width="44" height="13"/>
		</defs>
		<clipPath id="SVGID_30_">
			<use xlink:href="#SVGID_297_"  overflow="visible"/>
		</clipPath>
		<g clip-path="url(#SVGID_30_)">
			<defs>
				<rect id="SVGID_299_" x="-1025.2" y="-923.5" width="1121" height="1030"/>
			</defs>
			<clipPath id="SVGID_32_">
				<use xlink:href="#SVGID_299_"  overflow="visible"/>
			</clipPath>
		</g>
	</g>
	<g>
		<defs>
			<rect id="SVGID_301_" x="-851.2" y="-579.5" width="44" height="14"/>
		</defs>
		<clipPath id="SVGID_34_">
			<use xlink:href="#SVGID_301_"  overflow="visible"/>
		</clipPath>
		<g clip-path="url(#SVGID_34_)">
			<defs>
				<rect id="SVGID_303_" x="-1025.2" y="-923.5" width="1121" height="1030"/>
			</defs>
			<clipPath id="SVGID_36_">
				<use xlink:href="#SVGID_303_"  overflow="visible"/>
			</clipPath>
		</g>
	</g>
	<g>
		<defs>
			<rect id="SVGID_305_" x="-851.2" y="-568.5" width="44" height="14"/>
		</defs>
		<clipPath id="SVGID_38_">
			<use xlink:href="#SVGID_305_"  overflow="visible"/>
		</clipPath>
		<g clip-path="url(#SVGID_38_)">
			<defs>
				<rect id="SVGID_307_" x="-1025.2" y="-923.5" width="1121" height="1030"/>
			</defs>
			<clipPath id="SVGID_40_">
				<use xlink:href="#SVGID_307_"  overflow="visible"/>
			</clipPath>
		</g>
	</g>
	<g>
		<defs>
			<rect id="SVGID_309_" x="-851.2" y="-557.5" width="44" height="14"/>
		</defs>
		<clipPath id="SVGID_42_">
			<use xlink:href="#SVGID_309_"  overflow="visible"/>
		</clipPath>
		<g clip-path="url(#SVGID_42_)">
			<defs>
				<rect id="SVGID_311_" x="-1025.2" y="-923.5" width="1121" height="1030"/>
			</defs>
			<clipPath id="SVGID_44_">
				<use xlink:href="#SVGID_311_"  overflow="visible"/>
			</clipPath>
		</g>
	</g>
	<g>
		<defs>
			<rect id="SVGID_313_" x="-850.2" y="-627.5" width="3" height="13"/>
		</defs>
		<clipPath id="SVGID_46_">
			<use xlink:href="#SVGID_313_"  overflow="visible"/>
		</clipPath>
		<g clip-path="url(#SVGID_46_)">
			<defs>
				<rect id="SVGID_315_" x="-1025.2" y="-923.5" width="1121" height="1030"/>
			</defs>
			<clipPath id="SVGID_48_">
				<use xlink:href="#SVGID_315_"  overflow="visible"/>
			</clipPath>
		</g>
	</g>
	<g>
		<defs>
			<rect id="SVGID_317_" x="-845.2" y="-627.5" width="3" height="13"/>
		</defs>
		<clipPath id="SVGID_50_">
			<use xlink:href="#SVGID_317_"  overflow="visible"/>
		</clipPath>
		<g clip-path="url(#SVGID_50_)">
			<defs>
				<rect id="SVGID_319_" x="-1025.2" y="-923.5" width="1121" height="1030"/>
			</defs>
			<clipPath id="SVGID_52_">
				<use xlink:href="#SVGID_319_"  overflow="visible"/>
			</clipPath>
		</g>
	</g>
	<g>
		<defs>
			<rect id="SVGID_321_" x="-840.2" y="-627.5" width="3" height="13"/>
		</defs>
		<clipPath id="SVGID_54_">
			<use xlink:href="#SVGID_321_"  overflow="visible"/>
		</clipPath>
		<g clip-path="url(#SVGID_54_)">
			<defs>
				<rect id="SVGID_323_" x="-1025.2" y="-923.5" width="1121" height="1030"/>
			</defs>
			<clipPath id="SVGID_56_">
				<use xlink:href="#SVGID_323_"  overflow="visible"/>
			</clipPath>
		</g>
	</g>
	<g>
		<defs>
			<rect id="SVGID_325_" x="-835.2" y="-627.5" width="3" height="13"/>
		</defs>
		<clipPath id="SVGID_58_">
			<use xlink:href="#SVGID_325_"  overflow="visible"/>
		</clipPath>
		<g clip-path="url(#SVGID_58_)">
			<defs>
				<rect id="SVGID_327_" x="-1025.2" y="-923.5" width="1121" height="1030"/>
			</defs>
			<clipPath id="SVGID_60_">
				<use xlink:href="#SVGID_327_"  overflow="visible"/>
			</clipPath>
		</g>
	</g>
	<g>
		<defs>
			<rect id="SVGID_329_" x="-830.2" y="-627.5" width="3" height="13"/>
		</defs>
		<clipPath id="SVGID_62_">
			<use xlink:href="#SVGID_329_"  overflow="visible"/>
		</clipPath>
		<g clip-path="url(#SVGID_62_)">
			<defs>
				<rect id="SVGID_331_" x="-1025.2" y="-923.5" width="1121" height="1030"/>
			</defs>
			<clipPath id="SVGID_64_">
				<use xlink:href="#SVGID_331_"  overflow="visible"/>
			</clipPath>
		</g>
	</g>
	<g>
		<defs>
			<rect id="SVGID_333_" x="-830.2" y="-576.5" width="3" height="32"/>
		</defs>
		<clipPath id="SVGID_66_">
			<use xlink:href="#SVGID_333_"  overflow="visible"/>
		</clipPath>
		<g clip-path="url(#SVGID_66_)">
			<defs>
				<rect id="SVGID_335_" x="-1025.2" y="-923.5" width="1121" height="1030"/>
			</defs>
			<clipPath id="SVGID_68_">
				<use xlink:href="#SVGID_335_"  overflow="visible"/>
			</clipPath>
		</g>
	</g>
	<g>
		<defs>
			<rect id="SVGID_337_" x="-825.2" y="-627.5" width="3" height="13"/>
		</defs>
		<clipPath id="SVGID_70_">
			<use xlink:href="#SVGID_337_"  overflow="visible"/>
		</clipPath>
		<g clip-path="url(#SVGID_70_)">
			<defs>
				<rect id="SVGID_339_" x="-1025.2" y="-923.5" width="1121" height="1030"/>
			</defs>
			<clipPath id="SVGID_72_">
				<use xlink:href="#SVGID_339_"  overflow="visible"/>
			</clipPath>
		</g>
	</g>
	<g>
		<defs>
			<rect id="SVGID_341_" x="-820.2" y="-627.5" width="3" height="13"/>
		</defs>
		<clipPath id="SVGID_74_">
			<use xlink:href="#SVGID_341_"  overflow="visible"/>
		</clipPath>
		<g clip-path="url(#SVGID_74_)">
			<defs>
				<rect id="SVGID_343_" x="-1025.2" y="-923.5" width="1121" height="1030"/>
			</defs>
			<clipPath id="SVGID_76_">
				<use xlink:href="#SVGID_343_"  overflow="visible"/>
			</clipPath>
		</g>
	</g>
	<g>
		<defs>
			<rect id="SVGID_345_" x="-815.2" y="-627.5" width="3" height="13"/>
		</defs>
		<clipPath id="SVGID_78_">
			<use xlink:href="#SVGID_345_"  overflow="visible"/>
		</clipPath>
		<g clip-path="url(#SVGID_78_)">
			<defs>
				<rect id="SVGID_347_" x="-1025.2" y="-923.5" width="1121" height="1030"/>
			</defs>
			<clipPath id="SVGID_80_">
				<use xlink:href="#SVGID_347_"  overflow="visible"/>
			</clipPath>
		</g>
	</g>
	<g>
		<defs>
			<rect id="SVGID_349_" x="-810.2" y="-627.5" width="3" height="13"/>
		</defs>
		<clipPath id="SVGID_82_">
			<use xlink:href="#SVGID_349_"  overflow="visible"/>
		</clipPath>
		<g clip-path="url(#SVGID_82_)">
			<defs>
				<rect id="SVGID_351_" x="-1025.2" y="-923.5" width="1121" height="1030"/>
			</defs>
			<clipPath id="SVGID_84_">
				<use xlink:href="#SVGID_351_"  overflow="visible"/>
			</clipPath>
		</g>
	</g>
	<g>
		<defs>
			<polyline id="SVGID_353_" points="-892.2,-613.3 -838.9,-579.2 -862.8,-517.5 			"/>
		</defs>
		<clipPath id="SVGID_86_">
			<use xlink:href="#SVGID_353_"  overflow="visible"/>
		</clipPath>
		<g clip-path="url(#SVGID_86_)">
			<defs>
				<rect id="SVGID_355_" x="-1025.2" y="-923.5" width="1121" height="1030"/>
			</defs>
			<clipPath id="SVGID_88_">
				<use xlink:href="#SVGID_355_"  overflow="visible"/>
			</clipPath>
		</g>
	</g>
	<g>
		<defs>
			<path id="SVGID_357_" d="M-729.5-638.5h-1.5v1.5v104v1.5h1.5h63h1.5v-1.5v-104v-1.5h-1.5H-729.5z M-729.5-635.5h63l-1.5-1.5v104
				l1.5-1.5h-63l1.5,1.5v-104L-729.5-635.5z M-751-658.5h106v147h-106V-658.5z"/>
		</defs>
		<clipPath id="SVGID_90_">
			<use xlink:href="#SVGID_357_"  overflow="visible"/>
		</clipPath>
		<g clip-path="url(#SVGID_90_)">
			<defs>
				<rect id="SVGID_359_" x="-729.5" y="-637" width="63" height="104"/>
			</defs>
			<clipPath id="SVGID_92_">
				<use xlink:href="#SVGID_359_"  overflow="visible"/>
			</clipPath>
			<g clip-path="url(#SVGID_92_)">
				<defs>
					<rect id="SVGID_361_" x="-1119.5" y="-917" width="1121" height="1030"/>
				</defs>
				<clipPath id="SVGID_94_">
					<use xlink:href="#SVGID_361_"  overflow="visible"/>
				</clipPath>
			</g>
		</g>
	</g>
	<g>
		<defs>
			<rect id="SVGID_363_" x="-729.5" y="-637" width="63" height="104"/>
		</defs>
		<clipPath id="SVGID_96_">
			<use xlink:href="#SVGID_363_"  overflow="visible"/>
		</clipPath>
		<g clip-path="url(#SVGID_96_)">
			<defs>
				<rect id="SVGID_365_" x="-1119.5" y="-917" width="1121" height="1030"/>
			</defs>
			<clipPath id="SVGID_98_">
				<use xlink:href="#SVGID_365_"  overflow="visible"/>
			</clipPath>
		</g>
	</g>
	<g>
		<defs>
			<rect id="SVGID_367_" x="-720.5" y="-609" width="44" height="13"/>
		</defs>
		<clipPath id="SVGID_100_">
			<use xlink:href="#SVGID_367_"  overflow="visible"/>
		</clipPath>
		<g clip-path="url(#SVGID_100_)">
			<defs>
				<rect id="SVGID_369_" x="-1119.5" y="-917" width="1121" height="1030"/>
			</defs>
			<clipPath id="SVGID_102_">
				<use xlink:href="#SVGID_369_"  overflow="visible"/>
			</clipPath>
		</g>
	</g>
	<g>
		<defs>
			<rect id="SVGID_371_" x="-720.5" y="-599" width="44" height="13"/>
		</defs>
		<clipPath id="SVGID_104_">
			<use xlink:href="#SVGID_371_"  overflow="visible"/>
		</clipPath>
		<g clip-path="url(#SVGID_104_)">
			<defs>
				<rect id="SVGID_373_" x="-1119.5" y="-917" width="1121" height="1030"/>
			</defs>
			<clipPath id="SVGID_106_">
				<use xlink:href="#SVGID_373_"  overflow="visible"/>
			</clipPath>
		</g>
	</g>
	<g>
		<defs>
			<rect id="SVGID_375_" x="-720.5" y="-589" width="44" height="13"/>
		</defs>
		<clipPath id="SVGID_108_">
			<use xlink:href="#SVGID_375_"  overflow="visible"/>
		</clipPath>
		<g clip-path="url(#SVGID_108_)">
			<defs>
				<rect id="SVGID_377_" x="-1119.5" y="-917" width="1121" height="1030"/>
			</defs>
			<clipPath id="SVGID_110_">
				<use xlink:href="#SVGID_377_"  overflow="visible"/>
			</clipPath>
		</g>
	</g>
	<g>
		<defs>
			<rect id="SVGID_379_" x="-720.5" y="-579" width="44" height="14"/>
		</defs>
		<clipPath id="SVGID_112_">
			<use xlink:href="#SVGID_379_"  overflow="visible"/>
		</clipPath>
		<g clip-path="url(#SVGID_112_)">
			<defs>
				<rect id="SVGID_381_" x="-1119.5" y="-917" width="1121" height="1030"/>
			</defs>
			<clipPath id="SVGID_114_">
				<use xlink:href="#SVGID_381_"  overflow="visible"/>
			</clipPath>
		</g>
	</g>
	<g>
		<defs>
			<rect id="SVGID_383_" x="-720.5" y="-568" width="44" height="14"/>
		</defs>
		<clipPath id="SVGID_116_">
			<use xlink:href="#SVGID_383_"  overflow="visible"/>
		</clipPath>
		<g clip-path="url(#SVGID_116_)">
			<defs>
				<rect id="SVGID_385_" x="-1119.5" y="-917" width="1121" height="1030"/>
			</defs>
			<clipPath id="SVGID_118_">
				<use xlink:href="#SVGID_385_"  overflow="visible"/>
			</clipPath>
		</g>
	</g>
	<g>
		<defs>
			<rect id="SVGID_387_" x="-720.5" y="-557" width="44" height="14"/>
		</defs>
		<clipPath id="SVGID_120_">
			<use xlink:href="#SVGID_387_"  overflow="visible"/>
		</clipPath>
		<g clip-path="url(#SVGID_120_)">
			<defs>
				<rect id="SVGID_389_" x="-1119.5" y="-917" width="1121" height="1030"/>
			</defs>
			<clipPath id="SVGID_122_">
				<use xlink:href="#SVGID_389_"  overflow="visible"/>
			</clipPath>
		</g>
	</g>
	<g>
		<defs>
			<rect id="SVGID_391_" x="-719.5" y="-627" width="3" height="13"/>
		</defs>
		<clipPath id="SVGID_124_">
			<use xlink:href="#SVGID_391_"  overflow="visible"/>
		</clipPath>
		<g clip-path="url(#SVGID_124_)">
			<defs>
				<rect id="SVGID_393_" x="-1119.5" y="-917" width="1121" height="1030"/>
			</defs>
			<clipPath id="SVGID_126_">
				<use xlink:href="#SVGID_393_"  overflow="visible"/>
			</clipPath>
		</g>
	</g>
	<g>
		<defs>
			<rect id="SVGID_395_" x="-714.5" y="-627" width="3" height="13"/>
		</defs>
		<clipPath id="SVGID_128_">
			<use xlink:href="#SVGID_395_"  overflow="visible"/>
		</clipPath>
		<g clip-path="url(#SVGID_128_)">
			<defs>
				<rect id="SVGID_397_" x="-1119.5" y="-917" width="1121" height="1030"/>
			</defs>
			<clipPath id="SVGID_130_">
				<use xlink:href="#SVGID_397_"  overflow="visible"/>
			</clipPath>
		</g>
	</g>
	<g>
		<defs>
			<rect id="SVGID_399_" x="-709.5" y="-627" width="3" height="13"/>
		</defs>
		<clipPath id="SVGID_132_">
			<use xlink:href="#SVGID_399_"  overflow="visible"/>
		</clipPath>
		<g clip-path="url(#SVGID_132_)">
			<defs>
				<rect id="SVGID_401_" x="-1119.5" y="-917" width="1121" height="1030"/>
			</defs>
			<clipPath id="SVGID_134_">
				<use xlink:href="#SVGID_401_"  overflow="visible"/>
			</clipPath>
		</g>
	</g>
	<g>
		<defs>
			<rect id="SVGID_403_" x="-704.5" y="-627" width="3" height="13"/>
		</defs>
		<clipPath id="SVGID_136_">
			<use xlink:href="#SVGID_403_"  overflow="visible"/>
		</clipPath>
		<g clip-path="url(#SVGID_136_)">
			<defs>
				<rect id="SVGID_405_" x="-1119.5" y="-917" width="1121" height="1030"/>
			</defs>
			<clipPath id="SVGID_138_">
				<use xlink:href="#SVGID_405_"  overflow="visible"/>
			</clipPath>
		</g>
	</g>
	<g>
		<defs>
			<rect id="SVGID_407_" x="-699.5" y="-627" width="3" height="13"/>
		</defs>
		<clipPath id="SVGID_140_">
			<use xlink:href="#SVGID_407_"  overflow="visible"/>
		</clipPath>
		<g clip-path="url(#SVGID_140_)">
			<defs>
				<rect id="SVGID_409_" x="-1119.5" y="-917" width="1121" height="1030"/>
			</defs>
			<clipPath id="SVGID_142_">
				<use xlink:href="#SVGID_409_"  overflow="visible"/>
			</clipPath>
		</g>
	</g>
	<g>
		<defs>
			<rect id="SVGID_411_" x="-699.5" y="-576" width="3" height="32"/>
		</defs>
		<clipPath id="SVGID_144_">
			<use xlink:href="#SVGID_411_"  overflow="visible"/>
		</clipPath>
		<g clip-path="url(#SVGID_144_)">
			<defs>
				<rect id="SVGID_413_" x="-1119.5" y="-917" width="1121" height="1030"/>
			</defs>
			<clipPath id="SVGID_146_">
				<use xlink:href="#SVGID_413_"  overflow="visible"/>
			</clipPath>
		</g>
	</g>
	<g>
		<defs>
			<rect id="SVGID_415_" x="-694.5" y="-627" width="3" height="13"/>
		</defs>
		<clipPath id="SVGID_148_">
			<use xlink:href="#SVGID_415_"  overflow="visible"/>
		</clipPath>
		<g clip-path="url(#SVGID_148_)">
			<defs>
				<rect id="SVGID_417_" x="-1119.5" y="-917" width="1121" height="1030"/>
			</defs>
			<clipPath id="SVGID_150_">
				<use xlink:href="#SVGID_417_"  overflow="visible"/>
			</clipPath>
		</g>
	</g>
	<g>
		<defs>
			<rect id="SVGID_419_" x="-689.5" y="-627" width="3" height="13"/>
		</defs>
		<clipPath id="SVGID_152_">
			<use xlink:href="#SVGID_419_"  overflow="visible"/>
		</clipPath>
		<g clip-path="url(#SVGID_152_)">
			<defs>
				<rect id="SVGID_421_" x="-1119.5" y="-917" width="1121" height="1030"/>
			</defs>
			<clipPath id="SVGID_154_">
				<use xlink:href="#SVGID_421_"  overflow="visible"/>
			</clipPath>
		</g>
	</g>
	<g>
		<defs>
			<rect id="SVGID_423_" x="-684.5" y="-627" width="3" height="13"/>
		</defs>
		<clipPath id="SVGID_156_">
			<use xlink:href="#SVGID_423_"  overflow="visible"/>
		</clipPath>
		<g clip-path="url(#SVGID_156_)">
			<defs>
				<rect id="SVGID_425_" x="-1119.5" y="-917" width="1121" height="1030"/>
			</defs>
			<clipPath id="SVGID_158_">
				<use xlink:href="#SVGID_425_"  overflow="visible"/>
			</clipPath>
		</g>
	</g>
	<g>
		<defs>
			<rect id="SVGID_427_" x="-679.5" y="-627" width="3" height="13"/>
		</defs>
		<clipPath id="SVGID_160_">
			<use xlink:href="#SVGID_427_"  overflow="visible"/>
		</clipPath>
		<g clip-path="url(#SVGID_160_)">
			<defs>
				<rect id="SVGID_429_" x="-1119.5" y="-917" width="1121" height="1030"/>
			</defs>
			<clipPath id="SVGID_162_">
				<use xlink:href="#SVGID_429_"  overflow="visible"/>
			</clipPath>
		</g>
	</g>
	<g>
		<defs>
			<path id="SVGID_431_" d="M-657.5-517.5c-16.3,0-29.5-13.2-29.5-29.5s13.2-29.5,29.5-29.5S-628-563.3-628-547
				S-641.2-517.5-657.5-517.5z M-657.5-514.5c17.9,0,32.5-14.6,32.5-32.5s-14.6-32.5-32.5-32.5S-690-564.9-690-547
				S-675.4-514.5-657.5-514.5z M-710-599.5h105v105h-105V-599.5z"/>
		</defs>
		<clipPath id="SVGID_164_">
			<use xlink:href="#SVGID_431_"  overflow="visible"/>
		</clipPath>
		<g clip-path="url(#SVGID_164_)">
			<defs>
				<circle id="SVGID_433_" cx="-657.5" cy="-547" r="31"/>
			</defs>
			<clipPath id="SVGID_166_">
				<use xlink:href="#SVGID_433_"  overflow="visible"/>
			</clipPath>
			<g clip-path="url(#SVGID_166_)">
				<defs>
					<rect id="SVGID_435_" x="-1119.5" y="-917" width="1121" height="1030"/>
				</defs>
				<clipPath id="SVGID_168_">
					<use xlink:href="#SVGID_435_"  overflow="visible"/>
				</clipPath>
			</g>
		</g>
	</g>
	<g>
		<defs>
			<circle id="SVGID_437_" cx="-657.5" cy="-547" r="31"/>
		</defs>
		<clipPath id="SVGID_170_">
			<use xlink:href="#SVGID_437_"  overflow="visible"/>
		</clipPath>
		<g clip-path="url(#SVGID_170_)">
			<defs>
				<rect id="SVGID_439_" x="-1119.5" y="-917" width="1121" height="1030"/>
			</defs>
			<clipPath id="SVGID_172_">
				<use xlink:href="#SVGID_439_"  overflow="visible"/>
			</clipPath>
		</g>
	</g>
	<g>
		<defs>
			<path id="SVGID_529_" d="M523.2-341.8c-21.5,0-38.9-17.4-38.9-38.9s17.4-38.9,38.9-38.9c21.5,0,38.9,17.4,38.9,38.9
				S544.7-341.8,523.2-341.8z M523.2-338.8c23.2,0,41.9-18.8,41.9-41.9s-18.8-41.9-41.9-41.9c-23.2,0-41.9,18.8-41.9,41.9
				S500.1-338.8,523.2-338.8z M461.3-442.7h123.9v123.9H461.3V-442.7z"/>
		</defs>
		<clipPath id="SVGID_174_">
			<use xlink:href="#SVGID_529_"  overflow="visible"/>
		</clipPath>
		<g clip-path="url(#SVGID_174_)">
			<defs>
				<circle id="SVGID_531_" cx="523.2" cy="-380.7" r="40.4"/>
			</defs>
			<clipPath id="SVGID_176_">
				<use xlink:href="#SVGID_531_"  overflow="visible"/>
			</clipPath>
			<g clip-path="url(#SVGID_176_)">
				<defs>
					<rect id="SVGID_533_" x="-110" y="-926" width="1121" height="1030"/>
				</defs>
				<clipPath id="SVGID_178_">
					<use xlink:href="#SVGID_533_"  overflow="visible"/>
				</clipPath>
			</g>
		</g>
	</g>
	<g>
		<defs>
			<circle id="SVGID_535_" cx="523.2" cy="-380.7" r="40.4"/>
		</defs>
		<clipPath id="SVGID_180_">
			<use xlink:href="#SVGID_535_"  overflow="visible"/>
		</clipPath>
		<g clip-path="url(#SVGID_180_)">
			<defs>
				<rect id="SVGID_537_" x="-110" y="-926" width="1121" height="1030"/>
			</defs>
			<clipPath id="SVGID_182_">
				<use xlink:href="#SVGID_537_"  overflow="visible"/>
			</clipPath>
		</g>
	</g>
	<g>
		<defs>
			<path id="SVGID_539_" d="M636.2-341.8c-21.5,0-38.9-17.4-38.9-38.9s17.4-38.9,38.9-38.9c21.5,0,38.9,17.4,38.9,38.9
				S657.7-341.8,636.2-341.8z M636.2-338.8c23.2,0,41.9-18.8,41.9-41.9s-18.8-41.9-41.9-41.9c-23.2,0-41.9,18.8-41.9,41.9
				S613.1-338.8,636.2-338.8z M574.3-442.7h123.9v123.9H574.3V-442.7z"/>
		</defs>
		<clipPath id="SVGID_184_">
			<use xlink:href="#SVGID_539_"  overflow="visible"/>
		</clipPath>
		<g clip-path="url(#SVGID_184_)">
			<defs>
				<circle id="SVGID_541_" cx="636.2" cy="-380.7" r="40.4"/>
			</defs>
			<clipPath id="SVGID_186_">
				<use xlink:href="#SVGID_541_"  overflow="visible"/>
			</clipPath>
			<g clip-path="url(#SVGID_186_)">
				<defs>
					<rect id="SVGID_543_" x="-110" y="-926" width="1121" height="1030"/>
				</defs>
				<clipPath id="SVGID_188_">
					<use xlink:href="#SVGID_543_"  overflow="visible"/>
				</clipPath>
			</g>
		</g>
	</g>
	<g>
		<defs>
			<circle id="SVGID_545_" cx="636.2" cy="-380.7" r="40.4"/>
		</defs>
		<clipPath id="SVGID_190_">
			<use xlink:href="#SVGID_545_"  overflow="visible"/>
		</clipPath>
		<g clip-path="url(#SVGID_190_)">
			<defs>
				<rect id="SVGID_547_" x="-110" y="-926" width="1121" height="1030"/>
			</defs>
			<clipPath id="SVGID_192_">
				<use xlink:href="#SVGID_547_"  overflow="visible"/>
			</clipPath>
		</g>
	</g>
	<g>
		<defs>
			<path id="SVGID_1037_" d="M-728.5,118.5c-27.1,0-49-21.9-49-49s21.9-49,49-49c27.1,0,49,21.9,49,49S-701.4,118.5-728.5,118.5z
				 M-728.5,121.5c28.7,0,52-23.3,52-52s-23.3-52-52-52s-52,23.3-52,52S-757.2,121.5-728.5,121.5z M-800.5-2.5h144v144h-144V-2.5z"
				/>
		</defs>
		<clipPath id="SVGID_194_">
			<use xlink:href="#SVGID_1037_"  overflow="visible"/>
		</clipPath>
		<g clip-path="url(#SVGID_194_)">
			<defs>
				<circle id="SVGID_1039_" cx="-728.5" cy="69.5" r="50.5"/>
			</defs>
			<clipPath id="SVGID_196_">
				<use xlink:href="#SVGID_1039_"  overflow="visible"/>
			</clipPath>
			<g clip-path="url(#SVGID_196_)">
				<defs>
					<rect id="SVGID_1041_" x="-903" y="-666.5" width="1121" height="1030"/>
				</defs>
				<clipPath id="SVGID_198_">
					<use xlink:href="#SVGID_1041_"  overflow="visible"/>
				</clipPath>
			</g>
		</g>
	</g>
	<g>
		<defs>
			<circle id="SVGID_1043_" cx="-728.5" cy="69.5" r="50.5"/>
		</defs>
		<clipPath id="SVGID_200_">
			<use xlink:href="#SVGID_1043_"  overflow="visible"/>
		</clipPath>
		<g clip-path="url(#SVGID_200_)">
			<defs>
				<rect id="SVGID_1045_" x="-903" y="-666.5" width="1121" height="1030"/>
			</defs>
			<clipPath id="SVGID_202_">
				<use xlink:href="#SVGID_1045_"  overflow="visible"/>
			</clipPath>
		</g>
	</g>
	<g>
		<defs>
			<circle id="SVGID_1047_" cx="-728.5" cy="69.5" r="43.5"/>
		</defs>
		<clipPath id="SVGID_204_">
			<use xlink:href="#SVGID_1047_"  overflow="visible"/>
		</clipPath>
		<g clip-path="url(#SVGID_204_)">
			<defs>
				<rect id="SVGID_1049_" x="-903" y="-666.5" width="1121" height="1030"/>
			</defs>
			<clipPath id="SVGID_206_">
				<use xlink:href="#SVGID_1049_"  overflow="visible"/>
			</clipPath>
		</g>
	</g>
	<g>
		<defs>
			<path id="SVGID_1051_" d="M-248.5,118.5c-27.1,0-49-21.9-49-49s21.9-49,49-49c27.1,0,49,21.9,49,49S-221.4,118.5-248.5,118.5z"/>
		</defs>
		<use xlink:href="#SVGID_1051_"  overflow="visible" fill-rule="evenodd" clip-rule="evenodd" fill="#FFFFFF"/>
		<clipPath id="SVGID_208_">
			<use xlink:href="#SVGID_1051_"  overflow="visible"/>
		</clipPath>
		<g clip-path="url(#SVGID_208_)">
			<defs>
				<circle id="SVGID_1053_" cx="-248.5" cy="69.5" r="50.5"/>
			</defs>
			<use xlink:href="#SVGID_1053_"  overflow="visible" fill-rule="evenodd" clip-rule="evenodd" fill="#FFFFFF"/>
			<clipPath id="SVGID_210_">
				<use xlink:href="#SVGID_1053_"  overflow="visible"/>
			</clipPath>
			<g clip-path="url(#SVGID_210_)">
				<defs>
					<rect id="SVGID_1055_" x="-423" y="-666.5" width="1121" height="1030"/>
				</defs>
				<use xlink:href="#SVGID_1055_"  overflow="visible" fill="#FFFFFF"/>
				<clipPath id="SVGID_212_">
					<use xlink:href="#SVGID_1055_"  overflow="visible"/>
				</clipPath>
			</g>
		</g>
	</g>
	<g>
		<defs>
			<circle id="SVGID_1057_" cx="-248.5" cy="69.5" r="50.5"/>
		</defs>
		<use xlink:href="#SVGID_1057_"  overflow="visible" fill-rule="evenodd" clip-rule="evenodd" fill="#FFFFFF"/>
		<clipPath id="SVGID_214_">
			<use xlink:href="#SVGID_1057_"  overflow="visible"/>
		</clipPath>
		<g clip-path="url(#SVGID_214_)">
			<defs>
				<rect id="SVGID_1059_" x="-423" y="-666.5" width="1121" height="1030"/>
			</defs>
			<use xlink:href="#SVGID_1059_"  overflow="visible" fill="#FFFFFF"/>
			<clipPath id="SVGID_216_">
				<use xlink:href="#SVGID_1059_"  overflow="visible"/>
			</clipPath>
		</g>
	</g>
	<g>
		<defs>
			<circle id="SVGID_1061_" cx="-248.5" cy="69.5" r="43.5"/>
		</defs>
		<use xlink:href="#SVGID_1061_"  overflow="visible" fill-rule="evenodd" clip-rule="evenodd" fill="#FFFFFF"/>
		<clipPath id="SVGID_218_">
			<use xlink:href="#SVGID_1061_"  overflow="visible"/>
		</clipPath>
		<g clip-path="url(#SVGID_218_)">
			<defs>
				<rect id="SVGID_1063_" x="-423" y="-666.5" width="1121" height="1030"/>
			</defs>
			<use xlink:href="#SVGID_1063_"  overflow="visible" fill="#FFFFFF"/>
			<clipPath id="SVGID_220_">
				<use xlink:href="#SVGID_1063_"  overflow="visible"/>
			</clipPath>
		</g>
	</g>
	<g>
		<defs>
			<path id="SVGID_1065_" d="M-408.5,279.1c-24.6,0-44.6-20-44.6-44.6s20-44.6,44.6-44.6c24.6,0,44.6,20,44.6,44.6
				S-383.8,279.1-408.5,279.1z M-408.5,281.8c26.1,0,47.3-21.2,47.3-47.3s-21.2-47.3-47.3-47.3s-47.3,21.2-47.3,47.3
				S-434.6,281.8-408.5,281.8z"/>
		</defs>
		<clipPath id="SVGID_222_">
			<use xlink:href="#SVGID_1065_"  overflow="visible"/>
		</clipPath>
		<g clip-path="url(#SVGID_222_)">
			<defs>
				<circle id="SVGID_1067_" cx="-408.5" cy="234.5" r="45.9"/>
			</defs>
			<clipPath id="SVGID_224_">
				<use xlink:href="#SVGID_1067_"  overflow="visible"/>
			</clipPath>
			<g clip-path="url(#SVGID_224_)">
				<defs>
					<rect id="SVGID_1069_" x="-567.2" y="-435.1" width="1019.8" height="937"/>
				</defs>
				<clipPath id="SVGID_226_">
					<use xlink:href="#SVGID_1069_"  overflow="visible"/>
				</clipPath>
			</g>
		</g>
	</g>
	<g>
		<defs>
			<circle id="SVGID_1071_" cx="-408.5" cy="234.5" r="45.9"/>
		</defs>
		<use xlink:href="#SVGID_1071_"  overflow="visible" fill-rule="evenodd" clip-rule="evenodd" fill="#FFFFFF"/>
		<clipPath id="SVGID_228_">
			<use xlink:href="#SVGID_1071_"  overflow="visible"/>
		</clipPath>
		<g clip-path="url(#SVGID_228_)">
			<defs>
				<rect id="SVGID_1073_" x="-567.2" y="-435.1" width="1019.8" height="937"/>
			</defs>
			<clipPath id="SVGID_230_">
				<use xlink:href="#SVGID_1073_"  overflow="visible"/>
			</clipPath>
		</g>
	</g>
	<g>
		<defs>
			<circle id="SVGID_1075_" cx="-408.5" cy="234.5" r="39.6"/>
		</defs>
		<clipPath id="SVGID_232_">
			<use xlink:href="#SVGID_1075_"  overflow="visible"/>
		</clipPath>
		<g clip-path="url(#SVGID_232_)">
			<defs>
				<rect id="SVGID_1077_" x="-567.2" y="-435.1" width="1019.8" height="937"/>
			</defs>
			<clipPath id="SVGID_234_">
				<use xlink:href="#SVGID_1077_"  overflow="visible"/>
			</clipPath>
		</g>
	</g>
	<g>
		
			<rect x="26" y="30.5" fill="#FFFFFF" stroke="#0D202E" stroke-width="3" stroke-linecap="round" stroke-miterlimit="10" width="91" height="85.5"/>
		
			<line fill="none" stroke="#0D202E" stroke-width="3" stroke-linecap="round" stroke-miterlimit="10" x1="26" y1="45" x2="117.1" y2="45"/>
	</g>
	<g>
		
			<rect x="32.5" y="52.1" fill="none" stroke="#0D202E" stroke-width="3" stroke-linecap="round" stroke-miterlimit="10" width="14.3" height="14.3"/>
		
			<rect x="53.8" y="52.1" fill="none" stroke="#0D202E" stroke-width="3" stroke-linecap="round" stroke-miterlimit="10" width="14.3" height="14.3"/>
		
			<rect x="75" y="52.1" fill="none" stroke="#0D202E" stroke-width="3" stroke-linecap="round" stroke-miterlimit="10" width="14.3" height="14.3"/>
		
			<rect x="96.3" y="52.1" fill="none" stroke="#0D202E" stroke-width="3" stroke-linecap="round" stroke-miterlimit="10" width="14.3" height="14.3"/>
		
			<rect x="32.5" y="72.6" stroke="#0D202E" stroke-width="3" stroke-linecap="round" stroke-miterlimit="10" width="14.3" height="14.3"/>
		
			<rect x="53.8" y="72.6" fill="#0D202E" stroke="#0D202E" stroke-width="3" stroke-linecap="round" stroke-miterlimit="10" width="14.3" height="14.3"/>
		
			<rect x="75" y="72.6" fill="none" stroke="#0D202E" stroke-width="3" stroke-linecap="round" stroke-miterlimit="10" width="14.3" height="14.3"/>
		
			<rect x="96.3" y="72.6" fill="none" stroke="#0D202E" stroke-width="3" stroke-linecap="round" stroke-miterlimit="10" width="14.3" height="14.3"/>
		
			<rect x="32.5" y="93.1" fill="none" stroke="#0D202E" stroke-width="3" stroke-linecap="round" stroke-miterlimit="10" width="14.3" height="14.3"/>
		
			<rect x="53.8" y="93.1" fill="none" stroke="#0D202E" stroke-width="3" stroke-linecap="round" stroke-miterlimit="10" width="14.3" height="14.3"/>
		
			<rect x="75" y="93.1" fill="none" stroke="#0D202E" stroke-width="3" stroke-linecap="round" stroke-miterlimit="10" width="14.3" height="14.3"/>
	</g>
	
		<rect x="48.3" y="19" fill="#FFFFFF" stroke="#0D202E" stroke-width="3" stroke-linecap="round" stroke-miterlimit="10" width="5.9" height="18.8"/>
	
		<rect x="90.3" y="19" fill="#FFFFFF" stroke="#0D202E" stroke-width="3" stroke-linecap="round" stroke-miterlimit="10" width="5.9" height="18.8"/>
</g>
<g id="Layer_2">
</g>
</svg>
