<svg xmlns="http://www.w3.org/2000/svg" viewBox="0 0 136.8 136.8"><defs><style>.cls-1{fill:#091f2f;}.cls-2{fill:#fb4d42;}</style></defs><title>Asset 1</title><g id="Layer_2" data-name="Layer 2"><g id="Layer_1-2" data-name="Layer 1"><rect class="cls-1" width="136.8" height="136.8"/><path class="cls-2" d="M29,106.29a11.1,11.1,0,0,1-10.81-11V94h9.56V30.74h92.47l-.14,64.8a10.88,10.88,0,0,1-11,10.71ZM20.8,96.5A8.59,8.59,0,0,0,29,103.8l72.89,0a10.72,10.72,0,0,1-3.8-7.23ZM30.26,94l70.3,0v1.25a8.22,8.22,0,0,0,8.52,8.48,8.38,8.38,0,0,0,8.52-8.22l.14-62.3H30.26Z"/><rect class="cls-2" x="69.35" y="42.34" width="39.1" height="2.5"/><rect class="cls-2" x="69.35" y="52.32" width="39.1" height="2.5"/><rect class="cls-2" x="69.35" y="62.3" width="39.1" height="2.5"/><rect class="cls-2" x="69.35" y="72.28" width="39.1" height="2.5"/><rect class="cls-2" x="69.35" y="82.27" width="39.1" height="2.5"/><rect class="cls-2" x="47.03" y="51.54" width="1.83" height="13.12" transform="translate(55.13 -16.89) rotate(45)"/><rect class="cls-2" x="51.34" y="48.39" width="4.34" height="7.26" transform="translate(-21.11 53.07) rotate(-45)"/><rect class="cls-2" x="48.21" y="48.33" width="4.34" height="1.03" transform="translate(-19.78 49.93) rotate(-45)"/><rect class="cls-2" x="54.47" y="54.65" width="4.34" height="1.03" transform="translate(-22.42 56.21) rotate(-45)"/><path class="cls-2" d="M49.41,70.36A14.28,14.28,0,1,1,63.69,56.08,14.3,14.3,0,0,1,49.41,70.36Zm0-26.06A11.78,11.78,0,1,0,61.19,56.08,11.8,11.8,0,0,0,49.41,44.3Z"/></g></g></svg>