<svg xmlns="http://www.w3.org/2000/svg" viewBox="0 0 200 200"><path fill="#0C1F2E" d="M.5 0h200v199.7H.5z"/><path fill="none" stroke="#4286C6" stroke-width="3" stroke-miterlimit="10" d="M47.2 65h106.7v80.3H47.2zM48 75.5h106"/><path fill="none" stroke="#4286C6" stroke-width="3" stroke-miterlimit="10" d="M54.8 83.3h12.7V96H54.8zM73.8 83.3h12.7V96H73.8zM92.8 83.3h12.7V96H92.8zM111.8 83.3h12.7V96h-12.7zM130.8 83.3h12.7V96h-12.7zM54.8 102.8h12.7v12.7H54.8zM73.8 102.8h12.7v12.7H73.8zM92.8 102.8h12.7v12.7H92.8zM111.8 102.8h12.7v12.7h-12.7zM130.8 102.8h12.7v12.7h-12.7zM54.8 122.2h12.7v12.7H54.8zM73.8 122.2h12.7v12.7H73.8zM92.8 122.2h12.7v12.7H92.8zM111.8 122.2h12.7v12.7h-12.7z"/><path fill="#4286C6" d="M129.8 120.9H145v15.5h-15.2zM47.2 65h106.3v10.5H47.2z"/></svg>
