<svg width="190" height="190" viewBox="0 0 190 190" xmlns="http://www.w3.org/2000/svg" xmlns:xlink="http://www.w3.org/1999/xlink">
  <title>
    News
  </title>
  <defs>
    <path id="a" d="M47 49h105v80H47z"/>
    <mask id="d" x="0" y="0" width="105" height="80" fill="#fff">
      <use xlink:href="#a"/>
    </mask>
    <path id="b" d="M40 56h105v80H40z"/>
    <mask id="e" x="0" y="0" width="105" height="80" fill="#fff">
      <use xlink:href="#b"/>
    </mask>
    <path id="c" d="M52 68h80v28H52z"/>
    <mask id="f" x="0" y="0" width="80" height="28" fill="#fff">
      <use xlink:href="#c"/>
    </mask>
    <path d="M34.6.5c-2 0-3.3 1-3.3 2.5 0 3 4.4 2.1 4.4 3.6 0 .5-.4.7-1.1.7-.9 0-2.2-.5-3-1.3l-.8 1.6c1 .8 2.4 1.3 3.8 1.3 1.9 0 3.4-.9 3.4-2.6 0-3-4.4-2.2-4.4-3.7 0-.4.4-.6.9-.6.7 0 1.8.4 2.7.9l.8-1.7c-1-.3-2.2-.7-3.4-.7zM27.8 9L30.6.6h-2.2l-1.6 6.2L25.2.6H23l-1.6 6.2L19.8.6h-2.3L20.2 9h2.2L24 3.2 25.6 9h2.2zm-11-6.7V.6h-6.6V9H17V7.3h-4.6V5.6h4V3.9h-4V2.2h4.4v.1zM8.6 9V.6h-2v5.2L2.7.6H.8V9h2V3.8L6.7 9h1.9z" id="g"/>
    <path id="i" d="M0 0h190v190H0z"/>
  </defs>
  <g fill="none" fill-rule="evenodd">
    <path fill="#0D202E" d="M0 0h190v190H0z"/>
    <use stroke="#4286C6" mask="url(#d)" stroke-width="6" xlink:href="#a"/>
    <use stroke="#4286C6" mask="url(#e)" stroke-width="6" fill="#0D202E" xlink:href="#b"/>
    <use stroke="#4286C6" mask="url(#f)" stroke-width="6" xlink:href="#c"/>
    <path d="M53.5 104.5h77m-77 8h77m-77 8h77" stroke="#4286C6" stroke-width="3" stroke-linecap="square"/>
    <g transform="translate(73 77)">
      <mask id="h" fill="#fff">
        <use xlink:href="#g"/>
      </mask>
      <g transform="translate(-73 -78)" mask="url(#h)">
        <mask id="j" fill="#fff">
          <use xlink:href="#i"/>
        </mask>
        <path fill="#4286C6" mask="url(#j)" d="M68.8 73.5h47.1v18.6H68.8z"/>
      </g>
    </g>
  </g>
</svg>
